<svg width="320" height="320" viewBox="0 0 320 320" fill="none" xmlns="http://www.w3.org/2000/svg">
<mask id="path-1-inside-1_23_60" fill="white">
<path d="M84.1385 1.27341C73.8445 4.98098 67.8054 13.3573 67.6681 23.9308C67.6681 31.7579 70.6877 37.9372 77.2759 42.8806C81.5307 46.1762 83.5895 46.7255 91.413 46.7255C99.2364 46.7255 101.295 46.1762 105.55 42.8806C108.158 40.8209 111.177 36.976 112.138 34.3669L113.923 29.5608H125.315C135.746 29.5608 137.118 29.8354 140.138 32.9938C143.432 36.2894 143.569 36.8386 143.569 58.3975V80.3683H118.589C91.0012 80.3683 88.6679 81.0549 83.0405 89.4313C80.7072 93.0015 80.4327 96.2971 80.4327 118.405V143.534H58.4721C36.9233 143.534 36.3743 143.397 33.0802 140.101C29.9234 137.08 29.6489 135.707 29.6489 125.271V113.874L34.4528 112.089C43.786 108.793 49.1389 97.121 46.9428 85.3117C45.7075 78.4459 37.3351 70.0695 30.0606 68.147C13.7275 63.7529 -3.70372 80.3683 0.688392 96.2971C2.60994 103.3 8.23733 110.166 13.7275 112.089L18.3941 113.736L18.9431 127.056C19.3549 139.003 19.7666 140.788 23.0607 145.182C29.2371 153.284 35.2763 154.794 59.5701 154.245L80.4327 153.833V165.505H58.7466C38.9821 165.505 36.5116 165.78 31.0214 168.526C21.2764 173.607 19.4921 177.177 18.9431 193.106C18.3941 205.465 18.1196 206.7 15.7863 206.7C11.8059 206.7 2.60994 216.725 0.825646 223.041C-3.56647 239.519 13.3157 256.409 29.6489 252.015C36.7861 250.093 44.1978 243.639 46.2566 237.322C50.0997 225.513 44.4723 211.507 34.4528 207.936L29.6489 206.151V194.754C29.6489 184.318 29.9234 182.944 33.0802 179.924C36.3743 176.628 36.9233 176.491 58.4721 176.491H80.4327V201.482C80.4327 229.083 81.119 231.418 89.4914 237.048C93.06 239.382 96.3541 239.657 118.589 239.657H143.569V261.627C143.569 283.186 143.432 283.736 140.138 287.031C137.118 290.189 135.746 290.464 125.315 290.464H113.923L112.275 285.795C107.609 272.887 87.4326 268.356 76.3151 277.694C70.4132 282.5 67.6681 288.679 67.6681 296.094C67.9426 315.044 88.5306 326.167 104.178 315.868C108.57 312.984 113.374 306.668 113.374 303.784C113.374 302.136 115.981 301.587 126.962 301.175C142.883 300.626 146.452 298.84 151.53 289.091C154.275 283.598 154.55 281.127 154.55 261.353V239.657H166.216L165.804 260.529C165.255 284.834 166.765 290.876 174.863 297.055C179.255 300.351 181.04 300.763 193.255 301.175C205.471 301.724 206.706 301.999 206.706 304.333C206.706 308.315 216.725 317.516 223.039 319.301C238.823 323.558 255.705 307.629 252.137 291.837C250.49 284.697 248.431 281.401 242.804 277.144C238.549 273.849 236.49 273.299 228.666 273.299C220.843 273.299 218.784 273.849 214.529 277.144C211.922 279.204 208.902 283.049 207.941 285.658L206.157 290.464H194.765C184.334 290.464 182.961 290.189 179.941 287.031C176.647 283.736 176.51 283.186 176.51 261.627V239.657H201.628C223.725 239.657 227.019 239.382 230.588 237.048C238.96 231.418 239.647 229.083 239.647 201.482V176.491H261.607C283.156 176.491 283.705 176.628 286.999 179.924C290.156 182.944 290.431 184.318 290.431 194.754V206.151L285.764 207.799C272.862 212.468 268.333 232.653 277.666 243.776C286.999 255.036 302.234 255.723 312.528 245.287C322.411 235.537 322.273 222.08 312.117 211.918C309.234 209.035 305.666 206.7 304.293 206.7C301.96 206.7 301.685 205.465 301.136 193.243C300.725 181.022 300.313 179.237 297.019 174.843C290.842 166.741 284.803 165.231 260.509 165.78L239.647 166.192V154.52H261.333C281.097 154.52 283.568 154.245 289.058 151.361C298.803 146.418 300.587 142.848 301.136 126.919C301.685 114.56 301.96 113.325 304.293 113.325C308.274 113.325 317.469 103.3 319.254 96.9837C323.783 80.231 306.901 63.6156 290.019 68.147C283.293 69.9322 275.882 76.5234 273.823 82.7027C271.627 89.2939 272.862 99.7301 276.568 104.811C278.215 107.145 281.921 110.166 284.94 111.539L290.293 114.011L290.431 125.408C290.431 135.707 290.156 137.08 286.999 140.101C283.705 143.397 283.156 143.534 261.607 143.534H239.647V118.405C239.647 96.2971 239.372 93.0015 237.039 89.4313C231.412 81.0549 229.078 80.3683 201.628 80.3683H176.51V58.3975C176.51 36.8386 176.647 36.2894 179.941 32.9938C182.961 29.8354 184.334 29.5608 194.628 29.5608L206.02 29.6981L208.902 35.4655C215.765 49.6092 236.49 51.6689 246.921 39.3104C258.313 25.7159 251.588 5.39293 234.157 0.724135C226.333 -1.33563 218.784 0.998771 212.059 7.72733C209.176 10.611 206.706 14.3186 206.706 15.6917C206.706 18.0261 205.471 18.3008 193.118 18.85C177.196 19.3993 173.628 21.1844 168.687 30.934C165.804 36.4267 165.53 38.8984 165.53 58.6721V80.3683H153.863L154.275 59.496C154.824 35.1908 153.314 29.1489 145.216 22.9696C140.824 19.674 139.04 19.262 126.824 18.85C115.981 18.4381 113.374 17.8888 113.374 16.241C113.374 13.0827 108.295 6.76611 103.354 3.74512C97.1776 -0.0997696 90.3149 -0.923675 84.1385 1.27341ZM100.746 15.2798C105.138 20.3605 104.864 28.5996 100.197 32.9938C91.962 40.6835 78.3739 35.1908 78.3739 24.3427C78.3739 11.9842 92.6482 6.07952 100.746 15.2798ZM237.862 14.5932C244.451 20.9098 242.804 31.0713 234.568 35.1908C225.921 39.585 216.314 33.955 216.314 24.4801C216.314 12.1215 228.941 6.35415 237.862 14.5932ZM33.492 82.5654C37.7468 87.5088 37.6096 95.8852 33.0802 100.279C28.5509 104.948 20.3156 104.948 14.9628 100.417C11.9432 97.8076 11.1197 95.8852 11.1197 91.6283C11.1197 79.2698 25.394 73.3651 33.492 82.5654ZM305.528 82.4281C310.47 87.3715 310.195 96.0225 305.117 100.417C293.999 109.892 278.352 98.3569 284.803 85.4491C289.058 77.0727 298.666 75.6995 305.528 82.4281ZM227.019 93.0015C229.353 95.3359 229.353 224.689 227.019 227.023C225.784 228.259 209.039 228.671 159.765 228.671C96.3541 228.671 94.158 228.534 92.7855 226.062C91.962 224.277 91.413 201.07 91.413 160.012C91.413 118.955 91.962 95.7479 92.7855 93.9627C94.158 91.491 96.3541 91.3537 159.765 91.3537C209.039 91.3537 225.784 91.7657 227.019 93.0015ZM84.8248 152.185C84.5503 152.872 83.315 152.46 82.0797 151.224C80.2954 149.439 80.2954 148.89 81.9425 146.83C83.7268 144.77 83.864 144.77 84.6875 147.791C85.0993 149.576 85.2366 151.636 84.8248 152.185ZM238.686 150.538C236.49 152.735 234.294 150.95 235.117 147.517C235.804 144.908 236.078 144.908 238 146.83C239.647 148.478 239.784 149.439 238.686 150.538ZM84.5503 171.959C84.5503 175.392 84.413 175.529 82.3542 173.47C81.119 172.234 80.5699 170.586 80.9817 169.762C82.766 167.016 84.5503 168.252 84.5503 171.959ZM239.098 169.762C239.509 170.586 238.96 172.234 237.725 173.47C235.666 175.529 235.529 175.392 235.529 171.959C235.529 168.252 237.313 167.016 239.098 169.762ZM33.0802 219.746C37.7468 224.277 37.7468 232.516 33.2175 237.872C28.6881 243.227 20.1784 243.227 14.9628 237.872C9.60987 232.653 9.60987 224.14 14.9628 219.608C20.3156 215.077 28.5509 215.077 33.0802 219.746ZM305.117 219.608C310.47 224.14 310.47 232.653 305.117 237.872C299.901 243.227 291.391 243.227 286.862 237.872C282.333 232.516 282.333 224.277 286.999 219.746C291.529 215.077 299.764 215.077 305.117 219.608ZM172.667 238.558C171.157 240.069 168.275 238.97 168.275 236.91C168.275 235.262 172.942 234.439 173.628 235.949C173.902 236.636 173.491 237.734 172.667 238.558ZM100.334 287.168C105.001 291.425 105.138 299.802 100.472 305.157C97.8639 308.178 96.0796 309.002 91.6875 309.002C77.5504 309.002 73.021 291.151 85.5111 284.834C91.0012 282.088 95.6678 282.912 100.334 287.168ZM237.862 286.894C243.215 291.425 243.215 299.939 237.862 305.157C232.647 310.512 224.137 310.512 219.608 305.157C215.078 299.802 215.078 291.563 219.745 287.031C224.274 282.362 232.51 282.362 237.862 286.894Z"/>
<path d="M137.256 125.408C136.432 125.958 134.511 128.841 132.864 131.862C128.883 139.827 113.099 189.673 113.648 192.557C113.923 194.342 115.295 195.028 118.178 195.028C122.021 195.028 122.432 194.479 125.04 186.515L127.785 177.864H152.903L154.55 185.004C156.471 193.381 157.981 195.715 161.412 195.715C166.354 195.715 167.452 192.145 165.256 184.18C163.883 178.962 163.746 176.353 164.707 174.568C165.942 172.646 165.667 171.684 163.334 169.899C161.55 168.389 158.393 160.974 154.824 149.576C147.687 127.194 143.432 121.289 137.256 125.408ZM143.57 135.158L146.452 139.277L140.962 139.003L135.609 138.866L137.53 135.021C138.628 132.961 139.726 131.176 140.138 131.176C140.413 131.176 141.922 132.961 143.57 135.158ZM144.53 152.872C146.315 158.639 148.099 164.407 148.511 165.505C149.06 167.153 147.55 167.565 140.138 167.565C134.785 167.565 131.491 167.016 131.766 166.192C132.177 165.368 134.099 159.463 136.158 152.735C138.217 146.143 140.275 141.063 140.55 141.475C140.962 141.887 142.746 146.967 144.53 152.872ZM158.667 173.882C158.667 175.667 155.648 175.255 152.628 173.058C150.432 171.41 150.295 170.723 151.942 168.801C153.589 166.741 154.001 166.878 156.197 169.625C157.569 171.272 158.667 173.195 158.667 173.882ZM129.432 170.449C129.707 171.135 128.609 172.508 127.236 173.332C125.04 174.705 124.629 174.568 125.04 172.646C125.315 171.41 125.589 169.762 125.589 169.213C125.727 167.702 128.883 168.663 129.432 170.449Z"/>
<path d="M173.628 125.683C171.02 126.37 170.334 127.468 170.334 130.489C170.334 134.471 170.608 134.609 177.608 135.021L184.746 135.433L184.608 145.319C184.471 150.812 184.059 161.935 183.51 170.174L182.687 185.279H176.51C170.608 185.416 170.334 185.553 169.922 189.81C169.373 195.44 171.02 195.99 190.922 195.44L206.02 195.028L206.432 191.321C206.981 186.652 202.863 184.18 196.824 185.416L192.569 186.377L193.392 181.159C193.942 178.138 194.353 166.741 194.353 155.618V135.433L200.255 135.021C205.471 134.609 206.02 134.197 206.432 130.901C206.843 127.743 206.157 126.782 203.137 125.683C199.294 124.172 179.804 124.31 173.628 125.683ZM192.981 131.038C192.981 131.725 192.157 132.961 191.059 133.785C189.412 135.158 188.726 135.021 187.628 132.961C186.53 130.764 186.804 130.352 189.687 130.077C191.471 129.94 192.981 130.352 192.981 131.038Z"/>
</mask>
<path d="M84.1385 1.27341C73.8445 4.98098 67.8054 13.3573 67.6681 23.9308C67.6681 31.7579 70.6877 37.9372 77.2759 42.8806C81.5307 46.1762 83.5895 46.7255 91.413 46.7255C99.2364 46.7255 101.295 46.1762 105.55 42.8806C108.158 40.8209 111.177 36.976 112.138 34.3669L113.923 29.5608H125.315C135.746 29.5608 137.118 29.8354 140.138 32.9938C143.432 36.2894 143.569 36.8386 143.569 58.3975V80.3683H118.589C91.0012 80.3683 88.6679 81.0549 83.0405 89.4313C80.7072 93.0015 80.4327 96.2971 80.4327 118.405V143.534H58.4721C36.9233 143.534 36.3743 143.397 33.0802 140.101C29.9234 137.08 29.6489 135.707 29.6489 125.271V113.874L34.4528 112.089C43.786 108.793 49.1389 97.121 46.9428 85.3117C45.7075 78.4459 37.3351 70.0695 30.0606 68.147C13.7275 63.7529 -3.70372 80.3683 0.688392 96.2971C2.60994 103.3 8.23733 110.166 13.7275 112.089L18.3941 113.736L18.9431 127.056C19.3549 139.003 19.7666 140.788 23.0607 145.182C29.2371 153.284 35.2763 154.794 59.5701 154.245L80.4327 153.833V165.505H58.7466C38.9821 165.505 36.5116 165.78 31.0214 168.526C21.2764 173.607 19.4921 177.177 18.9431 193.106C18.3941 205.465 18.1196 206.7 15.7863 206.7C11.8059 206.7 2.60994 216.725 0.825646 223.041C-3.56647 239.519 13.3157 256.409 29.6489 252.015C36.7861 250.093 44.1978 243.639 46.2566 237.322C50.0997 225.513 44.4723 211.507 34.4528 207.936L29.6489 206.151V194.754C29.6489 184.318 29.9234 182.944 33.0802 179.924C36.3743 176.628 36.9233 176.491 58.4721 176.491H80.4327V201.482C80.4327 229.083 81.119 231.418 89.4914 237.048C93.06 239.382 96.3541 239.657 118.589 239.657H143.569V261.627C143.569 283.186 143.432 283.736 140.138 287.031C137.118 290.189 135.746 290.464 125.315 290.464H113.923L112.275 285.795C107.609 272.887 87.4326 268.356 76.3151 277.694C70.4132 282.5 67.6681 288.679 67.6681 296.094C67.9426 315.044 88.5306 326.167 104.178 315.868C108.57 312.984 113.374 306.668 113.374 303.784C113.374 302.136 115.981 301.587 126.962 301.175C142.883 300.626 146.452 298.84 151.53 289.091C154.275 283.598 154.55 281.127 154.55 261.353V239.657H166.216L165.804 260.529C165.255 284.834 166.765 290.876 174.863 297.055C179.255 300.351 181.04 300.763 193.255 301.175C205.471 301.724 206.706 301.999 206.706 304.333C206.706 308.315 216.725 317.516 223.039 319.301C238.823 323.558 255.705 307.629 252.137 291.837C250.49 284.697 248.431 281.401 242.804 277.144C238.549 273.849 236.49 273.299 228.666 273.299C220.843 273.299 218.784 273.849 214.529 277.144C211.922 279.204 208.902 283.049 207.941 285.658L206.157 290.464H194.765C184.334 290.464 182.961 290.189 179.941 287.031C176.647 283.736 176.51 283.186 176.51 261.627V239.657H201.628C223.725 239.657 227.019 239.382 230.588 237.048C238.96 231.418 239.647 229.083 239.647 201.482V176.491H261.607C283.156 176.491 283.705 176.628 286.999 179.924C290.156 182.944 290.431 184.318 290.431 194.754V206.151L285.764 207.799C272.862 212.468 268.333 232.653 277.666 243.776C286.999 255.036 302.234 255.723 312.528 245.287C322.411 235.537 322.273 222.08 312.117 211.918C309.234 209.035 305.666 206.7 304.293 206.7C301.96 206.7 301.685 205.465 301.136 193.243C300.725 181.022 300.313 179.237 297.019 174.843C290.842 166.741 284.803 165.231 260.509 165.78L239.647 166.192V154.52H261.333C281.097 154.52 283.568 154.245 289.058 151.361C298.803 146.418 300.587 142.848 301.136 126.919C301.685 114.56 301.96 113.325 304.293 113.325C308.274 113.325 317.469 103.3 319.254 96.9837C323.783 80.231 306.901 63.6156 290.019 68.147C283.293 69.9322 275.882 76.5234 273.823 82.7027C271.627 89.2939 272.862 99.7301 276.568 104.811C278.215 107.145 281.921 110.166 284.94 111.539L290.293 114.011L290.431 125.408C290.431 135.707 290.156 137.08 286.999 140.101C283.705 143.397 283.156 143.534 261.607 143.534H239.647V118.405C239.647 96.2971 239.372 93.0015 237.039 89.4313C231.412 81.0549 229.078 80.3683 201.628 80.3683H176.51V58.3975C176.51 36.8386 176.647 36.2894 179.941 32.9938C182.961 29.8354 184.334 29.5608 194.628 29.5608L206.02 29.6981L208.902 35.4655C215.765 49.6092 236.49 51.6689 246.921 39.3104C258.313 25.7159 251.588 5.39293 234.157 0.724135C226.333 -1.33563 218.784 0.998771 212.059 7.72733C209.176 10.611 206.706 14.3186 206.706 15.6917C206.706 18.0261 205.471 18.3008 193.118 18.85C177.196 19.3993 173.628 21.1844 168.687 30.934C165.804 36.4267 165.53 38.8984 165.53 58.6721V80.3683H153.863L154.275 59.496C154.824 35.1908 153.314 29.1489 145.216 22.9696C140.824 19.674 139.04 19.262 126.824 18.85C115.981 18.4381 113.374 17.8888 113.374 16.241C113.374 13.0827 108.295 6.76611 103.354 3.74512C97.1776 -0.0997696 90.3149 -0.923675 84.1385 1.27341ZM100.746 15.2798C105.138 20.3605 104.864 28.5996 100.197 32.9938C91.962 40.6835 78.3739 35.1908 78.3739 24.3427C78.3739 11.9842 92.6482 6.07952 100.746 15.2798ZM237.862 14.5932C244.451 20.9098 242.804 31.0713 234.568 35.1908C225.921 39.585 216.314 33.955 216.314 24.4801C216.314 12.1215 228.941 6.35415 237.862 14.5932ZM33.492 82.5654C37.7468 87.5088 37.6096 95.8852 33.0802 100.279C28.5509 104.948 20.3156 104.948 14.9628 100.417C11.9432 97.8076 11.1197 95.8852 11.1197 91.6283C11.1197 79.2698 25.394 73.3651 33.492 82.5654ZM305.528 82.4281C310.47 87.3715 310.195 96.0225 305.117 100.417C293.999 109.892 278.352 98.3569 284.803 85.4491C289.058 77.0727 298.666 75.6995 305.528 82.4281ZM227.019 93.0015C229.353 95.3359 229.353 224.689 227.019 227.023C225.784 228.259 209.039 228.671 159.765 228.671C96.3541 228.671 94.158 228.534 92.7855 226.062C91.962 224.277 91.413 201.07 91.413 160.012C91.413 118.955 91.962 95.7479 92.7855 93.9627C94.158 91.491 96.3541 91.3537 159.765 91.3537C209.039 91.3537 225.784 91.7657 227.019 93.0015ZM84.8248 152.185C84.5503 152.872 83.315 152.46 82.0797 151.224C80.2954 149.439 80.2954 148.89 81.9425 146.83C83.7268 144.77 83.864 144.77 84.6875 147.791C85.0993 149.576 85.2366 151.636 84.8248 152.185ZM238.686 150.538C236.49 152.735 234.294 150.95 235.117 147.517C235.804 144.908 236.078 144.908 238 146.83C239.647 148.478 239.784 149.439 238.686 150.538ZM84.5503 171.959C84.5503 175.392 84.413 175.529 82.3542 173.47C81.119 172.234 80.5699 170.586 80.9817 169.762C82.766 167.016 84.5503 168.252 84.5503 171.959ZM239.098 169.762C239.509 170.586 238.96 172.234 237.725 173.47C235.666 175.529 235.529 175.392 235.529 171.959C235.529 168.252 237.313 167.016 239.098 169.762ZM33.0802 219.746C37.7468 224.277 37.7468 232.516 33.2175 237.872C28.6881 243.227 20.1784 243.227 14.9628 237.872C9.60987 232.653 9.60987 224.14 14.9628 219.608C20.3156 215.077 28.5509 215.077 33.0802 219.746ZM305.117 219.608C310.47 224.14 310.47 232.653 305.117 237.872C299.901 243.227 291.391 243.227 286.862 237.872C282.333 232.516 282.333 224.277 286.999 219.746C291.529 215.077 299.764 215.077 305.117 219.608ZM172.667 238.558C171.157 240.069 168.275 238.97 168.275 236.91C168.275 235.262 172.942 234.439 173.628 235.949C173.902 236.636 173.491 237.734 172.667 238.558ZM100.334 287.168C105.001 291.425 105.138 299.802 100.472 305.157C97.8639 308.178 96.0796 309.002 91.6875 309.002C77.5504 309.002 73.021 291.151 85.5111 284.834C91.0012 282.088 95.6678 282.912 100.334 287.168ZM237.862 286.894C243.215 291.425 243.215 299.939 237.862 305.157C232.647 310.512 224.137 310.512 219.608 305.157C215.078 299.802 215.078 291.563 219.745 287.031C224.274 282.362 232.51 282.362 237.862 286.894Z" fill="#1D4ED8"/>
<path d="M137.256 125.408C136.432 125.958 134.511 128.841 132.864 131.862C128.883 139.827 113.099 189.673 113.648 192.557C113.923 194.342 115.295 195.028 118.178 195.028C122.021 195.028 122.432 194.479 125.04 186.515L127.785 177.864H152.903L154.55 185.004C156.471 193.381 157.981 195.715 161.412 195.715C166.354 195.715 167.452 192.145 165.256 184.18C163.883 178.962 163.746 176.353 164.707 174.568C165.942 172.646 165.667 171.684 163.334 169.899C161.55 168.389 158.393 160.974 154.824 149.576C147.687 127.194 143.432 121.289 137.256 125.408ZM143.57 135.158L146.452 139.277L140.962 139.003L135.609 138.866L137.53 135.021C138.628 132.961 139.726 131.176 140.138 131.176C140.413 131.176 141.922 132.961 143.57 135.158ZM144.53 152.872C146.315 158.639 148.099 164.407 148.511 165.505C149.06 167.153 147.55 167.565 140.138 167.565C134.785 167.565 131.491 167.016 131.766 166.192C132.177 165.368 134.099 159.463 136.158 152.735C138.217 146.143 140.275 141.063 140.55 141.475C140.962 141.887 142.746 146.967 144.53 152.872ZM158.667 173.882C158.667 175.667 155.648 175.255 152.628 173.058C150.432 171.41 150.295 170.723 151.942 168.801C153.589 166.741 154.001 166.878 156.197 169.625C157.569 171.272 158.667 173.195 158.667 173.882ZM129.432 170.449C129.707 171.135 128.609 172.508 127.236 173.332C125.04 174.705 124.629 174.568 125.04 172.646C125.315 171.41 125.589 169.762 125.589 169.213C125.727 167.702 128.883 168.663 129.432 170.449Z" fill="#1D4ED8"/>
<path d="M173.628 125.683C171.02 126.37 170.334 127.468 170.334 130.489C170.334 134.471 170.608 134.609 177.608 135.021L184.746 135.433L184.608 145.319C184.471 150.812 184.059 161.935 183.51 170.174L182.687 185.279H176.51C170.608 185.416 170.334 185.553 169.922 189.81C169.373 195.44 171.02 195.99 190.922 195.44L206.02 195.028L206.432 191.321C206.981 186.652 202.863 184.18 196.824 185.416L192.569 186.377L193.392 181.159C193.942 178.138 194.353 166.741 194.353 155.618V135.433L200.255 135.021C205.471 134.609 206.02 134.197 206.432 130.901C206.843 127.743 206.157 126.782 203.137 125.683C199.294 124.172 179.804 124.31 173.628 125.683ZM192.981 131.038C192.981 131.725 192.157 132.961 191.059 133.785C189.412 135.158 188.726 135.021 187.628 132.961C186.53 130.764 186.804 130.352 189.687 130.077C191.471 129.94 192.981 130.352 192.981 131.038Z" fill="#1D4ED8"/>
<path d="M84.1385 1.27341C73.8445 4.98098 67.8054 13.3573 67.6681 23.9308C67.6681 31.7579 70.6877 37.9372 77.2759 42.8806C81.5307 46.1762 83.5895 46.7255 91.413 46.7255C99.2364 46.7255 101.295 46.1762 105.55 42.8806C108.158 40.8209 111.177 36.976 112.138 34.3669L113.923 29.5608H125.315C135.746 29.5608 137.118 29.8354 140.138 32.9938C143.432 36.2894 143.569 36.8386 143.569 58.3975V80.3683H118.589C91.0012 80.3683 88.6679 81.0549 83.0405 89.4313C80.7072 93.0015 80.4327 96.2971 80.4327 118.405V143.534H58.4721C36.9233 143.534 36.3743 143.397 33.0802 140.101C29.9234 137.08 29.6489 135.707 29.6489 125.271V113.874L34.4528 112.089C43.786 108.793 49.1389 97.121 46.9428 85.3117C45.7075 78.4459 37.3351 70.0695 30.0606 68.147C13.7275 63.7529 -3.70372 80.3683 0.688392 96.2971C2.60994 103.3 8.23733 110.166 13.7275 112.089L18.3941 113.736L18.9431 127.056C19.3549 139.003 19.7666 140.788 23.0607 145.182C29.2371 153.284 35.2763 154.794 59.5701 154.245L80.4327 153.833V165.505H58.7466C38.9821 165.505 36.5116 165.78 31.0214 168.526C21.2764 173.607 19.4921 177.177 18.9431 193.106C18.3941 205.465 18.1196 206.7 15.7863 206.7C11.8059 206.7 2.60994 216.725 0.825646 223.041C-3.56647 239.519 13.3157 256.409 29.6489 252.015C36.7861 250.093 44.1978 243.639 46.2566 237.322C50.0997 225.513 44.4723 211.507 34.4528 207.936L29.6489 206.151V194.754C29.6489 184.318 29.9234 182.944 33.0802 179.924C36.3743 176.628 36.9233 176.491 58.4721 176.491H80.4327V201.482C80.4327 229.083 81.119 231.418 89.4914 237.048C93.06 239.382 96.3541 239.657 118.589 239.657H143.569V261.627C143.569 283.186 143.432 283.736 140.138 287.031C137.118 290.189 135.746 290.464 125.315 290.464H113.923L112.275 285.795C107.609 272.887 87.4326 268.356 76.3151 277.694C70.4132 282.5 67.6681 288.679 67.6681 296.094C67.9426 315.044 88.5306 326.167 104.178 315.868C108.57 312.984 113.374 306.668 113.374 303.784C113.374 302.136 115.981 301.587 126.962 301.175C142.883 300.626 146.452 298.84 151.53 289.091C154.275 283.598 154.55 281.127 154.55 261.353V239.657H166.216L165.804 260.529C165.255 284.834 166.765 290.876 174.863 297.055C179.255 300.351 181.04 300.763 193.255 301.175C205.471 301.724 206.706 301.999 206.706 304.333C206.706 308.315 216.725 317.516 223.039 319.301C238.823 323.558 255.705 307.629 252.137 291.837C250.49 284.697 248.431 281.401 242.804 277.144C238.549 273.849 236.49 273.299 228.666 273.299C220.843 273.299 218.784 273.849 214.529 277.144C211.922 279.204 208.902 283.049 207.941 285.658L206.157 290.464H194.765C184.334 290.464 182.961 290.189 179.941 287.031C176.647 283.736 176.51 283.186 176.51 261.627V239.657H201.628C223.725 239.657 227.019 239.382 230.588 237.048C238.96 231.418 239.647 229.083 239.647 201.482V176.491H261.607C283.156 176.491 283.705 176.628 286.999 179.924C290.156 182.944 290.431 184.318 290.431 194.754V206.151L285.764 207.799C272.862 212.468 268.333 232.653 277.666 243.776C286.999 255.036 302.234 255.723 312.528 245.287C322.411 235.537 322.273 222.08 312.117 211.918C309.234 209.035 305.666 206.7 304.293 206.7C301.96 206.7 301.685 205.465 301.136 193.243C300.725 181.022 300.313 179.237 297.019 174.843C290.842 166.741 284.803 165.231 260.509 165.78L239.647 166.192V154.52H261.333C281.097 154.52 283.568 154.245 289.058 151.361C298.803 146.418 300.587 142.848 301.136 126.919C301.685 114.56 301.96 113.325 304.293 113.325C308.274 113.325 317.469 103.3 319.254 96.9837C323.783 80.231 306.901 63.6156 290.019 68.147C283.293 69.9322 275.882 76.5234 273.823 82.7027C271.627 89.2939 272.862 99.7301 276.568 104.811C278.215 107.145 281.921 110.166 284.94 111.539L290.293 114.011L290.431 125.408C290.431 135.707 290.156 137.08 286.999 140.101C283.705 143.397 283.156 143.534 261.607 143.534H239.647V118.405C239.647 96.2971 239.372 93.0015 237.039 89.4313C231.412 81.0549 229.078 80.3683 201.628 80.3683H176.51V58.3975C176.51 36.8386 176.647 36.2894 179.941 32.9938C182.961 29.8354 184.334 29.5608 194.628 29.5608L206.02 29.6981L208.902 35.4655C215.765 49.6092 236.49 51.6689 246.921 39.3104C258.313 25.7159 251.588 5.39293 234.157 0.724135C226.333 -1.33563 218.784 0.998771 212.059 7.72733C209.176 10.611 206.706 14.3186 206.706 15.6917C206.706 18.0261 205.471 18.3008 193.118 18.85C177.196 19.3993 173.628 21.1844 168.687 30.934C165.804 36.4267 165.53 38.8984 165.53 58.6721V80.3683H153.863L154.275 59.496C154.824 35.1908 153.314 29.1489 145.216 22.9696C140.824 19.674 139.04 19.262 126.824 18.85C115.981 18.4381 113.374 17.8888 113.374 16.241C113.374 13.0827 108.295 6.76611 103.354 3.74512C97.1776 -0.0997696 90.3149 -0.923675 84.1385 1.27341ZM100.746 15.2798C105.138 20.3605 104.864 28.5996 100.197 32.9938C91.962 40.6835 78.3739 35.1908 78.3739 24.3427C78.3739 11.9842 92.6482 6.07952 100.746 15.2798ZM237.862 14.5932C244.451 20.9098 242.804 31.0713 234.568 35.1908C225.921 39.585 216.314 33.955 216.314 24.4801C216.314 12.1215 228.941 6.35415 237.862 14.5932ZM33.492 82.5654C37.7468 87.5088 37.6096 95.8852 33.0802 100.279C28.5509 104.948 20.3156 104.948 14.9628 100.417C11.9432 97.8076 11.1197 95.8852 11.1197 91.6283C11.1197 79.2698 25.394 73.3651 33.492 82.5654ZM305.528 82.4281C310.47 87.3715 310.195 96.0225 305.117 100.417C293.999 109.892 278.352 98.3569 284.803 85.4491C289.058 77.0727 298.666 75.6995 305.528 82.4281ZM227.019 93.0015C229.353 95.3359 229.353 224.689 227.019 227.023C225.784 228.259 209.039 228.671 159.765 228.671C96.3541 228.671 94.158 228.534 92.7855 226.062C91.962 224.277 91.413 201.07 91.413 160.012C91.413 118.955 91.962 95.7479 92.7855 93.9627C94.158 91.491 96.3541 91.3537 159.765 91.3537C209.039 91.3537 225.784 91.7657 227.019 93.0015ZM84.8248 152.185C84.5503 152.872 83.315 152.46 82.0797 151.224C80.2954 149.439 80.2954 148.89 81.9425 146.83C83.7268 144.77 83.864 144.77 84.6875 147.791C85.0993 149.576 85.2366 151.636 84.8248 152.185ZM238.686 150.538C236.49 152.735 234.294 150.95 235.117 147.517C235.804 144.908 236.078 144.908 238 146.83C239.647 148.478 239.784 149.439 238.686 150.538ZM84.5503 171.959C84.5503 175.392 84.413 175.529 82.3542 173.47C81.119 172.234 80.5699 170.586 80.9817 169.762C82.766 167.016 84.5503 168.252 84.5503 171.959ZM239.098 169.762C239.509 170.586 238.96 172.234 237.725 173.47C235.666 175.529 235.529 175.392 235.529 171.959C235.529 168.252 237.313 167.016 239.098 169.762ZM33.0802 219.746C37.7468 224.277 37.7468 232.516 33.2175 237.872C28.6881 243.227 20.1784 243.227 14.9628 237.872C9.60987 232.653 9.60987 224.14 14.9628 219.608C20.3156 215.077 28.5509 215.077 33.0802 219.746ZM305.117 219.608C310.47 224.14 310.47 232.653 305.117 237.872C299.901 243.227 291.391 243.227 286.862 237.872C282.333 232.516 282.333 224.277 286.999 219.746C291.529 215.077 299.764 215.077 305.117 219.608ZM172.667 238.558C171.157 240.069 168.275 238.97 168.275 236.91C168.275 235.262 172.942 234.439 173.628 235.949C173.902 236.636 173.491 237.734 172.667 238.558ZM100.334 287.168C105.001 291.425 105.138 299.802 100.472 305.157C97.8639 308.178 96.0796 309.002 91.6875 309.002C77.5504 309.002 73.021 291.151 85.5111 284.834C91.0012 282.088 95.6678 282.912 100.334 287.168ZM237.862 286.894C243.215 291.425 243.215 299.939 237.862 305.157C232.647 310.512 224.137 310.512 219.608 305.157C215.078 299.802 215.078 291.563 219.745 287.031C224.274 282.362 232.51 282.362 237.862 286.894Z" stroke="#1D4ED8" stroke-width="14" mask="url(#path-1-inside-1_23_60)"/>
<path d="M137.256 125.408C136.432 125.958 134.511 128.841 132.864 131.862C128.883 139.827 113.099 189.673 113.648 192.557C113.923 194.342 115.295 195.028 118.178 195.028C122.021 195.028 122.432 194.479 125.04 186.515L127.785 177.864H152.903L154.55 185.004C156.471 193.381 157.981 195.715 161.412 195.715C166.354 195.715 167.452 192.145 165.256 184.18C163.883 178.962 163.746 176.353 164.707 174.568C165.942 172.646 165.667 171.684 163.334 169.899C161.55 168.389 158.393 160.974 154.824 149.576C147.687 127.194 143.432 121.289 137.256 125.408ZM143.57 135.158L146.452 139.277L140.962 139.003L135.609 138.866L137.53 135.021C138.628 132.961 139.726 131.176 140.138 131.176C140.413 131.176 141.922 132.961 143.57 135.158ZM144.53 152.872C146.315 158.639 148.099 164.407 148.511 165.505C149.06 167.153 147.55 167.565 140.138 167.565C134.785 167.565 131.491 167.016 131.766 166.192C132.177 165.368 134.099 159.463 136.158 152.735C138.217 146.143 140.275 141.063 140.55 141.475C140.962 141.887 142.746 146.967 144.53 152.872ZM158.667 173.882C158.667 175.667 155.648 175.255 152.628 173.058C150.432 171.41 150.295 170.723 151.942 168.801C153.589 166.741 154.001 166.878 156.197 169.625C157.569 171.272 158.667 173.195 158.667 173.882ZM129.432 170.449C129.707 171.135 128.609 172.508 127.236 173.332C125.04 174.705 124.629 174.568 125.04 172.646C125.315 171.41 125.589 169.762 125.589 169.213C125.727 167.702 128.883 168.663 129.432 170.449Z" stroke="#1D4ED8" stroke-width="14" mask="url(#path-1-inside-1_23_60)"/>
<path d="M173.628 125.683C171.02 126.37 170.334 127.468 170.334 130.489C170.334 134.471 170.608 134.609 177.608 135.021L184.746 135.433L184.608 145.319C184.471 150.812 184.059 161.935 183.51 170.174L182.687 185.279H176.51C170.608 185.416 170.334 185.553 169.922 189.81C169.373 195.44 171.02 195.99 190.922 195.44L206.02 195.028L206.432 191.321C206.981 186.652 202.863 184.18 196.824 185.416L192.569 186.377L193.392 181.159C193.942 178.138 194.353 166.741 194.353 155.618V135.433L200.255 135.021C205.471 134.609 206.02 134.197 206.432 130.901C206.843 127.743 206.157 126.782 203.137 125.683C199.294 124.172 179.804 124.31 173.628 125.683ZM192.981 131.038C192.981 131.725 192.157 132.961 191.059 133.785C189.412 135.158 188.726 135.021 187.628 132.961C186.53 130.764 186.804 130.352 189.687 130.077C191.471 129.94 192.981 130.352 192.981 131.038Z" stroke="#1D4ED8" stroke-width="14" mask="url(#path-1-inside-1_23_60)"/>
</svg>
