<svg width="116" height="37" viewBox="0 0 116 37" fill="none" xmlns="http://www.w3.org/2000/svg">
<path d="M10.3182 36H0.0909091L11.6136 1.09091H24.5682L36.0909 36H25.8636L18.2273 10.7045H17.9545L10.3182 36ZM8.40909 22.2273H27.6364V29.3182H8.40909V22.2273ZM44.2386 36L33.9432 1.09091H44.5114L49.2841 22.5682H49.5568L55.2159 1.09091H63.5341L69.1932 22.6364H69.4659L74.2386 1.09091H84.8068L74.5114 36H65.4432L59.5114 16.5H59.2386L53.3068 36H44.2386ZM106.131 12C106.04 10.8636 105.614 9.97727 104.852 9.34091C104.102 8.70454 102.96 8.38636 101.426 8.38636C100.449 8.38636 99.6477 8.50568 99.0227 8.74432C98.4091 8.97159 97.9545 9.28409 97.6591 9.68182C97.3636 10.0795 97.2102 10.5341 97.1989 11.0455C97.1761 11.4659 97.25 11.8466 97.4205 12.1875C97.6023 12.517 97.8864 12.8182 98.2727 13.0909C98.6591 13.3523 99.1534 13.5909 99.7557 13.8068C100.358 14.0227 101.074 14.2159 101.903 14.3864L104.767 15C106.699 15.4091 108.352 15.9489 109.727 16.6193C111.102 17.2898 112.227 18.0795 113.102 18.9886C113.977 19.8864 114.619 20.8977 115.028 22.0227C115.449 23.1477 115.665 24.375 115.676 25.7045C115.665 28 115.091 29.9432 113.955 31.5341C112.818 33.125 111.193 34.3352 109.08 35.1648C106.977 35.9943 104.449 36.4091 101.494 36.4091C98.4602 36.4091 95.8125 35.9602 93.5511 35.0625C91.3011 34.1648 89.5511 32.7841 88.3011 30.9205C87.0625 29.0455 86.4375 26.6477 86.4261 23.7273H95.4261C95.483 24.7955 95.75 25.6932 96.2273 26.4205C96.7045 27.1477 97.375 27.6989 98.2386 28.0739C99.1136 28.4489 100.153 28.6364 101.358 28.6364C102.369 28.6364 103.216 28.5114 103.898 28.2614C104.58 28.0114 105.097 27.6648 105.449 27.2216C105.801 26.7784 105.983 26.2727 105.994 25.7045C105.983 25.1705 105.807 24.7045 105.466 24.3068C105.136 23.8977 104.591 23.5341 103.83 23.2159C103.068 22.8864 102.04 22.5795 100.744 22.2955L97.267 21.5455C94.1761 20.875 91.7386 19.7557 89.9545 18.1875C88.1818 16.608 87.3011 14.4545 87.3125 11.7273C87.3011 9.51136 87.892 7.57386 89.0852 5.91477C90.2898 4.24432 91.9545 2.94318 94.0795 2.01136C96.2159 1.07954 98.6648 0.613635 101.426 0.613635C104.244 0.613635 106.682 1.08523 108.739 2.02841C110.795 2.97159 112.381 4.30114 113.494 6.01705C114.619 7.72159 115.188 9.71591 115.199 12H106.131Z" fill="black"/>
</svg>
