<svg width="328" height="328" viewBox="0 0 328 328" fill="none" xmlns="http://www.w3.org/2000/svg">
<path d="M149.687 83.678L146.659 83.0338C139.642 81.5304 120.927 80.3492 111.845 80.7787C77.3052 82.819 52.811 90.8727 33.4083 106.658C12.2168 123.946 2.309 147.248 4.23551 175.812C5.33637 190.846 7.95092 199.329 15.1065 211.248C22.9502 224.027 38.087 235.839 54.7375 242.282C79.0941 251.624 111.982 255.383 151.338 253.235C169.915 252.269 200.327 249.262 212.711 247.114L215.739 246.685V4.00023H149.687V83.678ZM209.959 125.235C210.097 189.342 209.821 242.067 209.133 242.604C206.519 244.644 167.025 248.403 138.678 249.262C80.0574 251.195 37.399 237.128 20.4732 210.175C4.37312 184.51 6.02441 145.745 24.1886 122.658C42.6281 99.3559 72.2137 87.1143 113.221 85.9331C123.129 85.6109 134.688 85.9331 139.229 86.47C146.522 87.3291 147.485 87.2217 150.788 85.074L154.366 82.7116L154.778 58.6579C155.054 45.4499 155.191 28.6982 155.191 21.3962V8.29553L182.438 8.5103L209.546 8.83244L209.959 125.235Z" fill="#1D4ED8"/>
<path d="M111.157 119.651C110.056 119.866 108.129 120.403 107.029 120.725C105.928 121.047 104.276 121.477 103.451 121.584C93.5429 123.302 80.0574 132.644 74.2779 141.772C68.3607 151.222 66.7094 157.987 67.3975 171.41C67.9479 180.752 68.7736 184.081 71.8009 190.094C75.6539 197.396 86.3873 208.027 89.8275 208.027C90.9284 208.027 92.5797 208.779 93.8182 209.638C98.6344 213.504 106.065 214.792 125.606 215.222C139.917 215.544 145.696 215.329 148.311 214.255C155.054 211.463 155.466 207.812 154.366 164.967C153.265 121.155 153.678 122.336 143.357 120.081C137.99 118.9 115.147 118.577 111.157 119.651ZM142.807 124.376L149.687 125.557V209.853L145.421 210.604C143.082 210.926 134.963 211.248 127.67 211.248C98.772 211.248 83.2224 203.517 75.3787 185.369C72.7642 179.356 72.3514 176.779 72.9018 165.504C73.5898 151.651 76.2044 144.993 84.3232 136.725C95.0566 125.665 119.688 120.51 142.807 124.376Z" fill="#1D4ED8"/>
<path d="M255.645 57.6913H290.184C321.146 57.6913 324.724 57.4765 323.898 55.9731C323.485 55.0067 323.072 42.9798 323.072 29.1275V4H255.645V57.6913ZM315.917 8.83221C317.293 9.26174 317.568 14.2013 317.293 31.0604L316.88 52.859L290.735 53.1812C267.341 53.396 264.452 53.2886 262.938 51.5705C260.186 48.7785 260.461 9.79866 263.075 8.61745C265.14 7.75839 312.614 7.97315 315.917 8.83221Z" fill="#1D4ED8"/>
<path d="M255.232 160.993C254.819 213.826 254.131 239.383 253.03 243.463C247.939 262.04 239.82 274.282 226.059 284.054C218.078 289.745 199.913 298.873 194.134 299.946C189.318 300.913 190.281 301.987 198.95 304.993C203.216 306.497 216.564 311.436 228.536 315.839C240.508 320.349 251.241 324 252.342 324C255.645 324 268.855 318.201 279.175 312.295C304.358 297.799 318.256 275.034 321.696 242.711C322.384 235.302 323.072 196.644 323.072 156.913V84.537H255.92L255.232 160.993ZM317.568 122.658C318.531 168.403 317.018 243.141 314.954 253.128C311.651 268.913 305.046 282.658 295.964 292.859C287.707 302.201 271.194 312.832 256.883 318.094L251.929 319.919L228.398 311.114C215.463 306.174 205.143 301.879 205.418 301.342C205.831 300.913 210.509 298.336 215.738 295.651C233.903 286.201 246.15 274.389 252.892 259.463C259.91 243.678 260.186 241.53 260.736 164C261.149 114.711 261.837 91.0873 262.8 90.1209C263.901 89.1545 270.369 88.8323 290.597 89.0471L316.88 89.3692L317.568 122.658Z" fill="#1D4ED8"/>
<path d="M149.687 83.678L146.659 83.0338C139.642 81.5304 120.927 80.3492 111.845 80.7787C77.3052 82.819 52.811 90.8727 33.4083 106.658C12.2168 123.946 2.309 147.248 4.23551 175.812C5.33637 190.846 7.95092 199.329 15.1065 211.248C22.9502 224.027 38.087 235.839 54.7375 242.282C79.0941 251.624 111.982 255.383 151.338 253.235C169.915 252.269 200.327 249.262 212.711 247.114L215.739 246.685V4.00023H149.687V83.678ZM209.959 125.235C210.097 189.342 209.821 242.067 209.133 242.604C206.519 244.644 167.025 248.403 138.678 249.262C80.0574 251.195 37.399 237.128 20.4732 210.175C4.37312 184.51 6.02441 145.745 24.1886 122.658C42.6281 99.3559 72.2137 87.1143 113.221 85.9331C123.129 85.6109 134.688 85.9331 139.229 86.47C146.522 87.3291 147.485 87.2217 150.788 85.074L154.366 82.7116L154.778 58.6579C155.054 45.4499 155.191 28.6982 155.191 21.3962V8.29553L182.438 8.5103L209.546 8.83244L209.959 125.235Z" stroke="#1D4ED8" stroke-width="7"/>
<path d="M111.157 119.651C110.056 119.866 108.129 120.403 107.029 120.725C105.928 121.047 104.276 121.477 103.451 121.584C93.5429 123.302 80.0574 132.644 74.2779 141.772C68.3607 151.222 66.7094 157.987 67.3975 171.41C67.9479 180.752 68.7736 184.081 71.8009 190.094C75.6539 197.396 86.3873 208.027 89.8275 208.027C90.9284 208.027 92.5797 208.779 93.8182 209.638C98.6344 213.504 106.065 214.792 125.606 215.222C139.917 215.544 145.696 215.329 148.311 214.255C155.054 211.463 155.466 207.812 154.366 164.967C153.265 121.155 153.678 122.336 143.357 120.081C137.99 118.9 115.147 118.577 111.157 119.651ZM142.807 124.376L149.687 125.557V209.853L145.421 210.604C143.082 210.926 134.963 211.248 127.67 211.248C98.772 211.248 83.2224 203.517 75.3787 185.369C72.7642 179.356 72.3514 176.779 72.9018 165.504C73.5898 151.651 76.2044 144.993 84.3232 136.725C95.0566 125.665 119.688 120.51 142.807 124.376Z" stroke="#1D4ED8" stroke-width="7"/>
<path d="M255.645 57.6913H290.184C321.146 57.6913 324.724 57.4765 323.898 55.9731C323.485 55.0067 323.072 42.9798 323.072 29.1275V4H255.645V57.6913ZM315.917 8.83221C317.293 9.26174 317.568 14.2013 317.293 31.0604L316.88 52.859L290.735 53.1812C267.341 53.396 264.452 53.2886 262.938 51.5705C260.186 48.7785 260.461 9.79866 263.075 8.61745C265.14 7.75839 312.614 7.97315 315.917 8.83221Z" stroke="#1D4ED8" stroke-width="7"/>
<path d="M255.232 160.993C254.819 213.826 254.131 239.383 253.03 243.463C247.939 262.04 239.82 274.282 226.059 284.054C218.078 289.745 199.913 298.873 194.134 299.946C189.318 300.913 190.281 301.987 198.95 304.993C203.216 306.497 216.564 311.436 228.536 315.839C240.508 320.349 251.241 324 252.342 324C255.645 324 268.855 318.201 279.175 312.295C304.358 297.799 318.256 275.034 321.696 242.711C322.384 235.302 323.072 196.644 323.072 156.913V84.537H255.92L255.232 160.993ZM317.568 122.658C318.531 168.403 317.018 243.141 314.954 253.128C311.651 268.913 305.046 282.658 295.964 292.859C287.707 302.201 271.194 312.832 256.883 318.094L251.929 319.919L228.398 311.114C215.463 306.174 205.143 301.879 205.418 301.342C205.831 300.913 210.509 298.336 215.738 295.651C233.903 286.201 246.15 274.389 252.892 259.463C259.91 243.678 260.186 241.53 260.736 164C261.149 114.711 261.837 91.0873 262.8 90.1209C263.901 89.1545 270.369 88.8323 290.597 89.0471L316.88 89.3692L317.568 122.658Z" stroke="#1D4ED8" stroke-width="7"/>
</svg>
