<svg width="167" height="49" viewBox="0 0 167 49" fill="none" xmlns="http://www.w3.org/2000/svg">
<path d="M13.6818 38H0.25V3.09091H13.5455C17.1364 3.09091 20.2386 3.78977 22.8523 5.1875C25.4773 6.57386 27.5 8.57386 28.9205 11.1875C30.3523 13.7898 31.0682 16.9091 31.0682 20.5455C31.0682 24.1818 30.358 27.3068 28.9375 29.9205C27.517 32.5227 25.5057 34.5227 22.9034 35.9205C20.3011 37.3068 17.2273 38 13.6818 38ZM9.72727 29.9545H13.3409C15.0682 29.9545 16.5398 29.6761 17.7557 29.1193C18.983 28.5625 19.9148 27.6023 20.5511 26.2386C21.1989 24.875 21.5227 22.9773 21.5227 20.5455C21.5227 18.1136 21.1932 16.2159 20.5341 14.8523C19.8864 13.4886 18.9318 12.5284 17.6705 11.9716C16.4205 11.4148 14.8864 11.1364 13.0682 11.1364H9.72727V29.9545ZM35.5895 11.8182H44.9986V38.8864C44.9986 41.1818 44.5156 42.9773 43.5497 44.2727C42.5952 45.5682 41.2543 46.483 39.527 47.017C37.7997 47.5511 35.7827 47.8182 33.4759 47.8182C33.1349 47.8182 32.8224 47.8125 32.5384 47.8011C32.2429 47.7898 31.919 47.7727 31.5668 47.75V40.7955C31.794 40.8182 31.9929 40.8352 32.1634 40.8466C32.3224 40.858 32.4872 40.8636 32.6577 40.8636C33.7827 40.8636 34.5497 40.6875 34.9588 40.3352C35.3793 39.9943 35.5895 39.4432 35.5895 38.6818V11.8182ZM40.294 9.09091C39.0213 9.09091 37.9304 8.67045 37.0213 7.82955C36.1122 6.98864 35.6577 5.97727 35.6577 4.79545C35.6577 3.61364 36.1122 2.60227 37.0213 1.76136C37.9304 0.920454 39.0213 0.5 40.294 0.5C41.5781 0.5 42.669 0.920454 43.5668 1.76136C44.4759 2.60227 44.9304 3.61364 44.9304 4.79545C44.9304 5.97727 44.4759 6.98864 43.5668 7.82955C42.669 8.67045 41.5781 9.09091 40.294 9.09091ZM57.0881 38.4091C55.4176 38.4091 53.9403 38.1364 52.6562 37.5909C51.3835 37.0341 50.3835 36.1932 49.6562 35.0682C48.929 33.9432 48.5653 32.5114 48.5653 30.7727C48.5653 29.3409 48.8097 28.1193 49.2983 27.108C49.7869 26.0852 50.4688 25.25 51.3438 24.6023C52.2188 23.9545 53.2358 23.4602 54.3949 23.1193C55.5653 22.7784 56.8267 22.5568 58.179 22.4545C59.6449 22.3409 60.821 22.2045 61.7074 22.0455C62.6051 21.875 63.2528 21.642 63.6506 21.3466C64.0483 21.0398 64.2472 20.6364 64.2472 20.1364V20.0682C64.2472 19.3864 63.9858 18.8636 63.4631 18.5C62.9403 18.1364 62.2699 17.9545 61.4517 17.9545C60.554 17.9545 59.821 18.1534 59.2528 18.5511C58.696 18.9375 58.3608 19.5341 58.2472 20.3409H49.5881C49.7017 18.75 50.2074 17.2841 51.1051 15.9432C52.0142 14.5909 53.3381 13.5114 55.0767 12.7045C56.8153 11.8864 58.9858 11.4773 61.5881 11.4773C63.4631 11.4773 65.1449 11.6989 66.6335 12.142C68.1222 12.5739 69.3892 13.1818 70.4347 13.9659C71.4801 14.7386 72.2756 15.6477 72.821 16.6932C73.3778 17.7273 73.6562 18.8523 73.6562 20.0682V38H64.8608V34.3182H64.6562C64.1335 35.2955 63.4972 36.0852 62.7472 36.6875C62.0085 37.2898 61.1619 37.7273 60.2074 38C59.2642 38.2727 58.2244 38.4091 57.0881 38.4091ZM60.1562 32.4773C60.8722 32.4773 61.5426 32.3295 62.1676 32.0341C62.804 31.7386 63.321 31.3125 63.7188 30.7557C64.1165 30.1989 64.3153 29.5227 64.3153 28.7273V26.5455C64.0653 26.6477 63.7983 26.7443 63.5142 26.8352C63.2415 26.9261 62.946 27.0114 62.6278 27.0909C62.321 27.1705 61.9915 27.2443 61.6392 27.3125C61.2983 27.3807 60.9403 27.4432 60.5653 27.5C59.8381 27.6136 59.2415 27.8011 58.7756 28.0625C58.321 28.3125 57.9801 28.625 57.7528 29C57.5369 29.3636 57.429 29.7727 57.429 30.2273C57.429 30.9545 57.6847 31.5114 58.196 31.8977C58.7074 32.2841 59.3608 32.4773 60.1562 32.4773ZM87.5611 23.2727V38H78.152V11.8182H87.0838V16.7955H87.3565C87.9247 15.1364 88.9247 13.8352 90.3565 12.892C91.7997 11.9489 93.4815 11.4773 95.402 11.4773C97.2543 11.4773 98.8622 11.9034 100.226 12.7557C101.601 13.5966 102.663 14.7557 103.413 16.233C104.175 17.7102 104.55 19.3977 104.538 21.2955V38H95.1293V23.2727C95.1406 21.9773 94.8111 20.9602 94.1406 20.2216C93.4815 19.483 92.5611 19.1136 91.3793 19.1136C90.6065 19.1136 89.9304 19.2841 89.3509 19.625C88.7827 19.9545 88.3452 20.4318 88.0384 21.0568C87.7315 21.6705 87.5724 22.4091 87.5611 23.2727ZM121.797 48.3636C119.172 48.3636 116.922 47.9886 115.047 47.2386C113.183 46.5 111.734 45.4773 110.7 44.1705C109.678 42.875 109.104 41.3864 108.979 39.7045H118.047C118.138 40.2614 118.365 40.7102 118.729 41.0511C119.092 41.392 119.558 41.6364 120.126 41.7841C120.706 41.9432 121.354 42.0227 122.07 42.0227C123.286 42.0227 124.291 41.7273 125.087 41.1364C125.893 40.5455 126.297 39.4773 126.297 37.9318V33.5H126.024C125.683 34.3864 125.161 35.142 124.456 35.767C123.751 36.3807 122.905 36.8523 121.916 37.1818C120.928 37.5 119.842 37.6591 118.661 37.6591C116.797 37.6591 115.081 37.2273 113.513 36.3636C111.956 35.5 110.706 34.1307 109.763 32.2557C108.831 30.3807 108.365 27.9318 108.365 24.9091C108.365 21.75 108.854 19.1818 109.831 17.2045C110.82 15.2273 112.092 13.7784 113.649 12.858C115.217 11.9375 116.865 11.4773 118.592 11.4773C119.888 11.4773 121.024 11.7045 122.001 12.1591C122.979 12.6023 123.797 13.1989 124.456 13.9489C125.115 14.6875 125.615 15.5 125.956 16.3864H126.161V11.8182H135.57V37.9318C135.57 40.1477 134.996 42.0284 133.848 43.5739C132.712 45.1307 131.109 46.3182 129.041 47.1364C126.973 47.9545 124.558 48.3636 121.797 48.3636ZM122.138 30.9773C123.001 30.9773 123.74 30.7386 124.354 30.2614C124.979 29.7727 125.456 29.0795 125.786 28.1818C126.126 27.2727 126.297 26.1818 126.297 24.9091C126.297 23.6136 126.126 22.5057 125.786 21.5852C125.456 20.6534 124.979 19.9432 124.354 19.4545C123.74 18.9545 123.001 18.7045 122.138 18.7045C121.274 18.7045 120.536 18.9545 119.922 19.4545C119.32 19.9432 118.854 20.6534 118.524 21.5852C118.206 22.5057 118.047 23.6136 118.047 24.9091C118.047 26.2045 118.206 27.3068 118.524 28.2159C118.854 29.1136 119.32 29.8011 119.922 30.2784C120.536 30.7443 121.274 30.9773 122.138 30.9773ZM152.969 38.4773C150.128 38.4773 147.696 37.9148 145.673 36.7898C143.651 35.6534 142.099 34.0739 141.02 32.0511C139.94 30.017 139.401 27.6591 139.401 24.9773C139.401 22.2955 139.94 19.9432 141.02 17.9205C142.099 15.8864 143.651 14.3068 145.673 13.1818C147.696 12.0455 150.128 11.4773 152.969 11.4773C155.81 11.4773 158.241 12.0455 160.264 13.1818C162.287 14.3068 163.838 15.8864 164.918 17.9205C165.997 19.9432 166.537 22.2955 166.537 24.9773C166.537 27.6591 165.997 30.017 164.918 32.0511C163.838 34.0739 162.287 35.6534 160.264 36.7898C158.241 37.9148 155.81 38.4773 152.969 38.4773ZM153.037 31.5227C153.832 31.5227 154.52 31.2557 155.099 30.7216C155.679 30.1875 156.128 29.4261 156.446 28.4375C156.764 27.4489 156.923 26.2727 156.923 24.9091C156.923 23.5341 156.764 22.358 156.446 21.3807C156.128 20.392 155.679 19.6307 155.099 19.0966C154.52 18.5625 153.832 18.2955 153.037 18.2955C152.196 18.2955 151.474 18.5625 150.872 19.0966C150.27 19.6307 149.81 20.392 149.491 21.3807C149.173 22.358 149.014 23.5341 149.014 24.9091C149.014 26.2727 149.173 27.4489 149.491 28.4375C149.81 29.4261 150.27 30.1875 150.872 30.7216C151.474 31.2557 152.196 31.5227 153.037 31.5227Z" fill="white"/>
</svg>
