<svg width="396" height="109" viewBox="0 0 396 109" fill="none" xmlns="http://www.w3.org/2000/svg">
<path d="M61.7455 1.24824C61.2167 1.61319 60.82 4.89779 60.82 8.30403V14.6299L53.2836 15.4815C39.2686 16.9413 33.0543 25.4569 39.1363 34.8241C40.723 37.2571 48.656 37.987 73.7773 38.1087H87.2635V69.7381V101.489L79.7271 101.124L72.0585 100.759L71.6618 76.7939L71.3974 52.8286L67.8275 50.3955C65.051 48.3274 62.5388 47.8408 54.6058 47.8408C43.6317 47.8408 37.8142 49.9089 36.492 54.1667C36.0953 55.7482 35.6987 66.9401 35.6987 79.227V101.489L27.7657 101.246L19.8326 101.003V77.0372C19.8326 53.6801 19.8326 53.0719 16.7916 50.5172C14.4117 48.4491 12.0318 47.8408 6.8753 47.8408C0.925522 47.8408 0 48.2058 0 50.2739C0 52.4636 0.925522 52.7069 7.66861 52.7069H15.205L14.8083 79.4703L14.4117 106.234H27.6334H40.9874V79.4703V52.7069H53.9447H66.7698L66.3731 79.4703L65.9765 106.234H79.1982H92.5522V69.7381V33.2426H66.7698H40.9874V29.5931C40.9874 27.2817 42.1773 24.727 44.2928 22.9022C47.0694 20.2259 48.656 19.8609 56.8535 19.8609H66.1087V10.1288C66.1087 2.82971 65.712 0.396675 64.3899 0.396675C63.3321 0.396675 62.1422 0.76163 61.7455 1.24824Z" fill="white"/>
<path d="M31.0711 3.68141C20.6259 8.66913 15.7339 15.8466 15.4694 26.0653L15.205 33.2428H7.66861C0.925522 33.2428 0 33.4861 0 35.6758C0 37.8655 0.793304 38.1088 7.27196 37.7439C16.6594 37.1356 19.3037 34.9459 20.3615 26.5519C21.5514 16.5765 25.2535 11.9537 35.8309 6.96601C40.8552 4.65462 44.9539 2.58654 44.9539 2.22159C44.9539 0.761769 34.7732 1.85663 31.0711 3.68141Z" fill="white"/>
<path d="M198.326 33.121C185.633 36.8922 177.7 43.948 173.072 55.14C169.238 64.5072 170.031 78.7404 174.923 87.4993C181.138 98.6913 193.169 105.869 207.581 107.085C222.786 108.423 238.388 102.341 245.924 92.2437L249.758 87.1344L239.181 84.458C233.364 82.9982 227.81 81.5384 226.885 81.1734C225.827 80.8085 224.637 81.5384 224.241 82.8766C223.051 86.0395 217.894 87.9859 210.754 87.9859C205.598 87.9859 204.011 87.3777 200.177 83.8498C197.665 81.5384 195.682 78.4971 195.682 77.0373C195.682 74.3609 195.682 74.3609 223.183 74.7259L250.552 74.9692L250.287 66.5752C249.626 45.7728 235.611 33.2427 212.341 32.3911C206.391 32.2694 200.177 32.5128 198.326 33.121ZM224.373 38.8386C233.231 41.6366 241.164 49.179 243.809 57.573C246.321 65.4804 246.453 69.2516 244.338 69.9815C243.412 70.3464 232.306 70.5897 219.613 70.7114C200.177 70.833 196.21 71.198 194.095 72.9011C186.426 79.3487 198.326 92.852 211.68 92.852C214.06 92.852 219.084 91.3922 222.918 89.689C229.133 86.8911 230.455 86.6478 234.686 87.9859C238.123 88.9591 239.313 89.9324 238.784 91.2705C238.388 92.2437 237.991 93.5819 237.991 94.0685C237.991 94.6768 234.157 96.8665 229.529 98.8129C211.68 106.72 192.112 102.462 181.799 88.5942C168.709 71.3196 176.642 45.2862 196.872 38.5953C203.482 36.4056 216.836 36.5273 224.373 38.8386Z" fill="white"/>
<path d="M201.632 46.016C195.814 48.9356 192.905 52.2202 192.112 56.9647C190.922 63.8988 193.831 65.3586 209.432 65.8452C221.2 66.2102 223.183 65.9669 225.827 63.8988C230.719 59.8843 228.736 52.5852 221.2 47.3542C216.572 44.1912 206.656 43.583 201.632 46.016ZM218.027 50.7604C221.332 52.3419 224.77 57.0863 224.77 60.006C224.77 60.7359 218.291 61.2225 209.697 61.2225H194.492L195.946 57.5729C198.855 49.9089 209.3 46.6243 218.027 50.7604Z" fill="white"/>
<path d="M95.1965 34.3375C95.1965 34.9458 97.8409 41.8799 101.014 49.7873C104.187 57.8163 110.666 73.7526 115.294 85.1879L123.623 106.234H135.919C144.778 106.234 148.083 105.869 148.083 104.652C148.083 103.557 171.222 44.4346 175.188 35.3107C176.114 33.3643 175.188 33.121 162.627 33.4859L149.009 33.8509L142.266 54.775C138.564 66.3319 135.391 75.4558 135.126 75.2125C134.862 74.9692 133.275 70.468 131.556 65.237C129.837 60.006 126.796 50.6388 124.681 44.5562L120.979 33.2426H108.154C101.014 33.2426 95.1965 33.7292 95.1965 34.3375ZM117.806 40.5417C118.335 41.5149 121.243 49.544 124.284 58.3029C129.573 74.1176 132.217 78.2538 136.448 77.4022C138.696 76.9156 143.588 68.7649 144.514 64.2638C144.91 61.5875 148.348 51.4904 151.521 43.2181C153.637 38.1087 153.637 38.1087 159.983 38.1087C163.553 38.1087 166.726 38.5953 167.123 39.2036C167.519 39.6902 166.065 44.7995 163.817 50.3955C161.57 55.9915 159.322 61.9524 158.661 63.6556C155.223 73.0227 144.117 99.4211 143.191 100.273C141.869 101.489 128.648 102.097 127.458 101.003C126.268 99.9078 103.13 41.8799 103.13 39.8118C103.13 37.2571 116.219 37.8654 117.806 40.5417Z" fill="white"/>
<path d="M256.502 69.7381V106.234H269.723H282.945V84.9446C282.945 68.2783 283.342 62.804 284.928 60.006C287.969 54.5317 291.936 52.7069 300.398 52.7069H308.066V79.4703V106.234H321.288H334.51V85.5529C334.51 56.2348 336.493 52.7069 353.285 52.7069H362.276V42.9748V33.2426H354.739C345.484 33.2426 341.517 34.9458 337.551 40.4201L334.51 44.5562V38.8386V33.2426H315.074C293.523 33.2426 290.482 33.9725 286.251 40.1768C282.681 45.5295 281.887 45.1645 282.681 38.717L283.342 33.2426H269.856H256.502V69.7381ZM277.128 39.0819C277.921 39.5685 278.846 40.9067 279.375 42.1232C280.565 45.0428 284.135 46.1377 286.779 44.3129C296.035 38.2303 296.299 38.1087 313.091 38.1087C321.949 38.1087 329.221 38.5953 329.221 39.2036C329.221 39.6902 330.411 41.6366 331.998 43.4614L334.774 46.6243L341.253 42.3665C346.145 38.9603 348.657 37.987 351.963 38.352C355.929 38.717 356.326 39.0819 356.326 42.9748C356.326 47.2326 356.194 47.2326 349.583 47.9625C333.188 49.7873 329.618 55.9915 329.353 81.7817C329.221 91.5138 328.692 99.9078 328.164 100.394C327.106 101.368 323.536 101.733 317.718 101.489L313.355 101.368V77.1589V52.8286L309.785 50.2739C306.612 47.9625 304.893 47.7192 297.489 48.2058C289.424 48.814 288.631 49.179 284.135 53.6801C281.491 56.4781 279.243 59.3977 279.111 60.2493C278.979 61.1009 278.45 70.7114 278.053 81.66L277.392 101.489L269.988 101.124L262.451 100.759L262.055 70.9547C261.923 54.6533 262.055 40.5417 262.451 39.6902C263.113 37.987 274.615 37.5004 277.128 39.0819Z" fill="white"/>
<path d="M371.928 80.0786C366.771 82.1467 362.276 88.3509 362.276 93.4603C362.276 100.638 370.605 108.667 378.142 108.667C386.736 108.667 395.33 101.003 395.33 93.4603C395.33 88.2293 390.702 82.025 385.414 79.9569C379.861 77.8889 377.348 77.8889 371.928 80.0786ZM386.604 85.7962C393.215 91.2706 390.967 101.246 382.637 103.801C374.969 106.234 367.564 101.246 367.564 93.8252C367.564 84.3364 378.935 79.592 386.604 85.7962Z" fill="white"/>
</svg>
