<svg width="328" height="328" viewBox="0 0 328 328" fill="none" xmlns="http://www.w3.org/2000/svg">
<path d="M155.591 5.78667C151.961 6.97582 141.205 11.8513 131.794 16.7268C112.701 26.4778 65.3744 50.7363 58.114 54.4226C27.8624 69.6437 16.434 75.7083 12.8038 78.8001C3.93001 86.1728 4.33337 82.6053 4.33337 164.062C4.33337 244.805 4.06446 242.069 12.1316 248.848C15.2239 251.345 24.9045 256.696 53.4082 271.085C66.8534 277.863 88.9034 279.646 101.139 274.89C110.281 271.441 117.542 263.355 121.037 252.772C122.113 249.561 123.054 110.788 121.979 107.221C121.306 104.842 120.5 104.604 110.55 104.604C104.769 104.604 99.6596 105.08 99.2562 105.675C98.7184 106.269 98.3151 138.257 98.0462 176.786C97.7772 243.259 97.6428 246.826 95.2227 250.037C89.4413 257.528 77.8784 258.955 66.0467 253.485C58.5174 250.037 51.7948 246.707 36.3329 238.74L34.3092 237.713C29.942 235.498 27.1901 231.017 27.1901 226.12V101.944C27.1901 97.1407 29.8384 92.729 34.0773 90.4706L38.3496 88.1943C44.4 84.9836 52.0637 81.0595 55.425 79.3947C58.7863 77.7299 65.1055 74.5192 69.5424 72.2598C73.9793 70.0004 91.5925 61.0818 108.533 52.4011C144.701 33.9694 140.802 35.9909 153.844 29.0939L158.156 26.8152C161.938 24.8172 166.46 24.807 170.251 26.788L176.028 29.8074C182.482 33.2559 191.221 37.6557 195.255 39.5583C199.288 41.5799 204.129 44.0771 206.011 45.1473C207.893 46.2176 212.733 48.8337 216.767 50.7363C223.624 54.0659 241.64 63.2223 283.32 84.6269L293.815 90.0534C298.109 92.2735 300.817 96.6926 300.844 101.526L301.203 163.824L301.447 227.602C301.462 231.524 299.295 235.129 295.825 236.956V236.956C292.598 238.621 287.892 240.999 285.337 242.188C282.783 243.496 273.102 248.491 263.825 253.247C254.682 258.004 245.271 262.88 242.985 263.95C228.195 271.441 190.818 290.468 178.717 296.889L170.192 301.316C166.359 303.307 161.788 303.263 157.993 301.201L151.155 297.484C129.239 285.592 125.205 283.927 122.651 285.949C120.365 287.852 111.626 291.3 107.323 292.014C104.5 292.489 101.542 294.511 102.618 295.343C105.979 298.078 152.902 321.742 157.474 323.05C166.348 325.428 172.398 323.764 192.835 313.18C202.246 308.305 210.179 304.381 210.448 304.381C210.717 304.381 216.498 301.408 223.355 297.84C230.078 294.154 237.741 290.23 240.296 288.922C250.918 283.571 254.279 281.906 266.514 275.603C318.144 249.204 318.412 249.085 322.311 241.951C324.059 238.502 324.328 228.275 324.328 164.062C324.328 81.5351 324.732 85.5782 314.917 78.0866C312.093 75.9461 307.522 73.0922 304.564 71.7841C299.32 69.168 279.959 59.417 219.456 28.3804C168.095 2.10033 167.558 1.98141 155.591 5.78667ZM189.204 17.4403C198.078 22.0779 207.759 27.0723 210.717 28.4993C213.675 29.9263 218.784 32.5424 222.145 34.3261C225.506 36.2287 238.817 42.888 251.724 49.3093C264.632 55.7307 277.405 62.1521 279.959 63.698C282.514 65.1249 289.774 68.8113 296.093 71.9031C309.539 78.3244 317.202 84.508 319.085 90.3348C319.891 93.0698 320.295 119.826 320.026 166.559L319.647 234.094C319.631 236.953 318.673 239.727 316.921 241.986L316.396 242.664C313.169 246.945 307.656 250.631 298.11 255.15C295.152 256.458 288.026 260.144 282.11 263.236C276.329 266.328 268.531 270.371 264.632 272.155C260.867 274.057 250.918 279.052 242.447 283.452C234.111 287.733 226.851 291.3 226.582 291.3C226.179 291.3 224.296 292.37 222.279 293.559C220.263 294.867 215.019 297.603 210.717 299.743C206.28 301.765 198.482 305.808 193.238 308.543C169.843 321.029 164.062 322.099 151.827 316.748C142.55 312.467 124.936 303.073 123.861 301.646C123.658 301.347 123.32 301.079 122.949 300.9C122.264 300.572 121.459 300.666 120.742 300.414C119.598 300.013 117.831 299.221 116.063 298.316V298.316C114.128 297.289 114.2 294.493 116.185 293.567L118.752 292.37C124.936 289.279 126.415 288.922 128.701 290.23C141.877 297.602 161.507 306.759 164.062 306.759C165.81 306.759 169.978 305.332 173.474 303.548C176.969 301.883 183.692 298.435 188.532 296.057C193.372 293.678 199.423 290.587 201.977 289.278C234.649 272.393 251.993 263.593 256.43 261.571C257.909 260.977 261.943 258.955 265.304 257.172C268.665 255.269 277.405 250.75 284.799 247.064C292.06 243.259 299.589 239.216 301.471 237.907V237.907C303.581 236.415 304.842 233.996 304.857 231.412L305.236 165.608C305.505 111.62 305.236 95.0913 303.892 92.9509C302.95 91.405 299.455 88.7889 296.093 87.0052C292.732 85.3404 289.774 83.5566 289.371 83.1999C288.967 82.8432 286.547 81.5351 283.993 80.346C274.043 75.5894 257.775 67.2654 257.102 66.5519C256.699 66.1952 254.279 65.006 251.724 63.9358C249.17 62.7466 244.598 60.4873 241.641 58.9414C236.935 56.3253 226.044 50.8552 211.389 43.6014C209.552 42.7465 207.646 41.7071 206.42 41.0136C205.697 40.605 205.011 40.1318 204.288 39.7239C202.61 38.7768 199.307 37.146 195.927 35.5153C191.49 33.3748 184.095 29.6885 179.658 27.3102C175.087 24.9319 169.44 22.3158 167.02 21.6023C162.045 20.0564 162.986 19.6997 143.76 29.8074C136.499 33.7315 130.315 36.8233 129.911 36.8233C129.508 36.8233 126.55 38.3692 123.323 40.3908C120.096 42.2934 116.869 43.9582 116.063 43.9582C115.256 43.9582 114.584 44.4338 114.584 45.1473C114.584 45.7419 113.911 46.3365 113.239 46.3365C111.895 46.3365 99.3907 52.52 72.5003 66.433C65.9122 69.7626 60.2652 72.4976 59.9963 72.4976C59.7274 72.4976 56.2317 74.2813 52.3326 76.5407C48.568 78.6812 41.3076 82.4864 36.3329 84.8647C31.3581 87.243 26.3834 90.3348 25.1734 91.8807C23.4255 94.14 23.1566 103.415 23.1566 164.181V228.938C23.1566 232.077 24.4735 235.072 26.7868 237.194V237.194C28.8036 238.978 32.9716 241.475 35.9295 242.783C38.8874 244.21 41.5765 245.518 41.9798 245.994C43.4588 247.658 68.3324 259.193 71.8281 259.907C84.1976 262.404 94.2815 258.955 99.6596 250.275C101.542 247.064 101.945 238.859 102.483 177.737L103.086 115.901C103.125 111.894 106.279 108.61 110.281 108.41V108.41V108.41C114.084 108.216 117.273 111.246 117.273 115.054V131.598C117.407 222.568 117.138 249.323 115.794 253.604C111.76 266.804 101.676 273.106 84.3321 273.582C69.6769 273.939 63.6265 271.917 34.9883 257.291C21.2743 250.275 14.0139 245.399 11.0559 241.118C8.50137 237.313 8.36692 235.054 8.36692 165.132C8.36692 88.5511 8.23247 89.3835 14.6861 82.3675C16.0307 80.9405 24.3667 76.0651 33.2405 71.5463C63.0887 56.4442 76.1305 49.6661 88.5001 43.2447C95.3571 39.6773 101.273 36.8233 101.811 36.8233C102.349 36.8233 105.172 35.2774 108.264 33.4937C114.046 30.0452 141.071 16.1322 152.23 11.0189C156.936 8.75953 159.894 8.28387 165.675 8.5217C172.129 8.87845 175.49 10.1865 189.204 17.4403Z" fill="#1D4ED8"/>
<path d="M183.154 102.107C166.079 104.961 154.381 110.312 147.255 118.636C141.608 125.296 139.726 131.717 140.398 142.063C141.743 160.97 155.726 169.77 190.549 173.575C227.12 177.499 234.515 179.045 240.834 183.801C244.464 186.418 245.002 187.607 245.002 192.601C245.002 197.477 244.33 199.023 240.565 202.471C234.246 208.417 225.372 210.438 205.339 210.438C187.725 210.438 176.028 208.417 169.574 204.374C165.138 201.639 160.297 194.028 160.297 189.866C160.297 185.347 157.743 184.277 147.39 184.277C135.289 184.277 134.214 185.11 136.23 194.266C139.054 208.179 145.508 216.146 159.625 222.924C174.011 229.94 205.607 232.675 227.926 228.87C251.321 224.946 265.304 215.195 270.01 199.617C272.43 191.412 272.43 188.558 269.741 180.591C266.917 172.148 258.178 164.537 247.019 160.851C238.951 158.235 224.162 155.5 206.683 153.478C198.078 152.408 188.801 150.981 178.583 149.197C169.574 147.533 165.81 144.203 165.675 137.544C165.675 131.717 168.768 127.674 175.625 124.463C180.331 122.323 183.557 121.966 197.944 121.966C207.221 121.847 216.767 122.204 219.187 122.679C230.347 124.701 238.145 131.003 240.968 140.517V140.517C241.851 143.212 244.366 145.035 247.202 145.035H253.741C259.926 145.035 265.304 144.56 265.707 143.965C266.917 142.3 263.959 130.885 260.867 125.177C255.489 114.95 244.464 107.696 228.599 103.891C220.128 101.869 191.624 100.799 183.154 102.107ZM226.851 107.696C236.397 109.718 246.212 114.237 251.455 119.112C254.951 122.442 259.254 131.003 260.464 136.949V136.949C260.949 139.28 259.17 141.468 256.789 141.468H251.493C248.495 141.468 245.744 139.803 244.353 137.146L243.254 135.047C241.372 131.598 237.472 126.96 234.649 124.939C226.716 119.112 219.994 117.804 199.288 118.042C182.885 118.28 180.465 118.517 174.415 121.253C166.348 124.82 161.642 130.528 161.642 136.83C161.642 149.435 168.902 152.884 203.994 156.927C239.758 161.089 254.413 165.726 261.808 175.002C265.573 179.758 265.842 180.829 265.842 190.936C265.842 201.401 265.707 201.995 261.136 207.941C249.573 223.043 218.246 230.535 185.978 225.778C159.759 221.973 145.239 212.817 141.34 197.596C139.188 189.39 139.861 188.32 147.659 188.439C154.112 188.439 154.247 188.439 156.264 193.552C162.852 209.13 174.549 214.006 205.339 214.006C225.91 213.887 234.246 212.341 242.044 206.871C247.019 203.303 251.052 194.147 249.708 189.153C248.498 184.396 240.699 177.499 235.321 176.548C233.624 176.214 231.86 175.705 230.68 175.266C229.902 174.977 229.243 174.44 228.476 174.123C227.991 173.923 227.493 173.813 227.12 173.813C225.91 173.813 207.624 171.672 189.204 169.413C156.936 165.37 145.911 158.116 144.432 140.041C143.894 134.333 144.566 132.074 148.062 125.296C151.289 119.231 152.768 117.566 154.381 118.161C155.86 118.636 156.398 118.399 155.86 117.209C154.516 114.118 176.163 106.388 188.532 105.556C199.154 104.842 217.977 105.913 226.851 107.696Z" fill="#1D4ED8"/>
<path d="M155.591 5.78667C151.961 6.97582 141.205 11.8513 131.794 16.7268C112.701 26.4778 65.3744 50.7363 58.114 54.4226C27.8624 69.6437 16.434 75.7083 12.8038 78.8001C3.93001 86.1728 4.33337 82.6053 4.33337 164.062C4.33337 244.805 4.06446 242.069 12.1316 248.848C15.2239 251.345 24.9045 256.696 53.4082 271.085C66.8534 277.863 88.9034 279.646 101.139 274.89C110.281 271.441 117.542 263.355 121.037 252.772C122.113 249.561 123.054 110.788 121.979 107.221C121.306 104.842 120.5 104.604 110.55 104.604C104.769 104.604 99.6596 105.08 99.2562 105.675C98.7184 106.269 98.3151 138.257 98.0462 176.786C97.7772 243.259 97.6428 246.826 95.2227 250.037C89.4413 257.528 77.8784 258.955 66.0467 253.485C58.5174 250.037 51.7948 246.707 36.3329 238.74L34.3092 237.713C29.942 235.498 27.1901 231.017 27.1901 226.12V101.944C27.1901 97.1407 29.8384 92.729 34.0773 90.4706L38.3496 88.1943C44.4 84.9836 52.0637 81.0595 55.425 79.3947C58.7863 77.7299 65.1055 74.5192 69.5424 72.2598C73.9793 70.0004 91.5925 61.0818 108.533 52.4011C144.701 33.9694 140.802 35.9909 153.844 29.0939L158.156 26.8152C161.938 24.8172 166.46 24.807 170.251 26.788L176.028 29.8074C182.482 33.2559 191.221 37.6557 195.255 39.5583C199.288 41.5799 204.129 44.0771 206.011 45.1473C207.893 46.2176 212.733 48.8337 216.767 50.7363C223.624 54.0659 241.64 63.2223 283.32 84.6269L293.815 90.0534C298.109 92.2735 300.817 96.6926 300.844 101.526L301.203 163.824L301.447 227.602C301.462 231.524 299.295 235.129 295.825 236.956V236.956C292.598 238.621 287.892 240.999 285.337 242.188C282.783 243.496 273.102 248.491 263.825 253.247C254.682 258.004 245.271 262.88 242.985 263.95C228.195 271.441 190.818 290.468 178.717 296.889L170.192 301.316C166.359 303.307 161.788 303.263 157.993 301.201L151.155 297.484C129.239 285.592 125.205 283.927 122.651 285.949C120.365 287.852 111.626 291.3 107.323 292.014C104.5 292.489 101.542 294.511 102.618 295.343C105.979 298.078 152.902 321.742 157.474 323.05C166.348 325.428 172.398 323.764 192.835 313.18C202.246 308.305 210.179 304.381 210.448 304.381C210.717 304.381 216.498 301.408 223.355 297.84C230.078 294.154 237.741 290.23 240.296 288.922C250.918 283.571 254.279 281.906 266.514 275.603C318.144 249.204 318.412 249.085 322.311 241.951C324.059 238.502 324.328 228.275 324.328 164.062C324.328 81.5351 324.732 85.5782 314.917 78.0866C312.093 75.9461 307.522 73.0922 304.564 71.7841C299.32 69.168 279.959 59.417 219.456 28.3804C168.095 2.10033 167.558 1.98141 155.591 5.78667ZM189.204 17.4403C198.078 22.0779 207.759 27.0723 210.717 28.4993C213.675 29.9263 218.784 32.5424 222.145 34.3261C225.506 36.2287 238.817 42.888 251.724 49.3093C264.632 55.7307 277.405 62.1521 279.959 63.698C282.514 65.1249 289.774 68.8113 296.093 71.9031C309.539 78.3244 317.202 84.508 319.085 90.3348C319.891 93.0698 320.295 119.826 320.026 166.559L319.647 234.094C319.631 236.953 318.673 239.727 316.921 241.986L316.396 242.664C313.169 246.945 307.656 250.631 298.11 255.15C295.152 256.458 288.026 260.144 282.11 263.236C276.329 266.328 268.531 270.371 264.632 272.155C260.867 274.057 250.918 279.052 242.447 283.452C234.111 287.733 226.851 291.3 226.582 291.3C226.179 291.3 224.296 292.37 222.279 293.559C220.263 294.867 215.019 297.603 210.717 299.743C206.28 301.765 198.482 305.808 193.238 308.543C169.843 321.029 164.062 322.099 151.827 316.748C142.55 312.467 124.936 303.073 123.861 301.646C123.658 301.347 123.32 301.079 122.949 300.9C122.264 300.572 121.459 300.666 120.742 300.414C119.598 300.013 117.831 299.221 116.063 298.316V298.316C114.128 297.289 114.2 294.493 116.185 293.567L118.752 292.37C124.936 289.279 126.415 288.922 128.701 290.23C141.877 297.602 161.507 306.759 164.062 306.759C165.81 306.759 169.978 305.332 173.474 303.548C176.969 301.883 183.692 298.435 188.532 296.057C193.372 293.678 199.423 290.587 201.977 289.278C234.649 272.393 251.993 263.593 256.43 261.571C257.909 260.977 261.943 258.955 265.304 257.172C268.665 255.269 277.405 250.75 284.799 247.064C292.06 243.259 299.589 239.216 301.471 237.907V237.907C303.581 236.415 304.842 233.996 304.857 231.412L305.236 165.608C305.505 111.62 305.236 95.0913 303.892 92.9509C302.95 91.405 299.455 88.7889 296.093 87.0052C292.732 85.3404 289.774 83.5566 289.371 83.1999C288.967 82.8432 286.547 81.5351 283.993 80.346C274.043 75.5894 257.775 67.2654 257.102 66.5519C256.699 66.1952 254.279 65.006 251.724 63.9358C249.17 62.7466 244.598 60.4873 241.641 58.9414C236.935 56.3253 226.044 50.8552 211.389 43.6014C209.552 42.7465 207.646 41.7071 206.42 41.0136C205.697 40.605 205.011 40.1318 204.288 39.7239C202.61 38.7768 199.307 37.146 195.927 35.5153C191.49 33.3748 184.095 29.6885 179.658 27.3102C175.087 24.9319 169.44 22.3158 167.02 21.6023C162.045 20.0564 162.986 19.6997 143.76 29.8074C136.499 33.7315 130.315 36.8233 129.911 36.8233C129.508 36.8233 126.55 38.3692 123.323 40.3908C120.096 42.2934 116.869 43.9582 116.063 43.9582C115.256 43.9582 114.584 44.4338 114.584 45.1473C114.584 45.7419 113.911 46.3365 113.239 46.3365C111.895 46.3365 99.3907 52.52 72.5003 66.433C65.9122 69.7626 60.2652 72.4976 59.9963 72.4976C59.7274 72.4976 56.2317 74.2813 52.3326 76.5407C48.568 78.6812 41.3076 82.4864 36.3329 84.8647C31.3581 87.243 26.3834 90.3348 25.1734 91.8807C23.4255 94.14 23.1566 103.415 23.1566 164.181V228.938C23.1566 232.077 24.4735 235.072 26.7868 237.194V237.194C28.8036 238.978 32.9716 241.475 35.9295 242.783C38.8874 244.21 41.5765 245.518 41.9798 245.994C43.4588 247.658 68.3324 259.193 71.8281 259.907C84.1976 262.404 94.2815 258.955 99.6596 250.275C101.542 247.064 101.945 238.859 102.483 177.737L103.086 115.901C103.125 111.894 106.279 108.61 110.281 108.41V108.41V108.41C114.084 108.216 117.273 111.246 117.273 115.054V131.598C117.407 222.568 117.138 249.323 115.794 253.604C111.76 266.804 101.676 273.106 84.3321 273.582C69.6769 273.939 63.6265 271.917 34.9883 257.291C21.2743 250.275 14.0139 245.399 11.0559 241.118C8.50137 237.313 8.36692 235.054 8.36692 165.132C8.36692 88.5511 8.23247 89.3835 14.6861 82.3675C16.0307 80.9405 24.3667 76.0651 33.2405 71.5463C63.0887 56.4442 76.1305 49.6661 88.5001 43.2447C95.3571 39.6773 101.273 36.8233 101.811 36.8233C102.349 36.8233 105.172 35.2774 108.264 33.4937C114.046 30.0452 141.071 16.1322 152.23 11.0189C156.936 8.75953 159.894 8.28387 165.675 8.5217C172.129 8.87845 175.49 10.1865 189.204 17.4403Z" stroke="#1D4ED8" stroke-width="7"/>
<path d="M183.154 102.107C166.079 104.961 154.381 110.312 147.255 118.636C141.608 125.296 139.726 131.717 140.398 142.063C141.743 160.97 155.726 169.77 190.549 173.575C227.12 177.499 234.515 179.045 240.834 183.801C244.464 186.418 245.002 187.607 245.002 192.601C245.002 197.477 244.33 199.023 240.565 202.471C234.246 208.417 225.372 210.438 205.339 210.438C187.725 210.438 176.028 208.417 169.574 204.374C165.138 201.639 160.297 194.028 160.297 189.866C160.297 185.347 157.743 184.277 147.39 184.277C135.289 184.277 134.214 185.11 136.23 194.266C139.054 208.179 145.508 216.146 159.625 222.924C174.011 229.94 205.607 232.675 227.926 228.87C251.321 224.946 265.304 215.195 270.01 199.617C272.43 191.412 272.43 188.558 269.741 180.591C266.917 172.148 258.178 164.537 247.019 160.851C238.951 158.235 224.162 155.5 206.683 153.478C198.078 152.408 188.801 150.981 178.583 149.197C169.574 147.533 165.81 144.203 165.675 137.544C165.675 131.717 168.768 127.674 175.625 124.463C180.331 122.323 183.557 121.966 197.944 121.966C207.221 121.847 216.767 122.204 219.187 122.679C230.347 124.701 238.145 131.003 240.968 140.517V140.517C241.851 143.212 244.366 145.035 247.202 145.035H253.741C259.926 145.035 265.304 144.56 265.707 143.965C266.917 142.3 263.959 130.885 260.867 125.177C255.489 114.95 244.464 107.696 228.599 103.891C220.128 101.869 191.624 100.799 183.154 102.107ZM226.851 107.696C236.397 109.718 246.212 114.237 251.455 119.112C254.951 122.442 259.254 131.003 260.464 136.949V136.949C260.949 139.28 259.17 141.468 256.789 141.468H251.493C248.495 141.468 245.744 139.803 244.353 137.146L243.254 135.047C241.372 131.598 237.472 126.96 234.649 124.939C226.716 119.112 219.994 117.804 199.288 118.042C182.885 118.28 180.465 118.517 174.415 121.253C166.348 124.82 161.642 130.528 161.642 136.83C161.642 149.435 168.902 152.884 203.994 156.927C239.758 161.089 254.413 165.726 261.808 175.002C265.573 179.758 265.842 180.829 265.842 190.936C265.842 201.401 265.707 201.995 261.136 207.941C249.573 223.043 218.246 230.535 185.978 225.778C159.759 221.973 145.239 212.817 141.34 197.596C139.188 189.39 139.861 188.32 147.659 188.439C154.112 188.439 154.247 188.439 156.264 193.552C162.852 209.13 174.549 214.006 205.339 214.006C225.91 213.887 234.246 212.341 242.044 206.871C247.019 203.303 251.052 194.147 249.708 189.153C248.498 184.396 240.699 177.499 235.321 176.548C233.624 176.214 231.86 175.705 230.68 175.266C229.902 174.977 229.243 174.44 228.476 174.123C227.991 173.923 227.493 173.813 227.12 173.813C225.91 173.813 207.624 171.672 189.204 169.413C156.936 165.37 145.911 158.116 144.432 140.041C143.894 134.333 144.566 132.074 148.062 125.296C151.289 119.231 152.768 117.566 154.381 118.161C155.86 118.636 156.398 118.399 155.86 117.209C154.516 114.118 176.163 106.388 188.532 105.556C199.154 104.842 217.977 105.913 226.851 107.696Z" stroke="#1D4ED8" stroke-width="7"/>
</svg>
