<svg width="36" height="38" viewBox="0 0 36 38" fill="none" xmlns="http://www.w3.org/2000/svg">
<path d="M36 18.5C36 28.7173 27.9411 37 18 37C8.05887 37 0 28.7173 0 18.5C0 8.28273 8.05887 0 18 0C27.9411 0 36 8.28273 36 18.5Z" fill="#EFF6FF"/>
<path d="M7.3115 32.001C7.58383 30.9403 7.92783 29.6217 8.3435 28.045C8.75917 26.454 9.21067 24.7627 9.698 22.971C10.1853 21.165 10.6655 19.4235 11.1385 17.7465C11.9842 18.0905 12.7582 18.3557 13.4605 18.542C14.1772 18.714 14.7505 18.7355 15.1805 18.6065C15.6105 18.4775 15.8255 18.1263 15.8255 17.553C15.8255 17.166 15.546 16.7933 14.987 16.435C14.4423 16.0767 13.3817 15.704 11.805 15.317C11.934 14.8153 12.063 14.3423 12.192 13.898C12.321 13.4393 12.4428 13.0093 12.5575 12.608C13.5465 13.0237 14.4853 13.3605 15.374 13.6185C16.2627 13.8765 16.9865 13.9553 17.5455 13.855C18.1045 13.7547 18.384 13.382 18.384 12.737C18.384 12.264 18.0257 11.834 17.309 11.447C16.5923 11.06 15.245 10.6443 13.267 10.2C13.2813 10.1427 13.2885 10.0997 13.2885 10.071C13.3028 10.028 13.3172 9.97783 13.3315 9.9205C13.7042 8.6735 14.385 7.706 15.374 7.018C16.3773 6.33 17.7462 6.00033 19.4805 6.029C21.2578 6.029 22.6482 6.42317 23.6515 7.2115C24.6548 7.9855 25.2855 9.22533 25.5435 10.931C25.5722 11.146 25.6008 11.3753 25.6295 11.619C25.6725 11.8483 25.7083 12.092 25.737 12.35C25.7657 12.5793 25.7943 12.8158 25.823 13.0595C25.866 13.3032 25.9018 13.554 25.9305 13.812C25.9592 13.9553 25.9807 14.0987 25.995 14.242C26.0237 14.3853 26.0452 14.5287 26.0595 14.672C26.0882 14.8153 26.1097 14.9658 26.124 15.1235C26.167 15.4532 26.21 15.79 26.253 16.134C26.296 16.478 26.3462 16.8292 26.4035 17.1875C26.4322 17.4025 26.4608 17.6247 26.4895 17.854C26.5325 18.069 26.5612 18.2983 26.5755 18.542C26.6042 18.714 26.6257 18.8932 26.64 19.0795C26.6687 19.2515 26.6973 19.4307 26.726 19.617C26.7547 19.789 26.7762 19.9682 26.7905 20.1545C26.9625 21.4015 27.1273 22.67 27.285 23.96C27.457 25.25 27.6218 26.5185 27.7795 27.7655C27.9372 29.0125 28.0805 30.195 28.2095 31.313C28.3528 32.431 28.4818 33.4487 28.5965 34.366C28.6968 35.1543 28.575 35.8137 28.231 36.344C27.887 36.8887 27.3925 37.161 26.7475 37.161C26.1885 37.161 25.7083 36.946 25.307 36.516C24.92 36.1003 24.6835 35.484 24.5975 34.667C24.3252 32.087 24.0815 29.4067 23.8665 26.626C23.6515 23.831 23.415 21.0073 23.157 18.155C23.071 17.166 22.8918 16.478 22.6195 16.091C22.3472 15.704 21.8957 15.5105 21.265 15.5105C20.6917 15.5105 20.147 15.6825 19.631 16.0265C19.1293 16.3705 18.5632 17.1803 17.9325 18.456C16.7142 20.9213 15.503 23.444 14.299 26.024C13.1093 28.604 11.9412 31.0837 10.7945 33.463C10.5078 34.0507 10.1925 34.4807 9.8485 34.753C9.5045 35.011 9.1175 35.14 8.6875 35.14C8.07117 35.14 7.62683 34.8462 7.3545 34.2585C7.0965 33.6708 7.08217 32.9183 7.3115 32.001ZM12.2995 28.475L13.1165 25.422C14.9512 25.3503 16.7787 25.2787 18.599 25.207C20.4193 25.1353 22.1465 25.078 23.7805 25.035C24.4685 25.0063 25.0347 25.1138 25.479 25.3575C25.9233 25.5868 26.1455 25.9667 26.1455 26.497C26.1455 27.0703 25.9878 27.486 25.6725 27.744C25.3715 28.002 24.9272 28.1453 24.3395 28.174C22.3328 28.26 20.3477 28.3245 18.384 28.3675C16.4203 28.4105 14.3922 28.4463 12.2995 28.475ZM26.7905 32.517C26.4035 32.517 26.0595 32.3952 25.7585 32.1515C25.4718 31.9078 25.3285 31.571 25.3285 31.141C25.3285 30.711 25.4575 30.3813 25.7155 30.152C25.9878 29.9227 26.3462 29.808 26.7905 29.808C26.8765 29.808 26.9983 29.808 27.156 29.808C27.3137 29.808 27.4642 29.808 27.6075 29.808V32.517C27.4785 32.5313 27.3423 32.5385 27.199 32.5385C27.0557 32.5242 26.9195 32.517 26.7905 32.517ZM10.042 26.6905C8.752 26.3178 7.75583 25.9882 7.0535 25.7015C6.35117 25.4148 5.86383 25.1353 5.5915 24.863C5.30483 24.5763 5.1615 24.2538 5.1615 23.8955C5.1615 23.2075 5.441 22.799 6 22.67C6.54467 22.541 7.26133 22.5983 8.15 22.842C9.03867 23.0857 9.97033 23.4297 10.945 23.874L10.042 26.6905ZM11.2675 29.206C10.9092 29.0913 10.601 28.9695 10.343 28.8405C10.0993 28.7115 9.913 28.561 9.784 28.389C9.655 28.217 9.5905 28.002 9.5905 27.744C9.5905 27.1993 9.69083 26.7693 9.8915 26.454C10.0922 26.1387 10.3788 25.9452 10.7515 25.8735C11.1385 25.8018 11.6115 25.8663 12.1705 26.067L11.2675 29.206ZM24.7695 23.401L24.4685 20.434C24.9845 20.3767 25.4073 20.3767 25.737 20.434C26.0667 20.4913 26.3103 20.649 26.468 20.907C26.6257 21.1507 26.7045 21.5377 26.7045 22.068C26.7045 22.584 26.5397 22.9137 26.21 23.057C25.8803 23.2003 25.4002 23.315 24.7695 23.401ZM26.296 28.045L26.1455 24.906C27.3495 24.863 28.2955 24.8487 28.9835 24.863C29.6858 24.8773 30.1803 25.0063 30.467 25.25C30.768 25.4793 30.9185 25.9165 30.9185 26.5615C30.9185 27.1492 30.6032 27.5433 29.9725 27.744C29.3562 27.9303 28.1307 28.0307 26.296 28.045Z" fill="#2563EB"/>
</svg>
