<svg width="145" height="21" viewBox="0 0 145 21" fill="none" xmlns="http://www.w3.org/2000/svg">
<path d="M2.14965 21H0L4.83015 0H7.16985L12 21H9.85035L6.05571 3.81445H5.95085L2.14965 21ZM2.5101 12.7764H9.48334V15.4424H2.5101V12.7764Z" fill="#2563EB"/>
<path d="M16.6476 19.8551C15.9942 19.8551 15.4331 19.7116 14.9644 19.4247C14.4984 19.1378 14.1391 18.7415 13.8862 18.2358C13.6362 17.7273 13.5112 17.142 13.5112 16.4801C13.5112 15.8153 13.6391 15.2287 13.8948 14.7202C14.1504 14.2088 14.5112 13.8111 14.9771 13.527C15.4459 13.2401 15.9999 13.0966 16.6391 13.0966C17.1703 13.0966 17.6405 13.1946 18.0496 13.3906C18.4615 13.5838 18.7896 13.858 19.034 14.2131C19.2783 14.5653 19.4175 14.9773 19.4516 15.4489H17.9771C17.9175 15.1335 17.7754 14.8707 17.551 14.6605C17.3294 14.4474 17.0325 14.3409 16.6604 14.3409C16.345 14.3409 16.068 14.4261 15.8294 14.5966C15.5908 14.7642 15.4047 15.0057 15.2712 15.321C15.1405 15.6364 15.0752 16.0142 15.0752 16.4545C15.0752 16.9006 15.1405 17.2841 15.2712 17.6051C15.4019 17.9233 15.5851 18.169 15.8209 18.3423C16.0595 18.5128 16.3394 18.598 16.6604 18.598C16.8877 18.598 17.0908 18.5554 17.2698 18.4702C17.4516 18.3821 17.6036 18.2557 17.7257 18.0909C17.8479 17.9261 17.9317 17.7259 17.9771 17.4901H19.4516C19.4146 17.9531 19.2783 18.3636 19.0425 18.7216C18.8067 19.0767 18.4857 19.3551 18.0794 19.5568C17.6732 19.7557 17.1959 19.8551 16.6476 19.8551Z" fill="black"/>
<path d="M23.5734 19.8551C22.92 19.8551 22.3589 19.7116 21.8901 19.4247C21.4242 19.1378 21.0649 18.7415 20.812 18.2358C20.562 17.7273 20.437 17.142 20.437 16.4801C20.437 15.8153 20.5649 15.2287 20.8205 14.7202C21.0762 14.2088 21.437 13.8111 21.9029 13.527C22.3717 13.2401 22.9256 13.0966 23.5649 13.0966C24.0961 13.0966 24.5663 13.1946 24.9754 13.3906C25.3873 13.5838 25.7154 13.858 25.9597 14.2131C26.2041 14.5653 26.3433 14.9773 26.3774 15.4489H24.9029C24.8433 15.1335 24.7012 14.8707 24.4768 14.6605C24.2552 14.4474 23.9583 14.3409 23.5862 14.3409C23.2708 14.3409 22.9938 14.4261 22.7552 14.5966C22.5166 14.7642 22.3305 15.0057 22.197 15.321C22.0663 15.6364 22.0009 16.0142 22.0009 16.4545C22.0009 16.9006 22.0663 17.2841 22.197 17.6051C22.3276 17.9233 22.5109 18.169 22.7467 18.3423C22.9853 18.5128 23.2651 18.598 23.5862 18.598C23.8134 18.598 24.0166 18.5554 24.1955 18.4702C24.3774 18.3821 24.5293 18.2557 24.6515 18.0909C24.7737 17.9261 24.8575 17.7259 24.9029 17.4901H26.3774C26.3404 17.9531 26.2041 18.3636 25.9683 18.7216C25.7325 19.0767 25.4114 19.3551 25.0052 19.5568C24.5989 19.7557 24.1217 19.8551 23.5734 19.8551Z" fill="black"/>
<path d="M30.5418 19.8551C29.8855 19.8551 29.3188 19.7188 28.8415 19.446C28.3671 19.1705 28.002 18.7813 27.7463 18.2784C27.4906 17.7727 27.3628 17.1776 27.3628 16.4929C27.3628 15.8196 27.4906 15.2287 27.7463 14.7202C28.0048 14.2088 28.3656 13.8111 28.8287 13.527C29.2918 13.2401 29.8358 13.0966 30.4608 13.0966C30.8642 13.0966 31.2449 13.1619 31.6028 13.2926C31.9636 13.4205 32.2818 13.6193 32.5574 13.8892C32.8358 14.1591 33.0546 14.5028 33.2136 14.9205C33.3727 15.3352 33.4523 15.8295 33.4523 16.4034V16.8764H28.0872V15.8366H31.9736C31.9707 15.5412 31.9068 15.2784 31.7818 15.0483C31.6568 14.8153 31.4821 14.6321 31.2577 14.4986C31.0361 14.3651 30.7776 14.2983 30.4821 14.2983C30.1668 14.2983 29.8898 14.375 29.6511 14.5284C29.4125 14.679 29.2264 14.8778 29.0929 15.125C28.9622 15.3693 28.8955 15.6378 28.8926 15.9304V16.8381C28.8926 17.2188 28.9622 17.5455 29.1014 17.8182C29.2406 18.0881 29.4352 18.2955 29.6852 18.4403C29.9352 18.5824 30.2279 18.6534 30.5631 18.6534C30.7875 18.6534 30.9906 18.6222 31.1725 18.5597C31.3543 18.4943 31.5119 18.3991 31.6455 18.2741C31.779 18.1491 31.8798 17.9943 31.948 17.8097L33.3884 17.9716C33.2975 18.3523 33.1242 18.6847 32.8685 18.9688C32.6156 19.25 32.2918 19.4688 31.8969 19.625C31.502 19.7784 31.0503 19.8551 30.5418 19.8551Z" fill="black"/>
<path d="M36.2999 11V19.7273H34.7573V11H36.2999Z" fill="black"/>
<path d="M40.784 19.8551C40.1277 19.8551 39.5609 19.7188 39.0837 19.446C38.6092 19.1705 38.2442 18.7813 37.9885 18.2784C37.7328 17.7727 37.605 17.1776 37.605 16.4929C37.605 15.8196 37.7328 15.2287 37.9885 14.7202C38.247 14.2088 38.6078 13.8111 39.0709 13.527C39.534 13.2401 40.078 13.0966 40.703 13.0966C41.1064 13.0966 41.4871 13.1619 41.845 13.2926C42.2058 13.4205 42.524 13.6193 42.7996 13.8892C43.078 14.1591 43.2967 14.5028 43.4558 14.9205C43.6149 15.3352 43.6945 15.8295 43.6945 16.4034V16.8764H38.3294V15.8366H42.2158C42.2129 15.5412 42.149 15.2784 42.024 15.0483C41.899 14.8153 41.7243 14.6321 41.4999 14.4986C41.2783 14.3651 41.0198 14.2983 40.7243 14.2983C40.409 14.2983 40.132 14.375 39.8933 14.5284C39.6547 14.679 39.4686 14.8778 39.3351 15.125C39.2044 15.3693 39.1377 15.6378 39.1348 15.9304V16.8381C39.1348 17.2188 39.2044 17.5455 39.3436 17.8182C39.4828 18.0881 39.6774 18.2955 39.9274 18.4403C40.1774 18.5824 40.47 18.6534 40.8053 18.6534C41.0297 18.6534 41.2328 18.6222 41.4146 18.5597C41.5965 18.4943 41.7541 18.3991 41.8877 18.2741C42.0212 18.1491 42.122 17.9943 42.1902 17.8097L43.6305 17.9716C43.5396 18.3523 43.3663 18.6847 43.1107 18.9688C42.8578 19.25 42.534 19.4688 42.1391 19.625C41.7442 19.7784 41.2925 19.8551 40.784 19.8551Z" fill="black"/>
<path d="M44.9995 19.7273V13.1818H46.4953V14.2727H46.5634C46.6827 13.8949 46.8873 13.6037 47.1771 13.3991C47.4697 13.1918 47.8035 13.0881 48.1785 13.0881C48.2637 13.0881 48.3589 13.0923 48.464 13.1009C48.572 13.1065 48.6614 13.1165 48.7325 13.1307V14.5497C48.6671 14.527 48.5634 14.5071 48.4214 14.4901C48.2822 14.4702 48.1472 14.4602 48.0166 14.4602C47.7353 14.4602 47.4825 14.5213 47.258 14.6435C47.0364 14.7628 46.8617 14.929 46.7339 15.142C46.606 15.3551 46.5421 15.6009 46.5421 15.8793V19.7273H44.9995Z" fill="black"/>
<path d="M51.5237 19.8594C51.1089 19.8594 50.7353 19.7855 50.4029 19.6378C50.0734 19.4872 49.812 19.2656 49.6188 18.973C49.4285 18.6804 49.3333 18.3196 49.3333 17.8906C49.3333 17.5213 49.4015 17.2159 49.5379 16.9744C49.6742 16.733 49.8603 16.5398 50.0961 16.3949C50.3319 16.25 50.5975 16.1406 50.893 16.0668C51.1913 15.9901 51.4995 15.9347 51.8177 15.9006C52.2012 15.8608 52.5123 15.8253 52.7509 15.794C52.9896 15.7599 53.1629 15.7088 53.2708 15.6406C53.3816 15.5696 53.437 15.4602 53.437 15.3125V15.2869C53.437 14.9659 53.3418 14.7173 53.1515 14.5412C52.9612 14.3651 52.687 14.277 52.3291 14.277C51.9512 14.277 51.6515 14.3594 51.4299 14.5241C51.2112 14.6889 51.0634 14.8835 50.9867 15.108L49.5464 14.9034C49.66 14.5057 49.8475 14.1733 50.1089 13.9062C50.3703 13.6364 50.6899 13.4347 51.0677 13.3011C51.4455 13.1648 51.8631 13.0966 52.3205 13.0966C52.6359 13.0966 52.9498 13.1335 53.2623 13.2074C53.5748 13.2812 53.8603 13.4034 54.1188 13.5739C54.3774 13.7415 54.5847 13.9702 54.741 14.2599C54.9001 14.5497 54.9796 14.9119 54.9796 15.3466V19.7273H53.4967V18.8281H53.4455C53.3518 19.0099 53.2197 19.1804 53.0492 19.3395C52.8816 19.4957 52.67 19.6222 52.4143 19.7188C52.1614 19.8125 51.8646 19.8594 51.5237 19.8594ZM51.9242 18.7259C52.2339 18.7259 52.5024 18.6648 52.7296 18.5426C52.9569 18.4176 53.1316 18.2528 53.2538 18.0483C53.3788 17.8438 53.4413 17.6207 53.4413 17.3793V16.608C53.393 16.6477 53.3106 16.6847 53.1941 16.7188C53.0805 16.7528 52.9526 16.7827 52.8106 16.8082C52.6685 16.8338 52.5279 16.8565 52.3887 16.8764C52.2495 16.8963 52.1288 16.9134 52.0265 16.9276C51.7964 16.9588 51.5904 17.0099 51.4086 17.081C51.2268 17.152 51.0833 17.2514 50.9782 17.3793C50.8731 17.5043 50.8205 17.6662 50.8205 17.8651C50.8205 18.1491 50.9242 18.3636 51.1316 18.5085C51.339 18.6534 51.6032 18.7259 51.9242 18.7259Z" fill="black"/>
<path d="M59.7992 13.1818V14.375H56.0364V13.1818H59.7992ZM56.9654 11.6136H58.508V17.7585C58.508 17.9659 58.5393 18.125 58.6018 18.2358C58.6671 18.3438 58.7524 18.4176 58.8575 18.4574C58.9626 18.4972 59.0791 18.517 59.2069 18.517C59.3035 18.517 59.3916 18.5099 59.4711 18.4957C59.5535 18.4815 59.616 18.4688 59.6586 18.4574L59.9185 19.6634C59.8362 19.6918 59.7183 19.723 59.5649 19.7571C59.4143 19.7912 59.2296 19.8111 59.0109 19.8168C58.6245 19.8281 58.2765 19.7699 57.9668 19.642C57.6572 19.5114 57.4114 19.3097 57.2296 19.0369C57.0506 18.7642 56.9626 18.4233 56.9654 18.0142V11.6136Z" fill="black"/>
<path d="M63.9168 19.8551C63.2605 19.8551 62.6938 19.7188 62.2165 19.446C61.7421 19.1705 61.377 18.7813 61.1213 18.2784C60.8656 17.7727 60.7378 17.1776 60.7378 16.4929C60.7378 15.8196 60.8656 15.2287 61.1213 14.7202C61.3798 14.2088 61.7406 13.8111 62.2037 13.527C62.6668 13.2401 63.2108 13.0966 63.8358 13.0966C64.2392 13.0966 64.6199 13.1619 64.9778 13.2926C65.3386 13.4205 65.6568 13.6193 65.9324 13.8892C66.2108 14.1591 66.4296 14.5028 66.5886 14.9205C66.7477 15.3352 66.8273 15.8295 66.8273 16.4034V16.8764H61.4622V15.8366H65.3486C65.3457 15.5412 65.2818 15.2784 65.1568 15.0483C65.0318 14.8153 64.8571 14.6321 64.6327 14.4986C64.4111 14.3651 64.1526 14.2983 63.8571 14.2983C63.5418 14.2983 63.2648 14.375 63.0261 14.5284C62.7875 14.679 62.6014 14.8778 62.4679 15.125C62.3372 15.3693 62.2705 15.6378 62.2676 15.9304V16.8381C62.2676 17.2188 62.3372 17.5455 62.4764 17.8182C62.6156 18.0881 62.8102 18.2955 63.0602 18.4403C63.3102 18.5824 63.6028 18.6534 63.9381 18.6534C64.1625 18.6534 64.3656 18.6222 64.5475 18.5597C64.7293 18.4943 64.8869 18.3991 65.0205 18.2741C65.154 18.1491 65.2548 17.9943 65.323 17.8097L66.7634 17.9716C66.6725 18.3523 66.4992 18.6847 66.2435 18.9688C65.9906 19.25 65.6668 19.4688 65.2719 19.625C64.877 19.7784 64.4253 19.8551 63.9168 19.8551Z" fill="black"/>
<path d="M74.3774 13.1818V14.375H70.6146V13.1818H74.3774ZM71.5435 11.6136H73.0862V17.7585C73.0862 17.9659 73.1174 18.125 73.1799 18.2358C73.2452 18.3438 73.3305 18.4176 73.4356 18.4574C73.5407 18.4972 73.6572 18.517 73.785 18.517C73.8816 18.517 73.9697 18.5099 74.0492 18.4957C74.1316 18.4815 74.1941 18.4688 74.2367 18.4574L74.4967 19.6634C74.4143 19.6918 74.2964 19.723 74.143 19.7571C73.9924 19.7912 73.8078 19.8111 73.589 19.8168C73.2026 19.8281 72.8546 19.7699 72.545 19.642C72.2353 19.5114 71.9896 19.3097 71.8078 19.0369C71.6288 18.7642 71.5407 18.4233 71.5435 18.0142V11.6136Z" fill="black"/>
<path d="M77.3507 15.892V19.7273H75.8081V11H77.3166V14.294H77.3933C77.5467 13.9247 77.784 13.6335 78.105 13.4205C78.4288 13.2045 78.8408 13.0966 79.3408 13.0966C79.7953 13.0966 80.1916 13.1918 80.5297 13.3821C80.8678 13.5724 81.1291 13.8509 81.3138 14.2173C81.5013 14.5838 81.595 15.0312 81.595 15.5597V19.7273H80.0524V15.7983C80.0524 15.358 79.9388 15.0156 79.7115 14.7713C79.4871 14.5241 79.1717 14.4006 78.7655 14.4006C78.4928 14.4006 78.2484 14.4602 78.0325 14.5795C77.8195 14.696 77.6519 14.8651 77.5297 15.0866C77.4104 15.3082 77.3507 15.5767 77.3507 15.892Z" fill="black"/>
<path d="M86.0652 19.8551C85.409 19.8551 84.8422 19.7188 84.3649 19.446C83.8905 19.1705 83.5254 18.7813 83.2698 18.2784C83.0141 17.7727 82.8862 17.1776 82.8862 16.4929C82.8862 15.8196 83.0141 15.2287 83.2698 14.7202C83.5283 14.2088 83.8891 13.8111 84.3521 13.527C84.8152 13.2401 85.3592 13.0966 85.9842 13.0966C86.3877 13.0966 86.7683 13.1619 87.1263 13.2926C87.4871 13.4205 87.8053 13.6193 88.0808 13.8892C88.3592 14.1591 88.578 14.5028 88.7371 14.9205C88.8962 15.3352 88.9757 15.8295 88.9757 16.4034V16.8764H83.6107V15.8366H87.497C87.4942 15.5412 87.4303 15.2784 87.3053 15.0483C87.1803 14.8153 87.0056 14.6321 86.7811 14.4986C86.5595 14.3651 86.301 14.2983 86.0055 14.2983C85.6902 14.2983 85.4132 14.375 85.1746 14.5284C84.9359 14.679 84.7499 14.8778 84.6163 15.125C84.4857 15.3693 84.4189 15.6378 84.4161 15.9304V16.8381C84.4161 17.2188 84.4857 17.5455 84.6249 17.8182C84.7641 18.0881 84.9587 18.2955 85.2087 18.4403C85.4587 18.5824 85.7513 18.6534 86.0865 18.6534C86.3109 18.6534 86.5141 18.6222 86.6959 18.5597C86.8777 18.4943 87.0354 18.3991 87.1689 18.2741C87.3024 18.1491 87.4033 17.9943 87.4715 17.8097L88.9118 17.9716C88.8209 18.3523 88.6476 18.6847 88.3919 18.9688C88.1391 19.25 87.8152 19.4688 87.4203 19.625C87.0254 19.7784 86.5737 19.8551 86.0652 19.8551Z" fill="black"/>
<path d="M93.3255 19.7273V11H94.8681V14.2642H94.932C95.0116 14.1051 95.1238 13.9361 95.2687 13.7571C95.4136 13.5753 95.6096 13.4205 95.8568 13.2926C96.1039 13.1619 96.4193 13.0966 96.8028 13.0966C97.3085 13.0966 97.7644 13.2259 98.1707 13.4844C98.5798 13.7401 98.9036 14.1193 99.1423 14.6222C99.3837 15.1222 99.5045 15.7358 99.5045 16.4631C99.5045 17.1818 99.3866 17.7926 99.1508 18.2955C98.915 18.7983 98.594 19.1818 98.1877 19.446C97.7815 19.7102 97.3212 19.8423 96.807 19.8423C96.432 19.8423 96.121 19.7798 95.8738 19.6548C95.6266 19.5298 95.4278 19.3793 95.2772 19.2031C95.1295 19.0241 95.0144 18.8551 94.932 18.696H94.8426V19.7273H93.3255ZM94.8383 16.4545C94.8383 16.8778 94.8979 17.2486 95.0173 17.5668C95.1394 17.8849 95.3141 18.1335 95.5414 18.3125C95.7715 18.4886 96.0499 18.5767 96.3766 18.5767C96.7175 18.5767 97.0031 18.4858 97.2332 18.304C97.4633 18.1193 97.6366 17.8679 97.7531 17.5497C97.8724 17.2287 97.932 16.8636 97.932 16.4545C97.932 16.0483 97.8738 15.6875 97.7573 15.3722C97.6408 15.0568 97.4675 14.8097 97.2374 14.6307C97.0073 14.4517 96.7204 14.3622 96.3766 14.3622C96.0471 14.3622 95.7673 14.4489 95.5372 14.6222C95.307 14.7955 95.1323 15.0384 95.013 15.3509C94.8965 15.6634 94.8383 16.0312 94.8383 16.4545Z" fill="black"/>
<path d="M104.988 16.9744V13.1818H106.53V19.7273H105.035V18.5639H104.966C104.819 18.9304 104.576 19.2301 104.238 19.4631C103.903 19.696 103.489 19.8125 102.998 19.8125C102.569 19.8125 102.19 19.7173 101.86 19.527C101.533 19.3338 101.278 19.054 101.093 18.6875C100.908 18.3182 100.816 17.8722 100.816 17.3494V13.1818H102.359V17.1108C102.359 17.5256 102.472 17.8551 102.699 18.0994C102.927 18.3438 103.225 18.4659 103.594 18.4659C103.822 18.4659 104.042 18.4105 104.255 18.2997C104.468 18.1889 104.643 18.0241 104.779 17.8054C104.918 17.5838 104.988 17.3068 104.988 16.9744Z" fill="black"/>
<path d="M113.29 14.9119L111.884 15.0653C111.844 14.9233 111.774 14.7898 111.675 14.6648C111.578 14.5398 111.448 14.4389 111.283 14.3622C111.118 14.2855 110.916 14.2472 110.678 14.2472C110.357 14.2472 110.087 14.3168 109.868 14.456C109.652 14.5952 109.546 14.7756 109.549 14.9972C109.546 15.1875 109.615 15.3423 109.757 15.4616C109.902 15.581 110.141 15.679 110.473 15.7557L111.59 15.9943C112.209 16.1278 112.669 16.3395 112.97 16.6293C113.274 16.919 113.428 17.2983 113.431 17.767C113.428 18.179 113.307 18.5426 113.068 18.858C112.833 19.1705 112.504 19.4148 112.084 19.5909C111.664 19.767 111.181 19.8551 110.635 19.8551C109.834 19.8551 109.189 19.6875 108.701 19.3523C108.212 19.0142 107.921 18.544 107.827 17.9418L109.331 17.7969C109.399 18.0923 109.544 18.3153 109.766 18.4659C109.987 18.6165 110.276 18.6918 110.631 18.6918C110.997 18.6918 111.291 18.6165 111.513 18.4659C111.737 18.3153 111.85 18.1293 111.85 17.9077C111.85 17.7202 111.777 17.5653 111.632 17.4432C111.49 17.321 111.269 17.2273 110.968 17.1619L109.851 16.9276C109.223 16.7969 108.759 16.5767 108.458 16.267C108.156 15.9545 108.007 15.5597 108.01 15.0824C108.007 14.679 108.117 14.3295 108.338 14.0341C108.563 13.7358 108.874 13.5057 109.272 13.3438C109.672 13.179 110.134 13.0966 110.656 13.0966C111.424 13.0966 112.027 13.2599 112.468 13.5866C112.911 13.9134 113.185 14.3551 113.29 14.9119Z" fill="black"/>
<path d="M114.703 19.7273V13.1818H116.245V19.7273H114.703ZM115.478 12.2528C115.234 12.2528 115.024 12.1719 114.848 12.0099C114.671 11.8452 114.583 11.6477 114.583 11.4176C114.583 11.1847 114.671 10.9872 114.848 10.8253C115.024 10.6605 115.234 10.5781 115.478 10.5781C115.725 10.5781 115.936 10.6605 116.109 10.8253C116.285 10.9872 116.373 11.1847 116.373 11.4176C116.373 11.6477 116.285 11.8452 116.109 12.0099C115.936 12.1719 115.725 12.2528 115.478 12.2528Z" fill="black"/>
<path d="M119.374 15.892V19.7273H117.832V13.1818H119.306V14.294H119.383C119.533 13.9276 119.773 13.6364 120.103 13.4205C120.435 13.2045 120.846 13.0966 121.334 13.0966C121.786 13.0966 122.18 13.1932 122.515 13.3864C122.853 13.5795 123.114 13.8594 123.299 14.2259C123.486 14.5923 123.579 15.0369 123.576 15.5597V19.7273H122.033V15.7983C122.033 15.3608 121.92 15.0185 121.692 14.7713C121.468 14.5241 121.157 14.4006 120.759 14.4006C120.489 14.4006 120.249 14.4602 120.039 14.5795C119.832 14.696 119.668 14.8651 119.549 15.0866C119.432 15.3082 119.374 15.5767 119.374 15.892Z" fill="black"/>
<path d="M128.042 19.8551C127.386 19.8551 126.819 19.7188 126.341 19.446C125.867 19.1705 125.502 18.7813 125.246 18.2784C124.991 17.7727 124.863 17.1776 124.863 16.4929C124.863 15.8196 124.991 15.2287 125.246 14.7202C125.505 14.2088 125.866 13.8111 126.329 13.527C126.792 13.2401 127.336 13.0966 127.961 13.0966C128.364 13.0966 128.745 13.1619 129.103 13.2926C129.464 13.4205 129.782 13.6193 130.057 13.8892C130.336 14.1591 130.555 14.5028 130.714 14.9205C130.873 15.3352 130.952 15.8295 130.952 16.4034V16.8764H125.587V15.8366H129.474C129.471 15.5412 129.407 15.2784 129.282 15.0483C129.157 14.8153 128.982 14.6321 128.758 14.4986C128.536 14.3651 128.278 14.2983 127.982 14.2983C127.667 14.2983 127.39 14.375 127.151 14.5284C126.913 14.679 126.726 14.8778 126.593 15.125C126.462 15.3693 126.395 15.6378 126.393 15.9304V16.8381C126.393 17.2188 126.462 17.5455 126.601 17.8182C126.741 18.0881 126.935 18.2955 127.185 18.4403C127.435 18.5824 127.728 18.6534 128.063 18.6534C128.288 18.6534 128.491 18.6222 128.672 18.5597C128.854 18.4943 129.012 18.3991 129.145 18.2741C129.279 18.1491 129.38 17.9943 129.448 17.8097L130.888 17.9716C130.797 18.3523 130.624 18.6847 130.368 18.9688C130.116 19.25 129.792 19.4688 129.397 19.625C129.002 19.7784 128.55 19.8551 128.042 19.8551Z" fill="black"/>
<path d="M137.431 14.9119L136.024 15.0653C135.985 14.9233 135.915 14.7898 135.816 14.6648C135.719 14.5398 135.588 14.4389 135.424 14.3622C135.259 14.2855 135.057 14.2472 134.818 14.2472C134.497 14.2472 134.227 14.3168 134.009 14.456C133.793 14.5952 133.686 14.7756 133.689 14.9972C133.686 15.1875 133.756 15.3423 133.898 15.4616C134.043 15.581 134.281 15.679 134.614 15.7557L135.73 15.9943C136.35 16.1278 136.81 16.3395 137.111 16.6293C137.415 16.919 137.568 17.2983 137.571 17.767C137.568 18.179 137.448 18.5426 137.209 18.858C136.973 19.1705 136.645 19.4148 136.225 19.5909C135.804 19.767 135.321 19.8551 134.776 19.8551C133.975 19.8551 133.33 19.6875 132.841 19.3523C132.352 19.0142 132.061 18.544 131.968 17.9418L133.472 17.7969C133.54 18.0923 133.685 18.3153 133.906 18.4659C134.128 18.6165 134.416 18.6918 134.772 18.6918C135.138 18.6918 135.432 18.6165 135.654 18.4659C135.878 18.3153 135.99 18.1293 135.99 17.9077C135.99 17.7202 135.918 17.5653 135.773 17.4432C135.631 17.321 135.409 17.2273 135.108 17.1619L133.992 16.9276C133.364 16.7969 132.899 16.5767 132.598 16.267C132.297 15.9545 132.148 15.5597 132.151 15.0824C132.148 14.679 132.257 14.3295 132.479 14.0341C132.703 13.7358 133.014 13.5057 133.412 13.3438C133.813 13.179 134.274 13.0966 134.797 13.0966C135.564 13.0966 136.168 13.2599 136.608 13.5866C137.051 13.9134 137.326 14.3551 137.431 14.9119Z" fill="black"/>
<path d="M144.017 14.9119L142.61 15.0653C142.571 14.9233 142.501 14.7898 142.402 14.6648C142.305 14.5398 142.174 14.4389 142.009 14.3622C141.845 14.2855 141.643 14.2472 141.404 14.2472C141.083 14.2472 140.813 14.3168 140.595 14.456C140.379 14.5952 140.272 14.7756 140.275 14.9972C140.272 15.1875 140.342 15.3423 140.484 15.4616C140.629 15.581 140.867 15.679 141.2 15.7557L142.316 15.9943C142.936 16.1278 143.396 16.3395 143.697 16.6293C144.001 16.919 144.154 17.2983 144.157 17.767C144.154 18.179 144.034 18.5426 143.795 18.858C143.559 19.1705 143.231 19.4148 142.811 19.5909C142.39 19.767 141.907 19.8551 141.362 19.8551C140.561 19.8551 139.916 19.6875 139.427 19.3523C138.938 19.0142 138.647 18.544 138.553 17.9418L140.058 17.7969C140.126 18.0923 140.271 18.3153 140.492 18.4659C140.714 18.6165 141.002 18.6918 141.357 18.6918C141.724 18.6918 142.018 18.6165 142.24 18.4659C142.464 18.3153 142.576 18.1293 142.576 17.9077C142.576 17.7202 142.504 17.5653 142.359 17.4432C142.217 17.321 141.995 17.2273 141.694 17.1619L140.578 16.9276C139.95 16.7969 139.485 16.5767 139.184 16.267C138.883 15.9545 138.734 15.5597 138.737 15.0824C138.734 14.679 138.843 14.3295 139.065 14.0341C139.289 13.7358 139.6 13.5057 139.998 13.3438C140.399 13.179 140.86 13.0966 141.383 13.0966C142.15 13.0966 142.754 13.2599 143.194 13.5866C143.637 13.9134 143.911 14.3551 144.017 14.9119Z" fill="black"/>
<path d="M11.7925 9.72727V3.18182H13.2882V4.27273H13.3564C13.4757 3.89489 13.6803 3.60369 13.97 3.39915C14.2627 3.19176 14.5965 3.08807 14.9715 3.08807C15.0567 3.08807 15.1519 3.09233 15.257 3.10085C15.3649 3.10653 15.4544 3.11648 15.5254 3.13068V4.54972C15.4601 4.52699 15.3564 4.5071 15.2144 4.49006C15.0752 4.47017 14.9402 4.46023 14.8095 4.46023C14.5283 4.46023 14.2754 4.52131 14.051 4.64347C13.8294 4.76278 13.6547 4.92898 13.5269 5.14205C13.399 5.35511 13.3351 5.60085 13.3351 5.87926V9.72727H11.7925Z" fill="black"/>
<path d="M21.7236 4.91193L20.3173 5.06534C20.2776 4.9233 20.208 4.78977 20.1085 4.66477C20.0119 4.53977 19.8813 4.43892 19.7165 4.36222C19.5517 4.28551 19.35 4.24716 19.1114 4.24716C18.7903 4.24716 18.5205 4.31676 18.3017 4.45597C18.0858 4.59517 17.9793 4.77557 17.9821 4.99716C17.9793 5.1875 18.0489 5.34233 18.1909 5.46165C18.3358 5.58097 18.5744 5.67898 18.9068 5.75568L20.0233 5.99432C20.6426 6.12784 21.1028 6.33949 21.404 6.62926C21.708 6.91903 21.8614 7.2983 21.8642 7.76705C21.8614 8.17898 21.7406 8.54261 21.502 8.85795C21.2662 9.17046 20.9381 9.41477 20.5176 9.59091C20.0972 9.76705 19.6142 9.85511 19.0688 9.85511C18.2676 9.85511 17.6227 9.6875 17.1341 9.35227C16.6455 9.0142 16.3543 8.54403 16.2605 7.94176L17.7648 7.79688C17.833 8.09233 17.9778 8.31534 18.1994 8.46591C18.421 8.61648 18.7094 8.69176 19.0645 8.69176C19.431 8.69176 19.725 8.61648 19.9466 8.46591C20.171 8.31534 20.2832 8.12926 20.2832 7.90767C20.2832 7.72017 20.2108 7.56534 20.0659 7.44318C19.9239 7.32102 19.7023 7.22727 19.4011 7.16193L18.2847 6.92756C17.6568 6.79688 17.1923 6.5767 16.8912 6.26705C16.5901 5.95455 16.4409 5.55966 16.4438 5.08239C16.4409 4.67898 16.5503 4.32955 16.7719 4.03409C16.9963 3.7358 17.3074 3.50568 17.7051 3.34375C18.1057 3.17898 18.5673 3.09659 19.0901 3.09659C19.8571 3.09659 20.4608 3.25994 20.9011 3.58665C21.3443 3.91335 21.6185 4.35511 21.7236 4.91193Z" fill="black"/>
<path d="M24.6788 1V9.72727H23.1362V1H24.6788Z" fill="black"/>
<path d="M28.1487 9.85938C27.7339 9.85938 27.3603 9.78551 27.0279 9.63778C26.6984 9.48722 26.437 9.26563 26.2438 8.97301C26.0535 8.6804 25.9583 8.3196 25.9583 7.89062C25.9583 7.52131 26.0265 7.21591 26.1629 6.97443C26.2992 6.73295 26.4853 6.53977 26.7211 6.39489C26.9569 6.25 27.2225 6.14063 27.518 6.06676C27.8163 5.99006 28.1245 5.93466 28.4427 5.90057C28.8262 5.8608 29.1373 5.82528 29.3759 5.79403C29.6146 5.75994 29.7879 5.70881 29.8958 5.64062C30.0066 5.5696 30.062 5.46023 30.062 5.3125V5.28693C30.062 4.96591 29.9668 4.71733 29.7765 4.54119C29.5862 4.36506 29.312 4.27699 28.9541 4.27699C28.5762 4.27699 28.2765 4.35938 28.0549 4.52415C27.8362 4.68892 27.6884 4.88352 27.6117 5.10795L26.1714 4.90341C26.285 4.50568 26.4725 4.1733 26.7339 3.90625C26.9953 3.63636 27.3149 3.43466 27.6927 3.30114C28.0705 3.16477 28.4881 3.09659 28.9455 3.09659C29.2609 3.09659 29.5748 3.13352 29.8873 3.20739C30.1998 3.28125 30.4853 3.40341 30.7438 3.57386C31.0024 3.74148 31.2097 3.97017 31.366 4.25994C31.5251 4.54972 31.6046 4.91193 31.6046 5.34659V9.72727H30.1217V8.82813H30.0705C29.9768 9.00994 29.8447 9.1804 29.6742 9.33949C29.5066 9.49574 29.295 9.62216 29.0393 9.71875C28.7864 9.8125 28.4896 9.85938 28.1487 9.85938ZM28.5492 8.72585C28.8589 8.72585 29.1274 8.66477 29.3546 8.54261C29.5819 8.41761 29.7566 8.25284 29.8788 8.0483C30.0038 7.84375 30.0663 7.62074 30.0663 7.37926V6.60795C30.018 6.64773 29.9356 6.68466 29.8191 6.71875C29.7055 6.75284 29.5776 6.78267 29.4356 6.80824C29.2935 6.83381 29.1529 6.85653 29.0137 6.87642C28.8745 6.89631 28.7538 6.91335 28.6515 6.92756C28.4214 6.95881 28.2154 7.00994 28.0336 7.08097C27.8518 7.15199 27.7083 7.25142 27.6032 7.37926C27.4981 7.50426 27.4455 7.66619 27.4455 7.86506C27.4455 8.14915 27.5492 8.36364 27.7566 8.50852C27.964 8.65341 28.2282 8.72585 28.5492 8.72585Z" fill="black"/>
<path d="M34.6984 5.89205V9.72727H33.1558V3.18182H34.6302V4.29403H34.7069C34.8575 3.92756 35.0975 3.63636 35.4271 3.42045C35.7595 3.20455 36.17 3.09659 36.6586 3.09659C37.1103 3.09659 37.5038 3.19318 37.839 3.38636C38.1771 3.57955 38.4384 3.85938 38.6231 4.22585C38.8106 4.59233 38.9029 5.03693 38.9001 5.55966V9.72727H37.3575V5.7983C37.3575 5.3608 37.2438 5.01847 37.0166 4.77131C36.7921 4.52415 36.481 4.40057 36.0833 4.40057C35.8134 4.40057 35.5734 4.46023 35.3631 4.57955C35.1558 4.69602 34.9924 4.86506 34.8731 5.08665C34.7566 5.30824 34.6984 5.5767 34.6984 5.89205Z" fill="black"/>
</svg>
