<svg width="45" height="45" viewBox="0 0 45 45" fill="none" xmlns="http://www.w3.org/2000/svg">
<path d="M45 22.5C45 34.9264 34.9264 45 22.5 45C10.0736 45 0 34.9264 0 22.5C0 10.0736 10.0736 0 22.5 0C34.9264 0 45 10.0736 45 22.5Z" fill="white"/>
<path d="M12.22 32.28C12.4733 31.2933 12.7933 30.0667 13.18 28.6C13.5667 27.12 13.9867 25.5467 14.44 23.88C14.8933 22.2 15.34 20.58 15.78 19.02C16.5667 19.34 17.2867 19.5867 17.94 19.76C18.6067 19.92 19.14 19.94 19.54 19.82C19.94 19.7 20.14 19.3733 20.14 18.84C20.14 18.48 19.88 18.1333 19.36 17.8C18.8533 17.4667 17.8667 17.12 16.4 16.76C16.52 16.2933 16.64 15.8533 16.76 15.44C16.88 15.0133 16.9933 14.6133 17.1 14.24C18.02 14.6267 18.8933 14.94 19.72 15.18C20.5467 15.42 21.22 15.4933 21.74 15.4C22.26 15.3067 22.52 14.96 22.52 14.36C22.52 13.92 22.1867 13.52 21.52 13.16C20.8533 12.8 19.6 12.4133 17.76 12C17.7733 11.9467 17.78 11.9067 17.78 11.88C17.7933 11.84 17.8067 11.7933 17.82 11.74C18.1667 10.58 18.8 9.68 19.72 9.04C20.6533 8.4 21.9267 8.09333 23.54 8.12C25.1933 8.12 26.4867 8.48666 27.42 9.22C28.3533 9.94 28.94 11.0933 29.18 12.68C29.2067 12.88 29.2333 13.0933 29.26 13.32C29.3 13.5333 29.3333 13.76 29.36 14C29.3867 14.2133 29.4133 14.4333 29.44 14.66C29.48 14.8867 29.5133 15.12 29.54 15.36C29.5667 15.4933 29.5867 15.6267 29.6 15.76C29.6267 15.8933 29.6467 16.0267 29.66 16.16C29.6867 16.2933 29.7067 16.4333 29.72 16.58C29.76 16.8867 29.8 17.2 29.84 17.52C29.88 17.84 29.9267 18.1667 29.98 18.5C30.0067 18.7 30.0333 18.9067 30.06 19.12C30.1 19.32 30.1267 19.5333 30.14 19.76C30.1667 19.92 30.1867 20.0867 30.2 20.26C30.2267 20.42 30.2533 20.5867 30.28 20.76C30.3067 20.92 30.3267 21.0867 30.34 21.26C30.5 22.42 30.6533 23.6 30.8 24.8C30.96 26 31.1133 27.18 31.26 28.34C31.4067 29.5 31.54 30.6 31.66 31.64C31.7933 32.68 31.9133 33.6267 32.02 34.48C32.1133 35.2133 32 35.8267 31.68 36.32C31.36 36.8267 30.9 37.08 30.3 37.08C29.78 37.08 29.3333 36.88 28.96 36.48C28.6 36.0933 28.38 35.52 28.3 34.76C28.0467 32.36 27.82 29.8667 27.62 27.28C27.42 24.68 27.2 22.0533 26.96 19.4C26.88 18.48 26.7133 17.84 26.46 17.48C26.2067 17.12 25.7867 16.94 25.2 16.94C24.6667 16.94 24.16 17.1 23.68 17.42C23.2133 17.74 22.6867 18.4933 22.1 19.68C20.9667 21.9733 19.84 24.32 18.72 26.72C17.6133 29.12 16.5267 31.4267 15.46 33.64C15.1933 34.1867 14.9 34.5867 14.58 34.84C14.26 35.08 13.9 35.2 13.5 35.2C12.9267 35.2 12.5133 34.9267 12.26 34.38C12.02 33.8333 12.0067 33.1333 12.22 32.28ZM16.86 29L17.62 26.16C19.3267 26.0933 21.0267 26.0267 22.72 25.96C24.4133 25.8933 26.02 25.84 27.54 25.8C28.18 25.7733 28.7067 25.8733 29.12 26.1C29.5333 26.3133 29.74 26.6667 29.74 27.16C29.74 27.6933 29.5933 28.08 29.3 28.32C29.02 28.56 28.6067 28.6933 28.06 28.72C26.1933 28.8 24.3467 28.86 22.52 28.9C20.6933 28.94 18.8067 28.9733 16.86 29ZM30.34 32.76C29.98 32.76 29.66 32.6467 29.38 32.42C29.1133 32.1933 28.98 31.88 28.98 31.48C28.98 31.08 29.1 30.7733 29.34 30.56C29.5933 30.3467 29.9267 30.24 30.34 30.24C30.42 30.24 30.5333 30.24 30.68 30.24C30.8267 30.24 30.9667 30.24 31.1 30.24V32.76C30.98 32.7733 30.8533 32.78 30.72 32.78C30.5867 32.7667 30.46 32.76 30.34 32.76ZM14.76 27.34C13.56 26.9933 12.6333 26.6867 11.98 26.42C11.3267 26.1533 10.8733 25.8933 10.62 25.64C10.3533 25.3733 10.22 25.0733 10.22 24.74C10.22 24.1 10.48 23.72 11 23.6C11.5067 23.48 12.1733 23.5333 13 23.76C13.8267 23.9867 14.6933 24.3067 15.6 24.72L14.76 27.34ZM15.9 29.68C15.5667 29.5733 15.28 29.46 15.04 29.34C14.8133 29.22 14.64 29.08 14.52 28.92C14.4 28.76 14.34 28.56 14.34 28.32C14.34 27.8133 14.4333 27.4133 14.62 27.12C14.8067 26.8267 15.0733 26.6467 15.42 26.58C15.78 26.5133 16.22 26.5733 16.74 26.76L15.9 29.68ZM28.46 24.28L28.18 21.52C28.66 21.4667 29.0533 21.4667 29.36 21.52C29.6667 21.5733 29.8933 21.72 30.04 21.96C30.1867 22.1867 30.26 22.5467 30.26 23.04C30.26 23.52 30.1067 23.8267 29.8 23.96C29.4933 24.0933 29.0467 24.2 28.46 24.28ZM29.88 28.6L29.74 25.68C30.86 25.64 31.74 25.6267 32.38 25.64C33.0333 25.6533 33.4933 25.7733 33.76 26C34.04 26.2133 34.18 26.62 34.18 27.22C34.18 27.7667 33.8867 28.1333 33.3 28.32C32.7267 28.4933 31.5867 28.5867 29.88 28.6Z" fill="#111827" fill-opacity="0.85"/>
</svg>
