<svg width="99" height="32" viewBox="0 0 99 32" fill="none" xmlns="http://www.w3.org/2000/svg">
<path fill-rule="evenodd" clip-rule="evenodd" d="M98.4739 31.9582C98.5893 31.9582 98.683 31.8645 98.683 31.749V0.20915C98.683 0.0936398 98.5893 0 98.4739 0H0.20915C0.0936396 0 0 0.0936398 0 0.20915V31.749C0 31.8645 0.0936396 31.9582 0.20915 31.9582H98.4739ZM94.8924 3.56781C95.0078 3.56781 95.1015 3.66145 95.1015 3.77696V28.1671C95.1015 28.2826 95.0078 28.3762 94.8924 28.3762L3.77654 28.3762C3.66103 28.3762 3.56739 28.2825 3.56739 28.167L3.56743 3.77699C3.56743 3.66148 3.66107 3.56784 3.77658 3.56784L94.8924 3.56781Z" fill="#5129AC" fill-opacity="0.86"/>
<path d="M29.9887 22.883C30.0049 22.9885 30.013 23.0941 30.013 23.1996C30.0292 23.2875 30.0373 23.393 30.0373 23.5161C30.0373 23.7272 29.9806 23.9206 29.8673 24.0965C29.8187 24.1844 29.7539 24.2724 29.6729 24.3603C29.5919 24.4306 29.4948 24.4922 29.3814 24.545C28.9765 24.7912 28.5473 24.8791 28.0939 24.8087C27.8671 24.7384 27.6647 24.6241 27.4866 24.4658C27.4542 24.4306 27.4299 24.4131 27.4137 24.4131C27.3975 24.3955 27.3813 24.3691 27.3651 24.3339C27.3489 24.3163 27.3327 24.2987 27.3165 24.2812C27.3003 24.246 27.276 24.2196 27.2436 24.202C27.1626 24.1141 27.0979 24.0349 27.0493 23.9646C27.0007 23.8767 26.9521 23.7887 26.9035 23.7008C26.8711 23.6129 26.8306 23.5337 26.7821 23.4634C26.7497 23.3755 26.7092 23.2875 26.6606 23.1996C26.6282 23.1292 26.5958 23.0677 26.5634 23.0149C26.531 22.9446 26.5067 22.8742 26.4905 22.8039C26.4258 22.6456 26.3853 22.5049 26.3691 22.3818L25.8589 21.0892C24.7415 21.0892 23.624 21.098 22.5065 21.1156C21.4052 21.1156 20.2959 21.1068 19.1784 21.0892L18.6682 22.3818C18.6358 22.4522 18.6115 22.5225 18.5953 22.5928C18.5953 22.6632 18.5792 22.7335 18.5468 22.8039C18.5144 22.8742 18.482 22.9446 18.4496 23.0149C18.4334 23.0677 18.4091 23.1292 18.3767 23.1996C18.3281 23.2875 18.2795 23.3755 18.231 23.4634C18.1986 23.5337 18.1581 23.6129 18.1095 23.7008C18.0771 23.7887 18.0366 23.8767 17.988 23.9646C17.9394 24.0349 17.8747 24.1141 17.7937 24.202C17.7613 24.2196 17.737 24.246 17.7208 24.2812C17.7046 24.2987 17.6884 24.3163 17.6722 24.3339C17.656 24.3691 17.6398 24.3955 17.6236 24.4131C17.6074 24.4131 17.5831 24.4306 17.5508 24.4658C17.3726 24.6241 17.1702 24.7384 16.9434 24.8087C16.49 24.8791 16.0608 24.7912 15.6559 24.545C15.5425 24.4922 15.4454 24.4306 15.3644 24.3603C15.2834 24.2724 15.2186 24.1844 15.1701 24.0965C15.0567 23.9206 15 23.7272 15 23.5161C15 23.393 15 23.2875 15 23.1996C15.0162 23.0941 15.0324 22.9885 15.0486 22.883C15.081 22.7247 15.1215 22.5665 15.1701 22.4082C15.2186 22.2499 15.2429 22.1708 15.2429 22.1708L20.2959 8.66435L20.4416 8.24228C20.474 8.13676 20.5145 8.04003 20.5631 7.9521C20.6117 7.86417 20.6521 7.75865 20.6845 7.63554C20.7655 7.40692 20.8546 7.20467 20.9518 7.02881C21.0003 6.92329 21.057 6.82656 21.1218 6.73863C21.1866 6.6507 21.2514 6.56277 21.3162 6.47483C21.4133 6.33414 21.551 6.21983 21.7291 6.1319C21.9559 6.04397 22.215 6 22.5065 6C22.8142 6 23.0814 6.04397 23.3082 6.1319C23.4863 6.21983 23.624 6.33414 23.7212 6.47483C23.8345 6.63311 23.956 6.81777 24.0855 7.02881C24.1827 7.20467 24.2718 7.40692 24.3528 7.63554C24.3852 7.75865 24.4256 7.86417 24.4742 7.9521C24.5228 8.04003 24.5633 8.13676 24.5957 8.24228L24.7415 8.66435L29.7944 22.1708C29.7944 22.1708 29.8187 22.2499 29.8673 22.4082C29.9158 22.5665 29.9563 22.7247 29.9887 22.883ZM24.2313 16.42C24.0208 15.91 23.8021 15.3824 23.5754 14.8372C23.3649 14.292 23.1381 13.7381 22.8952 13.1753C22.8304 13.017 22.7656 12.8587 22.7008 12.7005C22.6361 12.5246 22.5713 12.3575 22.5065 12.1992C22.4579 12.3575 22.4012 12.5246 22.3365 12.7005C22.2717 12.8587 22.2069 13.017 22.1421 13.1753C21.8992 13.7381 21.6644 14.292 21.4376 14.8372C21.2271 15.3824 21.0165 15.91 20.806 16.42L20.3687 17.5807H24.6686L24.2313 16.42Z" fill="#2563EB"/>
<path d="M32.0103 15.3384C32.0103 15.1274 32.0103 14.89 32.0103 14.6262C32.0103 14.3448 32.0184 14.0634 32.0346 13.782C32.0508 13.4831 32.0751 13.2017 32.1075 12.9379C32.1561 12.6565 32.2209 12.4103 32.3019 12.1992C32.4314 11.8827 32.6339 11.6716 32.9092 11.5661C33.1845 11.443 33.4841 11.3903 33.808 11.4078C34.1481 11.4078 34.4153 11.4694 34.6097 11.5925C34.804 11.7156 34.9498 11.8827 35.047 12.0937C35.1441 12.2872 35.2008 12.5158 35.217 12.7796C35.2494 13.0258 35.2656 13.2896 35.2656 13.571C35.4113 13.2896 35.6057 13.061 35.8486 12.8851C36.1077 12.7092 36.3669 12.5686 36.626 12.463C36.8851 12.3575 37.12 12.2872 37.3305 12.252C37.541 12.1992 37.6625 12.1729 37.6949 12.1729C38.0998 12.1377 38.4642 12.1289 38.7881 12.1465C39.1282 12.1641 39.5007 12.2432 39.9055 12.3839C40.1647 12.4894 40.4319 12.6389 40.7072 12.8323C40.9825 13.0082 41.2255 13.2193 41.436 13.4655C41.6465 13.7117 41.7842 13.9843 41.849 14.2832C41.9299 14.5646 41.8976 14.8636 41.7518 15.1801C41.5251 15.6198 41.274 15.8396 40.9987 15.8396C40.7234 15.8221 40.4238 15.7693 40.0999 15.6814C39.9217 15.6462 39.7112 15.567 39.4683 15.4439C39.2253 15.3208 39.0148 15.2417 38.8366 15.2065C38.286 15.1186 37.8002 15.1626 37.3791 15.3384C36.958 15.5143 36.5936 15.7253 36.2859 15.9715C35.9296 16.2705 35.6219 16.6134 35.3628 17.0003V20.799C35.3628 21.2739 35.3547 21.7663 35.3385 22.2763C35.3385 22.7863 35.2737 23.2523 35.1441 23.6744C35.0308 24.0789 34.8283 24.4131 34.5368 24.6768C34.2615 24.9231 33.8566 25.0286 33.3222 24.9934C33.0306 24.9758 32.7715 24.8263 32.5448 24.545C32.3181 24.246 32.1804 23.9558 32.1318 23.6744C32.0994 23.4106 32.0751 23.0941 32.0589 22.7247C32.0427 22.3554 32.0265 21.9685 32.0103 21.564C32.0103 21.1596 32.0103 20.7551 32.0103 20.3506C32.0103 19.9285 32.0103 19.5416 32.0103 19.1899V15.3384Z" fill="#2563EB"/>
<path d="M48.61 20.034C48.3023 19.823 47.9541 19.6559 47.5654 19.5328C47.1929 19.4097 46.8042 19.2954 46.3993 19.1899C46.0106 19.0843 45.6301 18.97 45.2576 18.8469C44.8851 18.7062 44.545 18.5128 44.2373 18.2666C43.5733 17.7214 43.1846 17.0531 43.0712 16.2617C42.974 15.4527 43.136 14.6438 43.5571 13.8348C43.7838 13.4127 44.0834 13.0698 44.4559 12.806C44.8284 12.5246 45.2333 12.3135 45.6705 12.1729C46.124 12.0146 46.5856 11.9266 47.0552 11.9091C47.5249 11.8915 47.9703 11.9179 48.3913 11.9882C48.6667 12.041 48.9582 12.1201 49.2659 12.2256C49.5736 12.3135 49.857 12.4367 50.1161 12.5949C50.3915 12.7532 50.6344 12.9555 50.8449 13.2017C51.0717 13.4303 51.2336 13.7205 51.3308 14.0722C51.3956 14.3008 51.4037 14.5207 51.3551 14.7317C51.3227 14.9427 51.2417 15.1186 51.1122 15.2593C50.9988 15.4 50.8449 15.5055 50.6506 15.5758C50.4724 15.6462 50.2781 15.6638 50.0676 15.6286C49.8246 15.5758 49.5979 15.4967 49.3874 15.3912C49.1768 15.2857 48.9663 15.1714 48.7557 15.0482C48.5452 14.9251 48.3266 14.8196 48.0998 14.7317C47.8893 14.6438 47.6626 14.5998 47.4196 14.5998C47.0471 14.5822 46.7394 14.6526 46.4965 14.8108C46.2536 14.9691 46.0835 15.1626 45.9864 15.3912C45.9054 15.6198 45.9135 15.866 46.0106 16.1298C46.124 16.3936 46.3507 16.6222 46.6908 16.8157C46.9986 16.9916 47.3387 17.1322 47.7111 17.2378C48.0836 17.3433 48.448 17.4488 48.8043 17.5543C49.1768 17.6598 49.5331 17.7829 49.8732 17.9236C50.2295 18.0643 50.5453 18.2578 50.8206 18.504C51.3551 18.9788 51.679 19.5328 51.7924 20.1659C51.9219 20.799 51.8895 21.4233 51.6952 22.0389C51.5008 22.6544 51.1607 23.1996 50.6749 23.6744C50.2052 24.1493 49.6465 24.4658 48.9987 24.6241C48.529 24.7296 48.0189 24.7824 47.4682 24.7824C46.9338 24.7824 46.3993 24.7208 45.8649 24.5977C45.3466 24.4746 44.8446 24.2812 44.3587 24.0174C43.8891 23.7536 43.4923 23.4194 43.1684 23.0149C42.9416 22.7335 42.8202 22.417 42.804 22.0653C42.804 21.6959 42.8688 21.3794 42.9983 21.1156C43.1441 20.8342 43.3465 20.6407 43.6056 20.5352C43.8648 20.4297 44.1563 20.4913 44.4802 20.7199C44.7393 20.9133 45.047 21.1068 45.4033 21.3002C45.7596 21.4761 46.1159 21.6168 46.4722 21.7223C46.8285 21.8278 47.1686 21.8806 47.4925 21.8806C47.8326 21.8806 48.1241 21.8015 48.3671 21.6432C48.7234 21.397 48.9096 21.1156 48.9258 20.799C48.942 20.4649 48.8367 20.2099 48.61 20.034Z" fill="#2563EB"/>
<path d="M57.0664 22.5665C57.0502 22.6544 57.034 22.7423 57.0178 22.8303C57.0178 22.9006 57.0178 22.9798 57.0178 23.0677L56.872 23.6217C56.8396 23.692 56.8154 23.736 56.7992 23.7536L56.7263 23.9118C56.6453 24.1053 56.4995 24.2636 56.289 24.3867C55.9003 24.5977 55.4873 24.6505 55.0501 24.545C54.7748 24.5098 54.5561 24.4218 54.3942 24.2812C54.2322 24.158 54.1188 24.0086 54.0541 23.8327C53.9893 23.6568 53.9407 23.481 53.9083 23.3051C53.8597 23.1292 53.8354 22.971 53.8354 22.8303V8.05762C53.8354 7.93451 53.8354 7.82899 53.8354 7.74106C53.8516 7.63554 53.8678 7.53882 53.884 7.45088C53.9002 7.32778 53.9164 7.22226 53.9326 7.13433C53.965 7.0464 53.9974 6.94967 54.0298 6.84415C54.0784 6.66829 54.1674 6.52759 54.297 6.42207C54.4913 6.2638 54.6776 6.17586 54.8557 6.15828C54.9691 6.1231 55.0744 6.10552 55.1715 6.10552C55.2687 6.08793 55.3821 6.07914 55.5116 6.07914C55.7384 6.07914 55.9975 6.14948 56.289 6.29018C56.5157 6.43087 56.6777 6.62432 56.7749 6.87053C56.9368 7.22226 57.0178 7.54761 57.0178 7.84658C57.034 8.02245 57.0421 8.28624 57.0421 8.63797C57.0583 8.9897 57.0664 9.2535 57.0664 9.42937V9.53488C57.0988 10.0977 57.115 10.6428 57.115 11.1704C57.115 11.6804 57.1069 12.2432 57.0907 12.8587C57.0907 13.4567 57.0826 14.037 57.0664 14.5998C57.0664 15.145 57.0664 15.6902 57.0664 16.2353V21.7751C57.0664 21.8454 57.0664 21.9158 57.0664 21.9861C57.0826 22.0389 57.0907 22.1004 57.0907 22.1708C57.0907 22.3466 57.0826 22.4785 57.0664 22.5665Z" fill="#2563EB"/>
<path d="M61.8969 13.571C62.3827 13.3072 62.8929 13.1225 63.4273 13.017C63.9618 12.8939 64.4881 12.8675 65.0064 12.9379C65.5408 12.9906 66.051 13.1401 66.5368 13.3863C67.0227 13.6149 67.4761 13.9491 67.8972 14.3888C68.3183 14.846 68.6422 15.3472 68.8689 15.8924C69.0957 16.4376 69.2576 17.0443 69.3548 17.7126C69.4196 18.1698 69.5248 18.5919 69.6706 18.9788C69.8164 19.3657 69.9702 19.7526 70.1322 20.1395C70.3103 20.5264 70.4723 20.9133 70.618 21.3002C70.78 21.6871 70.9095 22.0916 71.0067 22.5137C71.0877 22.9182 71.0553 23.3139 70.9095 23.7008C70.78 24.0701 70.5047 24.2987 70.0836 24.3867C69.8407 24.4394 69.6058 24.4218 69.3791 24.3339C69.1686 24.2284 68.9742 24.0877 68.7961 23.9118C68.6179 23.7184 68.456 23.5161 68.3102 23.3051C68.1806 23.0765 68.0592 22.8654 67.9458 22.672C67.5733 23.1996 67.1684 23.6129 66.7312 23.9118C66.2939 24.1932 65.7675 24.3779 65.1521 24.4658C64.6339 24.5362 64.1399 24.5537 63.6703 24.5186C63.2006 24.4834 62.6985 24.3867 62.1641 24.2284C61.4677 24.0349 60.8928 23.7008 60.4393 23.226C60.002 22.7335 59.6619 22.1708 59.419 21.5377C59.1923 20.887 59.0708 20.1923 59.0546 19.4537C59.0384 18.715 59.1194 17.9852 59.2975 17.2641C59.5243 16.3145 59.8644 15.5407 60.3178 14.9427C60.7713 14.3448 61.2976 13.8875 61.8969 13.571ZM62.5042 16.6574C62.2775 16.9036 62.0993 17.1938 61.9698 17.5279C61.8402 17.8621 61.7592 18.2138 61.7268 18.5831C61.7106 18.9524 61.743 19.3218 61.824 19.6911C61.905 20.0604 62.0345 20.3857 62.2127 20.6671C62.3746 20.9133 62.65 21.1244 63.0386 21.3002C63.4273 21.4585 63.8322 21.5552 64.2533 21.5904C64.7391 21.6256 65.1602 21.4849 65.5165 21.1683C65.889 20.8518 66.1643 20.4561 66.3425 19.9813C66.5368 19.4888 66.6259 18.97 66.6097 18.4249C66.5935 17.8621 66.4558 17.3521 66.1967 16.8948C66.0024 16.5607 65.7433 16.3145 65.4193 16.1562C65.1116 15.9979 64.7796 15.9188 64.4233 15.9188C64.067 15.9012 63.7107 15.9627 63.3545 16.1034C63.0143 16.2265 62.7309 16.4112 62.5042 16.6574Z" fill="#2563EB"/>
<path d="M73.0521 15.2593C73.0521 14.8548 73.044 14.4239 73.0278 13.9667C73.0278 13.5094 73.1006 13.0961 73.2464 12.7268C73.376 12.3927 73.5865 12.1553 73.878 12.0146C74.1857 11.8563 74.4853 11.8211 74.7769 11.9091C75.0684 11.9618 75.2951 12.0585 75.4571 12.1992C75.619 12.3399 75.7324 12.507 75.7972 12.7005C75.8781 12.8763 75.9267 13.0874 75.9429 13.3336C75.9591 13.5622 75.9753 13.7908 75.9915 14.0194C76.1535 13.7029 76.3559 13.4479 76.5988 13.2544C76.8418 13.061 77.0928 12.9027 77.3519 12.7796C77.611 12.6565 77.854 12.5686 78.0807 12.5158C78.3236 12.463 78.5099 12.4367 78.6394 12.4367C79.2548 12.4367 79.8622 12.5861 80.4614 12.8851C81.0768 13.1665 81.587 13.571 81.9919 14.0986C82.2186 14.4151 82.3886 14.7493 82.502 15.101C82.6316 15.4351 82.7206 15.7869 82.7692 16.1562C82.834 16.5255 82.8745 16.9036 82.8907 17.2905C82.9069 17.6598 82.9231 18.0379 82.9393 18.4249C83.0202 19.5504 83.0202 20.6671 82.9393 21.7751C82.9231 22.0037 82.915 22.2675 82.915 22.5665C82.915 22.8654 82.8907 23.1644 82.8421 23.4634C82.8097 23.7448 82.7368 23.9998 82.6235 24.2284C82.5263 24.4394 82.3562 24.5713 82.1133 24.6241C81.7732 24.712 81.4898 24.7296 81.2631 24.6768C81.0525 24.6417 80.8825 24.5625 80.7529 24.4394C80.6234 24.3163 80.5262 24.158 80.4614 23.9646C80.3966 23.7711 80.3399 23.5513 80.2913 23.3051C80.259 23.1117 80.2266 22.8918 80.1942 22.6456C80.178 22.3818 80.1618 22.118 80.1456 21.8542C80.1456 21.5904 80.1375 21.3354 80.1213 21.0892C80.1213 20.8254 80.1213 20.588 80.1213 20.377C80.1213 20.0428 80.1132 19.6735 80.097 19.269C80.0808 18.8645 80.0808 18.4864 80.097 18.1347C80.097 17.3081 79.8946 16.6838 79.4897 16.2617C79.101 15.8221 78.5665 15.6374 77.8863 15.7077C77.3681 15.7781 76.9146 16.0067 76.5259 16.3936C76.1373 16.7629 75.951 17.2466 75.9672 17.8445C75.9672 18.0731 75.9672 18.2842 75.9672 18.4776C75.9672 18.6711 75.9591 18.8645 75.9429 19.058C75.9429 19.2514 75.9429 19.4625 75.9429 19.6911C75.9429 19.9197 75.9429 20.1747 75.9429 20.4561C75.9429 21.0364 75.9429 21.652 75.9429 22.3027C75.9429 22.9358 75.87 23.4546 75.7243 23.8591C75.5947 24.2812 75.3761 24.5713 75.0684 24.7296C74.7607 24.8879 74.3963 24.8439 73.9752 24.5977C73.797 24.4922 73.6513 24.3515 73.5379 24.1756C73.4407 23.9822 73.3598 23.7799 73.295 23.5689C73.2464 23.3579 73.214 23.1468 73.1978 22.9358C73.1816 22.7072 73.1654 22.4961 73.1492 22.3027C73.1006 21.7223 73.0683 21.1859 73.0521 20.6935C73.0521 20.1835 73.0521 19.6383 73.0521 19.058V15.2593Z" fill="#2563EB"/>
</svg>
