<svg width="125" height="30" viewBox="0 0 125 30" fill="none" xmlns="http://www.w3.org/2000/svg">
<path d="M8.44 29.28C6.09333 29.28 4.14667 28.6533 2.6 27.4C0.92 26.04 0.08 24.2267 0.08 21.96C0.08 20.28 0.533333 18.7333 1.44 17.32C2.34667 15.9067 3.57333 14.8933 5.12 14.28C4.93333 13.6133 4.84 12.8533 4.84 12C4.84 9.76 5.49333 7.70667 6.8 5.84C8.16 3.86666 9.88 2.54667 11.96 1.88C14.0933 1.13333 16.2267 0.759999 18.36 0.759999C19.6667 0.759999 21.0533 0.933333 22.52 1.28C23.9867 1.62667 25.5333 2.18667 27.16 2.96C28.5467 3.6 29.92 4.26667 31.28 4.96C32.64 5.62667 34.0133 6.30667 35.4 7C36.8133 6.12 38.1333 5.68 39.36 5.68C41.5733 5.68 42.68 6.4 42.68 7.84C42.68 8.8 42.1467 9.28 41.08 9.28C40.3867 9.28 39.08 8.88 37.16 8.08C35.8 9.78667 34.6667 12.1733 33.76 15.24C33.6533 15.5867 33.52 16 33.36 16.48C33.2267 16.96 33.0533 17.5333 32.84 18.2C32.1467 20.1467 31.3867 21.7733 30.56 23.08C29.76 24.3867 28.9333 25.3733 28.08 26.04C31.04 24.3867 34.6133 21.08 38.8 16.12C46.72 6.70667 53.0933 2 57.92 2C60.4533 2 61.72 2.73333 61.72 4.2C61.72 4.6 61.5733 5.09333 61.28 5.68C60.9067 6.29333 60.56 6.6 60.24 6.6C60.1067 6.6 60.04 6.56 60.04 6.48C60.04 6.48 60.08 6.42667 60.16 6.32C60.2667 6.21333 60.4 6.06667 60.56 5.88C60.9067 5.48 61.08 5.04 61.08 4.56C61.08 3.6 60.4133 3.12 59.08 3.12C57.5067 3.12 55.7467 3.58667 53.8 4.52C49.5067 6.6 44.4933 10.8267 38.76 17.2C35.8 20.4267 33.76 22.5467 32.64 23.56C29.7867 26.0933 27.28 27.36 25.12 27.36C24.7733 27.36 24.4133 27.32 24.04 27.24L24 27.2C24 27.1467 24.44 26.92 25.32 26.52C25.5067 26.4133 25.6933 26.3067 25.88 26.2C26.0933 26.0667 26.2933 25.9333 26.48 25.8C26.96 25.4267 27.7467 24.16 28.84 22C29.2133 21.2533 29.5733 20.52 29.92 19.8C30.2667 19.08 30.6133 18.36 30.96 17.64C31.4133 16.7867 31.8533 15.9333 32.28 15.08C32.7333 14.2267 33.1867 13.3867 33.64 12.56C34.2 11.5467 34.7333 10.6533 35.24 9.88C35.7733 9.08 36.2533 8.41333 36.68 7.88L35.6 7.4C32.56 9.24 29.4133 12.4133 26.16 16.92C20.2133 25.16 14.3067 29.28 8.44 29.28ZM8.48 28.84C11.04 28.84 13.5333 28.0133 15.96 26.36C16.8133 25.7733 17.72 25.0267 18.68 24.12C19.6667 23.2133 20.72 22.1333 21.84 20.88C22.32 20.3467 22.9067 19.68 23.6 18.88C24.32 18.08 25.16 17.1467 26.12 16.08C26.8133 15.28 27.5067 14.48 28.2 13.68C28.92 12.88 29.64 12.0933 30.36 11.32C31.2133 10.3867 32.04 9.58667 32.84 8.92C33.64 8.22667 34.4 7.64 35.12 7.16C33.1467 6.28 31.48 5.56 30.12 5C28.76 4.41333 27.7067 3.98667 26.96 3.72C25.3867 3.18666 23.88 2.78666 22.44 2.52C21.0267 2.22667 19.6667 2.08 18.36 2.08C16.2 2.08 14.2133 2.45333 12.4 3.2C10.5067 3.94667 8.93333 5.13333 7.68 6.76C6.37333 8.46667 5.72 10.32 5.72 12.32C5.72 12.6133 5.73333 12.9067 5.76 13.2C5.81333 13.4667 5.86667 13.7333 5.92 14C6.56 13.84 7.2 13.76 7.84 13.76C8.13333 13.76 8.4 13.7733 8.64 13.8C8.90667 13.8267 9.17333 13.8667 9.44 13.92C10.6933 14.16 11.6933 14.8 12.44 15.84C13.2133 16.9067 13.56 18.0533 13.48 19.28C15.64 19.2533 17.6 18.6133 19.36 17.36C21.28 15.9467 22.24 14.2133 22.24 12.16C22.24 10.6133 21.6933 9.29333 20.6 8.2C19.5867 7.10667 18.28 6.56 16.68 6.56C15.48 6.56 14.3733 6.94667 13.36 7.72C12.32 8.6 11.8 9.62667 11.8 10.8C11.8 11.8667 12.2667 12.64 13.2 13.12V13.16C13.3867 13.1867 13.48 13.32 13.48 13.56C13.48 13.56 13.4667 13.5733 13.44 13.6C13.44 13.6 13.4267 13.6 13.4 13.6C13.32 13.6 13.1733 13.5333 12.96 13.4C11.92 12.7067 11.4 11.7867 11.4 10.64C11.4 9.30667 11.9733 8.18667 13.12 7.28C14.1333 6.42667 15.3467 6 16.76 6C18.4667 6 19.9067 6.57333 21.08 7.72C22.3067 8.89333 22.92 10.2933 22.92 11.92C22.92 14.2667 21.8933 16.1867 19.84 17.68C18 19.0667 15.8667 19.7467 13.44 19.72C13.2533 21.0533 12.5067 22.2133 11.2 23.2C10.6133 23.6267 9.98667 23.96 9.32 24.2C8.65333 24.4133 7.94667 24.52 7.2 24.52C6.58667 24.52 6.28 24.44 6.28 24.28C6.28 24.1733 6.56 24.12 7.12 24.12C7.28 24.12 7.46667 24.1067 7.68 24.08C7.92 24.0533 8.17333 24.0133 8.44 23.96C10.6267 23.48 12 22.0533 12.56 19.68C8.72 19.36 6.29333 17.7333 5.28 14.8C3.86667 15.3067 2.73333 16.2133 1.88 17.52C1.10667 18.7733 0.72 20.1867 0.72 21.76C0.72 22.16 0.746667 22.56 0.8 22.96C0.853333 23.3333 0.933334 23.72 1.04 24.12C1.44 25.6133 2.4 26.8 3.92 27.68C5.33333 28.4533 6.85333 28.84 8.48 28.84ZM41.32 28.88C40.1733 28.88 39.6 27.8933 39.6 25.92C39.6 23.5467 40.2 21.12 41.4 18.64C41.88 17.68 42.6267 16.5333 43.64 15.2C44.04 14.6933 44.4667 14.1867 44.92 13.68C45.3733 13.1467 45.8667 12.5867 46.4 12C46.6933 11.6533 47.0933 11.2267 47.6 10.72C48.1067 10.1867 48.7067 9.56 49.4 8.84C51.2133 7.02667 52.2133 6.12 52.4 6.12C52.4533 6.12 52.4133 6.2 52.28 6.36C52.2533 6.41333 52.1733 6.50667 52.04 6.64C51.9333 6.77333 51.7733 6.94667 51.56 7.16C50.4133 8.38667 49.2933 9.82667 48.2 11.48C47.48 12.5467 46.7733 13.72 46.08 15C45.3867 16.2533 44.6933 17.6133 44 19.08C43.1733 20.92 42.5333 22.52 42.08 23.88C41.6533 25.2133 41.44 26.32 41.44 27.2C41.44 27.9467 41.6667 28.32 42.12 28.32C42.36 28.32 42.8533 28.0933 43.6 27.64C44.2933 27.1867 44.7467 26.8267 44.96 26.56C45.04 26.4533 45.1467 26.4 45.28 26.4C45.3333 26.4533 45.36 26.4933 45.36 26.52C45.36 26.5467 45.3333 26.5867 45.28 26.64C43.84 28.1333 42.52 28.88 41.32 28.88ZM40.76 8.8C41.4267 8.8 41.76 8.46667 41.76 7.8C41.76 7.24 41.4933 6.8 40.96 6.48C40.48 6.24 39.9467 6.12 39.36 6.12C38.3467 6.12 37.2 6.48 35.92 7.2C36.1067 7.28 36.28 7.36 36.44 7.44C36.6 7.49333 36.76 7.54667 36.92 7.6C37.5067 6.98667 37.9733 6.68 38.32 6.68C38.3733 6.68 38.4 6.69333 38.4 6.72C38.2667 6.88 38.12 7.05333 37.96 7.24C37.8 7.4 37.6133 7.58667 37.4 7.8C38.3067 8.12 39.04 8.37333 39.6 8.56C40.16 8.72 40.5467 8.8 40.76 8.8ZM12.64 19.24C12.6667 19.1333 12.68 18.96 12.68 18.72C12.68 17.8133 12.4267 16.9333 11.92 16.08C11.36 15.2533 10.6267 14.7333 9.72 14.52C9.42667 14.4667 9.12 14.4267 8.8 14.4C8.48 14.3467 8.17333 14.32 7.88 14.32C7.24 14.32 6.64 14.4 6.08 14.56C6.53333 15.9467 7.37333 17.0533 8.6 17.88C9.74667 18.6533 11.0933 19.1067 12.64 19.24ZM57.8619 27.12C56.4752 27.12 55.7819 26.16 55.7819 24.24C55.7819 23.4933 55.9019 22.64 56.1419 21.68C54.2752 25.28 52.4219 27.08 50.5819 27.08C49.7019 27.08 49.0352 26.64 48.5819 25.76C48.2085 25.0933 48.0219 24.2533 48.0219 23.24C48.0219 22.4133 48.1419 21.5467 48.3819 20.64C48.8352 19.0667 49.7952 17.5867 51.2619 16.2C52.8885 14.7067 54.4352 13.96 55.9019 13.96C57.2352 13.96 57.9019 14.76 57.9019 16.36C57.9019 17.0533 57.7552 17.8667 57.4619 18.8L59.9019 14H60.0219C60.1019 14.1333 60.2752 14.2 60.5419 14.2C61.0752 14.2 61.7552 13.88 62.5819 13.24L62.6619 13.32L59.2619 19.96C57.9019 22.6 57.2219 24.6 57.2219 25.96C57.2219 26.4933 57.4619 26.76 57.9419 26.76C58.2619 26.76 58.6485 26.64 59.1019 26.4C59.5552 26.16 60.0352 25.76 60.5419 25.2C61.1819 24.4533 61.7285 23.7467 62.1819 23.08C62.6619 22.3867 63.2085 21.4533 63.8219 20.28C63.9019 20.1467 63.9819 20.08 64.0619 20.08C64.2219 20.08 64.2219 20.2133 64.0619 20.48C63.5819 21.3867 63.0619 22.2933 62.5019 23.2C61.9685 24.08 61.3152 24.9067 60.5419 25.68C59.5819 26.64 58.6885 27.12 57.8619 27.12ZM50.7419 26.8C52.2352 26.8 54.1552 24.6933 56.5019 20.48C57.2485 19.1467 57.6219 17.8 57.6219 16.44C57.6219 15 57.1552 14.28 56.2219 14.28C55.2085 14.28 54.0619 15.12 52.7819 16.8C52.2752 17.4933 51.8352 18.1733 51.4619 18.84C51.1152 19.5067 50.8352 20.1467 50.6219 20.76C50.0619 22.36 49.7819 23.8 49.7819 25.08C49.7819 26.2267 50.1019 26.8 50.7419 26.8ZM65.4591 27.12C63.5657 27.12 62.6191 26.1867 62.6191 24.32C62.6191 22.8533 63.1657 21 64.2591 18.76C64.3124 18.6533 64.5657 18.1867 65.0191 17.36C65.4991 16.5067 66.1791 15.2933 67.0591 13.72H64.9791L64.8991 13.64L64.9391 13.4L64.9791 13.36H67.2591L70.1391 8.32C70.3791 8.42667 70.6591 8.48 70.9791 8.48C71.3524 8.48 71.7524 8.34667 72.1791 8.08C72.6324 7.84 72.9391 7.57333 73.0991 7.28L73.2191 7.32L69.6191 13.36H72.3791L72.4191 13.4V13.64L72.3391 13.72H69.4191L66.6991 18.52C65.0724 21.3733 64.2591 23.5733 64.2591 25.12C64.2591 26.2133 64.6857 26.76 65.5391 26.76C66.8724 26.76 68.2191 26.0133 69.5791 24.52C69.9524 24.12 70.3924 23.52 70.8991 22.72C71.4057 21.92 71.8324 21.16 72.1791 20.44C72.2324 20.3067 72.2991 20.2667 72.3791 20.32C72.4857 20.3467 72.5124 20.4267 72.4591 20.56C72.0591 21.36 71.6324 22.12 71.1791 22.84C70.7524 23.56 70.2591 24.2267 69.6991 24.84C68.3124 26.36 66.8991 27.12 65.4591 27.12ZM73.8966 27.12C72.0032 27.12 71.0566 26.1867 71.0566 24.32C71.0566 22.8533 71.6032 21 72.6966 18.76C72.7499 18.6533 73.0032 18.1867 73.4566 17.36C73.9366 16.5067 74.6166 15.2933 75.4966 13.72H73.4166L73.3366 13.64L73.3766 13.4L73.4166 13.36H75.6966L78.5766 8.32C78.8166 8.42667 79.0966 8.48 79.4166 8.48C79.7899 8.48 80.1899 8.34667 80.6166 8.08C81.0699 7.84 81.3766 7.57333 81.5366 7.28L81.6566 7.32L78.0566 13.36H80.8166L80.8566 13.4V13.64L80.7766 13.72H77.8566L75.1366 18.52C73.5099 21.3733 72.6966 23.5733 72.6966 25.12C72.6966 26.2133 73.1232 26.76 73.9766 26.76C75.3099 26.76 76.6566 26.0133 78.0166 24.52C78.3899 24.12 78.8299 23.52 79.3366 22.72C79.8432 21.92 80.2699 21.16 80.6166 20.44C80.6699 20.3067 80.7366 20.2667 80.8166 20.32C80.9232 20.3467 80.9499 20.4267 80.8966 20.56C80.4966 21.36 80.0699 22.12 79.6166 22.84C79.1899 23.56 78.6966 24.2267 78.1366 24.84C76.7499 26.36 75.3366 27.12 73.8966 27.12ZM78.0541 27.64L77.9741 27.6C79.5741 22.2667 81.6941 17.1333 84.3341 12.2C88.1741 5.02667 91.8007 1.44 95.2141 1.44C96.4674 1.44 97.0941 2.05333 97.0941 3.28C97.0941 4.74666 96.2674 6.42667 94.6141 8.32C93.2274 9.84 91.7474 11.0667 90.1741 12C88.9474 12.72 87.5341 13.36 85.9341 13.92C85.6941 14 85.5207 14.0267 85.4141 14C84.5874 15.4667 83.8407 16.8933 83.1741 18.28C82.5341 19.6667 81.9607 21.0267 81.4541 22.36C82.5741 20.2267 83.7741 18.4267 85.0541 16.96C86.8941 14.8533 88.6274 13.8 90.2541 13.8C91.5874 13.8 92.2541 14.28 92.2541 15.24C92.2541 16.1733 91.3607 17.92 89.5741 20.48C88.0007 22.6933 87.2141 24.4533 87.2141 25.76C87.2141 26.4267 87.5074 26.76 88.0941 26.76C88.5474 26.76 89.0674 26.6133 89.6541 26.32C90.2407 26.0267 90.8541 25.5467 91.4941 24.88C92.3207 23.9733 92.9474 23.1333 93.3741 22.36C93.8274 21.5867 94.2274 20.88 94.5741 20.24C94.6541 20.1067 94.7341 20.0533 94.8141 20.08C94.8941 20.1067 94.9074 20.1867 94.8541 20.32C94.4541 21.1467 93.9741 22.0133 93.4141 22.92C92.8807 23.8 92.3207 24.5467 91.7341 25.16C90.9874 25.96 90.2407 26.5067 89.4941 26.8C88.7741 27.0933 88.0674 27.24 87.3741 27.24C85.9607 27.24 85.2541 26.56 85.2541 25.2C85.2541 24 85.7207 22.6133 86.6541 21.04C86.8674 20.6933 87.1874 20.2133 87.6141 19.6C88.0674 18.9867 88.6274 18.24 89.2941 17.36C90.2274 16.1067 90.6941 15.2933 90.6941 14.92C90.6941 14.44 90.3874 14.2 89.7741 14.2C88.6007 14.2 87.2007 15.0933 85.5741 16.88C84.4807 18.08 83.4674 19.48 82.5341 21.08C82.1074 21.8 81.6674 22.6533 81.2141 23.64C80.7607 24.6267 80.2807 25.7467 79.7741 27L79.6941 27.04C79.4807 26.9067 79.2807 26.84 79.0941 26.84C78.6141 26.84 78.2674 27.1067 78.0541 27.64ZM85.6141 13.64C85.7207 13.64 85.8274 13.6267 85.9341 13.6C86.5474 13.4667 87.1741 13.2533 87.8141 12.96C88.4807 12.6667 89.1474 12.3067 89.8141 11.88C90.5341 11.4 91.2541 10.8533 91.9741 10.24C92.6941 9.6 93.4141 8.88 94.1341 8.08C95.8941 6.16 96.7741 4.53333 96.7741 3.2C96.7741 2.26666 96.3074 1.8 95.3741 1.8C94.1474 1.8 92.3341 3.45333 89.9341 6.76C89.2141 7.77333 88.4807 8.85333 87.7341 10C87.0141 11.1467 86.3074 12.36 85.6141 13.64ZM97.2022 27.4C95.8955 27.4 94.9889 27.04 94.4822 26.32C93.9755 25.5733 93.7222 24.5333 93.7222 23.2C93.7222 21.28 94.5222 19.28 96.1222 17.2C97.8289 15.0133 99.6022 13.92 101.442 13.92C102.802 13.92 103.482 14.3867 103.482 15.32C103.482 16.4667 102.856 17.6667 101.602 18.92C99.8155 20.7333 97.9355 21.64 95.9622 21.64C95.6422 22.4667 95.4822 23.2933 95.4822 24.12C95.4822 25.0267 95.6555 25.7333 96.0022 26.24C96.3489 26.7467 96.8555 27 97.5222 27C98.2155 27 98.9355 26.8133 99.6822 26.44C100.429 26.04 101.069 25.5733 101.602 25.04C102.056 24.5867 102.562 23.9733 103.122 23.2C103.709 22.4 104.296 21.4267 104.882 20.28C104.962 20.1467 105.042 20.08 105.122 20.08C105.282 20.08 105.282 20.2133 105.122 20.48C104.669 21.3867 104.176 22.2533 103.642 23.08C103.136 23.9067 102.456 24.7067 101.602 25.48C101.096 25.9867 100.456 26.44 99.6822 26.84C98.9089 27.2133 98.0822 27.4 97.2022 27.4ZM96.0022 21.36C97.4689 21.36 99.1089 20.5733 100.922 19V18.96C101.429 18.5333 101.909 17.9467 102.362 17.2C102.896 16.3733 103.162 15.6667 103.162 15.08C103.162 14.6533 102.842 14.44 102.202 14.44C101.189 14.44 99.9622 15.3467 98.5222 17.16C97.8555 17.96 97.3222 18.7067 96.9222 19.4C96.5222 20.0933 96.2155 20.7467 96.0022 21.36ZM105.594 27.36C104.074 27.36 103.314 26.5867 103.314 25.04C103.314 23.3333 104.94 19.6933 108.194 14.12H108.274C108.46 14.2533 108.687 14.32 108.954 14.32C109.514 14.32 110.207 14.0533 111.034 13.52L111.074 13.6C110.007 14.7733 108.767 16.7067 107.354 19.4C105.807 22.3333 105.034 24.44 105.034 25.72C105.034 26.4933 105.34 26.88 105.954 26.88C106.834 26.88 107.887 26.0533 109.114 24.4C109.94 23.28 110.674 22.0533 111.314 20.72C111.687 20 112.14 19.1067 112.674 18.04C113.234 16.9467 113.887 15.6933 114.634 14.28L114.714 14.24C115.06 14.4267 115.407 14.52 115.754 14.52C116.394 14.52 116.887 14.2533 117.234 13.72L117.314 13.8L114.034 19.52C112.86 21.5733 112.274 23.4667 112.274 25.2C112.274 26.32 112.647 26.88 113.394 26.88C115.34 26.88 117.394 25.1333 119.554 21.64C119.234 21.16 119.074 20.3733 119.074 19.28C119.074 18.96 119.087 18.64 119.114 18.32C119.167 17.9733 119.22 17.6267 119.274 17.28C119.407 16.5867 119.607 15.9333 119.874 15.32C120.274 14.3867 120.7 13.92 121.154 13.92C121.66 13.92 121.914 14.36 121.914 15.24C121.914 15.9867 121.727 16.92 121.354 18.04C121.007 19.16 120.487 20.3867 119.794 21.72C119.874 22.0667 120.06 22.4133 120.354 22.76C120.674 23.1067 121.034 23.28 121.434 23.28C122.58 23.28 123.62 22.3333 124.554 20.44C124.634 20.28 124.714 20.2267 124.794 20.28C124.9 20.3333 124.914 20.4267 124.834 20.56C124.327 21.5467 123.807 22.2933 123.274 22.8C122.767 23.3067 122.167 23.56 121.474 23.56C120.647 23.56 120.034 23.0933 119.634 22.16C119.287 22.8267 118.9 23.4533 118.474 24.04C118.047 24.6 117.58 25.1067 117.074 25.56C115.847 26.68 114.554 27.24 113.194 27.24C111.327 27.24 110.394 26.3867 110.394 24.68C110.394 24.3867 110.42 24.08 110.474 23.76C110.527 23.4133 110.607 23.0667 110.714 22.72C109.06 25.8133 107.354 27.36 105.594 27.36Z" fill="white" fill-opacity="0.933333"/>
</svg>
