<svg width="326" height="326" viewBox="0 0 326 326" fill="none" xmlns="http://www.w3.org/2000/svg">
<path d="M134.875 3.73129C117.717 6.1238 101.268 12.8791 91.484 21.6047C82.6923 29.486 81.8415 32.0192 81.5579 52.4259L81.4161 70.5809L121.262 71.0031L161.108 71.2845V81.1361H98.0069C27.8152 81.1361 30.9349 80.7138 21.7178 90.8468C15.0531 98.1651 10.2319 107.735 6.26143 121.527C3.4254 131.238 3 135.601 3 159.245C3 182.888 3.4254 187.251 6.26143 196.962C10.2319 210.754 15.0531 220.324 21.7178 227.642C29.8004 236.509 32.3529 237.353 53.0559 237.353H71.49L72.4826 222.153C74.8933 185.703 81.4161 170.081 97.4397 162.059C108.642 156.43 116.016 155.445 161.108 154.319C208.895 153.193 215.135 152.208 224.352 144.186C230.024 139.26 233.002 134.193 235.98 124.061C238.816 114.49 240.234 37.9301 237.681 31.8785C235.412 26.3898 225.344 17.3827 216.695 13.0199C201.805 5.56085 190.745 3.30908 165.362 3.02761C152.459 2.88687 138.704 3.30908 134.875 3.73129ZM184.506 9.21999C203.082 12.5976 220.381 19.9159 226.195 26.812C227.188 27.9379 228.606 28.7823 229.173 28.3601C229.74 27.9379 231.016 30.4711 232.009 33.8488C233.285 38.3523 233.569 50.5964 233.002 78.6028C232.293 119.838 232.293 120.12 227.613 130.534C220.665 145.875 210.739 148.267 153.309 149.112C117.008 149.674 111.336 150.097 104.388 152.489C89.2152 157.978 78.4383 167.97 73.3334 181.762C70.072 190.347 69.5048 193.443 67.5196 214.132C66.6688 221.872 65.818 229.05 65.3926 230.035C64.8254 231.442 60.8549 231.864 49.5108 231.583C34.3381 231.301 34.3381 231.301 29.0914 226.516C26.2554 223.842 22.7104 220.746 21.2924 219.62C19.7326 218.354 19.449 217.791 20.4416 218.354C21.2924 218.776 20.867 217.087 19.3071 214.413C16.6129 209.909 11.6499 196.962 9.80646 189.503C8.24665 183.029 7.82124 134.616 9.38106 131.801C10.0901 130.394 11.0827 127.438 11.3663 125.186C12.5007 116.179 20.7252 99.4317 27.248 92.9579L32.7783 87.4692L159.407 86.6247L163.094 82.9656C165.079 80.9953 166.78 78.3213 166.78 77.0547C166.78 75.0844 164.228 70.4401 161.534 67.0625C161.108 66.6402 144.518 66.0773 124.524 65.6551L88.0808 64.9514L87.6554 52.2852C87.0882 35.3969 88.5062 30.8933 97.0143 24.5602C105.948 17.8049 114.881 14.1457 132.606 9.78293C139.555 8.0941 176.139 7.67189 184.506 9.21999Z" fill="#1D4ED8"/>
<path d="M124.196 21.0706C115.124 24.5843 109.171 34.749 111.297 42.5294C113.565 50.6862 126.889 58.3411 135.394 56.4588C139.789 55.4549 150.703 47.1725 149.711 45.6666C149.286 45.0392 149.569 44.2862 150.42 43.7843C152.971 42.4039 151.979 33.6196 148.719 29.3529C142.198 20.9451 132.559 17.6823 124.196 21.0706ZM136.812 26.0902C146.876 29.8549 149.428 39.8941 142.057 47.1725C138.513 50.6862 136.954 51.3137 131.284 51.3137C125.614 51.3137 124.054 50.6862 120.511 47.1725C113.281 40.0196 115.691 29.8549 125.472 26.0902C131 23.9568 131.142 23.9568 136.812 26.0902Z" fill="#1D4ED8"/>
<path d="M254.935 105.075C254.652 105.468 254.085 111.882 253.517 119.473C250.965 154.681 242.74 169.864 222.321 176.932C212.253 180.466 189.423 182.167 154.398 182.298C140.36 182.298 124.904 182.952 120.082 183.738C103.492 186.355 95.5507 193.554 90.0205 210.438C87.1844 219.339 85.7664 290.54 88.3189 296.168C92.4311 305.33 108.029 314.754 127.598 319.99C137.382 322.607 141.778 323 165.601 323C189.423 323 193.819 322.607 203.603 319.99C217.5 316.325 227.142 311.875 234.516 305.723C243.308 298.394 244.158 296.038 244.442 277.059C244.52 267.724 236.057 260.091 225.513 259.987L204.738 259.782L170.066 259.554C167.202 259.536 164.892 257.475 164.892 254.939C164.892 252.409 167.208 250.358 170.066 250.358H227.993C298.185 250.358 295.065 250.751 304.282 241.327C310.947 234.521 315.768 225.621 319.739 212.794C322.575 203.763 323 199.706 323 177.717C323 155.728 322.575 151.671 319.739 142.64C314.492 125.886 305.417 112.143 296.2 107.301C293.364 105.73 255.786 103.767 254.935 105.075ZM297.334 115.285C299.603 117.51 301.872 119.08 302.581 118.688V118.688C303.513 118.171 303.636 119.613 304.039 120.599C304.826 122.523 306.506 125.973 308.394 129.551C311.23 134.787 313.358 139.106 313.216 139.106C312.932 139.106 313.925 142.901 315.201 147.482C318.746 159 319.03 189.104 315.768 204.418C312.365 221.171 300.17 242.505 294.214 242.505C293.222 242.505 292.513 243.029 292.513 243.814C292.513 244.73 270.675 245.123 229.837 245.123C163.615 245.254 164.466 245.123 160.921 251.275C158.652 255.201 158.794 257.034 162.056 260.829C163.753 262.891 166.441 264.132 169.323 264.183L223.87 265.159C231.741 265.3 238.106 270.878 238.345 277.844C238.912 295.121 238.628 295.645 227.001 304.807C222.605 308.21 206.014 314.492 195.804 316.587C188.572 318.026 163.757 319.728 157.801 319.073C154.256 318.681 148.584 318.157 145.039 317.895C129.583 316.717 107.32 308.341 97.6777 299.964C94.8605 297.532 93.2353 294.217 93.1522 290.734L92.5729 266.457C91.7221 232.82 93.5655 214.627 98.3867 204.81C99.5096 202.565 100.447 200.433 100.955 199.055C101.302 198.112 101.238 196.695 102.357 196.695C103.066 196.695 104.626 195.91 105.76 194.863C106.753 193.816 110.865 191.984 114.694 190.675C120.366 188.842 127.456 188.319 152.838 187.926C169.996 187.664 185.027 187.01 186.162 186.617C187.296 186.225 192.117 186.094 196.939 186.094C206.865 186.486 222.179 183.476 229.837 179.811C237.494 176.015 245.435 168.424 249.972 160.047C254.51 151.802 258.48 135.964 258.48 126.41C258.48 123.007 258.906 117.902 259.473 115.023C259.959 112.182 262.76 110.107 266.004 110.184L276.915 110.442L287.308 110.77C291.238 110.894 294.906 112.546 297.334 115.285Z" fill="#1D4ED8"/>
<path d="M192.023 272.741C177.565 279.518 176.998 295.204 190.889 304.365C195.567 307.377 205.773 307.628 210.876 304.616C220.657 299.094 224.059 286.42 217.963 279.141C210.592 270.357 201.662 268.224 192.023 272.741ZM212.152 280.02C219.239 287.047 216.546 297.212 206.482 300.977C196.843 304.49 186.211 298.09 186.211 288.804C186.211 276.38 202.654 270.859 212.152 280.02Z" fill="#1D4ED8"/>
<path d="M134.875 3.73129C117.717 6.1238 101.268 12.8791 91.484 21.6047C82.6923 29.486 81.8415 32.0192 81.5579 52.4259L81.4161 70.5809L121.262 71.0031L161.108 71.2845V81.1361H98.0069C27.8152 81.1361 30.9349 80.7138 21.7178 90.8468C15.0531 98.1651 10.2319 107.735 6.26143 121.527C3.4254 131.238 3 135.601 3 159.245C3 182.888 3.4254 187.251 6.26143 196.962C10.2319 210.754 15.0531 220.324 21.7178 227.642C29.8004 236.509 32.3529 237.353 53.0559 237.353H71.49L72.4826 222.153C74.8933 185.703 81.4161 170.081 97.4397 162.059C108.642 156.43 116.016 155.445 161.108 154.319C208.895 153.193 215.135 152.208 224.352 144.186C230.024 139.26 233.002 134.193 235.98 124.061C238.816 114.49 240.234 37.9301 237.681 31.8785C235.412 26.3898 225.344 17.3827 216.695 13.0199C201.805 5.56085 190.745 3.30908 165.362 3.02761C152.459 2.88687 138.704 3.30908 134.875 3.73129ZM184.506 9.21999C203.082 12.5976 220.381 19.9159 226.195 26.812C227.188 27.9379 228.606 28.7823 229.173 28.3601C229.74 27.9379 231.016 30.4711 232.009 33.8488C233.285 38.3523 233.569 50.5964 233.002 78.6028C232.293 119.838 232.293 120.12 227.613 130.534C220.665 145.875 210.739 148.267 153.309 149.112C117.008 149.674 111.336 150.097 104.388 152.489C89.2152 157.978 78.4383 167.97 73.3334 181.762C70.072 190.347 69.5048 193.443 67.5196 214.132C66.6688 221.872 65.818 229.05 65.3926 230.035C64.8254 231.442 60.8549 231.864 49.5108 231.583C34.3381 231.301 34.3381 231.301 29.0914 226.516C26.2554 223.842 22.7104 220.746 21.2924 219.62C19.7326 218.354 19.449 217.791 20.4416 218.354C21.2924 218.776 20.867 217.087 19.3071 214.413C16.6129 209.909 11.6499 196.962 9.80646 189.503C8.24665 183.029 7.82124 134.616 9.38106 131.801C10.0901 130.394 11.0827 127.438 11.3663 125.186C12.5007 116.179 20.7252 99.4317 27.248 92.9579L32.7783 87.4692L159.407 86.6247L163.094 82.9656C165.079 80.9953 166.78 78.3213 166.78 77.0547C166.78 75.0844 164.228 70.4401 161.534 67.0625C161.108 66.6402 144.518 66.0773 124.524 65.6551L88.0808 64.9514L87.6554 52.2852C87.0882 35.3969 88.5062 30.8933 97.0143 24.5602C105.948 17.8049 114.881 14.1457 132.606 9.78293C139.555 8.0941 176.139 7.67189 184.506 9.21999Z" stroke="#1D4ED8" stroke-width="6"/>
<path d="M124.196 21.0706C115.124 24.5843 109.171 34.749 111.297 42.5294C113.565 50.6862 126.889 58.3411 135.394 56.4588C139.789 55.4549 150.703 47.1725 149.711 45.6666C149.286 45.0392 149.569 44.2862 150.42 43.7843C152.971 42.4039 151.979 33.6196 148.719 29.3529C142.198 20.9451 132.559 17.6823 124.196 21.0706ZM136.812 26.0902C146.876 29.8549 149.428 39.8941 142.057 47.1725C138.513 50.6862 136.954 51.3137 131.284 51.3137C125.614 51.3137 124.054 50.6862 120.511 47.1725C113.281 40.0196 115.691 29.8549 125.472 26.0902C131 23.9568 131.142 23.9568 136.812 26.0902Z" stroke="#1D4ED8" stroke-width="6"/>
<path d="M254.935 105.075C254.652 105.468 254.085 111.882 253.517 119.473C250.965 154.681 242.74 169.864 222.321 176.932C212.253 180.466 189.423 182.167 154.398 182.298C140.36 182.298 124.904 182.952 120.082 183.738C103.492 186.355 95.5507 193.554 90.0205 210.438C87.1844 219.339 85.7664 290.54 88.3189 296.168C92.4311 305.33 108.029 314.754 127.598 319.99C137.382 322.607 141.778 323 165.601 323C189.423 323 193.819 322.607 203.603 319.99C217.5 316.325 227.142 311.875 234.516 305.723C243.308 298.394 244.158 296.038 244.442 277.059C244.52 267.724 236.057 260.091 225.513 259.987L204.738 259.782L170.066 259.554C167.202 259.536 164.892 257.475 164.892 254.939C164.892 252.409 167.208 250.358 170.066 250.358H227.993C298.185 250.358 295.065 250.751 304.282 241.327C310.947 234.521 315.768 225.621 319.739 212.794C322.575 203.763 323 199.706 323 177.717C323 155.728 322.575 151.671 319.739 142.64C314.492 125.886 305.417 112.143 296.2 107.301C293.364 105.73 255.786 103.767 254.935 105.075ZM297.334 115.285C299.603 117.51 301.872 119.08 302.581 118.688V118.688C303.513 118.171 303.636 119.613 304.039 120.599C304.826 122.523 306.506 125.973 308.394 129.551C311.23 134.787 313.358 139.106 313.216 139.106C312.932 139.106 313.925 142.901 315.201 147.482C318.746 159 319.03 189.104 315.768 204.418C312.365 221.171 300.17 242.505 294.214 242.505C293.222 242.505 292.513 243.029 292.513 243.814C292.513 244.73 270.675 245.123 229.837 245.123C163.615 245.254 164.466 245.123 160.921 251.275C158.652 255.201 158.794 257.034 162.056 260.829C163.753 262.891 166.441 264.132 169.323 264.183L223.87 265.159C231.741 265.3 238.106 270.878 238.345 277.844C238.912 295.121 238.628 295.645 227.001 304.807C222.605 308.21 206.014 314.492 195.804 316.587C188.572 318.026 163.757 319.728 157.801 319.073C154.256 318.681 148.584 318.157 145.039 317.895C129.583 316.717 107.32 308.341 97.6777 299.964C94.8605 297.532 93.2353 294.217 93.1522 290.734L92.5729 266.457C91.7221 232.82 93.5655 214.627 98.3867 204.81C99.5096 202.565 100.447 200.433 100.955 199.055C101.302 198.112 101.238 196.695 102.357 196.695C103.066 196.695 104.626 195.91 105.76 194.863C106.753 193.816 110.865 191.984 114.694 190.675C120.366 188.842 127.456 188.319 152.838 187.926C169.996 187.664 185.027 187.01 186.162 186.617C187.296 186.225 192.117 186.094 196.939 186.094C206.865 186.486 222.179 183.476 229.837 179.811C237.494 176.015 245.435 168.424 249.972 160.047C254.51 151.802 258.48 135.964 258.48 126.41C258.48 123.007 258.906 117.902 259.473 115.023C259.959 112.182 262.76 110.107 266.004 110.184L276.915 110.442L287.308 110.77C291.238 110.894 294.906 112.546 297.334 115.285Z" stroke="#1D4ED8" stroke-width="6"/>
<path d="M192.023 272.741C177.565 279.518 176.998 295.204 190.889 304.365C195.567 307.377 205.773 307.628 210.876 304.616C220.657 299.094 224.059 286.42 217.963 279.141C210.592 270.357 201.662 268.224 192.023 272.741ZM212.152 280.02C219.239 287.047 216.546 297.212 206.482 300.977C196.843 304.49 186.211 298.09 186.211 288.804C186.211 276.38 202.654 270.859 212.152 280.02Z" stroke="#1D4ED8" stroke-width="6"/>
</svg>
