<svg width="327" height="326" viewBox="0 0 327 326" fill="none" xmlns="http://www.w3.org/2000/svg">
<path d="M135.545 3.73129C118.387 6.1238 101.938 12.8791 92.1539 21.6047C83.3622 29.486 82.5114 32.0192 82.2278 52.4259L82.086 70.5809L121.932 71.0031L161.778 71.2845V81.1361H98.6768C28.4852 81.1361 31.6048 80.7138 22.3877 90.8468C15.723 98.1651 10.9018 107.735 6.93135 121.527C4.09533 131.238 3.66992 135.601 3.66992 159.245C3.66992 182.888 4.09533 187.251 6.93135 196.962C10.9018 210.754 15.723 220.324 22.3877 227.642C30.4704 236.509 33.0228 237.353 53.7258 237.353H72.1599L73.1526 222.153C75.5632 185.703 82.086 170.081 98.1096 162.059C109.312 156.43 116.686 155.445 161.778 154.319C209.565 153.193 215.805 152.208 225.022 144.186C230.694 139.26 233.672 134.193 236.649 124.061C239.485 114.49 240.903 37.9301 238.351 31.8785C236.082 26.3898 226.014 17.3827 217.364 13.0199C202.475 5.56085 191.415 3.30908 166.032 3.02761C153.128 2.88687 139.374 3.30908 135.545 3.73129ZM185.176 9.21999C203.752 12.5976 221.051 19.9159 226.865 26.812C227.858 27.9379 229.276 28.7823 229.843 28.3601C230.41 27.9379 231.686 30.4711 232.679 33.8488C233.955 38.3523 234.239 50.5964 233.672 78.6028C232.963 119.838 232.963 120.12 228.283 130.534C221.335 145.875 211.409 148.267 153.979 149.112C117.678 149.674 112.006 150.097 105.058 152.489C89.8851 157.978 79.1082 167.97 74.0034 181.762C70.7419 190.347 70.1747 193.443 68.1895 214.132C67.3387 221.872 66.4879 229.05 66.0625 230.035C65.4953 231.442 61.5248 231.864 50.1807 231.583C35.008 231.301 35.008 231.301 29.7614 226.516C26.9253 223.842 23.3803 220.746 21.9623 219.62C20.4025 218.354 20.1189 217.791 21.1115 218.354C21.9623 218.776 21.5369 217.087 19.9771 214.413C17.2828 209.909 12.3198 196.962 10.4764 189.503C8.91657 183.029 8.49117 134.616 10.051 131.801C10.76 130.394 11.7526 127.438 12.0362 125.186C13.1706 116.179 21.3951 99.4317 27.9179 92.9579L33.4482 87.4692L160.077 86.6247L163.764 82.9656C165.749 80.9953 167.45 78.3213 167.45 77.0547C167.45 75.0844 164.898 70.4401 162.204 67.0625C161.778 66.6402 145.188 66.0773 125.194 65.6551L88.7507 64.9514L88.3253 52.2852C87.7581 35.3969 89.1761 30.8933 97.6842 24.5602C106.618 17.8049 115.551 14.1457 133.276 9.78293C140.225 8.0941 176.809 7.67189 185.176 9.21999Z" fill="#1D4ED8"/>
<path d="M124.866 21.0706C115.794 24.5843 109.841 34.749 111.967 42.5294C114.235 50.6862 127.559 58.3411 136.064 56.4588C140.459 55.4549 151.373 47.1725 150.381 45.6666C149.956 45.0392 150.239 44.2862 151.09 43.7843C153.641 42.4039 152.649 33.6196 149.389 29.3529C142.868 20.9451 133.229 17.6823 124.866 21.0706ZM137.482 26.0902C147.546 29.8549 150.097 39.8941 142.726 47.1725C139.183 50.6862 137.624 51.3137 131.954 51.3137C126.284 51.3137 124.724 50.6862 121.181 47.1725C113.951 40.0196 116.361 29.8549 126.142 26.0902C131.67 23.9568 131.812 23.9568 137.482 26.0902Z" fill="#1D4ED8"/>
<path d="M255.605 105.075C255.322 105.468 254.754 111.882 254.187 119.473C251.635 154.681 243.41 169.864 222.991 176.932C212.923 180.466 190.093 182.167 155.068 182.298C141.03 182.298 125.574 182.952 120.752 183.738C104.162 186.355 96.2206 193.554 90.6904 210.438C87.8544 219.339 86.4364 290.54 88.9888 296.168C93.101 305.33 108.699 314.754 128.268 319.99C138.052 322.607 142.448 323 166.27 323C190.093 323 194.489 322.607 204.273 319.99C218.17 316.325 227.812 311.875 235.186 305.723C243.978 298.394 244.828 296.038 245.112 277.059C245.19 267.724 236.727 260.091 226.183 259.987L205.408 259.782L170.736 259.554C167.872 259.536 165.561 257.475 165.561 254.939C165.561 252.409 167.878 250.358 170.736 250.358H228.663C298.855 250.358 295.735 250.751 304.952 241.327C311.617 234.521 316.438 225.621 320.408 212.794C323.245 203.763 323.67 199.706 323.67 177.717C323.67 155.728 323.245 151.671 320.408 142.64C315.162 125.886 306.087 112.143 296.869 107.301C294.033 105.73 256.456 103.767 255.605 105.075ZM298.004 115.285C300.273 117.51 302.541 119.08 303.251 118.688V118.688C304.183 118.171 304.306 119.613 304.709 120.599C305.496 122.523 307.176 125.973 309.064 129.551C311.9 134.787 314.027 139.106 313.886 139.106C313.602 139.106 314.595 142.901 315.871 147.482C319.416 159 319.699 189.104 316.438 204.418C313.035 221.171 300.84 242.505 294.884 242.505C293.892 242.505 293.183 243.029 293.183 243.814C293.183 244.73 271.345 245.123 230.506 245.123C164.285 245.254 165.136 245.123 161.591 251.275C159.322 255.201 159.464 257.034 162.725 260.829C164.423 262.891 167.111 264.132 169.993 264.183L224.54 265.159C232.411 265.3 238.776 270.878 239.015 277.844C239.582 295.121 239.298 295.645 227.67 304.807C223.275 308.21 206.684 314.492 196.474 316.587C189.242 318.026 164.427 319.728 158.471 319.073C154.926 318.681 149.254 318.157 145.709 317.895C130.253 316.717 107.99 308.341 98.3477 299.964C95.5304 297.532 93.9052 294.217 93.8221 290.734L93.2428 266.457C92.392 232.82 94.2354 214.627 99.0567 204.81C100.18 202.565 101.117 200.433 101.625 199.055C101.972 198.112 101.907 196.695 103.027 196.695C103.736 196.695 105.296 195.91 106.43 194.863C107.423 193.816 111.535 191.984 115.364 190.675C121.036 188.842 128.126 188.319 153.508 187.926C170.666 187.664 185.697 187.01 186.832 186.617C187.966 186.225 192.787 186.094 197.609 186.094C207.535 186.486 222.849 183.476 230.506 179.811C238.164 176.015 246.105 168.424 250.642 160.047C255.18 151.802 259.15 135.964 259.15 126.41C259.15 123.007 259.576 117.902 260.143 115.023C260.629 112.182 263.43 110.107 266.674 110.184L277.584 110.442L287.977 110.77C291.908 110.894 295.576 112.546 298.004 115.285Z" fill="#1D4ED8"/>
<path d="M192.693 272.741C178.235 279.518 177.668 295.204 191.559 304.365C196.237 307.377 206.443 307.628 211.546 304.616C221.327 299.094 224.729 286.42 218.633 279.141C211.262 270.357 202.332 268.224 192.693 272.741ZM212.822 280.02C219.909 287.047 217.216 297.212 207.152 300.977C197.513 304.49 186.881 298.09 186.881 288.804C186.881 276.38 203.324 270.859 212.822 280.02Z" fill="#1D4ED8"/>
<path d="M135.545 3.73129C118.387 6.1238 101.938 12.8791 92.1539 21.6047C83.3622 29.486 82.5114 32.0192 82.2278 52.4259L82.086 70.5809L121.932 71.0031L161.778 71.2845V81.1361H98.6768C28.4852 81.1361 31.6048 80.7138 22.3877 90.8468C15.723 98.1651 10.9018 107.735 6.93135 121.527C4.09533 131.238 3.66992 135.601 3.66992 159.245C3.66992 182.888 4.09533 187.251 6.93135 196.962C10.9018 210.754 15.723 220.324 22.3877 227.642C30.4704 236.509 33.0228 237.353 53.7258 237.353H72.1599L73.1526 222.153C75.5632 185.703 82.086 170.081 98.1096 162.059C109.312 156.43 116.686 155.445 161.778 154.319C209.565 153.193 215.805 152.208 225.022 144.186C230.694 139.26 233.672 134.193 236.649 124.061C239.485 114.49 240.903 37.9301 238.351 31.8785C236.082 26.3898 226.014 17.3827 217.364 13.0199C202.475 5.56085 191.415 3.30908 166.032 3.02761C153.128 2.88687 139.374 3.30908 135.545 3.73129ZM185.176 9.21999C203.752 12.5976 221.051 19.9159 226.865 26.812C227.858 27.9379 229.276 28.7823 229.843 28.3601C230.41 27.9379 231.686 30.4711 232.679 33.8488C233.955 38.3523 234.239 50.5964 233.672 78.6028C232.963 119.838 232.963 120.12 228.283 130.534C221.335 145.875 211.409 148.267 153.979 149.112C117.678 149.674 112.006 150.097 105.058 152.489C89.8851 157.978 79.1082 167.97 74.0034 181.762C70.7419 190.347 70.1747 193.443 68.1895 214.132C67.3387 221.872 66.4879 229.05 66.0625 230.035C65.4953 231.442 61.5248 231.864 50.1807 231.583C35.008 231.301 35.008 231.301 29.7614 226.516C26.9253 223.842 23.3803 220.746 21.9623 219.62C20.4025 218.354 20.1189 217.791 21.1115 218.354C21.9623 218.776 21.5369 217.087 19.9771 214.413C17.2828 209.909 12.3198 196.962 10.4764 189.503C8.91657 183.029 8.49117 134.616 10.051 131.801C10.76 130.394 11.7526 127.438 12.0362 125.186C13.1706 116.179 21.3951 99.4317 27.9179 92.9579L33.4482 87.4692L160.077 86.6247L163.764 82.9656C165.749 80.9953 167.45 78.3213 167.45 77.0547C167.45 75.0844 164.898 70.4401 162.204 67.0625C161.778 66.6402 145.188 66.0773 125.194 65.6551L88.7507 64.9514L88.3253 52.2852C87.7581 35.3969 89.1761 30.8933 97.6842 24.5602C106.618 17.8049 115.551 14.1457 133.276 9.78293C140.225 8.0941 176.809 7.67189 185.176 9.21999Z" stroke="black" stroke-width="6"/>
<path d="M124.866 21.0706C115.794 24.5843 109.841 34.749 111.967 42.5294C114.235 50.6862 127.559 58.3411 136.064 56.4588C140.459 55.4549 151.373 47.1725 150.381 45.6666C149.956 45.0392 150.239 44.2862 151.09 43.7843C153.641 42.4039 152.649 33.6196 149.389 29.3529C142.868 20.9451 133.229 17.6823 124.866 21.0706ZM137.482 26.0902C147.546 29.8549 150.097 39.8941 142.726 47.1725C139.183 50.6862 137.624 51.3137 131.954 51.3137C126.284 51.3137 124.724 50.6862 121.181 47.1725C113.951 40.0196 116.361 29.8549 126.142 26.0902C131.67 23.9568 131.812 23.9568 137.482 26.0902Z" stroke="black" stroke-width="6"/>
<path d="M255.605 105.075C255.322 105.468 254.754 111.882 254.187 119.473C251.635 154.681 243.41 169.864 222.991 176.932C212.923 180.466 190.093 182.167 155.068 182.298C141.03 182.298 125.574 182.952 120.752 183.738C104.162 186.355 96.2206 193.554 90.6904 210.438C87.8544 219.339 86.4364 290.54 88.9888 296.168C93.101 305.33 108.699 314.754 128.268 319.99C138.052 322.607 142.448 323 166.27 323C190.093 323 194.489 322.607 204.273 319.99C218.17 316.325 227.812 311.875 235.186 305.723C243.978 298.394 244.828 296.038 245.112 277.059C245.19 267.724 236.727 260.091 226.183 259.987L205.408 259.782L170.736 259.554C167.872 259.536 165.561 257.475 165.561 254.939C165.561 252.409 167.878 250.358 170.736 250.358H228.663C298.855 250.358 295.735 250.751 304.952 241.327C311.617 234.521 316.438 225.621 320.408 212.794C323.245 203.763 323.67 199.706 323.67 177.717C323.67 155.728 323.245 151.671 320.408 142.64C315.162 125.886 306.087 112.143 296.869 107.301C294.033 105.73 256.456 103.767 255.605 105.075ZM298.004 115.285C300.273 117.51 302.541 119.08 303.251 118.688V118.688C304.183 118.171 304.306 119.613 304.709 120.599C305.496 122.523 307.176 125.973 309.064 129.551C311.9 134.787 314.027 139.106 313.886 139.106C313.602 139.106 314.595 142.901 315.871 147.482C319.416 159 319.699 189.104 316.438 204.418C313.035 221.171 300.84 242.505 294.884 242.505C293.892 242.505 293.183 243.029 293.183 243.814C293.183 244.73 271.345 245.123 230.506 245.123C164.285 245.254 165.136 245.123 161.591 251.275C159.322 255.201 159.464 257.034 162.725 260.829C164.423 262.891 167.111 264.132 169.993 264.183L224.54 265.159C232.411 265.3 238.776 270.878 239.015 277.844C239.582 295.121 239.298 295.645 227.67 304.807C223.275 308.21 206.684 314.492 196.474 316.587C189.242 318.026 164.427 319.728 158.471 319.073C154.926 318.681 149.254 318.157 145.709 317.895C130.253 316.717 107.99 308.341 98.3477 299.964C95.5304 297.532 93.9052 294.217 93.8221 290.734L93.2428 266.457C92.392 232.82 94.2354 214.627 99.0567 204.81C100.18 202.565 101.117 200.433 101.625 199.055C101.972 198.112 101.907 196.695 103.027 196.695C103.736 196.695 105.296 195.91 106.43 194.863C107.423 193.816 111.535 191.984 115.364 190.675C121.036 188.842 128.126 188.319 153.508 187.926C170.666 187.664 185.697 187.01 186.832 186.617C187.966 186.225 192.787 186.094 197.609 186.094C207.535 186.486 222.849 183.476 230.506 179.811C238.164 176.015 246.105 168.424 250.642 160.047C255.18 151.802 259.15 135.964 259.15 126.41C259.15 123.007 259.576 117.902 260.143 115.023C260.629 112.182 263.43 110.107 266.674 110.184L277.584 110.442L287.977 110.77C291.908 110.894 295.576 112.546 298.004 115.285Z" stroke="black" stroke-width="6"/>
<path d="M192.693 272.741C178.235 279.518 177.668 295.204 191.559 304.365C196.237 307.377 206.443 307.628 211.546 304.616C221.327 299.094 224.729 286.42 218.633 279.141C211.262 270.357 202.332 268.224 192.693 272.741ZM212.822 280.02C219.909 287.047 217.216 297.212 207.152 300.977C197.513 304.49 186.881 298.09 186.881 288.804C186.881 276.38 203.324 270.859 212.822 280.02Z" stroke="black" stroke-width="6"/>
</svg>
