<svg width="169" height="45" viewBox="0 0 169 45" fill="none" xmlns="http://www.w3.org/2000/svg">
<path d="M0.25 35V0.0909081H15.3182C17.9091 0.0909081 20.1761 0.602272 22.1193 1.625C24.0625 2.64773 25.5739 4.08523 26.6534 5.9375C27.733 7.78977 28.2727 9.95454 28.2727 12.4318C28.2727 14.9318 27.7159 17.0966 26.6023 18.9261C25.5 20.7557 23.9489 22.1648 21.9489 23.1534C19.9602 24.142 17.6364 24.6364 14.9773 24.6364H5.97727V17.2727H13.0682C14.1818 17.2727 15.1307 17.0795 15.9148 16.6932C16.7102 16.2955 17.3182 15.733 17.7386 15.0057C18.1705 14.2784 18.3864 13.4205 18.3864 12.4318C18.3864 11.4318 18.1705 10.5795 17.7386 9.875C17.3182 9.15909 16.7102 8.61364 15.9148 8.23864C15.1307 7.85227 14.1818 7.65909 13.0682 7.65909H9.72727V35H0.25ZM37.6136 44.8182C36.5341 44.8182 35.5057 44.733 34.5284 44.5625C33.5511 44.4034 32.6932 44.1818 31.9545 43.8977L34 37.2159C34.7727 37.4886 35.4773 37.6648 36.1136 37.7443C36.7614 37.8239 37.3125 37.7784 37.767 37.608C38.233 37.4375 38.5682 37.1136 38.7727 36.6364L38.9773 36.1591L29.7727 8.81818H39.5909L43.8182 26.9545H44.0909L48.3864 8.81818H58.2727L48.7273 37.1818C48.25 38.625 47.5568 39.9205 46.6477 41.0682C45.75 42.2273 44.5682 43.142 43.1023 43.8125C41.6364 44.483 39.8068 44.8182 37.6136 44.8182ZM76.5625 8.81818V15.6364H59.3125V8.81818H76.5625ZM62.6534 2.54545H72.0625V26.5795C72.0625 26.9432 72.125 27.25 72.25 27.5C72.375 27.7386 72.5682 27.9205 72.8295 28.0455C73.0909 28.1591 73.4261 28.2159 73.8352 28.2159C74.1193 28.2159 74.4489 28.1818 74.8239 28.1136C75.2102 28.0455 75.4943 27.9886 75.6761 27.9432L77.0398 34.5568C76.6193 34.6818 76.017 34.8352 75.233 35.017C74.4602 35.1989 73.5398 35.3182 72.4716 35.375C70.3125 35.4886 68.5 35.267 67.0341 34.7102C65.5682 34.142 64.4659 33.25 63.7273 32.0341C62.9886 30.8182 62.6307 29.2955 62.6534 27.4659V2.54545ZM90.3736 20.2727V35H80.9645V0.0909081H90.0327V13.7955H90.3054C90.8963 12.125 91.8793 10.8239 93.2543 9.89205C94.6293 8.94886 96.2827 8.47727 98.2145 8.47727C100.067 8.47727 101.675 8.89773 103.038 9.73864C104.413 10.5795 105.476 11.7386 106.226 13.2159C106.987 14.6932 107.362 16.3864 107.351 18.2955V35H97.9418V20.2727C97.9531 18.9773 97.6293 17.9602 96.9702 17.2216C96.3224 16.483 95.3963 16.1136 94.1918 16.1136C93.4304 16.1136 92.7599 16.2841 92.1804 16.625C91.6122 16.9545 91.169 17.4318 90.8509 18.0568C90.544 18.6705 90.3849 19.4091 90.3736 20.2727ZM124.609 35.4773C121.768 35.4773 119.337 34.9148 117.314 33.7898C115.291 32.6534 113.74 31.0739 112.661 29.0511C111.581 27.017 111.041 24.6591 111.041 21.9773C111.041 19.2955 111.581 16.9432 112.661 14.9205C113.74 12.8864 115.291 11.3068 117.314 10.1818C119.337 9.04545 121.768 8.47727 124.609 8.47727C127.45 8.47727 129.882 9.04545 131.905 10.1818C133.928 11.3068 135.479 12.8864 136.558 14.9205C137.638 16.9432 138.178 19.2955 138.178 21.9773C138.178 24.6591 137.638 27.017 136.558 29.0511C135.479 31.0739 133.928 32.6534 131.905 33.7898C129.882 34.9148 127.45 35.4773 124.609 35.4773ZM124.678 28.5227C125.473 28.5227 126.161 28.2557 126.74 27.7216C127.32 27.1875 127.768 26.4261 128.087 25.4375C128.405 24.4489 128.564 23.2727 128.564 21.9091C128.564 20.5341 128.405 19.358 128.087 18.3807C127.768 17.392 127.32 16.6307 126.74 16.0966C126.161 15.5625 125.473 15.2955 124.678 15.2955C123.837 15.2955 123.115 15.5625 122.513 16.0966C121.911 16.6307 121.45 17.392 121.132 18.3807C120.814 19.358 120.655 20.5341 120.655 21.9091C120.655 23.2727 120.814 24.4489 121.132 25.4375C121.45 26.4261 121.911 27.1875 122.513 27.7216C123.115 28.2557 123.837 28.5227 124.678 28.5227ZM151.405 20.2727V35H141.996V8.81818H150.928V13.7955H151.2C151.768 12.1364 152.768 10.8352 154.2 9.89205C155.643 8.94886 157.325 8.47727 159.246 8.47727C161.098 8.47727 162.706 8.90341 164.07 9.75568C165.445 10.5966 166.507 11.7557 167.257 13.233C168.018 14.7102 168.393 16.3977 168.382 18.2955V35H158.973V20.2727C158.984 18.9773 158.655 17.9602 157.984 17.2216C157.325 16.483 156.405 16.1136 155.223 16.1136C154.45 16.1136 153.774 16.2841 153.195 16.625C152.626 16.9545 152.189 17.4318 151.882 18.0568C151.575 18.6705 151.416 19.4091 151.405 20.2727Z" fill="black"/>
</svg>
