<svg width="114" height="39" viewBox="0 0 114 39" fill="none" xmlns="http://www.w3.org/2000/svg">
<path d="M0.25 38V3.09091H15.3182C17.9091 3.09091 20.1761 3.5625 22.1193 4.50568C24.0625 5.44886 25.5739 6.80682 26.6534 8.57955C27.733 10.3523 28.2727 12.4773 28.2727 14.9545C28.2727 17.4545 27.7159 19.5625 26.6023 21.2784C25.5 22.9943 23.9489 24.2898 21.9489 25.1648C19.9602 26.0398 17.6364 26.4773 14.9773 26.4773H5.97727V19.1136H13.0682C14.1818 19.1136 15.1307 18.9773 15.9148 18.7045C16.7102 18.4205 17.3182 17.9716 17.7386 17.358C18.1705 16.7443 18.3864 15.9432 18.3864 14.9545C18.3864 13.9545 18.1705 13.142 17.7386 12.517C17.3182 11.8807 16.7102 11.4148 15.9148 11.1193C15.1307 10.8125 14.1818 10.6591 13.0682 10.6591H9.72727V38H0.25ZM20.7045 21.9773L29.4318 38H19.1364L10.6136 21.9773H20.7045ZM39.7443 38.4091C38.0739 38.4091 36.5966 38.1364 35.3125 37.5909C34.0398 37.0341 33.0398 36.1932 32.3125 35.0682C31.5852 33.9432 31.2216 32.5114 31.2216 30.7727C31.2216 29.3409 31.4659 28.1193 31.9545 27.108C32.4432 26.0852 33.125 25.25 34 24.6023C34.875 23.9545 35.892 23.4602 37.0511 23.1193C38.2216 22.7784 39.483 22.5568 40.8352 22.4545C42.3011 22.3409 43.4773 22.2045 44.3636 22.0455C45.2614 21.875 45.9091 21.642 46.3068 21.3466C46.7045 21.0398 46.9034 20.6364 46.9034 20.1364V20.0682C46.9034 19.3864 46.642 18.8636 46.1193 18.5C45.5966 18.1364 44.9261 17.9545 44.108 17.9545C43.2102 17.9545 42.4773 18.1534 41.9091 18.5511C41.3523 18.9375 41.017 19.5341 40.9034 20.3409H32.2443C32.358 18.75 32.8636 17.2841 33.7614 15.9432C34.6705 14.5909 35.9943 13.5114 37.733 12.7045C39.4716 11.8864 41.642 11.4773 44.2443 11.4773C46.1193 11.4773 47.8011 11.6989 49.2898 12.142C50.7784 12.5739 52.0455 13.1818 53.0909 13.9659C54.1364 14.7386 54.9318 15.6477 55.4773 16.6932C56.0341 17.7273 56.3125 18.8523 56.3125 20.0682V38H47.517V34.3182H47.3125C46.7898 35.2955 46.1534 36.0852 45.4034 36.6875C44.6648 37.2898 43.8182 37.7273 42.8636 38C41.9205 38.2727 40.8807 38.4091 39.7443 38.4091ZM42.8125 32.4773C43.5284 32.4773 44.1989 32.3295 44.8239 32.0341C45.4602 31.7386 45.9773 31.3125 46.375 30.7557C46.7727 30.1989 46.9716 29.5227 46.9716 28.7273V26.5455C46.7216 26.6477 46.4545 26.7443 46.1705 26.8352C45.8977 26.9261 45.6023 27.0114 45.2841 27.0909C44.9773 27.1705 44.6477 27.2443 44.2955 27.3125C43.9545 27.3807 43.5966 27.4432 43.2216 27.5C42.4943 27.6136 41.8977 27.8011 41.4318 28.0625C40.9773 28.3125 40.6364 28.625 40.4091 29C40.1932 29.3636 40.0852 29.7727 40.0852 30.2273C40.0852 30.9545 40.3409 31.5114 40.8523 31.8977C41.3636 32.2841 42.017 32.4773 42.8125 32.4773ZM60.8082 38V11.8182H70.2173V38H60.8082ZM65.5128 9.09091C64.2401 9.09091 63.1491 8.67045 62.2401 7.82955C61.331 6.98864 60.8764 5.97727 60.8764 4.79545C60.8764 3.61364 61.331 2.60227 62.2401 1.76136C63.1491 0.920454 64.2401 0.5 65.5128 0.5C66.7969 0.5 67.8878 0.920454 68.7855 1.76136C69.6946 2.60227 70.1491 3.61364 70.1491 4.79545C70.1491 5.97727 69.6946 6.98864 68.7855 7.82955C67.8878 8.67045 66.7969 9.09091 65.5128 9.09091ZM84.4205 3.09091V38H75.0114V3.09091H84.4205ZM113.146 20.3409H104.487C104.442 19.8068 104.254 19.3466 103.925 18.9602C103.595 18.5739 103.169 18.2784 102.646 18.0739C102.135 17.858 101.567 17.75 100.942 17.75C100.135 17.75 99.4418 17.8977 98.8622 18.1932C98.2827 18.4886 97.9986 18.9091 98.0099 19.4545C97.9986 19.8409 98.1634 20.1989 98.5043 20.5284C98.8565 20.858 99.5327 21.1136 100.533 21.2955L105.851 22.25C108.533 22.7386 110.527 23.5625 111.834 24.7216C113.152 25.8693 113.817 27.4091 113.828 29.3409C113.817 31.2045 113.26 32.8239 112.158 34.1989C111.067 35.5625 109.572 36.6193 107.675 37.3693C105.788 38.108 103.635 38.4773 101.214 38.4773C97.2145 38.4773 94.0838 37.6591 91.8224 36.0227C89.5724 34.3864 88.3168 32.2273 88.0554 29.5455H97.3963C97.5213 30.375 97.9304 31.017 98.6236 31.4716C99.3281 31.9148 100.214 32.1364 101.283 32.1364C102.146 32.1364 102.857 31.9886 103.413 31.6932C103.982 31.3977 104.271 30.9773 104.283 30.4318C104.271 29.9318 104.021 29.5341 103.533 29.2386C103.055 28.9432 102.305 28.7045 101.283 28.5227L96.6463 27.7045C93.9759 27.2386 91.9759 26.3523 90.6463 25.0455C89.3168 23.7386 88.6577 22.0568 88.669 20C88.6577 18.1818 89.1349 16.642 90.1009 15.3807C91.0781 14.108 92.4702 13.142 94.277 12.483C96.0952 11.8125 98.2486 11.4773 100.737 11.4773C104.521 11.4773 107.504 12.2614 109.686 13.8295C111.879 15.3977 113.033 17.5682 113.146 20.3409Z" fill="black"/>
</svg>
