<svg width="113" height="113" viewBox="0 0 113 113" fill="none" xmlns="http://www.w3.org/2000/svg">
<path d="M33.2489 0H34.3824L37.1532 0.423168L39.5461 1.12845L42.0649 2.2569L44.5838 3.66746L46.9767 5.36013L49.1177 7.0528L50.629 8.32231L52.0144 9.59181L53.6517 11.1434L55.2889 12.8361L56.2965 13.9645L57.1781 13.1182L59.0672 11.1434L60.4526 9.87392L61.9639 8.46336L63.4752 7.19386L65.6162 5.50119L67.2535 4.37274L69.0167 3.24429L71.9134 1.69267L74.5582 0.70528L76.9511 0.141056L78.0846 0H79.344L81.8629 0.423168L83.752 1.12845L85.2633 2.11584L86.5228 3.24429L87.5303 4.37274L88.6638 6.20647L89.6713 8.46336L90.427 11.0024L91.0567 14.6698L91.3086 19.4657L91.0567 24.1206L90.5529 28.4933L89.4194 34.6998L89.2935 35.264L90.1751 35.4051L94.709 37.0977L97.2279 38.2262L99.4949 39.3546L101.51 40.4831L103.903 42.0347L106.044 43.7274L107.681 45.279L109.822 47.6769L111.208 49.9338L112.089 51.9086L112.719 54.3066L112.845 55.294V57.4098L112.467 59.6667L111.711 61.9236L110.83 63.6163L109.57 65.45L107.177 68.1301L105.288 69.6817L103.777 70.8101L101.258 72.5028L98.8652 73.7723L96.4723 74.9008L92.8199 76.4524L89.5454 77.5808H89.2935L90.5529 84.3515L90.9308 87.4547L91.1826 90.558L91.3086 94.2254L91.0567 98.175L90.6789 100.573L89.7973 104.099L88.7897 106.356L87.6562 108.19L86.2709 109.883L84.6336 111.152L82.6185 112.14L80.4775 112.704L79.47 112.845H78.3365L76.8252 112.563L74.6841 112.14L72.0393 111.152L69.7724 110.024L67.8832 108.895L65.9941 107.626L63.7271 105.792L62.2158 104.523L60.9564 103.394L59.1932 101.701L58.1856 100.714L56.5484 99.0213L56.0446 99.1624L54.4073 100.996L53.3998 101.984L51.7625 103.535L50.1253 104.946L48.614 106.215L46.7248 107.626L43.9541 109.459L42.0649 110.588L39.0423 111.857L36.3975 112.563L34.8862 112.704H32.6192L30.6041 112.281L29.2187 111.716L27.5815 110.729L26.1961 109.459L24.9367 107.908L23.8032 105.933L22.9216 103.676L22.1659 100.714L21.7881 98.3161L21.5362 95.4949V91.8275L21.9141 87.0316L22.6697 81.9536L23.4254 78.004L23.5513 77.5808L21.5362 77.0166L18.1358 75.7471L15.1131 74.3365L12.0905 72.7849L9.82355 71.3744L7.43063 69.6817L5.79337 68.1301L4.78583 67.1427L3.65234 66.0142L2.26697 64.0394L1.25943 62.2057L0.377829 59.8078L0 57.6919V55.294L0.377829 53.0371L1.25943 50.6391L2.51886 48.3822L3.5264 46.9717H3.77829L4.03017 46.4074L4.53394 46.1253V45.8432L5.54149 44.8558L7.0528 43.4453L9.19383 41.8936L11.5867 40.342L13.6018 39.2136L17.1282 37.5209L20.1509 36.2514L23.1735 35.264H23.5513L22.5438 30.186L21.9141 25.6722L21.5362 20.4531V17.632L21.7881 14.2467L22.4178 10.8613L23.4254 7.75808L24.5589 5.50119L25.4405 4.23168L26.6999 2.82112L27.9593 1.83373L29.9744 0.70528L32.2414 0.141056L33.2489 0ZM32.6192 5.50119L30.9819 6.06541L29.5966 7.19386L28.715 8.18125L27.7074 10.156L27.0777 11.9898L26.5739 14.8109L26.3221 18.3373L26.448 22.569L26.9518 27.2238L27.7074 31.7376L28.2112 33.7124L28.4631 33.8534L33.6268 32.725L36.6494 32.1608L40.5536 31.5966L42.1909 31.4555L43.3244 31.3144L43.9541 30.6092L44.8357 29.0575L46.221 27.0828L47.4805 25.249L48.488 23.8385L49.9993 21.8637L51.1328 20.3121L52.2663 18.9015L52.896 18.0552L52.7701 17.4909L51.8885 16.5036L50.8809 15.5162L47.6064 12.4129L45.2135 10.4381L42.9465 8.88653L40.8055 7.47597L38.6645 6.48858L36.1456 5.64224L35.39 5.50119H32.6192ZM77.4549 5.50119L75.6917 5.92435L73.8025 6.62963L71.5356 7.75808L69.7724 8.88653L68.0092 10.156L66.246 11.5666L64.4828 13.1182L62.8455 14.6698L61.5861 15.9393L60.0748 17.4909L59.8229 17.632L59.9488 18.1962L61.5861 20.171L62.7196 21.7226L63.853 23.1332L65.2384 25.108L67.0016 27.647L68.1351 29.3397L69.0167 30.7502L69.3945 31.3144L74.3063 31.8787L79.0921 32.725L83.752 33.7124H84.6336L85.6412 28.6344L86.1449 24.6848L86.3968 22.2869L86.5228 18.1962L86.1449 14.2467L85.5152 11.2845L84.6336 9.02759L83.6261 7.61703L82.3666 6.34752L80.8553 5.64224L80.2256 5.50119H77.4549ZM56.1705 22.0047L54.2814 24.2616L53.2738 25.6722L51.7625 27.647L49.8734 30.4681V30.7502L55.7927 30.6092H58.6894L63.0974 30.7502L62.5936 29.9039L60.8304 27.5059L59.571 25.6722L58.6894 24.6848L57.5559 23.1332L56.6743 22.0047H56.1705ZM56.6743 35.8282L51.0069 35.9693L46.221 36.2514L45.4654 37.2388L43.3244 40.9062L41.6871 44.0095L40.8055 45.5611L39.798 47.5359L38.5385 50.0749L37.2791 52.755L35.7678 56.1403L35.8937 56.9866L38.1607 62.0647L39.1682 64.0394L40.9314 67.5658L42.1909 69.8227L43.8281 72.7849L45.3394 75.3239L46.347 76.5934L52.0144 76.8755H61.3342L66.3719 76.5934L67.0016 76.1703L68.0092 74.4776L69.6464 71.6565L71.5356 68.1301L73.2988 64.7447L75.4398 60.2309L76.6992 57.5509L77.077 56.7045L76.9511 55.8582L75.9436 53.6013L74.4322 50.357L73.4247 48.3822L71.6615 44.8558L69.8983 41.6115L67.8832 38.0851L66.7497 36.2514L57.8078 35.8282H56.6743ZM39.5461 36.9567L32.6192 38.2262L29.9744 38.9315L29.5966 39.0725L29.8485 40.342L31.4857 45.5611L32.6192 48.8054L33.123 49.9338H33.3749L34.6343 47.1127L35.8937 44.5737L37.531 41.4705L39.2942 38.2262L39.798 37.3798V36.9567H39.5461ZM73.0469 37.0977L73.2988 37.803L74.8101 40.6241L75.8176 42.4579L76.9511 44.7148L78.7143 48.2412L79.47 49.9338L79.7218 50.0749L81.2332 45.8432L82.4926 41.8936L83.1223 39.6367V38.9315L78.7143 37.9441L74.8101 37.2388L73.0469 37.0977ZM88.0341 40.342L87.5303 41.4705L86.2709 45.7022L85.2633 48.6643L84.0039 52.1907L82.7445 55.435L82.4926 56.1403L82.6185 56.9866L84.0039 60.6541L85.2633 64.1805L86.9006 69.1175L87.7822 72.0796L88.16 72.5028L93.3237 70.528L96.976 68.8353L98.8652 67.7069L100.628 66.7195L102.895 65.0268L104.281 63.7573L105.54 62.4878L106.422 61.3594L107.429 59.5256L108.059 56.9866V55.5761L107.555 53.7423L106.8 52.0497L105.666 50.4981L104.407 49.0875L102.769 47.6769L100.251 45.8432L98.1095 44.5737L94.709 42.881L90.1751 41.0473L88.0341 40.342ZM24.307 40.4831L19.773 42.1758L17.8839 43.0221L15.2391 44.2916L12.3424 45.9843L10.0754 47.6769L8.43817 49.0875L6.67497 51.0623L5.54149 53.0371L4.91177 54.8708L4.78583 55.5761V57.4098L5.2896 59.1025L6.1712 60.9362L7.30469 62.4878L8.56412 63.8984L10.8311 65.7321L12.7202 67.0016L15.365 68.5532L18.7655 70.2459L22.6697 71.7975L24.5589 72.3617H24.9367L26.8258 66.1553L28.2112 62.3468L29.3447 59.2435L30.3522 56.5635L29.9744 55.1529L28.4631 51.2033L26.8258 46.5485L24.9367 40.4831H24.307ZM33.123 62.7699L31.8636 66.1553L30.7301 69.6817L29.5966 73.4902L29.7225 73.7723L32.1154 74.4776L36.5234 75.3239L39.2942 75.7471H39.798L39.5461 75.0418L38.5385 73.2081L37.0272 70.387L35.5159 67.4248L34.2565 64.8858L33.2489 62.7699H33.123ZM79.5959 62.7699L78.3365 65.45L76.6992 68.6943L75.3138 71.3744L74.0544 73.6312L73.2988 75.0418L73.0469 75.7471L74.6841 75.606L80.6034 74.4776L82.9964 73.9134L83.1223 73.7723L82.9964 72.6439L81.485 67.7069L79.7218 62.7699H79.5959ZM28.2112 78.9914L27.4555 82.5178L26.6999 87.7369L26.448 90.2759L26.3221 94.5075L26.5739 98.175L27.2037 101.278L28.0853 103.535L29.0928 105.087L30.3522 106.356L31.3598 106.92L32.7452 107.344H35.1381L37.0272 106.92L39.5461 105.933L41.6871 104.805L43.5762 103.535L46.7248 101.137L48.1102 99.8677L49.7474 98.3161L51.2588 96.7644L53.022 95.0718L52.2663 93.9433L51.1328 92.5328L49.9993 90.9811L48.8658 89.5706L47.4805 87.5958L45.7173 85.0568L44.3319 82.9409L43.4503 81.5304L38.9164 80.9662L32.997 79.9788L28.715 78.9914H28.2112ZM84.3817 78.9914L76.6992 80.543L74.0544 80.9662L69.3945 81.5304L68.387 83.082L66.6238 85.7621L64.9865 88.019L64.1049 89.2885L61.0823 93.238L59.8229 94.7897L60.0748 95.3539L61.712 97.0465L63.0974 98.4571L64.4828 99.7266L66.7497 101.701L69.3945 103.676L72.2912 105.51L75.3138 106.779L77.7068 107.344H80.2256L81.7369 106.779L82.8704 105.933L84.0039 104.805L84.8855 103.253L85.5152 101.56L86.019 99.1624L86.3968 95.9181L86.5228 94.0844V92.6738L86.3968 91.5454L86.2709 89.2885L85.7671 84.9157L84.8855 79.9788L84.5077 78.9914H84.3817ZM49.7474 82.0946L49.9993 82.6588L51.7625 85.0568L52.7701 86.4673L54.2814 88.4421L55.163 89.5706L56.1705 90.8401L56.8002 90.699L58.1856 89.0064L59.3191 87.4547L60.7045 85.621L62.0898 83.6462L63.0974 82.2357V82.0946H61.4601L57.304 82.2357L49.7474 82.0946Z" fill="#1D4ED8"/>
<path d="M56.0446 44.9969L57.8078 45.1379L58.5634 45.279L59.8229 45.7022L61.838 46.8306L63.2233 47.9591L64.4828 49.5107L65.4903 51.3444L66.246 53.6013L66.4978 55.294V57.5509L66.12 59.8078L65.2384 62.0647L63.979 64.0394L63.0974 65.0268L61.838 66.0142L60.0748 67.0016L58.3116 67.5658L56.9262 67.7069H55.163L53.022 67.1427L51.0069 66.0142L49.3696 64.6037L48.1102 63.052L46.9767 60.6541L46.347 58.1151L46.221 55.9992L46.4729 54.0245L47.1026 51.9086L48.1102 49.7928L49.2437 48.3822L50.3772 47.2538L52.2663 45.9843L53.5257 45.42L54.5333 45.1379H55.4149L56.0446 44.9969Z" fill="#1D4ED8"/>
</svg>
