<svg width="320" height="320" viewBox="0 0 320 320" fill="none" xmlns="http://www.w3.org/2000/svg">
<path d="M82.3488 2.48942C71.208 8.79962 64.7652 24.4982 63.6914 48.3538C63.1545 62.2054 65.0336 83.7524 68.1208 96.2189C68.7919 98.9892 67.5839 99.7588 57.6512 103.606C31.7456 113.61 7.31646 132.541 2.08165 146.854C-0.737098 154.858 -0.737098 165.785 2.3501 173.173C5.83997 181.791 18.323 195.027 30.4033 202.877C38.7253 208.417 54.1613 215.959 66.7786 220.73C67.9866 221.192 67.8524 224.116 66.2416 231.811C65.0336 238.429 64.094 250.28 64.094 263.824C63.9598 289.065 66.1074 299.069 73.7583 309.38C79.9327 317.537 85.1675 320 96.7109 320C112.818 320 128.522 311.843 149.73 292.143L160.737 281.985L166.643 287.987C177.112 298.453 188.656 307.38 199.662 313.382C208.253 318.153 212.145 319.23 220.199 319.846C232.95 320.462 238.99 318.307 244.896 310.919C256.708 295.837 259.795 263.516 253.084 225.193C252.279 220.422 252.279 220.422 262.883 216.113C285.701 206.878 305.835 192.411 313.889 179.483C330.935 152.395 311.741 123.768 263.554 104.376C253.621 100.528 251.205 98.9892 251.876 96.9885C254.426 89.447 256.708 62.5132 256.037 49.1233C255.232 31.2701 252.547 20.4966 246.776 11.8778C240.064 1.71988 235.366 -0.434817 221.407 0.180812C210.669 0.796441 208.655 1.41207 197.246 7.87617C189.998 12.1856 179.663 19.8809 172.28 26.6529L159.931 38.3498L150.133 28.9615C137.918 17.1106 122.751 6.79882 111.744 2.95114C101.409 -0.742632 88.3889 -1.05045 82.3488 2.48942ZM226.91 5.10584C228.118 6.64491 227.715 7.10664 224.628 6.79882C218.722 6.3371 218.051 5.87538 221.675 4.49021C223.554 3.87459 225.165 3.25896 225.165 3.10505C225.299 2.95114 226.105 3.87458 226.91 5.10584ZM236.843 7.87617C237.514 7.72227 237.648 8.18399 237.111 9.10743C236.709 9.87697 237.246 10.6465 238.319 10.6465C241.004 10.6465 242.212 13.2629 240.333 14.6481C239.393 15.2637 239.125 15.1098 239.527 14.1864C240.467 12.4934 235.769 10.0309 233.085 10.6465C232.413 10.8004 232.145 10.3387 232.682 9.72306C233.219 9.10743 232.682 7.72226 231.34 6.49101C229.326 4.64412 229.46 4.49021 232.413 6.3371C234.293 7.41445 236.306 8.03008 236.843 7.87617ZM107.986 16.9567C112.55 18.6497 119.798 22.4974 124.093 25.5755C131.61 30.8083 149.596 46.8147 150.133 48.8155C150.401 49.4311 147.18 54.3561 143.019 59.8968C138.992 65.4375 132.818 74.2102 129.328 79.443C123.959 87.9079 122.617 89.1392 118.858 89.1392C116.442 89.1392 107.449 90.5243 98.8586 92.2173C90.2681 93.9103 82.6172 95.2955 82.0803 95.2955C78.5904 95.2955 74.6979 57.1265 76.7113 41.7358C79.7985 16.1872 88.3889 9.41524 107.986 16.9567ZM232.279 16.0333C239.125 20.0348 242.346 30.5005 242.883 49.8928C243.42 66.0531 241.407 89.447 239.259 93.6025C238.319 95.1416 234.829 94.8338 221.675 92.3712C212.682 90.5243 203.286 89.1392 200.87 89.1392C197.649 89.1392 195.904 88.0618 194.159 85.1376C192.951 82.9829 186.777 73.9024 180.468 64.9757C174.294 56.0491 169.327 48.6616 169.596 48.5077C169.73 48.1999 173.891 44.3522 178.723 39.735C201.407 18.034 221.138 9.26134 232.279 16.0333ZM136.844 25.1138C138.858 26.345 141.677 28.6536 143.019 30.5005C144.361 32.1935 146.106 33.2709 146.643 32.8091C147.314 32.3474 147.851 33.117 147.851 34.5021C147.851 36.0412 148.522 36.5029 149.596 35.8873C150.401 35.2717 150.67 35.4256 150.133 36.0412C148.791 37.7342 144.898 38.5037 145.838 36.8107C146.106 36.1951 144.898 34.3482 143.019 32.8091C141.006 31.1162 138.858 29.1154 137.918 28.1919C137.113 27.2685 135.234 25.8833 133.757 24.806C129.999 22.3434 132.549 22.4974 136.844 25.1138ZM178.723 33.2709C178.723 33.7326 177.783 33.7326 176.71 33.117C175.636 32.6552 174.696 32.8091 174.696 33.5787C174.696 34.3482 172.549 37.5803 169.864 40.8123C164.361 47.892 164.361 52.3554 170.267 61.282C172.28 64.3601 172.951 65.8992 171.877 64.9757C170.669 63.8984 169.193 63.5906 168.656 64.2062C167.985 64.8218 167.985 64.514 168.388 63.5906C168.925 62.5132 168.388 60.9742 167.314 59.8968C166.24 58.8195 165.3 58.5116 165.3 59.1273C165.3 59.8968 164.227 59.2812 162.75 57.7421C160.334 55.2796 155.905 55.7413 155.905 58.6656C155.905 59.4351 155.368 59.7429 154.697 59.1273C153.891 58.6656 152.683 59.7429 151.878 61.4359C151.072 63.1289 149.864 64.514 149.193 64.514C148.522 64.514 149.462 61.5898 151.207 57.896C155.233 50.0467 155.368 46.9686 151.878 42.967C150.536 41.4279 149.864 39.5811 150.536 39.1193C151.207 38.6576 152.012 38.9654 152.549 39.8889C153.086 40.8123 154.025 41.1201 154.697 40.6584C155.368 40.0428 155.905 40.5045 155.905 41.4279C155.905 42.3514 156.441 42.8131 157.113 42.3514C157.784 41.7358 158.589 42.0436 158.858 42.967C159.126 43.7366 160.602 43.4287 162.616 42.1975C164.495 40.9662 167.314 39.2732 168.925 38.5037C170.535 37.5803 172.549 35.5795 173.354 33.8865C174.562 31.2701 178.723 30.8083 178.723 33.2709ZM173.757 78.5196C176.441 82.3673 178.723 85.9071 178.723 86.2149C178.723 86.5228 170.267 86.8306 159.931 86.8306C149.596 86.8306 141.14 86.5228 141.14 86.061C141.14 85.5993 145.435 79.5969 150.536 72.6711L159.931 59.8968L164.361 65.7453C166.777 68.8234 171.072 74.6719 173.757 78.5196ZM147.314 67.9C147.851 68.8234 147.717 69.1312 146.911 68.6695C145.569 67.7461 143.153 71.5938 143.556 73.9024C143.69 74.518 142.214 76.5188 140.469 78.3657C136.039 83.1368 136.308 85.1376 141.542 90.6783L145.838 95.1416L138.992 95.2955C132.952 95.2955 131.61 95.9111 126.912 101.144C120.335 108.378 116.979 113.303 117.919 114.226C118.187 114.688 117.382 115.765 115.905 116.689C113.355 118.228 113.355 118.074 116.039 112.071L118.724 105.761L114.966 102.067C112.952 100.067 110.536 98.3736 109.731 98.2197C106.241 98.0658 114.16 95.4494 118.724 95.4494C122.885 95.2955 124.764 94.0642 129.731 88.2157C133.086 84.3681 135.771 80.5204 135.771 79.9047C135.771 79.1352 136.979 78.0579 138.455 77.5961C139.932 76.9805 140.871 76.0571 140.469 75.2875C140.066 74.6719 141.14 72.2094 142.75 70.0547C146.375 65.4375 146.106 65.5914 147.314 67.9ZM182.75 76.5188C184.495 78.3657 184.495 78.5196 182.75 77.4422C181.676 76.8266 182.079 77.904 183.689 80.0587C185.3 82.0594 188.253 86.061 190.401 88.9853C193.488 92.9869 195.501 94.2181 200.199 94.8337C208.387 95.9111 209.461 97.6041 205.031 101.913C201.944 104.992 201.541 106.069 202.749 109.609C203.555 111.917 203.689 113.764 203.152 113.764C202.615 113.764 203.152 114.534 204.226 115.457C205.971 116.842 205.971 116.996 204.226 116.381C203.152 116.073 202.347 114.996 202.481 114.072C202.615 113.149 199.528 108.685 195.501 103.914C189.327 96.8345 187.313 95.2955 183.555 95.2955C178.186 95.2955 176.441 92.0634 180.199 88.9853C182.884 86.8306 183.555 83.1368 181.676 80.5204C181.005 79.7508 179.797 76.9805 178.857 74.518C177.515 70.6703 177.515 70.2086 178.991 72.2094C179.931 73.4406 181.676 75.2875 182.75 76.5188ZM79.1273 98.6814C80.0669 100.221 82.0803 101.452 83.5568 101.452C86.7782 101.452 86.7782 102.221 83.2883 106.223C80.4696 109.455 80.2012 116.073 82.6172 123.768C83.1541 125.461 82.0803 123.614 80.0669 119.613C76.5771 112.071 69.8657 106.531 66.9128 108.685C65.1678 109.763 67.8524 105.607 71.7449 100.99C73.3556 99.1432 73.8925 97.1424 73.2214 94.8337C72.416 91.7556 72.5503 91.6017 74.8321 93.7564C76.1744 94.9877 78.1878 97.2963 79.1273 98.6814ZM247.447 97.1424C247.178 98.6814 248.386 101.298 250.4 103.453C254.829 108.224 254.829 108.839 249.594 109.455C246.373 109.763 244.494 111.302 242.212 115.149L238.99 120.536L239.393 115.919C239.662 111.148 237.111 104.53 235.098 104.53C234.293 104.53 233.756 103.76 233.756 102.991C233.756 102.067 234.964 101.452 236.44 101.452C237.782 101.452 240.064 99.7588 241.407 97.758C244.225 93.4486 248.386 92.9869 247.447 97.1424ZM192.548 108.531C198.32 117.92 216.172 153.78 217.112 157.936C217.917 161.629 210.669 177.944 196.978 203.338L188.924 218.421H131.073L122.214 201.799C117.248 192.719 110.67 179.637 107.449 172.711L101.543 159.937L108.12 145.777C115.905 129.001 123.959 113.457 128.657 106.377L131.878 101.452H188.119L192.548 108.531ZM111.878 108.685C110.536 111.148 106.107 119.459 102.214 127.462C96.9794 138.082 94.8318 141.16 94.0264 139.467C92.5499 136.543 84.7648 112.379 84.7648 110.84C84.7648 109.609 104.093 104.992 110.67 104.684L114.429 104.53L111.878 108.685ZM222.615 107.146C229.46 108.531 235.098 110.224 235.098 110.84C235.098 112.533 227.581 135.927 226.105 139.159C225.031 141.314 223.42 139.313 217.649 127.462C213.756 119.459 209.327 111.148 207.984 108.685C204.763 103.453 205.031 103.453 222.615 107.146ZM73.8925 120.228C74.8321 123.922 78.322 134.388 81.5434 143.622L87.5836 160.398L82.8857 172.865C80.3354 179.637 76.8455 189.948 75.1006 195.643C73.4899 201.491 71.3422 206.109 70.5369 206.109C67.1812 206.109 49.195 198.105 39.3965 192.257C21.5444 181.637 12.2828 170.094 12.2828 158.551C12.2828 151.472 20.4706 141.16 33.6247 132.079C40.6045 127.154 67.7181 113.764 70.8053 113.764C71.6107 113.764 72.953 116.689 73.8925 120.228ZM263.956 120.075C286.909 129.771 307.58 147.778 307.58 158.397C307.58 165.323 304.493 171.018 296.573 179.021C285.97 189.641 251.205 208.417 248.386 205.031C247.984 204.262 246.373 199.952 245.165 195.335C243.823 190.718 240.467 180.714 237.648 173.326L232.548 159.783L238.319 143.315C241.541 134.234 245.031 123.922 245.97 120.228C247.849 112.841 246.373 112.841 263.956 120.075ZM107.046 134.542C105.704 135.619 105.033 137.312 105.57 138.236C105.973 139.159 105.704 139.929 105.033 139.929C104.228 139.929 103.691 140.39 103.825 141.006C104.093 141.775 102.885 144.854 101.14 147.932C96.3083 156.704 96.4425 161.476 101.677 172.865C104.228 178.559 106.241 183.484 106.241 184.1C106.241 184.716 104.093 182.561 101.543 179.329C97.3821 174.096 96.5767 173.634 94.5633 175.481C92.5499 177.328 92.4157 177.328 93.4895 175.327C94.0264 174.096 92.9526 174.712 90.9392 176.866L87.3151 180.714L87.7178 176.866C87.9863 174.712 89.3285 169.787 90.6708 165.939C92.8184 159.321 92.9526 158.397 90.9392 153.934C89.7312 151.318 88.6574 148.701 88.6574 148.086C88.5232 147.316 87.7178 144.546 86.644 141.775L84.8991 136.697L89.7312 141.314C92.5499 143.93 95.3687 145.469 96.7109 145.007C99.3955 143.776 103.556 139.005 103.556 137.004C103.556 136.081 104.63 134.696 105.973 133.926C109.328 131.618 109.999 131.925 107.046 134.542ZM16.3096 137.466C16.3096 138.543 14.8331 141.314 12.9539 143.468C8.65872 148.393 7.04801 154.396 7.71914 163.784C8.12181 170.094 7.98759 170.864 6.10843 169.017C5.03462 167.94 4.36349 166.247 4.76617 165.169C5.16884 164.092 4.90039 162.707 4.22926 162.245C2.48432 161.014 2.48432 155.319 4.09504 155.319C4.76617 155.319 5.83997 153.78 6.24265 152.087C7.04801 149.317 14.9673 135.619 16.0411 135.465C16.1754 135.311 16.3096 136.235 16.3096 137.466ZM221.004 143.161C220.601 143.776 221.675 144.854 223.286 145.469C225.165 146.085 226.642 145.623 227.715 143.93C229.997 140.39 234.293 140.544 232.548 144.084C231.876 145.623 231.34 147.316 231.205 148.086C231.205 148.701 230.132 151.318 229.058 153.934C227.044 158.244 227.044 159.167 229.729 167.324C231.34 172.095 233.219 176.866 234.024 177.944C236.44 181.33 231.742 180.252 229.058 176.866C225.702 172.557 223.42 173.019 218.185 179.175C215.635 182.253 213.622 184.254 213.622 183.946C213.622 183.638 215.367 179.329 217.649 174.558C223.018 162.707 223.554 158.859 220.199 151.472C218.588 148.086 216.843 143.776 216.172 141.929C215.098 138.697 215.367 138.697 218.32 140.236C220.065 141.16 221.273 142.391 221.004 143.161ZM316.036 159.167C316.036 161.476 315.231 164.092 314.291 165.015C312.949 166.555 312.815 165.477 313.352 160.244C313.754 156.704 313.486 153.78 312.815 153.78C312.144 153.78 311.607 153.011 311.607 151.933C311.607 150.702 312.412 150.856 313.754 152.549C314.962 153.934 316.036 156.858 316.036 159.167ZM231.742 195.643C234.293 203.492 236.172 209.956 236.037 210.11C235.366 210.726 211.34 215.343 208.655 215.343C205.702 215.343 205.702 215.189 209.998 207.186C212.548 202.877 216.843 194.258 219.796 188.102C225.702 175.481 225.165 175.019 231.742 195.643ZM105.57 199.029C110.402 208.263 114.16 215.959 113.892 216.113C113.489 216.574 92.2815 212.881 88.1205 211.649C83.8253 210.418 83.9595 209.802 90.4023 190.564C93.3553 181.33 94.966 178.405 95.7714 179.944C96.4425 181.176 100.872 189.795 105.57 199.029ZM118.456 205.185C119.127 204.723 119.261 205.493 118.858 206.724C118.456 208.109 118.724 209.187 119.529 209.187C120.335 209.187 121.006 210.11 121.006 211.342C121.006 212.419 123.422 215.959 126.375 219.037C130.67 223.346 132.818 224.578 136.979 224.578C139.932 224.578 142.75 225.193 143.153 226.117C143.556 226.886 143.422 227.656 142.616 227.656C140.2 227.656 136.845 235.043 137.784 238.429C138.321 240.122 139.261 241.046 140.066 240.584C141.006 239.968 141.14 240.276 140.603 241.353C140.066 242.277 140.469 243.508 141.677 243.97C142.75 244.432 143.287 245.817 142.885 247.048C142.348 248.741 141.408 248.125 139.126 244.585C137.516 242.123 135.636 240.584 135.1 241.2C134.428 241.815 134.428 241.353 134.965 240.276C136.173 238.121 129.865 229.656 125.57 227.656C123.959 226.886 119.932 225.809 116.845 225.347C110.536 224.27 106.375 221.499 111.073 221.499C112.55 221.499 114.831 220.114 116.039 218.267C118.59 214.881 118.321 211.957 114.563 203.8C113.355 201.184 112.55 198.721 112.684 197.952C112.818 197.336 112.281 196.874 111.476 196.874C110.805 196.874 110.536 196.105 111.073 195.027C111.61 193.95 113.087 195.797 114.697 199.645C116.039 203.184 117.784 205.647 118.456 205.185ZM246.373 209.033C247.581 210.264 250.265 211.188 252.279 211.188H256.037L251.742 215.959C248.386 219.806 247.581 221.807 247.849 226.117C248.118 230.734 247.984 231.042 246.641 228.579C243.286 222.269 238.856 218.421 234.695 218.267C232.279 218.267 231.205 217.806 232.011 217.344C232.95 217.036 233.89 216.882 234.293 217.19C234.561 217.498 236.172 215.651 237.782 213.342C240.198 209.956 240.601 207.802 239.93 203.338L239.259 197.798L241.675 202.261C243.017 204.877 245.031 207.802 246.373 209.033ZM204.226 205.339C203.286 206.57 202.884 207.648 203.421 207.648C203.823 207.648 203.555 209.341 202.884 211.342C201.81 214.574 202.213 215.805 205.568 219.037C210.132 223.346 209.863 223.808 201.541 225.347C196.978 226.117 194.025 227.963 189.864 232.735C186.642 236.274 184.092 239.814 184.092 240.738C184.092 241.661 183.018 243.508 181.81 244.893C180.468 246.125 178.186 249.203 176.71 251.357C175.233 253.666 172.951 256.744 171.743 258.129C170.401 259.514 169.327 261.515 169.327 262.439C169.327 263.362 168.522 265.055 167.448 265.979C165.837 267.518 165.569 270.442 166.643 273.828C166.777 274.29 166.911 275.213 166.777 275.829C166.643 276.444 167.582 277.368 168.656 277.829C169.73 278.445 170.669 279.368 170.669 279.984C170.669 282.139 165.435 281.061 164.763 278.907C163.69 275.829 158.186 276.598 153.489 280.446C151.207 282.447 149.596 284.447 149.999 284.909C150.267 285.371 149.596 286.14 148.388 286.756C146.24 287.679 146.24 287.526 148.388 284.294C152.952 276.906 155.905 271.519 155.905 269.826C155.905 269.057 154.697 266.748 153.22 264.901C151.609 263.054 150.938 261.515 151.475 261.515C152.012 261.515 151.609 260.746 150.536 259.976C149.462 259.207 149.193 258.437 149.999 258.437C150.804 258.437 152.952 259.822 154.697 261.669C156.844 263.824 158.858 264.439 161.274 263.824C164.629 262.9 178.723 247.51 178.723 244.585C178.723 243.662 179.797 243.046 181.139 243.046C183.018 243.046 183.152 242.739 181.408 241.507C180.065 240.584 179.931 239.968 181.139 239.968C183.689 239.968 183.018 232.581 180.065 229.656C176.173 225.809 176.71 224.578 182.75 224.578C189.058 224.578 195.501 218.883 200.87 208.263C202.884 204.416 204.763 201.645 205.166 202.107C205.568 202.569 205.166 203.954 204.226 205.339ZM79.9327 206.724C79.53 207.802 80.8723 210.88 82.7514 213.65C85.436 217.19 85.8386 218.421 84.2279 218.421C83.1541 218.421 80.6038 220.114 78.5904 222.269C76.5771 224.424 75.5032 226.117 76.0401 226.117C76.5771 226.117 76.3086 227.194 75.369 228.425C74.4294 229.656 73.0872 230.734 72.2818 230.734C71.4765 230.734 72.0134 229.656 73.4899 228.425C74.9663 227.194 75.369 226.117 74.4294 226.117C73.4899 226.117 72.6845 224.885 72.6845 223.5C72.6845 222.115 71.0738 218.883 69.0604 216.574L65.4363 212.265H68.7919C70.6711 212.265 73.6241 210.572 75.369 208.417C78.8589 204.262 81.0065 203.338 79.9327 206.724ZM100.469 228.425C109.194 229.81 118.187 231.349 120.469 231.657C123.556 232.119 125.704 233.966 128.12 238.121C129.999 241.199 135.771 249.664 141.006 256.898C146.24 264.132 150.401 270.596 150.133 271.519C148.925 275.521 129.731 291.681 118.724 297.991C104.63 305.994 96.174 307.841 88.5232 304.148C76.9797 298.607 73.0872 274.443 78.1878 239.199C80.0669 226.117 80.7381 224.27 82.8857 225.193C83.8253 225.655 91.8788 227.194 100.469 228.425ZM241.943 234.889C243.017 240.738 243.823 253.666 243.823 263.824C243.823 285.525 241.541 294.144 234.158 301.685C229.729 306.148 228.655 306.456 221.541 305.841C209.327 304.763 191.206 293.528 174.83 276.444L169.327 270.75L172.817 266.44C174.696 264.132 180.199 256.436 185.032 249.203C196.575 232.119 198.052 230.734 204.763 230.58C207.716 230.58 216.038 229.195 223.018 227.656C229.997 226.27 236.709 224.885 237.917 224.731C239.662 224.578 240.601 227.04 241.943 234.889ZM178.857 234.581C178.32 235.351 174.025 241.507 169.327 248.125C161.139 259.514 160.737 259.976 158.321 257.36C155.502 254.436 141.14 234.582 141.14 233.658C141.14 233.35 149.864 233.042 160.468 233.042C173.22 233.042 179.528 233.504 178.857 234.581ZM187.985 296.452C189.864 298.299 191.743 299.53 192.414 299.069C192.951 298.607 193.488 299.069 193.488 299.838C193.488 302.455 191.072 301.839 188.119 298.453C186.508 296.606 184.629 295.683 183.689 296.298C182.75 296.914 182.481 296.914 183.018 296.298C184.36 294.451 181.005 291.065 178.723 291.835C176.978 292.451 176.978 292.451 178.723 291.065C180.736 289.372 181.542 289.834 187.985 296.452ZM76.1744 296.76C75.1006 298.761 81.5434 307.38 86.2413 309.996C88.2547 311.227 92.9526 312.305 96.4425 312.305C101.812 312.459 102.483 312.612 100.335 314.152C96.3083 316.768 84.6306 313.074 79.6642 307.38C77.2482 304.763 75.369 301.685 75.369 300.608C75.369 299.376 74.5637 298.453 73.7583 298.453C72.5503 298.453 72.6845 297.837 74.0268 296.914C76.5771 295.067 77.114 295.067 76.1744 296.76ZM243.957 303.378C244.494 304.301 244.359 304.609 243.42 303.994C242.615 303.532 241.675 304.455 241.138 305.994C240.735 307.687 239.125 309.534 237.648 309.996C236.306 310.612 235.366 311.689 235.769 312.459C236.172 313.228 235.769 313.382 234.695 313.074C233.756 312.612 230.803 313.228 228.252 314.459C224.494 316.306 223.152 316.306 220.467 314.613C217.514 312.92 217.783 312.612 225.299 311.997C232.145 311.535 233.89 310.766 237.246 306.456C241.541 301.069 242.48 300.608 243.957 303.378Z" fill="#1D4ED8"/>
<path d="M146.375 131.925C137.516 137.158 131.744 148.24 131.744 159.937C131.744 171.633 137.516 182.715 146.375 187.948C155.905 193.642 163.958 193.642 173.488 187.948C182.347 182.715 188.119 171.633 188.119 159.937C188.119 148.24 182.347 137.158 173.488 131.925C168.522 129.001 164.361 127.616 159.931 127.616C155.502 127.616 151.341 129.001 146.375 131.925ZM168.388 135.927C187.179 145.469 187.85 172.865 169.327 183.792C158.589 190.102 143.556 183.176 138.589 169.633C131.073 148.701 150.267 126.846 168.388 135.927Z" fill="#1D4ED8"/>
</svg>
