<svg width="321" height="320" viewBox="0 0 321 320" fill="none" xmlns="http://www.w3.org/2000/svg">
<mask id="path-1-inside-1_38_7" fill="white">
<path d="M83.0187 2.48942C71.8779 8.79962 65.4351 24.4982 64.3613 48.3538C63.8244 62.2054 65.7035 83.7524 68.7907 96.2189C69.4619 98.9892 68.2538 99.7588 58.3211 103.606C32.4155 113.61 7.98638 132.541 2.75157 146.854C-0.0671764 154.858 -0.0671764 165.785 3.02002 173.173C6.5099 181.791 18.9929 195.027 31.0732 202.877C39.3953 208.417 54.8312 215.959 67.4485 220.73C68.6565 221.192 68.5223 224.116 66.9116 231.811C65.7035 238.429 64.764 250.28 64.764 263.824C64.6297 289.065 66.7773 299.069 74.4282 309.38C80.6026 317.537 85.8374 320 97.3809 320C113.488 320 129.192 311.843 150.4 292.143L161.407 281.985L167.313 287.987C177.782 298.453 189.326 307.38 200.332 313.382C208.923 318.153 212.815 319.23 220.869 319.846C233.62 320.462 239.66 318.307 245.566 310.919C257.378 295.837 260.465 263.516 253.754 225.193C252.949 220.422 252.949 220.422 263.553 216.113C286.371 206.878 306.505 192.411 314.558 179.483C331.605 152.395 312.411 123.768 264.224 104.376C254.291 100.528 251.875 98.9892 252.546 96.9885C255.096 89.447 257.378 62.5132 256.707 49.1233C255.902 31.2701 253.217 20.4966 247.445 11.8778C240.734 1.71988 236.036 -0.434817 222.077 0.180812C211.339 0.796441 209.325 1.41207 197.916 7.87617C190.668 12.1856 180.332 19.8809 172.95 26.6529L160.601 38.3498L150.803 28.9615C138.588 17.1106 123.421 6.79882 112.414 2.95114C102.079 -0.742632 89.0589 -1.05045 83.0187 2.48942ZM227.58 5.10584C228.788 6.64491 228.385 7.10664 225.298 6.79882C219.392 6.3371 218.721 5.87538 222.345 4.49021C224.224 3.87459 225.835 3.25896 225.835 3.10505C225.969 2.95114 226.775 3.87458 227.58 5.10584ZM237.513 7.87617C238.184 7.72227 238.318 8.18399 237.781 9.10743C237.379 9.87697 237.915 10.6465 238.989 10.6465C241.674 10.6465 242.882 13.2629 241.003 14.6481C240.063 15.2637 239.795 15.1098 240.197 14.1864C241.137 12.4934 236.439 10.0309 233.754 10.6465C233.083 10.8004 232.815 10.3387 233.352 9.72306C233.889 9.10743 233.352 7.72226 232.009 6.49101C229.996 4.64412 230.13 4.49021 233.083 6.3371C234.962 7.41445 236.976 8.03008 237.513 7.87617ZM108.656 16.9567C113.22 18.6497 120.468 22.4974 124.763 25.5755C132.28 30.8083 150.266 46.8147 150.803 48.8155C151.071 49.4311 147.85 54.3561 143.689 59.8968C139.662 65.4375 133.488 74.2102 129.998 79.443C124.629 87.9079 123.286 89.1392 119.528 89.1392C117.112 89.1392 108.119 90.5243 99.5285 92.2173C90.938 93.9103 83.2871 95.2955 82.7502 95.2955C79.2604 95.2955 75.3678 57.1265 77.3812 41.7358C80.4684 16.1872 89.0589 9.41524 108.656 16.9567ZM232.949 16.0333C239.795 20.0348 243.016 30.5005 243.553 49.8928C244.09 66.0531 242.076 89.447 239.929 93.6025C238.989 95.1416 235.499 94.8338 222.345 92.3712C213.352 90.5243 203.956 89.1392 201.54 89.1392C198.319 89.1392 196.574 88.0618 194.829 85.1376C193.621 82.9829 187.446 73.9024 181.138 64.9757C174.963 56.0491 169.997 48.6616 170.266 48.5077C170.4 48.1999 174.561 44.3522 179.393 39.735C202.077 18.034 221.808 9.26134 232.949 16.0333ZM137.514 25.1138C139.528 26.345 142.347 28.6536 143.689 30.5005C145.031 32.1935 146.776 33.2709 147.313 32.8091C147.984 32.3474 148.521 33.117 148.521 34.5021C148.521 36.0412 149.192 36.5029 150.266 35.8873C151.071 35.2717 151.34 35.4256 150.803 36.0412C149.461 37.7342 145.568 38.5037 146.508 36.8107C146.776 36.1951 145.568 34.3482 143.689 32.8091C141.675 31.1162 139.528 29.1154 138.588 28.1919C137.783 27.2685 135.904 25.8833 134.427 24.806C130.669 22.3434 133.219 22.4974 137.514 25.1138ZM179.393 33.2709C179.393 33.7326 178.453 33.7326 177.38 33.117C176.306 32.6552 175.366 32.8091 175.366 33.5787C175.366 34.3482 173.219 37.5803 170.534 40.8123C165.031 47.892 165.031 52.3554 170.937 61.282C172.95 64.3601 173.621 65.8992 172.547 64.9757C171.339 63.8984 169.863 63.5906 169.326 64.2062C168.655 64.8218 168.655 64.514 169.058 63.5906C169.594 62.5132 169.058 60.9742 167.984 59.8968C166.91 58.8195 165.97 58.5116 165.97 59.1273C165.97 59.8968 164.897 59.2812 163.42 57.7421C161.004 55.2796 156.575 55.7413 156.575 58.6656C156.575 59.4351 156.038 59.7429 155.366 59.1273C154.561 58.6656 153.353 59.7429 152.548 61.4359C151.742 63.1289 150.534 64.514 149.863 64.514C149.192 64.514 150.132 61.5898 151.877 57.896C155.903 50.0467 156.038 46.9686 152.548 42.967C151.205 41.4279 150.534 39.5811 151.205 39.1193C151.877 38.6576 152.682 38.9654 153.219 39.8889C153.756 40.8123 154.695 41.1201 155.366 40.6584C156.038 40.0428 156.575 40.5045 156.575 41.4279C156.575 42.3514 157.111 42.8131 157.783 42.3514C158.454 41.7358 159.259 42.0436 159.527 42.967C159.796 43.7366 161.272 43.4287 163.286 42.1975C165.165 40.9662 167.984 39.2732 169.594 38.5037C171.205 37.5803 173.219 35.5795 174.024 33.8865C175.232 31.2701 179.393 30.8083 179.393 33.2709ZM174.427 78.5196C177.111 82.3673 179.393 85.9071 179.393 86.2149C179.393 86.5228 170.937 86.8306 160.601 86.8306C150.266 86.8306 141.81 86.5228 141.81 86.061C141.81 85.5993 146.105 79.5969 151.205 72.6711L160.601 59.8968L165.031 65.7453C167.447 68.8234 171.742 74.6719 174.427 78.5196ZM147.984 67.9C148.521 68.8234 148.387 69.1312 147.581 68.6695C146.239 67.7461 143.823 71.5938 144.226 73.9024C144.36 74.518 142.883 76.5188 141.139 78.3657C136.709 83.1368 136.978 85.1376 142.212 90.6783L146.508 95.1416L139.662 95.2955C133.622 95.2955 132.28 95.9111 127.582 101.144C121.005 108.378 117.649 113.303 118.589 114.226C118.857 114.688 118.052 115.765 116.575 116.689C114.025 118.228 114.025 118.074 116.709 112.071L119.394 105.761L115.636 102.067C113.622 100.067 111.206 98.3736 110.401 98.2197C106.911 98.0658 114.83 95.4494 119.394 95.4494C123.555 95.2955 125.434 94.0642 130.4 88.2157C133.756 84.3681 136.441 80.5204 136.441 79.9047C136.441 79.1352 137.649 78.0579 139.125 77.5961C140.602 76.9805 141.541 76.0571 141.139 75.2875C140.736 74.6719 141.81 72.2094 143.42 70.0547C147.044 65.4375 146.776 65.5914 147.984 67.9ZM183.42 76.5188C185.165 78.3657 185.165 78.5196 183.42 77.4422C182.346 76.8266 182.749 77.904 184.359 80.0587C185.97 82.0594 188.923 86.061 191.071 88.9853C194.158 92.9869 196.171 94.2181 200.869 94.8337C209.057 95.9111 210.131 97.6041 205.701 101.913C202.614 104.992 202.211 106.069 203.419 109.609C204.225 111.917 204.359 113.764 203.822 113.764C203.285 113.764 203.822 114.534 204.896 115.457C206.641 116.842 206.641 116.996 204.896 116.381C203.822 116.073 203.017 114.996 203.151 114.072C203.285 113.149 200.198 108.685 196.171 103.914C189.997 96.8345 187.983 95.2955 184.225 95.2955C178.856 95.2955 177.111 92.0634 180.869 88.9853C183.554 86.8306 184.225 83.1368 182.346 80.5204C181.675 79.7508 180.467 76.9805 179.527 74.518C178.185 70.6703 178.185 70.2086 179.661 72.2094C180.601 73.4406 182.346 75.2875 183.42 76.5188ZM79.7973 98.6814C80.7368 100.221 82.7502 101.452 84.2267 101.452C87.4481 101.452 87.4481 102.221 83.9583 106.223C81.1395 109.455 80.8711 116.073 83.2871 123.768C83.824 125.461 82.7502 123.614 80.7368 119.613C77.247 112.071 70.5357 106.531 67.5827 108.685C65.8378 109.763 68.5223 105.607 72.4148 100.99C74.0255 99.1432 74.5625 97.1424 73.8913 94.8337C73.086 91.7556 73.2202 91.6017 75.502 93.7564C76.8443 94.9877 78.8577 97.2963 79.7973 98.6814ZM248.117 97.1424C247.848 98.6814 249.056 101.298 251.07 103.453C255.499 108.224 255.499 108.839 250.264 109.455C247.043 109.763 245.164 111.302 242.882 115.149L239.66 120.536L240.063 115.919C240.331 111.148 237.781 104.53 235.768 104.53C234.962 104.53 234.426 103.76 234.426 102.991C234.426 102.067 235.634 101.452 237.11 101.452C238.452 101.452 240.734 99.7588 242.076 97.758C244.895 93.4486 249.056 92.9869 248.117 97.1424ZM193.218 108.531C198.99 117.92 216.842 153.78 217.782 157.936C218.587 161.629 211.339 177.944 197.648 203.338L189.594 218.421H131.743L122.884 201.799C117.917 192.719 111.34 179.637 108.119 172.711L102.213 159.937L108.79 145.777C116.575 129.001 124.629 113.457 129.327 106.377L132.548 101.452H188.789L193.218 108.531ZM112.548 108.685C111.206 111.148 106.777 119.459 102.884 127.462C97.6493 138.082 95.5017 141.16 94.6963 139.467C93.2199 136.543 85.4348 112.379 85.4348 110.84C85.4348 109.609 104.763 104.992 111.34 104.684L115.099 104.53L112.548 108.685ZM223.285 107.146C230.13 108.531 235.768 110.224 235.768 110.84C235.768 112.533 228.251 135.927 226.775 139.159C225.701 141.314 224.09 139.313 218.318 127.462C214.426 119.459 209.996 111.148 208.654 108.685C205.433 103.453 205.701 103.453 223.285 107.146ZM74.5625 120.228C75.502 123.922 78.9919 134.388 82.2133 143.622L88.2535 160.398L83.5556 172.865C81.0053 179.637 77.5154 189.948 75.7705 195.643C74.1598 201.491 72.0122 206.109 71.2068 206.109C67.8512 206.109 49.8649 198.105 40.0664 192.257C22.2143 181.637 12.9527 170.094 12.9527 158.551C12.9527 151.472 21.1405 141.16 34.2947 132.079C41.2744 127.154 68.3881 113.764 71.4753 113.764C72.2806 113.764 73.6229 116.689 74.5625 120.228ZM264.626 120.075C287.579 129.771 308.25 147.778 308.25 158.397C308.25 165.323 305.163 171.018 297.243 179.021C286.639 189.641 251.875 208.417 249.056 205.031C248.654 204.262 247.043 199.952 245.835 195.335C244.493 190.718 241.137 180.714 238.318 173.326L233.218 159.783L238.989 143.315C242.211 134.234 245.701 123.922 246.64 120.228C248.519 112.841 247.043 112.841 264.626 120.075ZM107.716 134.542C106.374 135.619 105.703 137.312 106.24 138.236C106.642 139.159 106.374 139.929 105.703 139.929C104.898 139.929 104.361 140.39 104.495 141.006C104.763 141.775 103.555 144.854 101.81 147.932C96.9782 156.704 97.1124 161.476 102.347 172.865C104.898 178.559 106.911 183.484 106.911 184.1C106.911 184.716 104.763 182.561 102.213 179.329C98.052 174.096 97.2466 173.634 95.2333 175.481C93.2199 177.328 93.0856 177.328 94.1594 175.327C94.6963 174.096 93.6225 174.712 91.6092 176.866L87.985 180.714L88.3877 176.866C88.6562 174.712 89.9984 169.787 91.3407 165.939C93.4883 159.321 93.6225 158.397 91.6092 153.934C90.4011 151.318 89.3273 148.701 89.3273 148.086C89.1931 147.316 88.3877 144.546 87.3139 141.775L85.569 136.697L90.4011 141.314C93.2199 143.93 96.0386 145.469 97.3809 145.007C100.065 143.776 104.226 139.005 104.226 137.004C104.226 136.081 105.3 134.696 106.642 133.926C109.998 131.618 110.669 131.925 107.716 134.542ZM16.9795 137.466C16.9795 138.543 15.503 141.314 13.6239 143.468C9.32864 148.393 7.71793 154.396 8.38906 163.784C8.79174 170.094 8.65751 170.864 6.77835 169.017C5.70454 167.94 5.03341 166.247 5.43609 165.169C5.83877 164.092 5.57031 162.707 4.89918 162.245C3.15425 161.014 3.15425 155.319 4.76496 155.319C5.43609 155.319 6.50989 153.78 6.91257 152.087C7.71793 149.317 15.6373 135.619 16.7111 135.465C16.8453 135.311 16.9795 136.235 16.9795 137.466ZM221.674 143.161C221.271 143.776 222.345 144.854 223.956 145.469C225.835 146.085 227.312 145.623 228.385 143.93C230.667 140.39 234.962 140.544 233.218 144.084C232.546 145.623 232.009 147.316 231.875 148.086C231.875 148.701 230.801 151.318 229.728 153.934C227.714 158.244 227.714 159.167 230.399 167.324C232.009 172.095 233.889 176.866 234.694 177.944C237.11 181.33 232.412 180.252 229.728 176.866C226.372 172.557 224.09 173.019 218.855 179.175C216.305 182.253 214.292 184.254 214.292 183.946C214.292 183.638 216.037 179.329 218.318 174.558C223.687 162.707 224.224 158.859 220.869 151.472C219.258 148.086 217.513 143.776 216.842 141.929C215.768 138.697 216.037 138.697 218.99 140.236C220.735 141.16 221.943 142.391 221.674 143.161ZM316.706 159.167C316.706 161.476 315.901 164.092 314.961 165.015C313.619 166.555 313.485 165.477 314.022 160.244C314.424 156.704 314.156 153.78 313.485 153.78C312.814 153.78 312.277 153.011 312.277 151.933C312.277 150.702 313.082 150.856 314.424 152.549C315.632 153.934 316.706 156.858 316.706 159.167ZM232.412 195.643C234.962 203.492 236.842 209.956 236.707 210.11C236.036 210.726 212.01 215.343 209.325 215.343C206.372 215.343 206.372 215.189 210.668 207.186C213.218 202.877 217.513 194.258 220.466 188.102C226.372 175.481 225.835 175.019 232.412 195.643ZM106.24 199.029C111.072 208.263 114.83 215.959 114.562 216.113C114.159 216.574 92.9514 212.881 88.7904 211.649C84.4952 210.418 84.6294 209.802 91.0722 190.564C94.0252 181.33 95.6359 178.405 96.4413 179.944C97.1124 181.176 101.542 189.795 106.24 199.029ZM119.125 205.185C119.797 204.723 119.931 205.493 119.528 206.724C119.125 208.109 119.394 209.187 120.199 209.187C121.005 209.187 121.676 210.11 121.676 211.342C121.676 212.419 124.092 215.959 127.045 219.037C131.34 223.346 133.488 224.578 137.649 224.578C140.602 224.578 143.42 225.193 143.823 226.117C144.226 226.886 144.091 227.656 143.286 227.656C140.87 227.656 137.514 235.043 138.454 238.429C138.991 240.122 139.93 241.046 140.736 240.584C141.675 239.968 141.81 240.276 141.273 241.353C140.736 242.277 141.139 243.508 142.347 243.97C143.42 244.432 143.957 245.817 143.555 247.048C143.018 248.741 142.078 248.125 139.796 244.585C138.186 242.123 136.306 240.584 135.769 241.2C135.098 241.815 135.098 241.353 135.635 240.276C136.843 238.121 130.535 229.656 126.239 227.656C124.629 226.886 120.602 225.809 117.515 225.347C111.206 224.27 107.045 221.499 111.743 221.499C113.22 221.499 115.501 220.114 116.709 218.267C119.26 214.881 118.991 211.957 115.233 203.8C114.025 201.184 113.22 198.721 113.354 197.952C113.488 197.336 112.951 196.874 112.146 196.874C111.475 196.874 111.206 196.105 111.743 195.027C112.28 193.95 113.756 195.797 115.367 199.645C116.709 203.184 118.454 205.647 119.125 205.185ZM247.043 209.033C248.251 210.264 250.935 211.188 252.949 211.188H256.707L252.412 215.959C249.056 219.806 248.251 221.807 248.519 226.117C248.788 230.734 248.654 231.042 247.311 228.579C243.956 222.269 239.526 218.421 235.365 218.267C232.949 218.267 231.875 217.806 232.681 217.344C233.62 217.036 234.56 216.882 234.962 217.19C235.231 217.498 236.842 215.651 238.452 213.342C240.868 209.956 241.271 207.802 240.6 203.338L239.929 197.798L242.345 202.261C243.687 204.877 245.701 207.802 247.043 209.033ZM204.896 205.339C203.956 206.57 203.554 207.648 204.09 207.648C204.493 207.648 204.225 209.341 203.554 211.342C202.48 214.574 202.882 215.805 206.238 219.037C210.802 223.346 210.533 223.808 202.211 225.347C197.648 226.117 194.695 227.963 190.534 232.735C187.312 236.274 184.762 239.814 184.762 240.738C184.762 241.661 183.688 243.508 182.48 244.893C181.138 246.125 178.856 249.203 177.38 251.357C175.903 253.666 173.621 256.744 172.413 258.129C171.071 259.514 169.997 261.515 169.997 262.439C169.997 263.362 169.192 265.055 168.118 265.979C166.507 267.518 166.239 270.442 167.313 273.828C167.447 274.29 167.581 275.213 167.447 275.829C167.313 276.444 168.252 277.368 169.326 277.829C170.4 278.445 171.339 279.368 171.339 279.984C171.339 282.139 166.105 281.061 165.433 278.907C164.36 275.829 158.856 276.598 154.158 280.446C151.877 282.447 150.266 284.447 150.669 284.909C150.937 285.371 150.266 286.14 149.058 286.756C146.91 287.679 146.91 287.526 149.058 284.294C153.622 276.906 156.575 271.519 156.575 269.826C156.575 269.057 155.366 266.748 153.89 264.901C152.279 263.054 151.608 261.515 152.145 261.515C152.682 261.515 152.279 260.746 151.205 259.976C150.132 259.207 149.863 258.437 150.669 258.437C151.474 258.437 153.622 259.822 155.366 261.669C157.514 263.824 159.527 264.439 161.944 263.824C165.299 262.9 179.393 247.51 179.393 244.585C179.393 243.662 180.467 243.046 181.809 243.046C183.688 243.046 183.822 242.739 182.077 241.507C180.735 240.584 180.601 239.968 181.809 239.968C184.359 239.968 183.688 232.581 180.735 229.656C176.843 225.809 177.38 224.578 183.42 224.578C189.728 224.578 196.171 218.883 201.54 208.263C203.554 204.416 205.433 201.645 205.835 202.107C206.238 202.569 205.835 203.954 204.896 205.339ZM80.6026 206.724C80.1999 207.802 81.5422 210.88 83.4214 213.65C86.1059 217.19 86.5086 218.421 84.8978 218.421C83.824 218.421 81.2738 220.114 79.2604 222.269C77.247 224.424 76.1732 226.117 76.7101 226.117C77.247 226.117 76.9785 227.194 76.0389 228.425C75.0994 229.656 73.7571 230.734 72.9517 230.734C72.1464 230.734 72.6833 229.656 74.1598 228.425C75.6363 227.194 76.0389 226.117 75.0994 226.117C74.1598 226.117 73.3544 224.885 73.3544 223.5C73.3544 222.115 71.7437 218.883 69.7303 216.574L66.1062 212.265H69.4619C71.341 212.265 74.294 210.572 76.0389 208.417C79.5288 204.262 81.6764 203.338 80.6026 206.724ZM101.139 228.425C109.864 229.81 118.857 231.349 121.139 231.657C124.226 232.119 126.374 233.966 128.79 238.121C130.669 241.199 136.441 249.664 141.675 256.898C146.91 264.132 151.071 270.596 150.803 271.519C149.595 275.521 130.4 291.681 119.394 297.991C105.3 305.994 96.844 307.841 89.1931 304.148C77.6497 298.607 73.7571 274.443 78.8577 239.199C80.7368 226.117 81.408 224.27 83.5556 225.193C84.4952 225.655 92.5487 227.194 101.139 228.425ZM242.613 234.889C243.687 240.738 244.493 253.666 244.493 263.824C244.493 285.525 242.211 294.144 234.828 301.685C230.399 306.148 229.325 306.456 222.211 305.841C209.996 304.763 191.876 293.528 175.5 276.444L169.997 270.75L173.487 266.44C175.366 264.132 180.869 256.436 185.702 249.203C197.245 232.119 198.721 230.734 205.433 230.58C208.386 230.58 216.708 229.195 223.687 227.656C230.667 226.27 237.379 224.885 238.587 224.731C240.332 224.578 241.271 227.04 242.613 234.889ZM179.527 234.581C178.99 235.351 174.695 241.507 169.997 248.125C161.809 259.514 161.407 259.976 158.991 257.36C156.172 254.436 141.81 234.582 141.81 233.658C141.81 233.35 150.534 233.042 161.138 233.042C173.89 233.042 180.198 233.504 179.527 234.581ZM188.655 296.452C190.534 298.299 192.413 299.53 193.084 299.069C193.621 298.607 194.158 299.069 194.158 299.838C194.158 302.455 191.742 301.839 188.789 298.453C187.178 296.606 185.299 295.683 184.359 296.298C183.42 296.914 183.151 296.914 183.688 296.298C185.03 294.451 181.675 291.065 179.393 291.835C177.648 292.451 177.648 292.451 179.393 291.065C181.406 289.372 182.212 289.834 188.655 296.452ZM76.8443 296.76C75.7705 298.761 82.2133 307.38 86.9112 309.996C88.9246 311.227 93.6225 312.305 97.1124 312.305C102.481 312.459 103.153 312.612 101.005 314.152C96.9782 316.768 85.3005 313.074 80.3342 307.38C77.9181 304.763 76.0389 301.685 76.0389 300.608C76.0389 299.376 75.2336 298.453 74.4282 298.453C73.2202 298.453 73.3544 297.837 74.6967 296.914C77.247 295.067 77.7839 295.067 76.8443 296.76ZM244.627 303.378C245.164 304.301 245.029 304.609 244.09 303.994C243.284 303.532 242.345 304.455 241.808 305.994C241.405 307.687 239.795 309.534 238.318 309.996C236.976 310.612 236.036 311.689 236.439 312.459C236.842 313.228 236.439 313.382 235.365 313.074C234.426 312.612 231.473 313.228 228.922 314.459C225.164 316.306 223.822 316.306 221.137 314.613C218.184 312.92 218.453 312.612 225.969 311.997C232.815 311.535 234.56 310.766 237.915 306.456C242.211 301.069 243.15 300.608 244.627 303.378Z"/>
<path d="M147.044 131.925C138.186 137.158 132.414 148.24 132.414 159.937C132.414 171.633 138.186 182.715 147.044 187.948C156.574 193.642 164.628 193.642 174.158 187.948C183.017 182.715 188.789 171.633 188.789 159.937C188.789 148.24 183.017 137.158 174.158 131.925C169.192 129.001 165.031 127.616 160.601 127.616C156.172 127.616 152.011 129.001 147.044 131.925ZM169.058 135.927C187.849 145.469 188.52 172.865 169.997 183.792C159.259 190.102 144.226 183.176 139.259 169.633C131.743 148.701 150.937 126.846 169.058 135.927Z"/>
</mask>
<path d="M83.0187 2.48942C71.8779 8.79962 65.4351 24.4982 64.3613 48.3538C63.8244 62.2054 65.7035 83.7524 68.7907 96.2189C69.4619 98.9892 68.2538 99.7588 58.3211 103.606C32.4155 113.61 7.98638 132.541 2.75157 146.854C-0.0671764 154.858 -0.0671764 165.785 3.02002 173.173C6.5099 181.791 18.9929 195.027 31.0732 202.877C39.3953 208.417 54.8312 215.959 67.4485 220.73C68.6565 221.192 68.5223 224.116 66.9116 231.811C65.7035 238.429 64.764 250.28 64.764 263.824C64.6297 289.065 66.7773 299.069 74.4282 309.38C80.6026 317.537 85.8374 320 97.3809 320C113.488 320 129.192 311.843 150.4 292.143L161.407 281.985L167.313 287.987C177.782 298.453 189.326 307.38 200.332 313.382C208.923 318.153 212.815 319.23 220.869 319.846C233.62 320.462 239.66 318.307 245.566 310.919C257.378 295.837 260.465 263.516 253.754 225.193C252.949 220.422 252.949 220.422 263.553 216.113C286.371 206.878 306.505 192.411 314.558 179.483C331.605 152.395 312.411 123.768 264.224 104.376C254.291 100.528 251.875 98.9892 252.546 96.9885C255.096 89.447 257.378 62.5132 256.707 49.1233C255.902 31.2701 253.217 20.4966 247.445 11.8778C240.734 1.71988 236.036 -0.434817 222.077 0.180812C211.339 0.796441 209.325 1.41207 197.916 7.87617C190.668 12.1856 180.332 19.8809 172.95 26.6529L160.601 38.3498L150.803 28.9615C138.588 17.1106 123.421 6.79882 112.414 2.95114C102.079 -0.742632 89.0589 -1.05045 83.0187 2.48942ZM227.58 5.10584C228.788 6.64491 228.385 7.10664 225.298 6.79882C219.392 6.3371 218.721 5.87538 222.345 4.49021C224.224 3.87459 225.835 3.25896 225.835 3.10505C225.969 2.95114 226.775 3.87458 227.58 5.10584ZM237.513 7.87617C238.184 7.72227 238.318 8.18399 237.781 9.10743C237.379 9.87697 237.915 10.6465 238.989 10.6465C241.674 10.6465 242.882 13.2629 241.003 14.6481C240.063 15.2637 239.795 15.1098 240.197 14.1864C241.137 12.4934 236.439 10.0309 233.754 10.6465C233.083 10.8004 232.815 10.3387 233.352 9.72306C233.889 9.10743 233.352 7.72226 232.009 6.49101C229.996 4.64412 230.13 4.49021 233.083 6.3371C234.962 7.41445 236.976 8.03008 237.513 7.87617ZM108.656 16.9567C113.22 18.6497 120.468 22.4974 124.763 25.5755C132.28 30.8083 150.266 46.8147 150.803 48.8155C151.071 49.4311 147.85 54.3561 143.689 59.8968C139.662 65.4375 133.488 74.2102 129.998 79.443C124.629 87.9079 123.286 89.1392 119.528 89.1392C117.112 89.1392 108.119 90.5243 99.5285 92.2173C90.938 93.9103 83.2871 95.2955 82.7502 95.2955C79.2604 95.2955 75.3678 57.1265 77.3812 41.7358C80.4684 16.1872 89.0589 9.41524 108.656 16.9567ZM232.949 16.0333C239.795 20.0348 243.016 30.5005 243.553 49.8928C244.09 66.0531 242.076 89.447 239.929 93.6025C238.989 95.1416 235.499 94.8338 222.345 92.3712C213.352 90.5243 203.956 89.1392 201.54 89.1392C198.319 89.1392 196.574 88.0618 194.829 85.1376C193.621 82.9829 187.446 73.9024 181.138 64.9757C174.963 56.0491 169.997 48.6616 170.266 48.5077C170.4 48.1999 174.561 44.3522 179.393 39.735C202.077 18.034 221.808 9.26134 232.949 16.0333ZM137.514 25.1138C139.528 26.345 142.347 28.6536 143.689 30.5005C145.031 32.1935 146.776 33.2709 147.313 32.8091C147.984 32.3474 148.521 33.117 148.521 34.5021C148.521 36.0412 149.192 36.5029 150.266 35.8873C151.071 35.2717 151.34 35.4256 150.803 36.0412C149.461 37.7342 145.568 38.5037 146.508 36.8107C146.776 36.1951 145.568 34.3482 143.689 32.8091C141.675 31.1162 139.528 29.1154 138.588 28.1919C137.783 27.2685 135.904 25.8833 134.427 24.806C130.669 22.3434 133.219 22.4974 137.514 25.1138ZM179.393 33.2709C179.393 33.7326 178.453 33.7326 177.38 33.117C176.306 32.6552 175.366 32.8091 175.366 33.5787C175.366 34.3482 173.219 37.5803 170.534 40.8123C165.031 47.892 165.031 52.3554 170.937 61.282C172.95 64.3601 173.621 65.8992 172.547 64.9757C171.339 63.8984 169.863 63.5906 169.326 64.2062C168.655 64.8218 168.655 64.514 169.058 63.5906C169.594 62.5132 169.058 60.9742 167.984 59.8968C166.91 58.8195 165.97 58.5116 165.97 59.1273C165.97 59.8968 164.897 59.2812 163.42 57.7421C161.004 55.2796 156.575 55.7413 156.575 58.6656C156.575 59.4351 156.038 59.7429 155.366 59.1273C154.561 58.6656 153.353 59.7429 152.548 61.4359C151.742 63.1289 150.534 64.514 149.863 64.514C149.192 64.514 150.132 61.5898 151.877 57.896C155.903 50.0467 156.038 46.9686 152.548 42.967C151.205 41.4279 150.534 39.5811 151.205 39.1193C151.877 38.6576 152.682 38.9654 153.219 39.8889C153.756 40.8123 154.695 41.1201 155.366 40.6584C156.038 40.0428 156.575 40.5045 156.575 41.4279C156.575 42.3514 157.111 42.8131 157.783 42.3514C158.454 41.7358 159.259 42.0436 159.527 42.967C159.796 43.7366 161.272 43.4287 163.286 42.1975C165.165 40.9662 167.984 39.2732 169.594 38.5037C171.205 37.5803 173.219 35.5795 174.024 33.8865C175.232 31.2701 179.393 30.8083 179.393 33.2709ZM174.427 78.5196C177.111 82.3673 179.393 85.9071 179.393 86.2149C179.393 86.5228 170.937 86.8306 160.601 86.8306C150.266 86.8306 141.81 86.5228 141.81 86.061C141.81 85.5993 146.105 79.5969 151.205 72.6711L160.601 59.8968L165.031 65.7453C167.447 68.8234 171.742 74.6719 174.427 78.5196ZM147.984 67.9C148.521 68.8234 148.387 69.1312 147.581 68.6695C146.239 67.7461 143.823 71.5938 144.226 73.9024C144.36 74.518 142.883 76.5188 141.139 78.3657C136.709 83.1368 136.978 85.1376 142.212 90.6783L146.508 95.1416L139.662 95.2955C133.622 95.2955 132.28 95.9111 127.582 101.144C121.005 108.378 117.649 113.303 118.589 114.226C118.857 114.688 118.052 115.765 116.575 116.689C114.025 118.228 114.025 118.074 116.709 112.071L119.394 105.761L115.636 102.067C113.622 100.067 111.206 98.3736 110.401 98.2197C106.911 98.0658 114.83 95.4494 119.394 95.4494C123.555 95.2955 125.434 94.0642 130.4 88.2157C133.756 84.3681 136.441 80.5204 136.441 79.9047C136.441 79.1352 137.649 78.0579 139.125 77.5961C140.602 76.9805 141.541 76.0571 141.139 75.2875C140.736 74.6719 141.81 72.2094 143.42 70.0547C147.044 65.4375 146.776 65.5914 147.984 67.9ZM183.42 76.5188C185.165 78.3657 185.165 78.5196 183.42 77.4422C182.346 76.8266 182.749 77.904 184.359 80.0587C185.97 82.0594 188.923 86.061 191.071 88.9853C194.158 92.9869 196.171 94.2181 200.869 94.8337C209.057 95.9111 210.131 97.6041 205.701 101.913C202.614 104.992 202.211 106.069 203.419 109.609C204.225 111.917 204.359 113.764 203.822 113.764C203.285 113.764 203.822 114.534 204.896 115.457C206.641 116.842 206.641 116.996 204.896 116.381C203.822 116.073 203.017 114.996 203.151 114.072C203.285 113.149 200.198 108.685 196.171 103.914C189.997 96.8345 187.983 95.2955 184.225 95.2955C178.856 95.2955 177.111 92.0634 180.869 88.9853C183.554 86.8306 184.225 83.1368 182.346 80.5204C181.675 79.7508 180.467 76.9805 179.527 74.518C178.185 70.6703 178.185 70.2086 179.661 72.2094C180.601 73.4406 182.346 75.2875 183.42 76.5188ZM79.7973 98.6814C80.7368 100.221 82.7502 101.452 84.2267 101.452C87.4481 101.452 87.4481 102.221 83.9583 106.223C81.1395 109.455 80.8711 116.073 83.2871 123.768C83.824 125.461 82.7502 123.614 80.7368 119.613C77.247 112.071 70.5357 106.531 67.5827 108.685C65.8378 109.763 68.5223 105.607 72.4148 100.99C74.0255 99.1432 74.5625 97.1424 73.8913 94.8337C73.086 91.7556 73.2202 91.6017 75.502 93.7564C76.8443 94.9877 78.8577 97.2963 79.7973 98.6814ZM248.117 97.1424C247.848 98.6814 249.056 101.298 251.07 103.453C255.499 108.224 255.499 108.839 250.264 109.455C247.043 109.763 245.164 111.302 242.882 115.149L239.66 120.536L240.063 115.919C240.331 111.148 237.781 104.53 235.768 104.53C234.962 104.53 234.426 103.76 234.426 102.991C234.426 102.067 235.634 101.452 237.11 101.452C238.452 101.452 240.734 99.7588 242.076 97.758C244.895 93.4486 249.056 92.9869 248.117 97.1424ZM193.218 108.531C198.99 117.92 216.842 153.78 217.782 157.936C218.587 161.629 211.339 177.944 197.648 203.338L189.594 218.421H131.743L122.884 201.799C117.917 192.719 111.34 179.637 108.119 172.711L102.213 159.937L108.79 145.777C116.575 129.001 124.629 113.457 129.327 106.377L132.548 101.452H188.789L193.218 108.531ZM112.548 108.685C111.206 111.148 106.777 119.459 102.884 127.462C97.6493 138.082 95.5017 141.16 94.6963 139.467C93.2199 136.543 85.4348 112.379 85.4348 110.84C85.4348 109.609 104.763 104.992 111.34 104.684L115.099 104.53L112.548 108.685ZM223.285 107.146C230.13 108.531 235.768 110.224 235.768 110.84C235.768 112.533 228.251 135.927 226.775 139.159C225.701 141.314 224.09 139.313 218.318 127.462C214.426 119.459 209.996 111.148 208.654 108.685C205.433 103.453 205.701 103.453 223.285 107.146ZM74.5625 120.228C75.502 123.922 78.9919 134.388 82.2133 143.622L88.2535 160.398L83.5556 172.865C81.0053 179.637 77.5154 189.948 75.7705 195.643C74.1598 201.491 72.0122 206.109 71.2068 206.109C67.8512 206.109 49.8649 198.105 40.0664 192.257C22.2143 181.637 12.9527 170.094 12.9527 158.551C12.9527 151.472 21.1405 141.16 34.2947 132.079C41.2744 127.154 68.3881 113.764 71.4753 113.764C72.2806 113.764 73.6229 116.689 74.5625 120.228ZM264.626 120.075C287.579 129.771 308.25 147.778 308.25 158.397C308.25 165.323 305.163 171.018 297.243 179.021C286.639 189.641 251.875 208.417 249.056 205.031C248.654 204.262 247.043 199.952 245.835 195.335C244.493 190.718 241.137 180.714 238.318 173.326L233.218 159.783L238.989 143.315C242.211 134.234 245.701 123.922 246.64 120.228C248.519 112.841 247.043 112.841 264.626 120.075ZM107.716 134.542C106.374 135.619 105.703 137.312 106.24 138.236C106.642 139.159 106.374 139.929 105.703 139.929C104.898 139.929 104.361 140.39 104.495 141.006C104.763 141.775 103.555 144.854 101.81 147.932C96.9782 156.704 97.1124 161.476 102.347 172.865C104.898 178.559 106.911 183.484 106.911 184.1C106.911 184.716 104.763 182.561 102.213 179.329C98.052 174.096 97.2466 173.634 95.2333 175.481C93.2199 177.328 93.0856 177.328 94.1594 175.327C94.6963 174.096 93.6225 174.712 91.6092 176.866L87.985 180.714L88.3877 176.866C88.6562 174.712 89.9984 169.787 91.3407 165.939C93.4883 159.321 93.6225 158.397 91.6092 153.934C90.4011 151.318 89.3273 148.701 89.3273 148.086C89.1931 147.316 88.3877 144.546 87.3139 141.775L85.569 136.697L90.4011 141.314C93.2199 143.93 96.0386 145.469 97.3809 145.007C100.065 143.776 104.226 139.005 104.226 137.004C104.226 136.081 105.3 134.696 106.642 133.926C109.998 131.618 110.669 131.925 107.716 134.542ZM16.9795 137.466C16.9795 138.543 15.503 141.314 13.6239 143.468C9.32864 148.393 7.71793 154.396 8.38906 163.784C8.79174 170.094 8.65751 170.864 6.77835 169.017C5.70454 167.94 5.03341 166.247 5.43609 165.169C5.83877 164.092 5.57031 162.707 4.89918 162.245C3.15425 161.014 3.15425 155.319 4.76496 155.319C5.43609 155.319 6.50989 153.78 6.91257 152.087C7.71793 149.317 15.6373 135.619 16.7111 135.465C16.8453 135.311 16.9795 136.235 16.9795 137.466ZM221.674 143.161C221.271 143.776 222.345 144.854 223.956 145.469C225.835 146.085 227.312 145.623 228.385 143.93C230.667 140.39 234.962 140.544 233.218 144.084C232.546 145.623 232.009 147.316 231.875 148.086C231.875 148.701 230.801 151.318 229.728 153.934C227.714 158.244 227.714 159.167 230.399 167.324C232.009 172.095 233.889 176.866 234.694 177.944C237.11 181.33 232.412 180.252 229.728 176.866C226.372 172.557 224.09 173.019 218.855 179.175C216.305 182.253 214.292 184.254 214.292 183.946C214.292 183.638 216.037 179.329 218.318 174.558C223.687 162.707 224.224 158.859 220.869 151.472C219.258 148.086 217.513 143.776 216.842 141.929C215.768 138.697 216.037 138.697 218.99 140.236C220.735 141.16 221.943 142.391 221.674 143.161ZM316.706 159.167C316.706 161.476 315.901 164.092 314.961 165.015C313.619 166.555 313.485 165.477 314.022 160.244C314.424 156.704 314.156 153.78 313.485 153.78C312.814 153.78 312.277 153.011 312.277 151.933C312.277 150.702 313.082 150.856 314.424 152.549C315.632 153.934 316.706 156.858 316.706 159.167ZM232.412 195.643C234.962 203.492 236.842 209.956 236.707 210.11C236.036 210.726 212.01 215.343 209.325 215.343C206.372 215.343 206.372 215.189 210.668 207.186C213.218 202.877 217.513 194.258 220.466 188.102C226.372 175.481 225.835 175.019 232.412 195.643ZM106.24 199.029C111.072 208.263 114.83 215.959 114.562 216.113C114.159 216.574 92.9514 212.881 88.7904 211.649C84.4952 210.418 84.6294 209.802 91.0722 190.564C94.0252 181.33 95.6359 178.405 96.4413 179.944C97.1124 181.176 101.542 189.795 106.24 199.029ZM119.125 205.185C119.797 204.723 119.931 205.493 119.528 206.724C119.125 208.109 119.394 209.187 120.199 209.187C121.005 209.187 121.676 210.11 121.676 211.342C121.676 212.419 124.092 215.959 127.045 219.037C131.34 223.346 133.488 224.578 137.649 224.578C140.602 224.578 143.42 225.193 143.823 226.117C144.226 226.886 144.091 227.656 143.286 227.656C140.87 227.656 137.514 235.043 138.454 238.429C138.991 240.122 139.93 241.046 140.736 240.584C141.675 239.968 141.81 240.276 141.273 241.353C140.736 242.277 141.139 243.508 142.347 243.97C143.42 244.432 143.957 245.817 143.555 247.048C143.018 248.741 142.078 248.125 139.796 244.585C138.186 242.123 136.306 240.584 135.769 241.2C135.098 241.815 135.098 241.353 135.635 240.276C136.843 238.121 130.535 229.656 126.239 227.656C124.629 226.886 120.602 225.809 117.515 225.347C111.206 224.27 107.045 221.499 111.743 221.499C113.22 221.499 115.501 220.114 116.709 218.267C119.26 214.881 118.991 211.957 115.233 203.8C114.025 201.184 113.22 198.721 113.354 197.952C113.488 197.336 112.951 196.874 112.146 196.874C111.475 196.874 111.206 196.105 111.743 195.027C112.28 193.95 113.756 195.797 115.367 199.645C116.709 203.184 118.454 205.647 119.125 205.185ZM247.043 209.033C248.251 210.264 250.935 211.188 252.949 211.188H256.707L252.412 215.959C249.056 219.806 248.251 221.807 248.519 226.117C248.788 230.734 248.654 231.042 247.311 228.579C243.956 222.269 239.526 218.421 235.365 218.267C232.949 218.267 231.875 217.806 232.681 217.344C233.62 217.036 234.56 216.882 234.962 217.19C235.231 217.498 236.842 215.651 238.452 213.342C240.868 209.956 241.271 207.802 240.6 203.338L239.929 197.798L242.345 202.261C243.687 204.877 245.701 207.802 247.043 209.033ZM204.896 205.339C203.956 206.57 203.554 207.648 204.09 207.648C204.493 207.648 204.225 209.341 203.554 211.342C202.48 214.574 202.882 215.805 206.238 219.037C210.802 223.346 210.533 223.808 202.211 225.347C197.648 226.117 194.695 227.963 190.534 232.735C187.312 236.274 184.762 239.814 184.762 240.738C184.762 241.661 183.688 243.508 182.48 244.893C181.138 246.125 178.856 249.203 177.38 251.357C175.903 253.666 173.621 256.744 172.413 258.129C171.071 259.514 169.997 261.515 169.997 262.439C169.997 263.362 169.192 265.055 168.118 265.979C166.507 267.518 166.239 270.442 167.313 273.828C167.447 274.29 167.581 275.213 167.447 275.829C167.313 276.444 168.252 277.368 169.326 277.829C170.4 278.445 171.339 279.368 171.339 279.984C171.339 282.139 166.105 281.061 165.433 278.907C164.36 275.829 158.856 276.598 154.158 280.446C151.877 282.447 150.266 284.447 150.669 284.909C150.937 285.371 150.266 286.14 149.058 286.756C146.91 287.679 146.91 287.526 149.058 284.294C153.622 276.906 156.575 271.519 156.575 269.826C156.575 269.057 155.366 266.748 153.89 264.901C152.279 263.054 151.608 261.515 152.145 261.515C152.682 261.515 152.279 260.746 151.205 259.976C150.132 259.207 149.863 258.437 150.669 258.437C151.474 258.437 153.622 259.822 155.366 261.669C157.514 263.824 159.527 264.439 161.944 263.824C165.299 262.9 179.393 247.51 179.393 244.585C179.393 243.662 180.467 243.046 181.809 243.046C183.688 243.046 183.822 242.739 182.077 241.507C180.735 240.584 180.601 239.968 181.809 239.968C184.359 239.968 183.688 232.581 180.735 229.656C176.843 225.809 177.38 224.578 183.42 224.578C189.728 224.578 196.171 218.883 201.54 208.263C203.554 204.416 205.433 201.645 205.835 202.107C206.238 202.569 205.835 203.954 204.896 205.339ZM80.6026 206.724C80.1999 207.802 81.5422 210.88 83.4214 213.65C86.1059 217.19 86.5086 218.421 84.8978 218.421C83.824 218.421 81.2738 220.114 79.2604 222.269C77.247 224.424 76.1732 226.117 76.7101 226.117C77.247 226.117 76.9785 227.194 76.0389 228.425C75.0994 229.656 73.7571 230.734 72.9517 230.734C72.1464 230.734 72.6833 229.656 74.1598 228.425C75.6363 227.194 76.0389 226.117 75.0994 226.117C74.1598 226.117 73.3544 224.885 73.3544 223.5C73.3544 222.115 71.7437 218.883 69.7303 216.574L66.1062 212.265H69.4619C71.341 212.265 74.294 210.572 76.0389 208.417C79.5288 204.262 81.6764 203.338 80.6026 206.724ZM101.139 228.425C109.864 229.81 118.857 231.349 121.139 231.657C124.226 232.119 126.374 233.966 128.79 238.121C130.669 241.199 136.441 249.664 141.675 256.898C146.91 264.132 151.071 270.596 150.803 271.519C149.595 275.521 130.4 291.681 119.394 297.991C105.3 305.994 96.844 307.841 89.1931 304.148C77.6497 298.607 73.7571 274.443 78.8577 239.199C80.7368 226.117 81.408 224.27 83.5556 225.193C84.4952 225.655 92.5487 227.194 101.139 228.425ZM242.613 234.889C243.687 240.738 244.493 253.666 244.493 263.824C244.493 285.525 242.211 294.144 234.828 301.685C230.399 306.148 229.325 306.456 222.211 305.841C209.996 304.763 191.876 293.528 175.5 276.444L169.997 270.75L173.487 266.44C175.366 264.132 180.869 256.436 185.702 249.203C197.245 232.119 198.721 230.734 205.433 230.58C208.386 230.58 216.708 229.195 223.687 227.656C230.667 226.27 237.379 224.885 238.587 224.731C240.332 224.578 241.271 227.04 242.613 234.889ZM179.527 234.581C178.99 235.351 174.695 241.507 169.997 248.125C161.809 259.514 161.407 259.976 158.991 257.36C156.172 254.436 141.81 234.582 141.81 233.658C141.81 233.35 150.534 233.042 161.138 233.042C173.89 233.042 180.198 233.504 179.527 234.581ZM188.655 296.452C190.534 298.299 192.413 299.53 193.084 299.069C193.621 298.607 194.158 299.069 194.158 299.838C194.158 302.455 191.742 301.839 188.789 298.453C187.178 296.606 185.299 295.683 184.359 296.298C183.42 296.914 183.151 296.914 183.688 296.298C185.03 294.451 181.675 291.065 179.393 291.835C177.648 292.451 177.648 292.451 179.393 291.065C181.406 289.372 182.212 289.834 188.655 296.452ZM76.8443 296.76C75.7705 298.761 82.2133 307.38 86.9112 309.996C88.9246 311.227 93.6225 312.305 97.1124 312.305C102.481 312.459 103.153 312.612 101.005 314.152C96.9782 316.768 85.3005 313.074 80.3342 307.38C77.9181 304.763 76.0389 301.685 76.0389 300.608C76.0389 299.376 75.2336 298.453 74.4282 298.453C73.2202 298.453 73.3544 297.837 74.6967 296.914C77.247 295.067 77.7839 295.067 76.8443 296.76ZM244.627 303.378C245.164 304.301 245.029 304.609 244.09 303.994C243.284 303.532 242.345 304.455 241.808 305.994C241.405 307.687 239.795 309.534 238.318 309.996C236.976 310.612 236.036 311.689 236.439 312.459C236.842 313.228 236.439 313.382 235.365 313.074C234.426 312.612 231.473 313.228 228.922 314.459C225.164 316.306 223.822 316.306 221.137 314.613C218.184 312.92 218.453 312.612 225.969 311.997C232.815 311.535 234.56 310.766 237.915 306.456C242.211 301.069 243.15 300.608 244.627 303.378Z" fill="black"/>
<path d="M147.044 131.925C138.186 137.158 132.414 148.24 132.414 159.937C132.414 171.633 138.186 182.715 147.044 187.948C156.574 193.642 164.628 193.642 174.158 187.948C183.017 182.715 188.789 171.633 188.789 159.937C188.789 148.24 183.017 137.158 174.158 131.925C169.192 129.001 165.031 127.616 160.601 127.616C156.172 127.616 152.011 129.001 147.044 131.925ZM169.058 135.927C187.849 145.469 188.52 172.865 169.997 183.792C159.259 190.102 144.226 183.176 139.259 169.633C131.743 148.701 150.937 126.846 169.058 135.927Z" fill="black"/>
<path d="M83.0187 2.48942C71.8779 8.79962 65.4351 24.4982 64.3613 48.3538C63.8244 62.2054 65.7035 83.7524 68.7907 96.2189C69.4619 98.9892 68.2538 99.7588 58.3211 103.606C32.4155 113.61 7.98638 132.541 2.75157 146.854C-0.0671764 154.858 -0.0671764 165.785 3.02002 173.173C6.5099 181.791 18.9929 195.027 31.0732 202.877C39.3953 208.417 54.8312 215.959 67.4485 220.73C68.6565 221.192 68.5223 224.116 66.9116 231.811C65.7035 238.429 64.764 250.28 64.764 263.824C64.6297 289.065 66.7773 299.069 74.4282 309.38C80.6026 317.537 85.8374 320 97.3809 320C113.488 320 129.192 311.843 150.4 292.143L161.407 281.985L167.313 287.987C177.782 298.453 189.326 307.38 200.332 313.382C208.923 318.153 212.815 319.23 220.869 319.846C233.62 320.462 239.66 318.307 245.566 310.919C257.378 295.837 260.465 263.516 253.754 225.193C252.949 220.422 252.949 220.422 263.553 216.113C286.371 206.878 306.505 192.411 314.558 179.483C331.605 152.395 312.411 123.768 264.224 104.376C254.291 100.528 251.875 98.9892 252.546 96.9885C255.096 89.447 257.378 62.5132 256.707 49.1233C255.902 31.2701 253.217 20.4966 247.445 11.8778C240.734 1.71988 236.036 -0.434817 222.077 0.180812C211.339 0.796441 209.325 1.41207 197.916 7.87617C190.668 12.1856 180.332 19.8809 172.95 26.6529L160.601 38.3498L150.803 28.9615C138.588 17.1106 123.421 6.79882 112.414 2.95114C102.079 -0.742632 89.0589 -1.05045 83.0187 2.48942ZM227.58 5.10584C228.788 6.64491 228.385 7.10664 225.298 6.79882C219.392 6.3371 218.721 5.87538 222.345 4.49021C224.224 3.87459 225.835 3.25896 225.835 3.10505C225.969 2.95114 226.775 3.87458 227.58 5.10584ZM237.513 7.87617C238.184 7.72227 238.318 8.18399 237.781 9.10743C237.379 9.87697 237.915 10.6465 238.989 10.6465C241.674 10.6465 242.882 13.2629 241.003 14.6481C240.063 15.2637 239.795 15.1098 240.197 14.1864C241.137 12.4934 236.439 10.0309 233.754 10.6465C233.083 10.8004 232.815 10.3387 233.352 9.72306C233.889 9.10743 233.352 7.72226 232.009 6.49101C229.996 4.64412 230.13 4.49021 233.083 6.3371C234.962 7.41445 236.976 8.03008 237.513 7.87617ZM108.656 16.9567C113.22 18.6497 120.468 22.4974 124.763 25.5755C132.28 30.8083 150.266 46.8147 150.803 48.8155C151.071 49.4311 147.85 54.3561 143.689 59.8968C139.662 65.4375 133.488 74.2102 129.998 79.443C124.629 87.9079 123.286 89.1392 119.528 89.1392C117.112 89.1392 108.119 90.5243 99.5285 92.2173C90.938 93.9103 83.2871 95.2955 82.7502 95.2955C79.2604 95.2955 75.3678 57.1265 77.3812 41.7358C80.4684 16.1872 89.0589 9.41524 108.656 16.9567ZM232.949 16.0333C239.795 20.0348 243.016 30.5005 243.553 49.8928C244.09 66.0531 242.076 89.447 239.929 93.6025C238.989 95.1416 235.499 94.8338 222.345 92.3712C213.352 90.5243 203.956 89.1392 201.54 89.1392C198.319 89.1392 196.574 88.0618 194.829 85.1376C193.621 82.9829 187.446 73.9024 181.138 64.9757C174.963 56.0491 169.997 48.6616 170.266 48.5077C170.4 48.1999 174.561 44.3522 179.393 39.735C202.077 18.034 221.808 9.26134 232.949 16.0333ZM137.514 25.1138C139.528 26.345 142.347 28.6536 143.689 30.5005C145.031 32.1935 146.776 33.2709 147.313 32.8091C147.984 32.3474 148.521 33.117 148.521 34.5021C148.521 36.0412 149.192 36.5029 150.266 35.8873C151.071 35.2717 151.34 35.4256 150.803 36.0412C149.461 37.7342 145.568 38.5037 146.508 36.8107C146.776 36.1951 145.568 34.3482 143.689 32.8091C141.675 31.1162 139.528 29.1154 138.588 28.1919C137.783 27.2685 135.904 25.8833 134.427 24.806C130.669 22.3434 133.219 22.4974 137.514 25.1138ZM179.393 33.2709C179.393 33.7326 178.453 33.7326 177.38 33.117C176.306 32.6552 175.366 32.8091 175.366 33.5787C175.366 34.3482 173.219 37.5803 170.534 40.8123C165.031 47.892 165.031 52.3554 170.937 61.282C172.95 64.3601 173.621 65.8992 172.547 64.9757C171.339 63.8984 169.863 63.5906 169.326 64.2062C168.655 64.8218 168.655 64.514 169.058 63.5906C169.594 62.5132 169.058 60.9742 167.984 59.8968C166.91 58.8195 165.97 58.5116 165.97 59.1273C165.97 59.8968 164.897 59.2812 163.42 57.7421C161.004 55.2796 156.575 55.7413 156.575 58.6656C156.575 59.4351 156.038 59.7429 155.366 59.1273C154.561 58.6656 153.353 59.7429 152.548 61.4359C151.742 63.1289 150.534 64.514 149.863 64.514C149.192 64.514 150.132 61.5898 151.877 57.896C155.903 50.0467 156.038 46.9686 152.548 42.967C151.205 41.4279 150.534 39.5811 151.205 39.1193C151.877 38.6576 152.682 38.9654 153.219 39.8889C153.756 40.8123 154.695 41.1201 155.366 40.6584C156.038 40.0428 156.575 40.5045 156.575 41.4279C156.575 42.3514 157.111 42.8131 157.783 42.3514C158.454 41.7358 159.259 42.0436 159.527 42.967C159.796 43.7366 161.272 43.4287 163.286 42.1975C165.165 40.9662 167.984 39.2732 169.594 38.5037C171.205 37.5803 173.219 35.5795 174.024 33.8865C175.232 31.2701 179.393 30.8083 179.393 33.2709ZM174.427 78.5196C177.111 82.3673 179.393 85.9071 179.393 86.2149C179.393 86.5228 170.937 86.8306 160.601 86.8306C150.266 86.8306 141.81 86.5228 141.81 86.061C141.81 85.5993 146.105 79.5969 151.205 72.6711L160.601 59.8968L165.031 65.7453C167.447 68.8234 171.742 74.6719 174.427 78.5196ZM147.984 67.9C148.521 68.8234 148.387 69.1312 147.581 68.6695C146.239 67.7461 143.823 71.5938 144.226 73.9024C144.36 74.518 142.883 76.5188 141.139 78.3657C136.709 83.1368 136.978 85.1376 142.212 90.6783L146.508 95.1416L139.662 95.2955C133.622 95.2955 132.28 95.9111 127.582 101.144C121.005 108.378 117.649 113.303 118.589 114.226C118.857 114.688 118.052 115.765 116.575 116.689C114.025 118.228 114.025 118.074 116.709 112.071L119.394 105.761L115.636 102.067C113.622 100.067 111.206 98.3736 110.401 98.2197C106.911 98.0658 114.83 95.4494 119.394 95.4494C123.555 95.2955 125.434 94.0642 130.4 88.2157C133.756 84.3681 136.441 80.5204 136.441 79.9047C136.441 79.1352 137.649 78.0579 139.125 77.5961C140.602 76.9805 141.541 76.0571 141.139 75.2875C140.736 74.6719 141.81 72.2094 143.42 70.0547C147.044 65.4375 146.776 65.5914 147.984 67.9ZM183.42 76.5188C185.165 78.3657 185.165 78.5196 183.42 77.4422C182.346 76.8266 182.749 77.904 184.359 80.0587C185.97 82.0594 188.923 86.061 191.071 88.9853C194.158 92.9869 196.171 94.2181 200.869 94.8337C209.057 95.9111 210.131 97.6041 205.701 101.913C202.614 104.992 202.211 106.069 203.419 109.609C204.225 111.917 204.359 113.764 203.822 113.764C203.285 113.764 203.822 114.534 204.896 115.457C206.641 116.842 206.641 116.996 204.896 116.381C203.822 116.073 203.017 114.996 203.151 114.072C203.285 113.149 200.198 108.685 196.171 103.914C189.997 96.8345 187.983 95.2955 184.225 95.2955C178.856 95.2955 177.111 92.0634 180.869 88.9853C183.554 86.8306 184.225 83.1368 182.346 80.5204C181.675 79.7508 180.467 76.9805 179.527 74.518C178.185 70.6703 178.185 70.2086 179.661 72.2094C180.601 73.4406 182.346 75.2875 183.42 76.5188ZM79.7973 98.6814C80.7368 100.221 82.7502 101.452 84.2267 101.452C87.4481 101.452 87.4481 102.221 83.9583 106.223C81.1395 109.455 80.8711 116.073 83.2871 123.768C83.824 125.461 82.7502 123.614 80.7368 119.613C77.247 112.071 70.5357 106.531 67.5827 108.685C65.8378 109.763 68.5223 105.607 72.4148 100.99C74.0255 99.1432 74.5625 97.1424 73.8913 94.8337C73.086 91.7556 73.2202 91.6017 75.502 93.7564C76.8443 94.9877 78.8577 97.2963 79.7973 98.6814ZM248.117 97.1424C247.848 98.6814 249.056 101.298 251.07 103.453C255.499 108.224 255.499 108.839 250.264 109.455C247.043 109.763 245.164 111.302 242.882 115.149L239.66 120.536L240.063 115.919C240.331 111.148 237.781 104.53 235.768 104.53C234.962 104.53 234.426 103.76 234.426 102.991C234.426 102.067 235.634 101.452 237.11 101.452C238.452 101.452 240.734 99.7588 242.076 97.758C244.895 93.4486 249.056 92.9869 248.117 97.1424ZM193.218 108.531C198.99 117.92 216.842 153.78 217.782 157.936C218.587 161.629 211.339 177.944 197.648 203.338L189.594 218.421H131.743L122.884 201.799C117.917 192.719 111.34 179.637 108.119 172.711L102.213 159.937L108.79 145.777C116.575 129.001 124.629 113.457 129.327 106.377L132.548 101.452H188.789L193.218 108.531ZM112.548 108.685C111.206 111.148 106.777 119.459 102.884 127.462C97.6493 138.082 95.5017 141.16 94.6963 139.467C93.2199 136.543 85.4348 112.379 85.4348 110.84C85.4348 109.609 104.763 104.992 111.34 104.684L115.099 104.53L112.548 108.685ZM223.285 107.146C230.13 108.531 235.768 110.224 235.768 110.84C235.768 112.533 228.251 135.927 226.775 139.159C225.701 141.314 224.09 139.313 218.318 127.462C214.426 119.459 209.996 111.148 208.654 108.685C205.433 103.453 205.701 103.453 223.285 107.146ZM74.5625 120.228C75.502 123.922 78.9919 134.388 82.2133 143.622L88.2535 160.398L83.5556 172.865C81.0053 179.637 77.5154 189.948 75.7705 195.643C74.1598 201.491 72.0122 206.109 71.2068 206.109C67.8512 206.109 49.8649 198.105 40.0664 192.257C22.2143 181.637 12.9527 170.094 12.9527 158.551C12.9527 151.472 21.1405 141.16 34.2947 132.079C41.2744 127.154 68.3881 113.764 71.4753 113.764C72.2806 113.764 73.6229 116.689 74.5625 120.228ZM264.626 120.075C287.579 129.771 308.25 147.778 308.25 158.397C308.25 165.323 305.163 171.018 297.243 179.021C286.639 189.641 251.875 208.417 249.056 205.031C248.654 204.262 247.043 199.952 245.835 195.335C244.493 190.718 241.137 180.714 238.318 173.326L233.218 159.783L238.989 143.315C242.211 134.234 245.701 123.922 246.64 120.228C248.519 112.841 247.043 112.841 264.626 120.075ZM107.716 134.542C106.374 135.619 105.703 137.312 106.24 138.236C106.642 139.159 106.374 139.929 105.703 139.929C104.898 139.929 104.361 140.39 104.495 141.006C104.763 141.775 103.555 144.854 101.81 147.932C96.9782 156.704 97.1124 161.476 102.347 172.865C104.898 178.559 106.911 183.484 106.911 184.1C106.911 184.716 104.763 182.561 102.213 179.329C98.052 174.096 97.2466 173.634 95.2333 175.481C93.2199 177.328 93.0856 177.328 94.1594 175.327C94.6963 174.096 93.6225 174.712 91.6092 176.866L87.985 180.714L88.3877 176.866C88.6562 174.712 89.9984 169.787 91.3407 165.939C93.4883 159.321 93.6225 158.397 91.6092 153.934C90.4011 151.318 89.3273 148.701 89.3273 148.086C89.1931 147.316 88.3877 144.546 87.3139 141.775L85.569 136.697L90.4011 141.314C93.2199 143.93 96.0386 145.469 97.3809 145.007C100.065 143.776 104.226 139.005 104.226 137.004C104.226 136.081 105.3 134.696 106.642 133.926C109.998 131.618 110.669 131.925 107.716 134.542ZM16.9795 137.466C16.9795 138.543 15.503 141.314 13.6239 143.468C9.32864 148.393 7.71793 154.396 8.38906 163.784C8.79174 170.094 8.65751 170.864 6.77835 169.017C5.70454 167.94 5.03341 166.247 5.43609 165.169C5.83877 164.092 5.57031 162.707 4.89918 162.245C3.15425 161.014 3.15425 155.319 4.76496 155.319C5.43609 155.319 6.50989 153.78 6.91257 152.087C7.71793 149.317 15.6373 135.619 16.7111 135.465C16.8453 135.311 16.9795 136.235 16.9795 137.466ZM221.674 143.161C221.271 143.776 222.345 144.854 223.956 145.469C225.835 146.085 227.312 145.623 228.385 143.93C230.667 140.39 234.962 140.544 233.218 144.084C232.546 145.623 232.009 147.316 231.875 148.086C231.875 148.701 230.801 151.318 229.728 153.934C227.714 158.244 227.714 159.167 230.399 167.324C232.009 172.095 233.889 176.866 234.694 177.944C237.11 181.33 232.412 180.252 229.728 176.866C226.372 172.557 224.09 173.019 218.855 179.175C216.305 182.253 214.292 184.254 214.292 183.946C214.292 183.638 216.037 179.329 218.318 174.558C223.687 162.707 224.224 158.859 220.869 151.472C219.258 148.086 217.513 143.776 216.842 141.929C215.768 138.697 216.037 138.697 218.99 140.236C220.735 141.16 221.943 142.391 221.674 143.161ZM316.706 159.167C316.706 161.476 315.901 164.092 314.961 165.015C313.619 166.555 313.485 165.477 314.022 160.244C314.424 156.704 314.156 153.78 313.485 153.78C312.814 153.78 312.277 153.011 312.277 151.933C312.277 150.702 313.082 150.856 314.424 152.549C315.632 153.934 316.706 156.858 316.706 159.167ZM232.412 195.643C234.962 203.492 236.842 209.956 236.707 210.11C236.036 210.726 212.01 215.343 209.325 215.343C206.372 215.343 206.372 215.189 210.668 207.186C213.218 202.877 217.513 194.258 220.466 188.102C226.372 175.481 225.835 175.019 232.412 195.643ZM106.24 199.029C111.072 208.263 114.83 215.959 114.562 216.113C114.159 216.574 92.9514 212.881 88.7904 211.649C84.4952 210.418 84.6294 209.802 91.0722 190.564C94.0252 181.33 95.6359 178.405 96.4413 179.944C97.1124 181.176 101.542 189.795 106.24 199.029ZM119.125 205.185C119.797 204.723 119.931 205.493 119.528 206.724C119.125 208.109 119.394 209.187 120.199 209.187C121.005 209.187 121.676 210.11 121.676 211.342C121.676 212.419 124.092 215.959 127.045 219.037C131.34 223.346 133.488 224.578 137.649 224.578C140.602 224.578 143.42 225.193 143.823 226.117C144.226 226.886 144.091 227.656 143.286 227.656C140.87 227.656 137.514 235.043 138.454 238.429C138.991 240.122 139.93 241.046 140.736 240.584C141.675 239.968 141.81 240.276 141.273 241.353C140.736 242.277 141.139 243.508 142.347 243.97C143.42 244.432 143.957 245.817 143.555 247.048C143.018 248.741 142.078 248.125 139.796 244.585C138.186 242.123 136.306 240.584 135.769 241.2C135.098 241.815 135.098 241.353 135.635 240.276C136.843 238.121 130.535 229.656 126.239 227.656C124.629 226.886 120.602 225.809 117.515 225.347C111.206 224.27 107.045 221.499 111.743 221.499C113.22 221.499 115.501 220.114 116.709 218.267C119.26 214.881 118.991 211.957 115.233 203.8C114.025 201.184 113.22 198.721 113.354 197.952C113.488 197.336 112.951 196.874 112.146 196.874C111.475 196.874 111.206 196.105 111.743 195.027C112.28 193.95 113.756 195.797 115.367 199.645C116.709 203.184 118.454 205.647 119.125 205.185ZM247.043 209.033C248.251 210.264 250.935 211.188 252.949 211.188H256.707L252.412 215.959C249.056 219.806 248.251 221.807 248.519 226.117C248.788 230.734 248.654 231.042 247.311 228.579C243.956 222.269 239.526 218.421 235.365 218.267C232.949 218.267 231.875 217.806 232.681 217.344C233.62 217.036 234.56 216.882 234.962 217.19C235.231 217.498 236.842 215.651 238.452 213.342C240.868 209.956 241.271 207.802 240.6 203.338L239.929 197.798L242.345 202.261C243.687 204.877 245.701 207.802 247.043 209.033ZM204.896 205.339C203.956 206.57 203.554 207.648 204.09 207.648C204.493 207.648 204.225 209.341 203.554 211.342C202.48 214.574 202.882 215.805 206.238 219.037C210.802 223.346 210.533 223.808 202.211 225.347C197.648 226.117 194.695 227.963 190.534 232.735C187.312 236.274 184.762 239.814 184.762 240.738C184.762 241.661 183.688 243.508 182.48 244.893C181.138 246.125 178.856 249.203 177.38 251.357C175.903 253.666 173.621 256.744 172.413 258.129C171.071 259.514 169.997 261.515 169.997 262.439C169.997 263.362 169.192 265.055 168.118 265.979C166.507 267.518 166.239 270.442 167.313 273.828C167.447 274.29 167.581 275.213 167.447 275.829C167.313 276.444 168.252 277.368 169.326 277.829C170.4 278.445 171.339 279.368 171.339 279.984C171.339 282.139 166.105 281.061 165.433 278.907C164.36 275.829 158.856 276.598 154.158 280.446C151.877 282.447 150.266 284.447 150.669 284.909C150.937 285.371 150.266 286.14 149.058 286.756C146.91 287.679 146.91 287.526 149.058 284.294C153.622 276.906 156.575 271.519 156.575 269.826C156.575 269.057 155.366 266.748 153.89 264.901C152.279 263.054 151.608 261.515 152.145 261.515C152.682 261.515 152.279 260.746 151.205 259.976C150.132 259.207 149.863 258.437 150.669 258.437C151.474 258.437 153.622 259.822 155.366 261.669C157.514 263.824 159.527 264.439 161.944 263.824C165.299 262.9 179.393 247.51 179.393 244.585C179.393 243.662 180.467 243.046 181.809 243.046C183.688 243.046 183.822 242.739 182.077 241.507C180.735 240.584 180.601 239.968 181.809 239.968C184.359 239.968 183.688 232.581 180.735 229.656C176.843 225.809 177.38 224.578 183.42 224.578C189.728 224.578 196.171 218.883 201.54 208.263C203.554 204.416 205.433 201.645 205.835 202.107C206.238 202.569 205.835 203.954 204.896 205.339ZM80.6026 206.724C80.1999 207.802 81.5422 210.88 83.4214 213.65C86.1059 217.19 86.5086 218.421 84.8978 218.421C83.824 218.421 81.2738 220.114 79.2604 222.269C77.247 224.424 76.1732 226.117 76.7101 226.117C77.247 226.117 76.9785 227.194 76.0389 228.425C75.0994 229.656 73.7571 230.734 72.9517 230.734C72.1464 230.734 72.6833 229.656 74.1598 228.425C75.6363 227.194 76.0389 226.117 75.0994 226.117C74.1598 226.117 73.3544 224.885 73.3544 223.5C73.3544 222.115 71.7437 218.883 69.7303 216.574L66.1062 212.265H69.4619C71.341 212.265 74.294 210.572 76.0389 208.417C79.5288 204.262 81.6764 203.338 80.6026 206.724ZM101.139 228.425C109.864 229.81 118.857 231.349 121.139 231.657C124.226 232.119 126.374 233.966 128.79 238.121C130.669 241.199 136.441 249.664 141.675 256.898C146.91 264.132 151.071 270.596 150.803 271.519C149.595 275.521 130.4 291.681 119.394 297.991C105.3 305.994 96.844 307.841 89.1931 304.148C77.6497 298.607 73.7571 274.443 78.8577 239.199C80.7368 226.117 81.408 224.27 83.5556 225.193C84.4952 225.655 92.5487 227.194 101.139 228.425ZM242.613 234.889C243.687 240.738 244.493 253.666 244.493 263.824C244.493 285.525 242.211 294.144 234.828 301.685C230.399 306.148 229.325 306.456 222.211 305.841C209.996 304.763 191.876 293.528 175.5 276.444L169.997 270.75L173.487 266.44C175.366 264.132 180.869 256.436 185.702 249.203C197.245 232.119 198.721 230.734 205.433 230.58C208.386 230.58 216.708 229.195 223.687 227.656C230.667 226.27 237.379 224.885 238.587 224.731C240.332 224.578 241.271 227.04 242.613 234.889ZM179.527 234.581C178.99 235.351 174.695 241.507 169.997 248.125C161.809 259.514 161.407 259.976 158.991 257.36C156.172 254.436 141.81 234.582 141.81 233.658C141.81 233.35 150.534 233.042 161.138 233.042C173.89 233.042 180.198 233.504 179.527 234.581ZM188.655 296.452C190.534 298.299 192.413 299.53 193.084 299.069C193.621 298.607 194.158 299.069 194.158 299.838C194.158 302.455 191.742 301.839 188.789 298.453C187.178 296.606 185.299 295.683 184.359 296.298C183.42 296.914 183.151 296.914 183.688 296.298C185.03 294.451 181.675 291.065 179.393 291.835C177.648 292.451 177.648 292.451 179.393 291.065C181.406 289.372 182.212 289.834 188.655 296.452ZM76.8443 296.76C75.7705 298.761 82.2133 307.38 86.9112 309.996C88.9246 311.227 93.6225 312.305 97.1124 312.305C102.481 312.459 103.153 312.612 101.005 314.152C96.9782 316.768 85.3005 313.074 80.3342 307.38C77.9181 304.763 76.0389 301.685 76.0389 300.608C76.0389 299.376 75.2336 298.453 74.4282 298.453C73.2202 298.453 73.3544 297.837 74.6967 296.914C77.247 295.067 77.7839 295.067 76.8443 296.76ZM244.627 303.378C245.164 304.301 245.029 304.609 244.09 303.994C243.284 303.532 242.345 304.455 241.808 305.994C241.405 307.687 239.795 309.534 238.318 309.996C236.976 310.612 236.036 311.689 236.439 312.459C236.842 313.228 236.439 313.382 235.365 313.074C234.426 312.612 231.473 313.228 228.922 314.459C225.164 316.306 223.822 316.306 221.137 314.613C218.184 312.92 218.453 312.612 225.969 311.997C232.815 311.535 234.56 310.766 237.915 306.456C242.211 301.069 243.15 300.608 244.627 303.378Z" stroke="black" stroke-width="0.266667" mask="url(#path-1-inside-1_38_7)"/>
<path d="M147.044 131.925C138.186 137.158 132.414 148.24 132.414 159.937C132.414 171.633 138.186 182.715 147.044 187.948C156.574 193.642 164.628 193.642 174.158 187.948C183.017 182.715 188.789 171.633 188.789 159.937C188.789 148.24 183.017 137.158 174.158 131.925C169.192 129.001 165.031 127.616 160.601 127.616C156.172 127.616 152.011 129.001 147.044 131.925ZM169.058 135.927C187.849 145.469 188.52 172.865 169.997 183.792C159.259 190.102 144.226 183.176 139.259 169.633C131.743 148.701 150.937 126.846 169.058 135.927Z" stroke="black" stroke-width="0.266667" mask="url(#path-1-inside-1_38_7)"/>
</svg>
