<svg width="206" height="36" viewBox="0 0 206 36" fill="none" xmlns="http://www.w3.org/2000/svg">
<path d="M0.25 35V0.0909081H15.3182C17.9091 0.0909081 20.1761 0.562499 22.1193 1.50568C24.0625 2.44886 25.5739 3.80682 26.6534 5.57955C27.733 7.35227 28.2727 9.47727 28.2727 11.9545C28.2727 14.4545 27.7159 16.5625 26.6023 18.2784C25.5 19.9943 23.9489 21.2898 21.9489 22.1648C19.9602 23.0398 17.6364 23.4773 14.9773 23.4773H5.97727V16.1136H13.0682C14.1818 16.1136 15.1307 15.9773 15.9148 15.7045C16.7102 15.4205 17.3182 14.9716 17.7386 14.358C18.1705 13.7443 18.3864 12.9432 18.3864 11.9545C18.3864 10.9545 18.1705 10.142 17.7386 9.51705C17.3182 8.88068 16.7102 8.41477 15.9148 8.11932C15.1307 7.8125 14.1818 7.65909 13.0682 7.65909H9.72727V35H0.25ZM20.7045 18.9773L29.4318 35H19.1364L10.6136 18.9773H20.7045ZM44.4318 35.4773C41.6364 35.4773 39.2273 34.9432 37.2045 33.875C35.1932 32.7955 33.642 31.25 32.5511 29.2386C31.4716 27.2159 30.9318 24.7955 30.9318 21.9773C30.9318 19.2727 31.4773 16.9091 32.5682 14.8864C33.6591 12.8636 35.1989 11.2898 37.1875 10.1648C39.1761 9.03977 41.5227 8.47727 44.2273 8.47727C46.2045 8.47727 47.9943 8.78409 49.5966 9.39773C51.1989 10.0114 52.5682 10.9034 53.7045 12.0739C54.8409 13.233 55.7159 14.642 56.3295 16.3011C56.9432 17.9602 57.25 19.8295 57.25 21.9091V24.0909H33.8636V18.9091H48.5909C48.5795 18.1591 48.3864 17.5 48.0114 16.9318C47.6477 16.3523 47.1534 15.9034 46.5284 15.5852C45.9148 15.2557 45.2159 15.0909 44.4318 15.0909C43.6705 15.0909 42.9716 15.2557 42.3352 15.5852C41.6989 15.9034 41.1875 16.3466 40.8011 16.9148C40.4261 17.483 40.2273 18.1477 40.2045 18.9091V24.5C40.2045 25.3409 40.3807 26.0909 40.733 26.75C41.0852 27.4091 41.5909 27.9261 42.25 28.3011C42.9091 28.6761 43.7045 28.8636 44.6364 28.8636C45.2841 28.8636 45.875 28.7727 46.4091 28.5909C46.9545 28.4091 47.4205 28.1477 47.8068 27.8068C48.1932 27.4545 48.4773 27.0341 48.6591 26.5455H57.25C56.9545 28.3636 56.2557 29.9432 55.1534 31.2841C54.0511 32.6136 52.5909 33.6477 50.7727 34.3864C48.9659 35.1136 46.8523 35.4773 44.4318 35.4773ZM68.3849 35.4091C66.7145 35.4091 65.2372 35.1364 63.9531 34.5909C62.6804 34.0341 61.6804 33.1932 60.9531 32.0682C60.2259 30.9432 59.8622 29.5114 59.8622 27.7727C59.8622 26.3409 60.1065 25.1193 60.5952 24.108C61.0838 23.0852 61.7656 22.25 62.6406 21.6023C63.5156 20.9545 64.5327 20.4602 65.6918 20.1193C66.8622 19.7784 68.1236 19.5568 69.4759 19.4545C70.9418 19.3409 72.1179 19.2045 73.0043 19.0455C73.902 18.875 74.5497 18.642 74.9474 18.3466C75.3452 18.0398 75.544 17.6364 75.544 17.1364V17.0682C75.544 16.3864 75.2827 15.8636 74.7599 15.5C74.2372 15.1364 73.5668 14.9545 72.7486 14.9545C71.8509 14.9545 71.1179 15.1534 70.5497 15.5511C69.9929 15.9375 69.6577 16.5341 69.544 17.3409H60.8849C60.9986 15.75 61.5043 14.2841 62.402 12.9432C63.3111 11.5909 64.6349 10.5114 66.3736 9.70455C68.1122 8.88636 70.2827 8.47727 72.8849 8.47727C74.7599 8.47727 76.4418 8.69886 77.9304 9.14205C79.419 9.57386 80.6861 10.1818 81.7315 10.9659C82.777 11.7386 83.5724 12.6477 84.1179 13.6932C84.6747 14.7273 84.9531 15.8523 84.9531 17.0682V35H76.1577V31.3182H75.9531C75.4304 32.2955 74.794 33.0852 74.044 33.6875C73.3054 34.2898 72.4588 34.7273 71.5043 35C70.5611 35.2727 69.5213 35.4091 68.3849 35.4091ZM71.4531 29.4773C72.169 29.4773 72.8395 29.3295 73.4645 29.0341C74.1009 28.7386 74.6179 28.3125 75.0156 27.7557C75.4134 27.1989 75.6122 26.5227 75.6122 25.7273V23.5455C75.3622 23.6477 75.0952 23.7443 74.8111 23.8352C74.5384 23.9261 74.2429 24.0114 73.9247 24.0909C73.6179 24.1705 73.2884 24.2443 72.9361 24.3125C72.5952 24.3807 72.2372 24.4432 71.8622 24.5C71.1349 24.6136 70.5384 24.8011 70.0724 25.0625C69.6179 25.3125 69.277 25.625 69.0497 26C68.8338 26.3636 68.7259 26.7727 68.7259 27.2273C68.7259 27.9545 68.9815 28.5114 69.4929 28.8977C70.0043 29.2841 70.6577 29.4773 71.4531 29.4773ZM102.062 35.4773C99.2216 35.4773 96.7898 34.9148 94.767 33.7898C92.7443 32.6534 91.1932 31.0739 90.1136 29.0511C89.0341 27.017 88.4943 24.6591 88.4943 21.9773C88.4943 19.2955 89.0341 16.9432 90.1136 14.9205C91.1932 12.8864 92.7443 11.3068 94.767 10.1818C96.7898 9.04545 99.2216 8.47727 102.062 8.47727C104.631 8.47727 106.852 8.94318 108.727 9.875C110.614 10.7955 112.074 12.1023 113.108 13.7955C114.142 15.4773 114.665 17.4545 114.676 19.7273H105.949C105.824 18.3523 105.426 17.3068 104.756 16.5909C104.097 15.8636 103.244 15.5 102.199 15.5C101.381 15.5 100.665 15.7386 100.051 16.2159C99.4375 16.6818 98.9602 17.392 98.6193 18.3466C98.2784 19.2898 98.108 20.4773 98.108 21.9091C98.108 23.3409 98.2784 24.5341 98.6193 25.4886C98.9602 26.4318 99.4375 27.142 100.051 27.6193C100.665 28.0852 101.381 28.3182 102.199 28.3182C102.892 28.3182 103.506 28.1591 104.04 27.8409C104.574 27.5114 105.006 27.0341 105.335 26.4091C105.676 25.7727 105.881 25 105.949 24.0909H114.676C114.642 26.3977 114.114 28.4091 113.091 30.125C112.068 31.8295 110.619 33.1477 108.744 34.0795C106.881 35.0114 104.653 35.4773 102.062 35.4773ZM134.172 8.81818V15.6364H116.922V8.81818H134.172ZM120.263 2.54545H129.672V26.5795C129.672 26.9432 129.734 27.25 129.859 27.5C129.984 27.7386 130.178 27.9205 130.439 28.0455C130.7 28.1591 131.036 28.2159 131.445 28.2159C131.729 28.2159 132.058 28.1818 132.433 28.1136C132.82 28.0455 133.104 27.9886 133.286 27.9432L134.649 34.5568C134.229 34.6818 133.626 34.8352 132.842 35.017C132.07 35.1989 131.149 35.3182 130.081 35.375C127.922 35.4886 126.109 35.267 124.643 34.7102C123.178 34.142 122.075 33.25 121.337 32.0341C120.598 30.8182 120.24 29.2955 120.263 27.4659V2.54545ZM143.125 35.5455C141.807 35.5455 140.676 35.0852 139.733 34.1648C138.801 33.233 138.341 32.1023 138.352 30.7727C138.341 29.4773 138.801 28.3693 139.733 27.4489C140.676 26.5284 141.807 26.0682 143.125 26.0682C144.375 26.0682 145.477 26.5284 146.432 27.4489C147.398 28.3693 147.886 29.4773 147.898 30.7727C147.886 31.6591 147.653 32.4659 147.199 33.1932C146.756 33.9091 146.176 34.483 145.46 34.9148C144.744 35.3352 143.966 35.5455 143.125 35.5455ZM167.261 0.0909081H176.602V24.0227C176.591 26.2955 176.017 28.2955 174.881 30.0227C173.756 31.7386 172.199 33.0795 170.21 34.0455C168.233 35 165.955 35.4773 163.375 35.4773C161.136 35.4773 159.091 35.0909 157.239 34.3182C155.386 33.5341 153.909 32.3068 152.807 30.6364C151.705 28.9545 151.159 26.7727 151.17 24.0909H160.648C160.682 24.9659 160.83 25.7045 161.091 26.3068C161.364 26.9091 161.739 27.3636 162.216 27.6705C162.705 27.9659 163.295 28.1136 163.989 28.1136C164.693 28.1136 165.284 27.9602 165.761 27.6534C166.25 27.3466 166.619 26.892 166.869 26.2898C167.119 25.6761 167.25 24.9205 167.261 24.0227V0.0909081ZM205.162 17.3409H196.503C196.457 16.8068 196.27 16.3466 195.94 15.9602C195.611 15.5739 195.185 15.2784 194.662 15.0739C194.151 14.858 193.582 14.75 192.957 14.75C192.151 14.75 191.457 14.8977 190.878 15.1932C190.298 15.4886 190.014 15.9091 190.026 16.4545C190.014 16.8409 190.179 17.1989 190.52 17.5284C190.872 17.858 191.548 18.1136 192.548 18.2955L197.866 19.25C200.548 19.7386 202.543 20.5625 203.849 21.7216C205.168 22.8693 205.832 24.4091 205.844 26.3409C205.832 28.2045 205.276 29.8239 204.173 31.1989C203.082 32.5625 201.588 33.6193 199.69 34.3693C197.804 35.108 195.651 35.4773 193.23 35.4773C189.23 35.4773 186.099 34.6591 183.838 33.0227C181.588 31.3864 180.332 29.2273 180.071 26.5455H189.412C189.537 27.375 189.946 28.017 190.639 28.4716C191.344 28.9148 192.23 29.1364 193.298 29.1364C194.162 29.1364 194.872 28.9886 195.429 28.6932C195.997 28.3977 196.287 27.9773 196.298 27.4318C196.287 26.9318 196.037 26.5341 195.548 26.2386C195.071 25.9432 194.321 25.7045 193.298 25.5227L188.662 24.7045C185.991 24.2386 183.991 23.3523 182.662 22.0455C181.332 20.7386 180.673 19.0568 180.685 17C180.673 15.1818 181.151 13.642 182.116 12.3807C183.094 11.108 184.486 10.142 186.293 9.48295C188.111 8.8125 190.264 8.47727 192.753 8.47727C196.537 8.47727 199.52 9.26136 201.702 10.8295C203.895 12.3977 205.048 14.5682 205.162 17.3409Z" fill="white"/>
</svg>
