<svg width="331" height="328" viewBox="0 0 331 328" fill="none" xmlns="http://www.w3.org/2000/svg">
<path d="M203.224 5.91001C195.194 7.08118 188.531 8.48658 188.19 8.95505C187.848 9.42352 189.044 15.0451 190.752 21.8379L193.828 33.7839L210.4 33.0812C219.625 32.6127 227.142 32.3785 227.142 32.3785C227.142 32.3785 225.605 26.0541 223.896 18.3244C222.188 10.8289 220.138 4.27037 219.284 4.03613C218.429 3.8019 211.254 4.73884 203.224 5.91001ZM215.354 18.5587C216.721 20.901 216.208 21.8379 212.279 23.0091C209.716 23.946 206.641 24.883 205.445 25.3514C204.249 25.8199 202.028 24.4145 200.491 22.3064C197.586 18.5587 197.757 18.3244 200.832 17.6217C202.541 17.1532 204.762 15.9821 205.445 14.8109C207.324 12.4686 212.791 14.5767 215.354 18.5587Z" fill="#1D4ED8"/>
<path d="M266.095 26.2883L265.583 40.5766L274.125 44.3244C278.909 46.4325 286.255 50.6487 290.526 53.4595L298.556 58.6126L299.581 44.7928C300.264 37.0631 300.606 30.5045 300.264 30.2703C299.922 30.0361 293.259 26.2883 285.23 22.0721C277.2 17.8559 269.854 13.8739 268.658 13.1712C267.462 12.4685 266.608 16.6847 266.095 26.2883ZM289.159 35.4235C293.943 41.2793 289.159 42.919 281.642 37.7658C278.054 35.4235 274.979 32.3784 274.979 30.973C274.979 27.4595 285.23 30.7388 289.159 35.4235Z" fill="#1D4ED8"/>
<path d="M131.982 32.6127L117.972 43.1532L124.294 56.5046C127.711 63.7658 130.615 70.0901 130.786 70.5586C130.957 70.7928 136.424 66.8109 142.916 61.6577C149.579 56.5046 155.729 52.2883 156.925 52.2883C157.95 52.2883 158.804 51.3514 158.804 50.1802C158.804 47.3694 148.041 21.8379 146.845 22.0721C146.333 22.0721 139.67 26.7568 131.982 32.6127ZM147.7 40.8109C148.383 43.3874 148.554 45.964 148.212 46.1982C148.041 46.4325 144.795 49.2433 141.207 52.2883C135.228 56.973 134.374 57.2073 131.982 53.928C128.394 49.0091 130.273 43.6217 136.936 39.6397C144.795 34.955 146.504 35.1892 147.7 40.8109Z" fill="#1D4ED8"/>
<path d="M212.621 53.928C201.857 55.5676 183.748 62.3604 172.301 68.6847C114.043 101.712 59.0309 200.324 41.9464 302.45L39.5546 316.973H139.499L140.524 278.793C141.549 234.991 145.649 209.459 157.096 177.604C174.18 129.586 200.491 98.6667 234.83 86.2523C253.453 79.4595 292.405 81.8018 309.661 90.937C311.369 91.8739 312.565 91.6397 312.565 90C312.565 88.5946 306.585 83.4415 299.41 78.2883C270.879 58.8469 238.418 49.4775 212.621 53.928ZM253.282 66.8109C257.724 67.982 261.824 70.3244 262.507 71.7298C263.02 72.9009 262.678 73.3694 261.653 72.6667C259.261 70.5586 233.635 75.4775 231.072 78.5226C229.876 79.928 228.851 80.1622 228.851 79.2253C228.851 78.2883 227.826 78.7568 226.63 80.1622C225.263 81.5676 223.726 82.0361 223.213 81.0991C222.53 80.3964 222.017 80.8649 222.017 82.5045C222.017 84.1442 220.992 85.0811 219.967 84.3784C217.917 83.4415 199.636 95.6217 193.486 102.18C189.044 106.631 168.543 134.973 164.955 141.297C155.046 158.396 141.207 201.027 138.474 222.108C137.62 228.432 136.424 236.396 135.74 239.676C135.057 242.955 134.032 259.117 133.519 275.982L132.323 306.432H50.3178L50.1469 297.063C50.1469 291.91 50.6595 286.523 51.3429 285.351C52.7096 282.541 56.2974 267.315 56.2974 264.739C56.1265 263.802 57.3224 260.054 58.6892 256.541C64.6688 241.081 77.4822 203.135 77.1405 201.496C76.9696 200.559 77.4822 199.856 78.1655 199.856C80.0448 199.856 91.4915 175.964 90.8081 173.387C90.6372 172.45 91.1498 171.748 91.8332 171.748C92.6874 171.748 95.9334 166.829 99.1795 160.505C105.842 147.856 130.273 114.126 137.449 107.568C140.182 104.991 143.258 102.18 144.283 101.009C145.137 100.072 148.383 96.5586 151.287 93.2793C154.362 90 157.779 87.4235 159.146 87.4235C160.513 87.4235 162.221 86.4865 163.076 85.3154C165.467 82.5045 191.436 67.7478 195.536 67.0451C197.415 66.5766 204.42 65.4054 210.912 64.2343C224.067 62.1262 240.81 63.0631 253.282 66.8109Z" fill="#1D4ED8"/>
<path d="M65.8647 105.225C59.3726 114.829 54.4181 123.027 54.7598 123.261C55.1015 123.73 59.7143 128.883 65.0105 134.739L74.5778 145.748L97.1293 111.55L88.0746 99.3694C83.2909 92.8109 78.8489 87.4235 78.5072 87.4235C77.9947 87.6577 72.3568 95.6217 65.8647 105.225ZM84.316 106.865C87.0495 109.676 86.8786 110.378 81.9241 119.748C76.1154 130.757 71.5026 132.396 67.5731 124.667C65.1813 119.982 65.3522 119.045 70.4775 111.784C76.4571 103.351 79.7031 102.18 84.316 106.865Z" fill="#1D4ED8"/>
<path d="M268.316 106.631C269.17 110.847 269.854 117.171 269.854 120.45C269.854 126.306 270.366 126.541 284.205 128.649L298.556 130.757L299.581 120.45C300.093 114.829 300.606 108.973 300.606 107.333C300.606 104.054 284.717 99.1352 273.954 99.1352H266.608L268.316 106.631ZM290.697 112.955C291.38 113.658 291.38 115.766 290.697 117.171C289.672 119.279 287.792 119.514 283.009 117.64C279.421 116.469 277.029 114.36 277.542 113.189C278.054 112.252 277.371 110.613 276.346 109.91C275.15 109.207 277.542 109.441 281.813 110.144C286.084 110.847 290.013 112.018 290.697 112.955Z" fill="#1D4ED8"/>
<path d="M229.876 107.333C223.384 110.378 217.404 113.892 216.55 115.063C215.525 116.468 216.721 122.09 219.454 129.586C222.871 138.955 224.58 141.297 226.801 140.126C228.338 139.189 235.001 135.91 241.323 132.631C248.156 129.117 252.598 125.604 252.086 123.964C251.573 122.559 250.207 116.937 249.011 111.315C246.619 99.8379 245.765 99.6036 229.876 107.333ZM242.177 118.108C242.519 120.685 240.81 123.027 237.222 124.667C229.363 128.414 227.484 127.946 225.263 121.856C224.238 119.045 223.896 117.405 224.409 118.342C225.092 119.045 228.168 118.342 231.072 116.468C237.735 112.487 241.493 113.189 242.177 118.108Z" fill="#1D4ED8"/>
<path d="M190.923 139.423C186.481 145.045 181.698 152.306 180.16 155.586C177.427 161.676 177.597 161.91 186.481 172.919C193.657 181.82 195.707 183.225 197.245 180.649C198.099 178.775 201.857 172.45 205.445 166.36L212.108 155.586L206.299 142.703C203.224 135.441 200.32 129.586 199.807 129.586C199.295 129.586 195.365 134.036 190.923 139.423ZM202.199 154.18C201.345 160.739 195.365 168 192.29 166.36C186.823 163.55 186.994 157.225 192.803 150.198C197.245 144.811 198.611 144.108 200.491 146.45C201.857 148.09 202.541 151.604 202.199 154.18Z" fill="#1D4ED8"/>
<path d="M222.017 324H252.769V286.288L265.924 305.261L279.079 324H323.67L304.877 298.234C292.747 281.604 287.28 272.468 289.159 272.468C295.139 272.468 305.731 262.865 310.344 253.496C313.932 246 314.957 240.613 315.64 226.09C316.836 199.153 310.173 182.054 294.626 171.982C287.622 167.532 284.034 167.063 254.478 167.063H222.017V324ZM292.234 181.117C295.822 183.694 301.289 190.252 304.023 195.64C308.294 203.604 309.148 207.586 309.148 218.595C309.148 241.784 305.219 251.153 290.868 263.802C281.984 271.532 281.471 277.153 288.476 286.757C291.209 290.505 293.089 293.55 292.576 293.55C292.064 293.55 294.455 297.297 297.872 301.748C301.46 306.198 303.681 310.883 303.169 312.288C301.802 315.333 285.913 315.333 281.813 312.288C280.104 311.117 274.125 303.856 268.487 296.126C261.482 286.757 257.211 282.541 254.307 282.775C249.352 283.009 245.935 291.441 245.935 303.153C245.935 312.054 243.885 314.631 236.71 314.631C229.022 314.631 228.851 312.523 228.851 246.468C228.851 212.036 229.363 182.288 229.876 180.18C230.73 176.901 234.83 176.432 258.065 176.432C282.155 176.432 286.255 176.901 292.234 181.117Z" fill="#1D4ED8"/>
<path d="M248.669 202.901C245.423 207.586 244.74 210.865 244.569 225.387C244.398 240.378 244.91 243.189 248.498 248.108C251.915 252.793 254.307 253.73 263.02 253.73C275.321 253.73 282.496 249.279 286.084 239.676C289.33 230.775 289.33 222.577 285.913 212.505C282.155 201.73 275.662 197.514 263.02 197.514C254.478 197.514 251.915 198.45 248.669 202.901ZM279.25 213.91C282.496 222.577 282.496 232.649 279.079 239.207C276.858 243.658 274.979 244.36 263.703 244.36H251.061V206.883H263.874C276.175 206.883 276.688 207.117 279.25 213.91Z" fill="#1D4ED8"/>
<path d="M162.563 202.901C160.513 212.27 158.463 223.514 157.95 228.198L156.925 236.396L168.372 242.721C174.693 246.234 180.16 248.811 180.331 248.342C180.502 248.108 181.698 238.973 182.894 227.964L185.285 207.82L175.718 197.045L166.151 186.036L162.563 202.901ZM176.914 218.36C177.085 228.198 174.01 233.586 169.397 231.712C165.126 229.838 164.613 223.514 167.518 211.802C169.397 204.775 169.739 204.541 173.155 207.586C175.376 209.694 176.743 213.676 176.914 218.36Z" fill="#1D4ED8"/>
<path d="M10.34 217.658C6.41061 231.478 3.50624 242.955 3.67708 243.189C5.21469 244.36 31.354 258.18 31.6957 257.712C31.8665 257.477 34.7709 247.64 38.3586 236.162C41.7755 224.45 45.5341 213.676 46.3884 212.036C48.7802 208.288 49.1219 208.757 34.9417 201.73C28.4496 198.216 21.7867 194.937 20.2491 194.234C18.1989 193.063 16.1488 197.982 10.34 217.658ZM30.4998 209.459C36.821 212.505 37.3336 217.189 32.3791 230.072C30.6706 234.991 29.4747 239.676 29.9872 240.378C32.3791 243.658 23.3243 244.126 18.7115 240.847C12.561 236.631 12.3902 234.523 17.1738 218.829C21.1033 206.18 21.9575 205.478 30.4998 209.459Z" fill="#1D4ED8"/>
<path d="M155.388 277.856C155.388 284.883 155.9 295.189 156.413 301.045L157.438 311.586L169.739 315.568C176.401 317.676 183.577 320.018 185.627 320.721C189.215 322.126 189.386 321.658 187.848 315.099C187.165 311.117 185.969 301.279 185.285 293.081L184.089 278.09L171.959 272.703C165.126 269.892 158.634 266.847 157.609 266.378C155.9 265.441 155.388 268.487 155.388 277.856ZM173.497 283.712C175.547 285.117 177.768 289.333 178.452 292.847C181.014 305.496 180.673 306.667 174.693 306.901C167.688 307.135 162.221 298.703 162.221 287.694C162.221 280.901 162.734 279.964 166.151 280.432C168.201 280.901 171.618 282.306 173.497 283.712Z" fill="#1D4ED8"/>
<path d="M203.224 5.91001C195.194 7.08118 188.531 8.48658 188.19 8.95505C187.848 9.42352 189.044 15.0451 190.752 21.8379L193.828 33.7839L210.4 33.0812C219.625 32.6127 227.142 32.3785 227.142 32.3785C227.142 32.3785 225.605 26.0541 223.896 18.3244C222.188 10.8289 220.138 4.27037 219.284 4.03613C218.429 3.8019 211.254 4.73884 203.224 5.91001ZM215.354 18.5587C216.721 20.901 216.208 21.8379 212.279 23.0091C209.716 23.946 206.641 24.883 205.445 25.3514C204.249 25.8199 202.028 24.4145 200.491 22.3064C197.586 18.5587 197.757 18.3244 200.832 17.6217C202.541 17.1532 204.762 15.9821 205.445 14.8109C207.324 12.4686 212.791 14.5767 215.354 18.5587Z" stroke="black" stroke-width="7"/>
<path d="M266.095 26.2883L265.583 40.5766L274.125 44.3244C278.909 46.4325 286.255 50.6487 290.526 53.4595L298.556 58.6126L299.581 44.7928C300.264 37.0631 300.606 30.5045 300.264 30.2703C299.922 30.0361 293.259 26.2883 285.23 22.0721C277.2 17.8559 269.854 13.8739 268.658 13.1712C267.462 12.4685 266.608 16.6847 266.095 26.2883ZM289.159 35.4235C293.943 41.2793 289.159 42.919 281.642 37.7658C278.054 35.4235 274.979 32.3784 274.979 30.973C274.979 27.4595 285.23 30.7388 289.159 35.4235Z" stroke="black" stroke-width="7"/>
<path d="M131.982 32.6127L117.972 43.1532L124.294 56.5046C127.711 63.7658 130.615 70.0901 130.786 70.5586C130.957 70.7928 136.424 66.8109 142.916 61.6577C149.579 56.5046 155.729 52.2883 156.925 52.2883C157.95 52.2883 158.804 51.3514 158.804 50.1802C158.804 47.3694 148.041 21.8379 146.845 22.0721C146.333 22.0721 139.67 26.7568 131.982 32.6127ZM147.7 40.8109C148.383 43.3874 148.554 45.964 148.212 46.1982C148.041 46.4325 144.795 49.2433 141.207 52.2883C135.228 56.973 134.374 57.2073 131.982 53.928C128.394 49.0091 130.273 43.6217 136.936 39.6397C144.795 34.955 146.504 35.1892 147.7 40.8109Z" stroke="black" stroke-width="7"/>
<path d="M212.621 53.928C201.857 55.5676 183.748 62.3604 172.301 68.6847C114.043 101.712 59.0309 200.324 41.9464 302.45L39.5546 316.973H139.499L140.524 278.793C141.549 234.991 145.649 209.459 157.096 177.604C174.18 129.586 200.491 98.6667 234.83 86.2523C253.453 79.4595 292.405 81.8018 309.661 90.937C311.369 91.8739 312.565 91.6397 312.565 90C312.565 88.5946 306.585 83.4415 299.41 78.2883C270.879 58.8469 238.418 49.4775 212.621 53.928ZM253.282 66.8109C257.724 67.982 261.824 70.3244 262.507 71.7298C263.02 72.9009 262.678 73.3694 261.653 72.6667C259.261 70.5586 233.635 75.4775 231.072 78.5226C229.876 79.928 228.851 80.1622 228.851 79.2253C228.851 78.2883 227.826 78.7568 226.63 80.1622C225.263 81.5676 223.726 82.0361 223.213 81.0991C222.53 80.3964 222.017 80.8649 222.017 82.5045C222.017 84.1442 220.992 85.0811 219.967 84.3784C217.917 83.4415 199.636 95.6217 193.486 102.18C189.044 106.631 168.543 134.973 164.955 141.297C155.046 158.396 141.207 201.027 138.474 222.108C137.62 228.432 136.424 236.396 135.74 239.676C135.057 242.955 134.032 259.117 133.519 275.982L132.323 306.432H50.3178L50.1469 297.063C50.1469 291.91 50.6595 286.523 51.3429 285.351C52.7096 282.541 56.2974 267.315 56.2974 264.739C56.1265 263.802 57.3224 260.054 58.6892 256.541C64.6688 241.081 77.4822 203.135 77.1405 201.496C76.9696 200.559 77.4822 199.856 78.1655 199.856C80.0448 199.856 91.4915 175.964 90.8081 173.387C90.6372 172.45 91.1498 171.748 91.8332 171.748C92.6874 171.748 95.9334 166.829 99.1795 160.505C105.842 147.856 130.273 114.126 137.449 107.568C140.182 104.991 143.258 102.18 144.283 101.009C145.137 100.072 148.383 96.5586 151.287 93.2793C154.362 90 157.779 87.4235 159.146 87.4235C160.513 87.4235 162.221 86.4865 163.076 85.3154C165.467 82.5045 191.436 67.7478 195.536 67.0451C197.415 66.5766 204.42 65.4054 210.912 64.2343C224.067 62.1262 240.81 63.0631 253.282 66.8109Z" stroke="black" stroke-width="7"/>
<path d="M65.8647 105.225C59.3726 114.829 54.4181 123.027 54.7598 123.261C55.1015 123.73 59.7143 128.883 65.0105 134.739L74.5778 145.748L97.1293 111.55L88.0746 99.3694C83.2909 92.8109 78.8489 87.4235 78.5072 87.4235C77.9947 87.6577 72.3568 95.6217 65.8647 105.225ZM84.316 106.865C87.0495 109.676 86.8786 110.378 81.9241 119.748C76.1154 130.757 71.5026 132.396 67.5731 124.667C65.1813 119.982 65.3522 119.045 70.4775 111.784C76.4571 103.351 79.7031 102.18 84.316 106.865Z" stroke="black" stroke-width="7"/>
<path d="M268.316 106.631C269.17 110.847 269.854 117.171 269.854 120.45C269.854 126.306 270.366 126.541 284.205 128.649L298.556 130.757L299.581 120.45C300.093 114.829 300.606 108.973 300.606 107.333C300.606 104.054 284.717 99.1352 273.954 99.1352H266.608L268.316 106.631ZM290.697 112.955C291.38 113.658 291.38 115.766 290.697 117.171C289.672 119.279 287.792 119.514 283.009 117.64C279.421 116.469 277.029 114.36 277.542 113.189C278.054 112.252 277.371 110.613 276.346 109.91C275.15 109.207 277.542 109.441 281.813 110.144C286.084 110.847 290.013 112.018 290.697 112.955Z" stroke="black" stroke-width="7"/>
<path d="M229.876 107.333C223.384 110.378 217.404 113.892 216.55 115.063C215.525 116.468 216.721 122.09 219.454 129.586C222.871 138.955 224.58 141.297 226.801 140.126C228.338 139.189 235.001 135.91 241.323 132.631C248.156 129.117 252.598 125.604 252.086 123.964C251.573 122.559 250.207 116.937 249.011 111.315C246.619 99.8379 245.765 99.6036 229.876 107.333ZM242.177 118.108C242.519 120.685 240.81 123.027 237.222 124.667C229.363 128.414 227.484 127.946 225.263 121.856C224.238 119.045 223.896 117.405 224.409 118.342C225.092 119.045 228.168 118.342 231.072 116.468C237.735 112.487 241.493 113.189 242.177 118.108Z" stroke="black" stroke-width="7"/>
<path d="M190.923 139.423C186.481 145.045 181.698 152.306 180.16 155.586C177.427 161.676 177.597 161.91 186.481 172.919C193.657 181.82 195.707 183.225 197.245 180.649C198.099 178.775 201.857 172.45 205.445 166.36L212.108 155.586L206.299 142.703C203.224 135.441 200.32 129.586 199.807 129.586C199.295 129.586 195.365 134.036 190.923 139.423ZM202.199 154.18C201.345 160.739 195.365 168 192.29 166.36C186.823 163.55 186.994 157.225 192.803 150.198C197.245 144.811 198.611 144.108 200.491 146.45C201.857 148.09 202.541 151.604 202.199 154.18Z" stroke="black" stroke-width="7"/>
<path d="M222.017 324H252.769V286.288L265.924 305.261L279.079 324H323.67L304.877 298.234C292.747 281.604 287.28 272.468 289.159 272.468C295.139 272.468 305.731 262.865 310.344 253.496C313.932 246 314.957 240.613 315.64 226.09C316.836 199.153 310.173 182.054 294.626 171.982C287.622 167.532 284.034 167.063 254.478 167.063H222.017V324ZM292.234 181.117C295.822 183.694 301.289 190.252 304.023 195.64C308.294 203.604 309.148 207.586 309.148 218.595C309.148 241.784 305.219 251.153 290.868 263.802C281.984 271.532 281.471 277.153 288.476 286.757C291.209 290.505 293.089 293.55 292.576 293.55C292.064 293.55 294.455 297.297 297.872 301.748C301.46 306.198 303.681 310.883 303.169 312.288C301.802 315.333 285.913 315.333 281.813 312.288C280.104 311.117 274.125 303.856 268.487 296.126C261.482 286.757 257.211 282.541 254.307 282.775C249.352 283.009 245.935 291.441 245.935 303.153C245.935 312.054 243.885 314.631 236.71 314.631C229.022 314.631 228.851 312.523 228.851 246.468C228.851 212.036 229.363 182.288 229.876 180.18C230.73 176.901 234.83 176.432 258.065 176.432C282.155 176.432 286.255 176.901 292.234 181.117Z" stroke="black" stroke-width="7"/>
<path d="M248.669 202.901C245.423 207.586 244.74 210.865 244.569 225.387C244.398 240.378 244.91 243.189 248.498 248.108C251.915 252.793 254.307 253.73 263.02 253.73C275.321 253.73 282.496 249.279 286.084 239.676C289.33 230.775 289.33 222.577 285.913 212.505C282.155 201.73 275.662 197.514 263.02 197.514C254.478 197.514 251.915 198.45 248.669 202.901ZM279.25 213.91C282.496 222.577 282.496 232.649 279.079 239.207C276.858 243.658 274.979 244.36 263.703 244.36H251.061V206.883H263.874C276.175 206.883 276.688 207.117 279.25 213.91Z" stroke="black" stroke-width="7"/>
<path d="M162.563 202.901C160.513 212.27 158.463 223.514 157.95 228.198L156.925 236.396L168.372 242.721C174.693 246.234 180.16 248.811 180.331 248.342C180.502 248.108 181.698 238.973 182.894 227.964L185.285 207.82L175.718 197.045L166.151 186.036L162.563 202.901ZM176.914 218.36C177.085 228.198 174.01 233.586 169.397 231.712C165.126 229.838 164.613 223.514 167.518 211.802C169.397 204.775 169.739 204.541 173.155 207.586C175.376 209.694 176.743 213.676 176.914 218.36Z" stroke="black" stroke-width="7"/>
<path d="M10.34 217.658C6.41061 231.478 3.50624 242.955 3.67708 243.189C5.21469 244.36 31.354 258.18 31.6957 257.712C31.8665 257.477 34.7709 247.64 38.3586 236.162C41.7755 224.45 45.5341 213.676 46.3884 212.036C48.7802 208.288 49.1219 208.757 34.9417 201.73C28.4496 198.216 21.7867 194.937 20.2491 194.234C18.1989 193.063 16.1488 197.982 10.34 217.658ZM30.4998 209.459C36.821 212.505 37.3336 217.189 32.3791 230.072C30.6706 234.991 29.4747 239.676 29.9872 240.378C32.3791 243.658 23.3243 244.126 18.7115 240.847C12.561 236.631 12.3902 234.523 17.1738 218.829C21.1033 206.18 21.9575 205.478 30.4998 209.459Z" stroke="black" stroke-width="7"/>
<path d="M155.388 277.856C155.388 284.883 155.9 295.189 156.413 301.045L157.438 311.586L169.739 315.568C176.401 317.676 183.577 320.018 185.627 320.721C189.215 322.126 189.386 321.658 187.848 315.099C187.165 311.117 185.969 301.279 185.285 293.081L184.089 278.09L171.959 272.703C165.126 269.892 158.634 266.847 157.609 266.378C155.9 265.441 155.388 268.487 155.388 277.856ZM173.497 283.712C175.547 285.117 177.768 289.333 178.452 292.847C181.014 305.496 180.673 306.667 174.693 306.901C167.688 307.135 162.221 298.703 162.221 287.694C162.221 280.901 162.734 279.964 166.151 280.432C168.201 280.901 171.618 282.306 173.497 283.712Z" stroke="black" stroke-width="7"/>
</svg>
