<svg width="331" height="328" viewBox="0 0 331 328" fill="none" xmlns="http://www.w3.org/2000/svg">
<path d="M203.554 5.91001C195.525 7.08118 188.862 8.48658 188.52 8.95505C188.178 9.42352 189.374 15.0451 191.083 21.8379L194.158 33.7839L210.73 33.0812C219.955 32.6127 227.473 32.3785 227.473 32.3785C227.473 32.3785 225.935 26.0541 224.226 18.3244C222.518 10.8289 220.468 4.27037 219.614 4.03613C218.759 3.8019 211.584 4.73884 203.554 5.91001ZM215.684 18.5587C217.051 20.901 216.538 21.8379 212.609 23.0091C210.046 23.946 206.971 24.883 205.775 25.3514C204.579 25.8199 202.358 24.4145 200.821 22.3064C197.916 18.5587 198.087 18.3244 201.162 17.6217C202.871 17.1532 205.092 15.9821 205.775 14.8109C207.655 12.4686 213.122 14.5767 215.684 18.5587Z" fill="#1D4ED8"/>
<path d="M266.425 26.2883L265.913 40.5766L274.455 44.3244C279.239 46.4325 286.585 50.6487 290.856 53.4595L298.886 58.6126L299.911 44.7928C300.594 37.0631 300.936 30.5045 300.594 30.2703C300.253 30.0361 293.59 26.2883 285.56 22.0721C277.53 17.8559 270.184 13.8739 268.988 13.1712C267.792 12.4685 266.938 16.6847 266.425 26.2883ZM289.489 35.4235C294.273 41.2793 289.489 42.919 281.972 37.7658C278.384 35.4235 275.309 32.3784 275.309 30.973C275.309 27.4595 285.56 30.7388 289.489 35.4235Z" fill="#1D4ED8"/>
<path d="M132.312 32.6127L118.303 43.1532L124.624 56.5046C128.041 63.7658 130.945 70.0901 131.116 70.5586C131.287 70.7928 136.754 66.8109 143.246 61.6577C149.909 56.5046 156.059 52.2883 157.255 52.2883C158.28 52.2883 159.135 51.3514 159.135 50.1802C159.135 47.3694 148.371 21.8379 147.175 22.0721C146.663 22.0721 140 26.7568 132.312 32.6127ZM148.03 40.8109C148.713 43.3874 148.884 45.964 148.542 46.1982C148.371 46.4325 145.125 49.2433 141.537 52.2883C135.558 56.973 134.704 57.2073 132.312 53.928C128.724 49.0091 130.603 43.6217 137.266 39.6397C145.125 34.955 146.834 35.1892 148.03 40.8109Z" fill="#1D4ED8"/>
<path d="M212.951 53.928C202.187 55.5676 184.078 62.3604 172.631 68.6847C114.373 101.712 59.361 200.324 42.2765 302.45L39.8846 316.973H139.829L140.854 278.793C141.879 234.991 145.979 209.459 157.426 177.604C174.511 129.586 200.821 98.6667 235.161 86.2523C253.783 79.4595 292.735 81.8018 309.991 90.937C311.699 91.8739 312.895 91.6397 312.895 90C312.895 88.5946 306.916 83.4415 299.74 78.2883C271.209 58.8469 238.748 49.4775 212.951 53.928ZM253.612 66.8109C258.054 67.982 262.154 70.3244 262.837 71.7298C263.35 72.9009 263.008 73.3694 261.983 72.6667C259.591 70.5586 233.965 75.4775 231.402 78.5226C230.206 79.928 229.181 80.1622 229.181 79.2253C229.181 78.2883 228.156 78.7568 226.96 80.1622C225.593 81.5676 224.056 82.0361 223.543 81.0991C222.86 80.3964 222.347 80.8649 222.347 82.5045C222.347 84.1442 221.322 85.0811 220.297 84.3784C218.247 83.4415 199.966 95.6217 193.816 102.18C189.374 106.631 168.873 134.973 165.285 141.297C155.376 158.396 141.537 201.027 138.804 222.108C137.95 228.432 136.754 236.396 136.07 239.676C135.387 242.955 134.362 259.117 133.849 275.982L132.654 306.432H50.6479L50.477 297.063C50.477 291.91 50.9896 286.523 51.6729 285.351C53.0397 282.541 56.6274 267.315 56.6274 264.739C56.4566 263.802 57.6525 260.054 59.0193 256.541C64.9989 241.081 77.8122 203.135 77.4706 201.496C77.2997 200.559 77.8122 199.856 78.4956 199.856C80.3749 199.856 91.8215 175.964 91.1382 173.387C90.9673 172.45 91.4799 171.748 92.1632 171.748C93.0175 171.748 96.2635 166.829 99.5096 160.505C106.173 147.856 130.603 114.126 137.779 107.568C140.512 104.991 143.588 102.18 144.613 101.009C145.467 100.072 148.713 96.5586 151.617 93.2793C154.693 90 158.109 87.4235 159.476 87.4235C160.843 87.4235 162.551 86.4865 163.406 85.3154C165.797 82.5045 191.766 67.7478 195.866 67.0451C197.746 66.5766 204.75 65.4054 211.242 64.2343C224.397 62.1262 241.14 63.0631 253.612 66.8109Z" fill="#1D4ED8"/>
<path d="M66.1948 105.225C59.7027 114.829 54.7482 123.027 55.0898 123.261C55.4315 123.73 60.0444 128.883 65.3406 134.739L74.9079 145.748L97.4594 111.55L88.4046 99.3694C83.621 92.8109 79.179 87.4235 78.8373 87.4235C78.3248 87.6577 72.6869 95.6217 66.1948 105.225ZM84.646 106.865C87.3796 109.676 87.2087 110.378 82.2542 119.748C76.4455 130.757 71.8327 132.396 67.9032 124.667C65.5114 119.982 65.6822 119.045 70.8076 111.784C76.7872 103.351 80.0332 102.18 84.646 106.865Z" fill="#1D4ED8"/>
<path d="M268.646 106.631C269.5 110.847 270.184 117.171 270.184 120.45C270.184 126.306 270.696 126.541 284.535 128.649L298.886 130.757L299.911 120.45C300.423 114.829 300.936 108.973 300.936 107.333C300.936 104.054 285.047 99.1352 274.284 99.1352H266.938L268.646 106.631ZM291.027 112.955C291.71 113.658 291.71 115.766 291.027 117.171C290.002 119.279 288.123 119.514 283.339 117.64C279.751 116.469 277.359 114.36 277.872 113.189C278.384 112.252 277.701 110.613 276.676 109.91C275.48 109.207 277.872 109.441 282.143 110.144C286.414 110.847 290.344 112.018 291.027 112.955Z" fill="#1D4ED8"/>
<path d="M230.206 107.333C223.714 110.378 217.734 113.892 216.88 115.063C215.855 116.468 217.051 122.09 219.785 129.586C223.201 138.955 224.91 141.297 227.131 140.126C228.668 139.189 235.331 135.91 241.653 132.631C248.486 129.117 252.928 125.604 252.416 123.964C251.903 122.559 250.537 116.937 249.341 111.315C246.949 99.8379 246.095 99.6036 230.206 107.333ZM242.507 118.108C242.849 120.685 241.14 123.027 237.552 124.667C229.694 128.414 227.814 127.946 225.593 121.856C224.568 119.045 224.226 117.405 224.739 118.342C225.422 119.045 228.498 118.342 231.402 116.468C238.065 112.487 241.824 113.189 242.507 118.108Z" fill="#1D4ED8"/>
<path d="M191.253 139.423C186.811 145.045 182.028 152.306 180.49 155.586C177.757 161.676 177.927 161.91 186.811 172.919C193.987 181.82 196.037 183.225 197.575 180.649C198.429 178.775 202.187 172.45 205.775 166.36L212.438 155.586L206.629 142.703C203.554 135.441 200.65 129.586 200.137 129.586C199.625 129.586 195.695 134.036 191.253 139.423ZM202.529 154.18C201.675 160.739 195.695 168 192.62 166.36C187.153 163.55 187.324 157.225 193.133 150.198C197.575 144.811 198.941 144.108 200.821 146.45C202.187 148.09 202.871 151.604 202.529 154.18Z" fill="#1D4ED8"/>
<path d="M222.347 324H253.099V286.288L266.254 305.261L279.409 324H324L305.207 298.234C293.077 281.604 287.61 272.468 289.489 272.468C295.469 272.468 306.061 262.865 310.674 253.496C314.262 246 315.287 240.613 315.97 226.09C317.166 199.153 310.503 182.054 294.956 171.982C287.952 167.532 284.364 167.063 254.808 167.063H222.347V324ZM292.565 181.117C296.152 183.694 301.619 190.252 304.353 195.64C308.624 203.604 309.478 207.586 309.478 218.595C309.478 241.784 305.549 251.153 291.198 263.802C282.314 271.532 281.801 277.153 288.806 286.757C291.539 290.505 293.419 293.55 292.906 293.55C292.394 293.55 294.785 297.297 298.202 301.748C301.79 306.198 304.011 310.883 303.499 312.288C302.132 315.333 286.243 315.333 282.143 312.288C280.435 311.117 274.455 303.856 268.817 296.126C261.812 286.757 257.541 282.541 254.637 282.775C249.682 283.009 246.265 291.441 246.265 303.153C246.265 312.054 244.215 314.631 237.04 314.631C229.352 314.631 229.181 312.523 229.181 246.468C229.181 212.036 229.694 182.288 230.206 180.18C231.06 176.901 235.161 176.432 258.395 176.432C282.485 176.432 286.585 176.901 292.565 181.117Z" fill="#1D4ED8"/>
<path d="M248.999 202.901C245.753 207.586 245.07 210.865 244.899 225.387C244.728 240.378 245.24 243.189 248.828 248.108C252.245 252.793 254.637 253.73 263.35 253.73C275.651 253.73 282.826 249.279 286.414 239.676C289.66 230.775 289.66 222.577 286.243 212.505C282.485 201.73 275.993 197.514 263.35 197.514C254.808 197.514 252.245 198.45 248.999 202.901ZM279.58 213.91C282.826 222.577 282.826 232.649 279.409 239.207C277.188 243.658 275.309 244.36 264.033 244.36H251.391V206.883H264.204C276.505 206.883 277.018 207.117 279.58 213.91Z" fill="#1D4ED8"/>
<path d="M162.893 202.901C160.843 212.27 158.793 223.514 158.28 228.198L157.255 236.396L168.702 242.721C175.023 246.234 180.49 248.811 180.661 248.342C180.832 248.108 182.028 238.973 183.224 227.964L185.616 207.82L176.048 197.045L166.481 186.036L162.893 202.901ZM177.244 218.36C177.415 228.198 174.34 233.586 169.727 231.712C165.456 229.838 164.943 223.514 167.848 211.802C169.727 204.775 170.069 204.541 173.486 207.586C175.706 209.694 177.073 213.676 177.244 218.36Z" fill="#1D4ED8"/>
<path d="M10.6701 217.658C6.74068 231.478 3.83632 242.955 4.00716 243.189C5.54477 244.36 31.6841 258.18 32.0258 257.712C32.1966 257.477 35.101 247.64 38.6887 236.162C42.1056 224.45 45.8642 213.676 46.7184 212.036C49.1103 208.288 49.452 208.757 35.2718 201.73C28.7797 198.216 22.1167 194.937 20.5791 194.234C18.529 193.063 16.4789 197.982 10.6701 217.658ZM30.8298 209.459C37.1511 212.505 37.6636 217.189 32.7091 230.072C31.0007 234.991 29.8048 239.676 30.3173 240.378C32.7091 243.658 23.6543 244.126 19.0415 240.847C12.8911 236.631 12.7203 234.523 17.5039 218.829C21.4334 206.18 22.2876 205.478 30.8298 209.459Z" fill="#1D4ED8"/>
<path d="M155.718 277.856C155.718 284.883 156.23 295.189 156.743 301.045L157.768 311.586L170.069 315.568C176.732 317.676 183.907 320.018 185.957 320.721C189.545 322.126 189.716 321.658 188.178 315.099C187.495 311.117 186.299 301.279 185.615 293.081L184.42 278.09L172.29 272.703C165.456 269.892 158.964 266.847 157.939 266.378C156.23 265.441 155.718 268.487 155.718 277.856ZM173.827 283.712C175.877 285.117 178.098 289.333 178.782 292.847C181.344 305.496 181.003 306.667 175.023 306.901C168.018 307.135 162.551 298.703 162.551 287.694C162.551 280.901 163.064 279.964 166.481 280.432C168.531 280.901 171.948 282.306 173.827 283.712Z" fill="#1D4ED8"/>
<path d="M203.554 5.91001C195.525 7.08118 188.862 8.48658 188.52 8.95505C188.178 9.42352 189.374 15.0451 191.083 21.8379L194.158 33.7839L210.73 33.0812C219.955 32.6127 227.473 32.3785 227.473 32.3785C227.473 32.3785 225.935 26.0541 224.226 18.3244C222.518 10.8289 220.468 4.27037 219.614 4.03613C218.759 3.8019 211.584 4.73884 203.554 5.91001ZM215.684 18.5587C217.051 20.901 216.538 21.8379 212.609 23.0091C210.046 23.946 206.971 24.883 205.775 25.3514C204.579 25.8199 202.358 24.4145 200.821 22.3064C197.916 18.5587 198.087 18.3244 201.162 17.6217C202.871 17.1532 205.092 15.9821 205.775 14.8109C207.655 12.4686 213.122 14.5767 215.684 18.5587Z" stroke="#1D4ED8" stroke-width="7"/>
<path d="M266.425 26.2883L265.913 40.5766L274.455 44.3244C279.239 46.4325 286.585 50.6487 290.856 53.4595L298.886 58.6126L299.911 44.7928C300.594 37.0631 300.936 30.5045 300.594 30.2703C300.253 30.0361 293.59 26.2883 285.56 22.0721C277.53 17.8559 270.184 13.8739 268.988 13.1712C267.792 12.4685 266.938 16.6847 266.425 26.2883ZM289.489 35.4235C294.273 41.2793 289.489 42.919 281.972 37.7658C278.384 35.4235 275.309 32.3784 275.309 30.973C275.309 27.4595 285.56 30.7388 289.489 35.4235Z" stroke="#1D4ED8" stroke-width="7"/>
<path d="M132.312 32.6127L118.303 43.1532L124.624 56.5046C128.041 63.7658 130.945 70.0901 131.116 70.5586C131.287 70.7928 136.754 66.8109 143.246 61.6577C149.909 56.5046 156.059 52.2883 157.255 52.2883C158.28 52.2883 159.135 51.3514 159.135 50.1802C159.135 47.3694 148.371 21.8379 147.175 22.0721C146.663 22.0721 140 26.7568 132.312 32.6127ZM148.03 40.8109C148.713 43.3874 148.884 45.964 148.542 46.1982C148.371 46.4325 145.125 49.2433 141.537 52.2883C135.558 56.973 134.704 57.2073 132.312 53.928C128.724 49.0091 130.603 43.6217 137.266 39.6397C145.125 34.955 146.834 35.1892 148.03 40.8109Z" stroke="#1D4ED8" stroke-width="7"/>
<path d="M212.951 53.928C202.187 55.5676 184.078 62.3604 172.631 68.6847C114.373 101.712 59.361 200.324 42.2765 302.45L39.8846 316.973H139.829L140.854 278.793C141.879 234.991 145.979 209.459 157.426 177.604C174.511 129.586 200.821 98.6667 235.161 86.2523C253.783 79.4595 292.735 81.8018 309.991 90.937C311.699 91.8739 312.895 91.6397 312.895 90C312.895 88.5946 306.916 83.4415 299.74 78.2883C271.209 58.8469 238.748 49.4775 212.951 53.928ZM253.612 66.8109C258.054 67.982 262.154 70.3244 262.837 71.7298C263.35 72.9009 263.008 73.3694 261.983 72.6667C259.591 70.5586 233.965 75.4775 231.402 78.5226C230.206 79.928 229.181 80.1622 229.181 79.2253C229.181 78.2883 228.156 78.7568 226.96 80.1622C225.593 81.5676 224.056 82.0361 223.543 81.0991C222.86 80.3964 222.347 80.8649 222.347 82.5045C222.347 84.1442 221.322 85.0811 220.297 84.3784C218.247 83.4415 199.966 95.6217 193.816 102.18C189.374 106.631 168.873 134.973 165.285 141.297C155.376 158.396 141.537 201.027 138.804 222.108C137.95 228.432 136.754 236.396 136.07 239.676C135.387 242.955 134.362 259.117 133.849 275.982L132.654 306.432H50.6479L50.477 297.063C50.477 291.91 50.9896 286.523 51.6729 285.351C53.0397 282.541 56.6274 267.315 56.6274 264.739C56.4566 263.802 57.6525 260.054 59.0193 256.541C64.9989 241.081 77.8122 203.135 77.4706 201.496C77.2997 200.559 77.8122 199.856 78.4956 199.856C80.3749 199.856 91.8215 175.964 91.1382 173.387C90.9673 172.45 91.4799 171.748 92.1632 171.748C93.0175 171.748 96.2635 166.829 99.5096 160.505C106.173 147.856 130.603 114.126 137.779 107.568C140.512 104.991 143.588 102.18 144.613 101.009C145.467 100.072 148.713 96.5586 151.617 93.2793C154.693 90 158.109 87.4235 159.476 87.4235C160.843 87.4235 162.551 86.4865 163.406 85.3154C165.797 82.5045 191.766 67.7478 195.866 67.0451C197.746 66.5766 204.75 65.4054 211.242 64.2343C224.397 62.1262 241.14 63.0631 253.612 66.8109Z" stroke="#1D4ED8" stroke-width="7"/>
<path d="M66.1948 105.225C59.7027 114.829 54.7482 123.027 55.0898 123.261C55.4315 123.73 60.0444 128.883 65.3406 134.739L74.9079 145.748L97.4594 111.55L88.4046 99.3694C83.621 92.8109 79.179 87.4235 78.8373 87.4235C78.3248 87.6577 72.6869 95.6217 66.1948 105.225ZM84.646 106.865C87.3796 109.676 87.2087 110.378 82.2542 119.748C76.4455 130.757 71.8327 132.396 67.9032 124.667C65.5114 119.982 65.6822 119.045 70.8076 111.784C76.7872 103.351 80.0332 102.18 84.646 106.865Z" stroke="#1D4ED8" stroke-width="7"/>
<path d="M268.646 106.631C269.5 110.847 270.184 117.171 270.184 120.45C270.184 126.306 270.696 126.541 284.535 128.649L298.886 130.757L299.911 120.45C300.423 114.829 300.936 108.973 300.936 107.333C300.936 104.054 285.047 99.1352 274.284 99.1352H266.938L268.646 106.631ZM291.027 112.955C291.71 113.658 291.71 115.766 291.027 117.171C290.002 119.279 288.123 119.514 283.339 117.64C279.751 116.469 277.359 114.36 277.872 113.189C278.384 112.252 277.701 110.613 276.676 109.91C275.48 109.207 277.872 109.441 282.143 110.144C286.414 110.847 290.344 112.018 291.027 112.955Z" stroke="#1D4ED8" stroke-width="7"/>
<path d="M230.206 107.333C223.714 110.378 217.734 113.892 216.88 115.063C215.855 116.468 217.051 122.09 219.785 129.586C223.201 138.955 224.91 141.297 227.131 140.126C228.668 139.189 235.331 135.91 241.653 132.631C248.486 129.117 252.928 125.604 252.416 123.964C251.903 122.559 250.537 116.937 249.341 111.315C246.949 99.8379 246.095 99.6036 230.206 107.333ZM242.507 118.108C242.849 120.685 241.14 123.027 237.552 124.667C229.694 128.414 227.814 127.946 225.593 121.856C224.568 119.045 224.226 117.405 224.739 118.342C225.422 119.045 228.498 118.342 231.402 116.468C238.065 112.487 241.824 113.189 242.507 118.108Z" stroke="#1D4ED8" stroke-width="7"/>
<path d="M191.253 139.423C186.811 145.045 182.028 152.306 180.49 155.586C177.757 161.676 177.927 161.91 186.811 172.919C193.987 181.82 196.037 183.225 197.575 180.649C198.429 178.775 202.187 172.45 205.775 166.36L212.438 155.586L206.629 142.703C203.554 135.441 200.65 129.586 200.137 129.586C199.625 129.586 195.695 134.036 191.253 139.423ZM202.529 154.18C201.675 160.739 195.695 168 192.62 166.36C187.153 163.55 187.324 157.225 193.133 150.198C197.575 144.811 198.941 144.108 200.821 146.45C202.187 148.09 202.871 151.604 202.529 154.18Z" stroke="#1D4ED8" stroke-width="7"/>
<path d="M222.347 324H253.099V286.288L266.254 305.261L279.409 324H324L305.207 298.234C293.077 281.604 287.61 272.468 289.489 272.468C295.469 272.468 306.061 262.865 310.674 253.496C314.262 246 315.287 240.613 315.97 226.09C317.166 199.153 310.503 182.054 294.956 171.982C287.952 167.532 284.364 167.063 254.808 167.063H222.347V324ZM292.565 181.117C296.152 183.694 301.619 190.252 304.353 195.64C308.624 203.604 309.478 207.586 309.478 218.595C309.478 241.784 305.549 251.153 291.198 263.802C282.314 271.532 281.801 277.153 288.806 286.757C291.539 290.505 293.419 293.55 292.906 293.55C292.394 293.55 294.785 297.297 298.202 301.748C301.79 306.198 304.011 310.883 303.499 312.288C302.132 315.333 286.243 315.333 282.143 312.288C280.435 311.117 274.455 303.856 268.817 296.126C261.812 286.757 257.541 282.541 254.637 282.775C249.682 283.009 246.265 291.441 246.265 303.153C246.265 312.054 244.215 314.631 237.04 314.631C229.352 314.631 229.181 312.523 229.181 246.468C229.181 212.036 229.694 182.288 230.206 180.18C231.06 176.901 235.161 176.432 258.395 176.432C282.485 176.432 286.585 176.901 292.565 181.117Z" stroke="#1D4ED8" stroke-width="7"/>
<path d="M248.999 202.901C245.753 207.586 245.07 210.865 244.899 225.387C244.728 240.378 245.24 243.189 248.828 248.108C252.245 252.793 254.637 253.73 263.35 253.73C275.651 253.73 282.826 249.279 286.414 239.676C289.66 230.775 289.66 222.577 286.243 212.505C282.485 201.73 275.993 197.514 263.35 197.514C254.808 197.514 252.245 198.45 248.999 202.901ZM279.58 213.91C282.826 222.577 282.826 232.649 279.409 239.207C277.188 243.658 275.309 244.36 264.033 244.36H251.391V206.883H264.204C276.505 206.883 277.018 207.117 279.58 213.91Z" stroke="#1D4ED8" stroke-width="7"/>
<path d="M162.893 202.901C160.843 212.27 158.793 223.514 158.28 228.198L157.255 236.396L168.702 242.721C175.023 246.234 180.49 248.811 180.661 248.342C180.832 248.108 182.028 238.973 183.224 227.964L185.616 207.82L176.048 197.045L166.481 186.036L162.893 202.901ZM177.244 218.36C177.415 228.198 174.34 233.586 169.727 231.712C165.456 229.838 164.943 223.514 167.848 211.802C169.727 204.775 170.069 204.541 173.486 207.586C175.706 209.694 177.073 213.676 177.244 218.36Z" stroke="#1D4ED8" stroke-width="7"/>
<path d="M10.6701 217.658C6.74068 231.478 3.83632 242.955 4.00716 243.189C5.54477 244.36 31.6841 258.18 32.0258 257.712C32.1966 257.477 35.101 247.64 38.6887 236.162C42.1056 224.45 45.8642 213.676 46.7184 212.036C49.1103 208.288 49.452 208.757 35.2718 201.73C28.7797 198.216 22.1167 194.937 20.5791 194.234C18.529 193.063 16.4789 197.982 10.6701 217.658ZM30.8298 209.459C37.1511 212.505 37.6636 217.189 32.7091 230.072C31.0007 234.991 29.8048 239.676 30.3173 240.378C32.7091 243.658 23.6543 244.126 19.0415 240.847C12.8911 236.631 12.7203 234.523 17.5039 218.829C21.4334 206.18 22.2876 205.478 30.8298 209.459Z" stroke="#1D4ED8" stroke-width="7"/>
<path d="M155.718 277.856C155.718 284.883 156.23 295.189 156.743 301.045L157.768 311.586L170.069 315.568C176.732 317.676 183.907 320.018 185.957 320.721C189.545 322.126 189.716 321.658 188.178 315.099C187.495 311.117 186.299 301.279 185.615 293.081L184.42 278.09L172.29 272.703C165.456 269.892 158.964 266.847 157.939 266.378C156.23 265.441 155.718 268.487 155.718 277.856ZM173.827 283.712C175.877 285.117 178.098 289.333 178.782 292.847C181.344 305.496 181.003 306.667 175.023 306.901C168.018 307.135 162.551 298.703 162.551 287.694C162.551 280.901 163.064 279.964 166.481 280.432C168.531 280.901 171.948 282.306 173.827 283.712Z" stroke="#1D4ED8" stroke-width="7"/>
</svg>
