<svg width="320" height="320" viewBox="0 0 320 320" fill="none" xmlns="http://www.w3.org/2000/svg">
<path d="M63.8632 17.1565C56.7521 26.6539 39.3846 49.6314 25.4359 68.1666C11.4872 86.7018 0 102.939 0 104.165C0 106.003 17.3675 129.899 53.0598 177.08C78.359 210.474 137.846 289.517 148.786 304.375L160.274 320L170.12 306.52C178.598 294.725 192.957 275.577 239.453 213.691C264.342 180.756 295.248 139.55 305.641 125.61C311.658 117.645 317.265 110.139 318.222 109.067C319.179 107.994 320 105.85 320 104.318C320 102.939 313.299 92.8291 305.094 81.9531C296.889 70.9239 279.795 48.2528 267.077 31.4026L243.966 0.765917L160.41 0.306367L76.7179 0L63.8632 17.1565ZM84.7863 11.4888C83.1453 14.5524 82.0513 17.9225 82.4615 18.9947C83.6923 22.3648 82.0513 22.9775 78.4957 20.5266C76.4444 18.9947 74.2564 18.5352 72.2051 19.3011C69.3333 20.2202 69.1966 20.067 71.1111 17.4629C76.8547 9.03782 80 6.12733 83.8291 6.12733H87.7949L84.7863 11.4888ZM172.308 6.58688C172.308 6.89325 171.35 9.34418 170.12 11.9483C168.479 15.7779 168.342 17.4629 169.709 20.2202C170.94 22.8243 170.256 22.3648 167.248 18.6884C162.735 13.327 158.632 12.4079 155.897 16.0843C153.436 19.4543 152.615 18.9947 150.427 13.327C149.47 10.7228 148.376 7.96553 147.966 7.19962C147.692 6.58688 153.026 6.12733 159.863 6.12733C166.701 6.12733 172.308 6.4337 172.308 6.58688ZM243.556 10.2633C245.47 12.7142 247.795 15.7779 248.752 17.1565C250.393 19.6075 250.256 19.7607 246.564 18.9947C243.829 18.382 242.051 18.8415 240.821 20.5266C238.769 23.2839 236.308 22.3648 237.402 19.1479C237.812 17.9225 236.855 14.5524 235.214 11.4888L232.205 6.12733H236.171C238.769 6.12733 241.368 7.65917 243.556 10.2633ZM147.692 13.327C147.692 13.6333 140.718 24.203 132.239 37.0704C123.761 49.9378 112.821 66.6348 108.034 74.2939L99.1453 88.0804L97.5043 76.5917C95.7265 63.5711 95.3162 61.1202 91.7607 40.2872C90.2564 32.0153 88.7521 22.518 88.3419 19.1479L87.3846 13.0206H117.607C134.154 13.0206 147.692 13.1738 147.692 13.327ZM232.479 13.7865C232.479 14.3992 231.521 20.5266 226.872 49.0187C226.188 53.6142 225.231 59.1288 224.957 61.2733C224.547 63.4179 223.59 70.158 222.632 76.2853L220.855 87.6209L210.598 71.6898C204.991 63.1115 194.188 46.4146 186.393 34.9258C178.598 23.2839 172.308 13.6333 172.308 13.4801C172.308 13.1738 185.846 13.0206 202.393 13.0206C218.94 13.0206 232.479 13.327 232.479 13.7865ZM167.521 28.6453C171.214 34.4663 182.701 51.9292 193.094 67.707C203.487 83.4849 211.966 96.6587 211.966 97.1182C211.966 97.5778 188.581 98.0373 160 98.0373C131.419 98.0373 108.034 97.731 108.034 97.2714C108.034 96.9651 118.427 80.8808 131.009 61.7329C143.726 42.585 155.077 24.9689 156.444 22.518C157.812 20.2202 159.316 18.382 159.863 18.382C160.41 18.382 163.829 22.9775 167.521 28.6453ZM77.812 30.0239C77.812 34.0067 78.359 37.6831 78.7692 38.449C79.1795 39.2149 80.6838 48.2528 82.188 58.6692C83.5556 68.9325 85.6068 81.7999 86.7009 87.0081C87.9316 94.0546 88.0684 96.9651 86.9744 97.4246C86.1538 97.731 70.5641 97.8842 52.3761 97.731L19.4188 97.2714L38.4273 71.9962C48.9573 58.0565 61.265 41.3595 66.0513 34.9258C70.7009 28.4921 75.2137 23.1307 76.0342 23.1307C76.8547 22.9775 77.6752 26.0412 77.812 30.0239ZM258.735 41.0531C275.829 64.337 296.752 92.0632 299.35 94.9737C301.128 96.9651 297.573 97.2714 267.897 97.731C249.573 97.8842 233.846 97.731 233.026 97.4246C231.932 96.9651 232.068 94.0546 233.299 87.0081C234.393 81.7999 235.761 72.9153 236.581 67.4007C237.402 61.8861 238.906 51.9292 240 45.1891C241.094 38.449 242.325 30.7899 242.598 28.3389C242.872 25.7348 243.282 23.5902 243.282 23.2839C243.829 21.5989 247.248 25.5816 258.735 41.0531ZM227.419 90.3782C226.872 94.9737 227.282 97.2714 229.06 99.5692C231.521 102.48 231.385 102.786 226.598 107.994L221.812 113.202L216.752 107.841C211.829 102.786 211.692 102.326 214.017 99.5692C215.932 97.1182 216.068 95.7396 214.974 91.91C213.333 86.855 213.607 86.5486 217.436 89.1527C219.624 90.6845 220.718 90.5314 223.863 87.7741C225.915 85.9359 227.829 84.404 227.966 84.404C227.966 84.2508 227.829 87.0081 227.419 90.3782ZM102.017 88.9995C106.53 86.7018 107.214 87.4677 105.162 92.5227C103.795 95.8928 103.932 96.9651 105.846 99.416C108.171 102.326 108.171 102.633 103.521 107.841L98.8718 113.356L93.812 107.994C89.0256 102.939 88.8889 102.48 90.8034 99.2628C92.0342 97.4246 92.9915 93.4418 92.9915 90.5314C92.9915 85.4763 92.9914 85.3231 95.7265 88.0804C98.0513 90.3782 99.0085 90.5314 102.017 88.9995ZM313.162 104.318C313.026 105.543 310.974 109.22 308.376 112.59C303.726 118.564 303.59 118.564 303.59 114.734C303.59 112.59 302.359 109.526 300.855 107.994C298.256 105.237 298.256 105.237 301.402 100.948C303.59 98.0373 304.41 95.4332 303.863 93.1355C303.316 90.6845 304.274 91.2973 308.103 96.046C310.974 99.416 313.162 103.246 313.162 104.318ZM19.8291 102.02C21.8803 104.318 21.8803 104.777 19.2821 107.841C17.641 109.679 16.4103 112.437 16.4103 113.815C16.4103 117.492 15.5897 117.032 10.9402 111.364C5.88034 105.084 5.88034 103.092 11.2137 96.6587L15.5897 91.4505L16.547 95.4332C17.094 97.731 18.5983 100.641 19.8291 102.02ZM94.2222 119.789C95.8632 125.151 105.162 154.562 114.872 185.352C124.444 216.142 134.838 248.77 137.846 258.114C140.991 267.305 143.316 275.117 143.043 275.424C142.769 275.577 137.983 269.449 132.239 261.637C126.632 253.825 109.265 230.541 93.6752 209.861C19.8291 111.824 20.5128 112.743 20.5128 111.364C20.5128 110.752 36.3761 110.292 55.7949 110.292H91.0769L94.2222 119.789ZM216.068 110.905C216.068 111.364 215.385 113.509 214.564 115.96C213.744 118.258 209.094 132.657 204.444 147.822C199.658 162.987 192.547 185.352 188.718 197.607C180.103 224.72 172.444 249.536 165.47 271.9C162.462 281.551 160 287.831 159.453 286.453C158.222 282.776 146.462 245.859 140.171 225.18C136.889 214.61 131.145 196.381 127.453 184.586C108.991 126.529 105.436 115.5 104.615 112.896C103.658 110.445 106.803 110.292 159.863 110.292C190.769 110.292 216.068 110.598 216.068 110.905ZM299.35 113.202C298.256 114.734 285.812 131.431 271.453 150.273C257.231 169.114 232.615 201.742 216.889 222.882C201.162 243.868 185.436 264.854 182.017 269.45C175.863 277.721 176.137 278.487 183.795 274.811C186.393 273.739 186.393 273.739 184.205 277.415C177.504 287.985 161.778 307.898 160 307.745C158.222 307.745 145.778 291.967 136.205 277.875L133.744 274.198L137.162 275.883C141.538 278.028 144.684 276.802 146.188 272.36C147.282 269.143 147.829 269.909 151.385 278.947C157.812 294.572 162.188 294.572 168.479 279.1C172.034 270.215 172.718 269.603 174.222 272.054C176 274.658 176.137 274.658 177.504 271.594C178.325 269.909 182.154 258.573 185.983 246.472C189.812 234.371 194.735 218.899 196.923 212.159C202.803 193.93 224.137 125.917 226.598 117.492L228.786 110.292H265.026C300.171 110.292 301.128 110.445 299.35 113.202Z" fill="#1D4ED8"/>
</svg>
