<svg width="334" height="334" viewBox="0 0 334 334" fill="none" xmlns="http://www.w3.org/2000/svg">
<path fill-rule="evenodd" clip-rule="evenodd" d="M167 7C124.333 7 97.6667 42.5556 87 113.666C103 78.1108 121.667 64.7778 143 73.6663C155.172 78.738 163.872 93.4551 173.501 109.746C189.188 136.285 207.344 167 247 167C289.667 167 316.333 131.444 327 60.3333C311 95.8885 292.333 109.222 271 100.333C258.829 95.2613 250.129 80.5445 240.499 64.2533C224.813 37.715 206.656 7 167 7ZM87 167C44.3333 167 17.6667 202.555 7 273.667C23 238.11 41.6667 224.777 63 233.666C75.1719 238.738 83.8718 253.455 93.5013 269.745C109.188 296.284 127.344 327 167 327C209.667 327 236.333 291.444 247 220.333C231 255.888 212.333 269.222 191 260.333C178.828 255.261 170.128 240.544 160.499 224.253C144.812 197.715 126.656 167 87 167Z" stroke="#1D4ED8" stroke-width="14" stroke-linejoin="round"/>
</svg>
