<svg width="141" height="84" viewBox="0 0 141 84" fill="none" xmlns="http://www.w3.org/2000/svg">
<path d="M66.5757 0H74.4932L78.8994 0.685714L81.5156 1.23429L83.7876 1.85143L85.5776 2.46857L87.5742 3.29143L89.5708 4.25143L91.1543 5.14286L92.8755 6.24L94.1147 7.13143L95.5605 8.22857L96.3179 8.84571L98.2456 10.4914L98.7275 10.9714L99.2783 11.4514L100.036 12.2057L100.586 12.6857L103.271 15.36V15.4971H103.409V15.6343L103.616 15.7029L104.098 16.2514L104.993 17.1429L105.543 17.6229L106.714 18.7886L107.471 19.4057L108.229 20.0914L109.192 20.8457L110.5 21.8057L111.946 22.6971L113.392 23.4514L114.769 24L116.146 24.4114L118.074 24.8229L120.139 25.0971L120.896 25.1657H122.824L125.372 24.8229L126.886 24.48L128.194 24.0686L129.64 23.52L131.224 22.7657L132.532 22.0114L133.84 21.12L135.01 20.2286L135.905 19.4743L136.594 18.8571L137.558 17.9657L138.04 17.4171L138.728 16.7314L139.348 15.9771L140.036 15.1543L140.656 14.4L141 14.1943V14.6743L140.725 15.2229L139.83 18.0343L139.003 20.2971L138.177 22.2857L137.213 24.2743L136.318 25.9886L135.217 27.7714L134.391 28.9371L133.427 30.24L132.601 31.2L131.843 32.0229L131.361 32.5714L130.535 33.3943L129.984 33.8743L129.227 34.56L128.057 35.4514L127.024 36.2057L125.716 37.0286L123.926 38.0571L122.342 38.8114L120.483 39.5657L118.418 40.2514L116.353 40.8L113.599 41.3486L110.294 41.76L107.815 41.9657H103.409L100.862 41.76L98.0391 41.4171L94.9409 40.8L92.4624 40.1143L90.3281 39.36L88.4004 38.5371L86.8169 37.7829L85.2334 36.8914L83.5811 35.8629L82.2041 34.9029L80.7583 33.8057L79.8633 33.0514L79.106 32.4343L78.4175 31.8171L77.8667 31.3371L76.6963 30.24L71.0508 24.6171L70.5 24.1371L69.8115 23.4514L69.2607 22.9714L68.5723 22.3543L67.8149 21.7371L66.5757 20.7771L65.2676 19.8857L64.3726 19.3371L63.1333 18.6514L61.8252 18.1029L60.1729 17.5543L58.1763 17.1429L56.2485 16.8686L55.4912 16.8H53.0815L51.0161 17.0743L49.1572 17.4857L47.2983 18.1029L45.646 18.8571L44.2002 19.6114L42.7544 20.5714L41.7217 21.3257L40.7578 22.08L39.9316 22.8343L39.3809 23.3143L37.522 25.1657L36.9023 25.92L36.0762 26.9486L35.5942 27.5657L35.3188 27.7029L35.3877 27.0857L35.8696 25.6457L36.6958 23.1086L37.6597 20.5714L38.417 18.8571L39.4497 16.8L40.4136 15.1543L41.0332 14.1943L41.7905 13.0971L42.6167 12L43.5806 10.8343L44.2002 10.08L46.1279 8.16L46.8853 7.54286L47.5737 6.92571L48.8818 5.96571L50.1211 5.14286L51.498 4.32L53.0815 3.49714L54.7339 2.74286L56.3862 2.12571L58.1074 1.57714L60.3105 1.02857L62.3071 0.617143L65.6807 0.137143L66.5757 0Z" fill="#1D4ED8"/>
<path d="M32.4961 42.0343H37.7974L40.5513 42.24L43.5806 42.6514L45.9214 43.1314L47.918 43.68L50.3965 44.5029L52.3931 45.3257L53.9766 46.08L55.5601 46.9714L57.1436 47.9314L58.314 48.7543L59.5532 49.6457L60.6548 50.5371L61.4121 51.1543L62.376 51.9771L63.2021 52.7314L63.8906 53.3486L64.4414 53.8971L64.9922 54.3771L70.9131 60.2743L71.4639 60.7543L72.2212 61.44L72.9785 62.0571L73.8735 62.8114L75.1128 63.7029L76.0767 64.32L77.5225 65.1429L79.0371 65.8286L80.7583 66.3771L82.8926 66.8571L84.5449 67.0629L85.3711 67.1314H87.9873L89.9839 66.8571L91.4985 66.5143L92.8755 66.1029L94.3213 65.5543L96.0425 64.7314L97.5571 63.84L98.7275 63.0171L99.8979 62.1257L100.655 61.5086L101.826 60.4114L103.065 59.1771L103.547 58.6286L104.304 57.8057L105.13 56.64L105.406 56.2971L105.681 56.3657L105.543 57.0514L104.235 61.0286L103.409 63.1543L102.721 64.7314L101.757 66.72L100.862 68.2971L100.036 69.6686L98.9341 71.2457L98.2456 72.1371L97.4883 73.0286L96.8687 73.7829L96.1802 74.4686L95.9048 74.8114H95.7671V74.9486L95.2163 75.4286L94.7344 75.9086L93.9771 76.5257L93.1509 77.2114L91.8428 78.1714L90.397 79.0629L89.3643 79.68L87.6431 80.5714L85.7153 81.3943L83.7876 82.08L81.8599 82.6286L79.3125 83.1771L77.2471 83.52L74.1489 83.8629L72.0835 84H68.5723L66.5068 83.8629L63.4775 83.52L61.8252 83.2457L59.2778 82.6971L57.5566 82.2171L55.4912 81.5314L53.4946 80.7086L51.498 79.7486L49.9834 78.9257L48.6753 78.1029L47.1606 77.0743L46.3345 76.4571L45.0952 75.4971L44.0625 74.6057L43.0986 73.7829L42.0659 72.8229L41.3774 72.2057L35.8008 66.6514L35.25 66.1714L34.4238 65.3486L33.873 64.8686L33.1846 64.2514L32.2207 63.4971L31.188 62.6743L29.9487 61.8514L28.7783 61.1657L27.3325 60.4114L25.6802 59.7943L24.4409 59.4514L22.7197 59.1086L20.5854 58.8343L19.415 58.7657H18.52L16.8677 58.9029L15.2153 59.1771L13.563 59.5886L12.3237 60L10.8779 60.6171L9.77637 61.1657L8.6748 61.7829L7.16016 62.8114L6.33398 63.4286L5.57666 64.0457L4.54395 64.9371L2.40967 67.0629L1.92773 67.6114L1.10156 68.5714L0.550781 69.3257L0.0688477 69.7371H0L0.0688477 69.0514L0.413086 68.2286L1.23926 65.76L1.85889 63.9771L2.8916 61.5086L3.78662 59.5886L4.68164 58.0114L5.23242 57.0514L6.19629 55.6114L7.02246 54.4457L7.84863 53.4171L8.46826 52.6629L9.29443 51.7714L9.91406 51.0857L11.0156 50.0571L12.0483 49.1657L12.9434 48.48L13.9072 47.7943L15.1465 46.9714L16.4546 46.2171L18.1758 45.3257L19.7593 44.64L21.6182 43.9543L23.959 43.2686L26.1621 42.7886L28.8472 42.3771L31.3945 42.1029L32.4961 42.0343Z" fill="#1D4ED8"/>
<path d="M105.406 56.2971L105.681 56.3657L105.543 57.0514L104.235 61.0286L103.547 62.8114H103.271L103.34 62.1257L103.547 61.1657V60.6857L103.409 60.4114L103.065 60.3429L102.514 60.6171L102.101 60.96L101.344 61.5086H101.206V61.6457H101.068V61.7829L100.655 61.8514V61.5086L101.826 60.4114L103.065 59.1771L103.547 58.6286L104.304 57.8057L105.13 56.64L105.406 56.2971Z" fill="#1D4ED8"/>
<path d="M43.1675 19.9543V20.16L42.8232 20.5029L41.7217 21.3257L40.7578 22.08L39.9316 22.8343L39.3809 23.3143L37.522 25.1657L36.9023 25.92L36.0762 26.9486L35.5942 27.5657L35.3188 27.7029L35.3877 27.0857L35.8696 25.6457L36.3516 24.1371L36.6958 23.6571H36.8335L36.7646 24.48L37.5908 24.2057L38.1416 23.7943L38.7612 23.2457L38.8301 23.1086H38.9678L39.1055 22.8343L39.8628 22.1486L40.1382 22.08L40.2759 21.8057L41.0332 21.2571L41.7905 20.8457L42.1348 20.5029L42.6167 20.0914L43.1675 19.9543Z" fill="#1D4ED8"/>
<path d="M109.33 41.5543L109.95 41.6229L109.881 41.76L108.779 41.8971L107.815 41.9657H103.409L102.376 41.8971L102.032 41.76V41.6914L102.927 41.6229H107.747L109.33 41.5543Z" fill="#1D4ED8"/>
<path d="M55.147 16.4571L56.5239 16.5257L57.5566 16.7314L57.9697 16.8686L57.9009 17.0057H57.2812L55.4912 16.8H53.0815L51.9111 16.8686L51.7734 16.7314L53.2192 16.5257L55.147 16.4571Z" fill="#1D4ED8"/>
<path d="M39.8628 16.32L39.9316 16.5257L39.5874 17.0743L39.2432 17.8971L38.9678 18.5143L38.1416 20.16L37.7285 21.2571L37.4531 21.5314L37.522 20.9143L38.1416 19.4743L38.9678 17.76L39.5874 16.5943L39.8628 16.32Z" fill="#1D4ED8"/>
<path d="M102.858 63.7029H102.996L102.927 64.32L102.17 65.8971L101.895 66.1029V65.6229L102.376 64.5257L102.652 63.9771L102.858 63.7029Z" fill="#1D4ED8"/>
<path d="M105.406 56.2971L105.681 56.3657L105.543 57.0514L105.199 58.08L105.062 58.0114L105.13 57.6686H104.855L104.786 57.12L105.337 56.3657L105.406 56.2971Z" fill="#1D4ED8"/>
<path d="M20.3101 58.56L21.6182 58.6286L22.9951 58.9029L23.064 59.04H22.3066L20.2412 58.7657L20.0347 58.6286L20.3101 58.56Z" fill="#1D4ED8"/>
<path d="M7.98633 61.8514L8.26172 61.92L7.98633 62.2629L7.16016 62.8114L6.54053 63.0857L6.67822 62.7429L7.02246 62.4L7.64209 62.1943V62.0571L7.98633 61.8514Z" fill="#1D4ED8"/>
<path d="M2.47852 66.4457L2.61621 66.5829L2.27197 66.9943H2.13428V67.1314L1.85889 67.2686L1.79004 67.5429L1.30811 67.6114L1.51465 67.0629L1.72119 66.8571L1.99658 66.7886L2.27197 66.5143L2.47852 66.4457Z" fill="#1D4ED8"/>
<path d="M36.4204 26.2629L36.5581 26.3314L35.6631 27.4971L35.4565 27.7029H35.3188V27.2914H35.4565L35.5942 27.0171L36.2139 26.4L36.4204 26.2629Z" fill="#1D4ED8"/>
<path d="M39.8628 16.32L39.9316 16.5257L39.5874 17.0743L39.2432 17.8971L39.1055 18.1029H38.9678L39.0366 17.6229L39.5874 16.5943L39.8628 16.32Z" fill="#1D4ED8"/>
<path d="M53.2192 16.5257L53.3569 16.5943L55.0781 16.6629V16.7314L53.0815 16.8L51.9111 16.8686L51.7734 16.7314L53.2192 16.5257Z" fill="#1D4ED8"/>
<path d="M135.699 19.8171V20.0229L135.217 20.4343L134.804 20.9143L134.322 21.1886L134.115 21.12L134.459 20.7771L135.354 20.0914L135.699 19.8171Z" fill="#1D4ED8"/>
<path d="M101.619 66.4457H101.688L101.619 66.9257L101.068 67.9543L100.724 68.0914L100.862 67.68L101.206 67.2686L101.413 66.7886L101.619 66.4457Z" fill="#1D4ED8"/>
<path d="M38.0039 20.16L38.0728 20.3657L37.7285 21.2571L37.4531 21.5314L37.522 20.9143L37.7974 20.3657L38.0039 20.16Z" fill="#1D4ED8"/>
<path d="M3.09814 61.2343L3.16699 61.44L2.8916 62.2629L2.68506 62.4686H2.61621L2.68506 61.9886L3.0293 61.3029L3.09814 61.2343Z" fill="#1D4ED8"/>
<path d="M138.59 17.0057L138.728 17.0743L138.659 17.4857L138.315 17.8286L138.04 17.76L138.315 17.28L138.59 17.0057Z" fill="#1D4ED8"/>
<path d="M123.719 37.7829H124.063L123.719 38.0571L123.1 38.3314L122.893 38.2629L123.168 37.9886L123.719 37.7829Z" fill="#1D4ED8"/>
<path d="M101.206 67.2686L101.275 67.4057L101.068 67.9543L100.724 68.0914L100.862 67.68L101.206 67.2686Z" fill="#1D4ED8"/>
<path d="M135.63 19.7486V19.9543L134.735 20.64L134.597 20.5714L135.492 19.8171L135.63 19.7486Z" fill="#1D4ED8"/>
<path d="M4.68164 64.3886L4.88818 64.4571L4.81934 64.6629L4.19971 64.8686V64.7314L4.54395 64.5943V64.4571L4.68164 64.3886Z" fill="#1D4ED8"/>
</svg>
