<svg width="396" height="109" viewBox="0 0 396 109" fill="none" xmlns="http://www.w3.org/2000/svg">
<path d="M342 42.4V84.8H349.333H356.667V69.4667C356.667 58.1334 357.067 54.1334 358.4 54.1334C359.2 54.1334 364.533 61.0667 370 69.4667L380 84.8H387.733C391.867 84.8 395.333 84.4 395.333 84C395.333 83.6 390.267 76.1334 384 67.3334C377.733 58.5334 372.667 51.0667 372.667 50.8C372.667 50.4 373.6 50.1334 374.667 50.1334C380.267 50.1334 391.333 34.9334 391.333 27.0667C391.333 23.6 391.067 23.4667 384.8 23.4667C378.533 23.4667 378.133 23.7334 377.333 27.4667C376 33.3334 370.533 39.2 364.933 40.8C356.267 43.2 356.667 44 356.667 21.0667V4.44055e-05H349.333H342V42.4ZM351.333 23.8667C351.333 40.4 351.467 41.0667 354.8 44.4C357.467 47.0667 359.067 47.6 362.133 46.9334C369.467 45.4667 375.467 41.7334 378.933 36.5334C382.667 31.0667 383.333 30.5334 383.333 33.3334C383.333 34.4 380 38.6667 375.867 42.8C369.733 49.0667 368.667 51.0667 369.333 53.7334C370 56.5334 376 66.9334 378 68.8C378.4 69.2 379.867 71.2 381.2 73.4667C383.333 76.8 383.467 77.2 381.6 75.6C380.267 74.6667 377.2 70.4 374.667 66.1334C369.2 57.0667 360.267 48.5334 357.467 49.6C353.333 51.2 351.333 56.5334 351.333 66C351.333 71.0667 350.8 75.7334 350 76.1334C349.067 76.6667 348.667 64.2667 348.667 39.8667C348.667 15.4667 349.2 3.46671 350 4.80004C350.667 5.86671 351.333 14.5334 351.333 23.8667Z" fill="white"/>
<path d="M96 23.9999C89.4667 26.7999 83.0667 33.0666 80.4 39.0666C78.9333 42.2666 77.3333 44.5333 76.8 44.2666C76.2667 43.8666 74.4 39.0666 72.8 33.4666L69.7333 23.4666H57.2H44.6667V42.1333C44.6667 63.5999 43.3333 68.6666 36.5333 72.1333C28 76.5333 18 71.8666 15.3333 62.2666C14.6667 59.5999 14 49.8666 14 40.3999V23.4666H7.06667H0L0.4 42.3999C0.666667 64.3999 1.86667 69.7333 7.6 76.2666C14.2667 83.8666 20.8 86.5333 31.4667 85.8666C48.9333 84.9333 58.2667 73.8666 59.2 53.0666C59.3333 47.0666 59.2 39.8666 58.6667 37.0666L57.6 32.1333L55.8667 36.1333C54.9333 38.2666 54.1333 43.8666 54 48.5333C54 53.1999 53.3333 59.5999 52.5333 62.7999C51.0667 68.6666 43.7333 78.1333 40.6667 78.1333C39.7333 78.1333 41.2 75.7333 43.8667 72.7999C46.5333 69.8666 48.6667 66.6666 48.8 65.7333C48.8 64.9333 49.2 62.9333 49.6 61.4666C50 59.9999 50.5333 52.5333 50.9333 44.7999C51.2 36.1333 52.1333 30.5333 53.0667 29.8666C54.6667 28.7999 64.2667 29.1999 65.2 30.2666C65.4667 30.5333 67.2 34.1333 69.0667 38.3999C70.9333 42.5333 73.7333 46.5333 75.2 47.4666C78.2667 49.0666 80.2667 47.5999 87.7333 37.7333C89.7333 35.0666 93.7333 31.7333 96.5333 30.2666L101.733 27.8666L94.6667 34.7999C89.3333 39.9999 87.0667 43.3333 85.4667 48.7999C82 60.6666 82.6667 64.2666 90.4 72.3999L94.5333 76.7999L90.1333 75.0666C86.1333 73.5999 85.6 73.7333 82.6667 77.0666C80.6667 79.4666 78.9333 84.2666 77.4667 92.2666C76.2667 98.6666 75.0667 104.267 74.6667 104.533C72.6667 106.533 72.9333 102.4 75.3333 88.2666C76.8 79.5999 78 70.5333 78 67.9999C78 62.7999 66.2667 37.3333 62.1333 33.5999C60.5333 32.1333 59.3333 31.3333 59.3333 31.7333C59.3333 34.7999 66.6667 53.1999 70 58.5333L74.1333 65.0666L70.6667 83.3333C68.8 93.3333 67.0667 102.933 66.8 104.933C66.1333 108.133 66.4 108.267 73.3333 108.267L80.5333 108.133L82 99.4666C82.8 94.6666 83.8667 87.9999 84.2667 84.3999C84.6667 80.9333 85.3333 78.1333 85.6 78.1333C85.8667 78.1333 88.5333 79.7333 91.6 81.7333C96.5333 85.0666 98.2667 85.4666 108.8 85.4666C119.6 85.4666 120.8 85.1999 126.133 81.4666C147.067 66.7999 144.4 35.0666 121.467 24.6666C115.067 21.7333 102 21.3333 96 23.9999ZM8.66667 45.8666C8.66667 61.5999 10.5333 67.8666 17.3333 74.5333C22 79.0666 19.6 79.3333 14.2667 74.7999C9.46667 70.7999 6.26667 64.3999 6 58.1333C5.33333 45.7333 6.13333 29.9999 7.33333 30.7999C8.13333 31.1999 8.66667 37.8666 8.66667 45.8666ZM130.533 39.8666C134.8 47.0666 135.467 59.1999 132 66.5333C129.467 71.9999 122.933 78.1333 119.733 78.1333C118.533 78.1333 119.333 76.7999 122 74.6666C128.4 69.1999 131.467 61.8666 131.2 53.3333C130.8 44.9333 128.933 40.6666 122.933 34.2666L118.667 29.8666L122.933 31.9999C125.333 33.1999 128.667 36.6666 130.533 39.8666ZM116.133 36.2666C122.533 39.3333 126 45.5999 126 54.2666C126 64.7999 120.533 71.8666 110.933 73.4666C104.667 74.5333 92.8 69.3333 90 64.2666C86.2667 57.1999 92.6667 40.3999 100.667 36.5333C106.4 33.5999 110.267 33.4666 116.133 36.2666Z" fill="white"/>
<path d="M246.667 26C224.667 38.6667 225.333 71.7334 247.867 83.3334C264 91.6 284.933 84 291.867 67.2C294.533 61.0667 294.667 47.4667 292.267 41.7334C284.933 24.4 262.667 16.8 246.667 26ZM259.333 28.1334C259.333 28.4 257.067 29.8667 254.4 31.3334C235.333 41.0667 234.133 65.7334 252 76.9334C254.267 78.2667 255.067 79.4667 254 79.4667C250.267 79.4667 242 72.8 239.333 67.4667C235.6 60.1334 235.733 48.5334 239.733 40.8C242 36.1334 244.267 34 249.867 31.0667C256.933 27.6 259.333 26.8 259.333 28.1334ZM279.2 33.7334C290.267 42.1334 291.867 61.2 282.267 72.2667C279.6 75.3334 276.133 77.4667 270.4 79.4667C267.2 80.5334 267.067 80.5334 269.2 79.0667C279.733 72.4 285.867 63.0667 286 54.1334C286 47.2 280.933 38.1334 274 32.9334C269.6 29.6 268.933 28.6667 271.333 29.4667C273.2 30 276.667 32 279.2 33.7334ZM272.533 38C280.133 43.3334 282.667 54.8 278.267 63.3334C269.2 81.3334 244.667 74.6667 244.667 54.1334C244.667 38.6667 260.533 29.4667 272.533 38Z" fill="white"/>
<path d="M328.267 23.4667C322.533 24.5334 316.667 27.3334 316.667 29.0667C316.667 29.6 316 30.1334 315.333 30.1334C314.533 30.1334 314.267 28.6667 314.8 26.8C315.6 23.6 315.467 23.4667 308.133 23.4667H300.667V54.1334V84.8H307.867H315.2L315.6 64.8C316 45.2 316.133 44.8 319.6 41.3334C322.133 38.6667 324.8 37.6 329.867 37.0667L336.667 36.4V29.3334C336.667 21.6 336.933 21.7334 328.267 23.4667ZM313.333 32C315.333 33.0667 318 33.6 319.2 33.2C320.4 32.6667 319.6 34.1334 317.467 36.2667C311.467 42.2667 310 47.3334 310 61.3334C310 74.9334 309.067 79.6 307.2 76.5334C305.867 74.5334 305.6 32.2667 306.933 31.0667C308.133 29.7334 309.2 29.8667 313.333 32Z" fill="white"/>
<path d="M140.667 24.1334C140.667 24.5334 144 37.6 148 53.0667C152 68.5334 155.333 82 155.333 82.9334C155.333 84.4 157.6 84.8 164.4 84.8H173.333L177.733 67.7334C180.267 58.4 182.8 48.4 183.6 45.4667C185.333 39.0667 184.8 37.7334 192.133 65.7334L197.067 84.8H205.467H213.867L215.2 79.7334C216 77.0667 219.867 63.2 223.733 49.0667L230.933 23.4667H223.333H215.867L210.667 44.8C207.867 56.5334 205.333 66 205.067 65.7334C204.8 65.4667 202.4 56 199.6 44.6667L194.533 24.1334L185.333 23.7334L176 23.3334L170.8 44.8C166 64.2667 163.333 70.9334 163.333 63.0667C163.333 61.4667 161.467 51.8667 159.067 41.8667L154.667 23.4667H147.733C143.867 23.4667 140.667 23.7334 140.667 24.1334ZM188.267 29.8667C189.067 30.4 190.533 32.6667 191.333 34.8C193.067 39.0667 193.2 40 194.4 48.1334L195.2 53.4667L193.6 49.0667C192.667 46.5334 190.533 43.0667 188.8 41.3334C185.067 37.4667 182 38.6667 178.8 45.3334C177.6 47.8667 175.867 50.4 175.067 50.9334C174.133 51.6 174 51.3334 174.667 50.2667C175.2 49.3334 176.533 44.9334 177.467 40.4C178.533 36 180.133 31.4667 180.933 30.5334C182.533 28.6667 185.867 28.2667 188.267 29.8667ZM154.533 47.3334C159.467 67.6 163.733 72.6667 169.6 65.3334C172.133 62.1334 172.667 61.8667 172.667 64C172.667 68.8 169.467 76.9334 167.067 78.2667C162.267 80.8 159.733 77.6 156.8 65.2C153.067 49.6 153.2 50.2667 150.8 42.1334C148.4 34.1334 148 30.2667 149.867 32.1334C150.533 32.9334 152.533 39.7334 154.533 47.3334ZM222.267 32.1334C222.667 32.5334 221.2 39.0667 219.067 46.5334C216.933 54 214 64.1334 212.533 69.0667C210 77.7334 206.933 81.0667 203.333 78.8C201.067 77.3334 198.4 71.0667 197.467 64.8L196.533 58.8L200 63.8667C202.133 66.9334 204.4 68.8 205.733 68.5334C208.933 67.8667 213.467 58.9334 215.333 49.6C218.4 33.2 219.867 29.7334 222.267 32.1334Z" fill="white"/>
</svg>
