<svg width="396" height="109" viewBox="0 0 396 109" fill="none" xmlns="http://www.w3.org/2000/svg">
<path d="M107.507 8.63874C107.507 16.6749 107.922 17.249 112.349 17.249H117.192V54.5599V91.8709H112.349C107.922 91.8709 107.507 92.7319 107.507 99.62V107.656L121.62 107.082L135.594 106.795L135.871 99.333C136.009 92.7319 135.456 91.8709 131.028 91.8709H126.186L126.601 45.9497L127.016 0.0285229H117.192H107.507V8.63874Z" fill="white"/>
<path d="M140.713 8.63874C140.713 16.6749 141.128 17.249 145.971 17.249H151.09V54.5599V91.8709H145.833C140.99 91.8709 140.575 92.4449 140.99 99.333C141.405 106.795 141.405 106.795 155.656 107.082L169.769 107.656V99.62C169.769 92.7319 169.354 91.8709 164.927 91.8709H160.084V45.9497V0.0285229H150.399H140.713V8.63874Z" fill="white"/>
<path d="M184.297 7.2037C182.36 10.9348 180.838 17.536 180.838 21.5541C180.838 27.8682 180.285 28.7293 176.134 28.7293C171.706 28.7293 171.43 29.3033 171.706 36.4784C172.121 43.0796 172.951 44.8017 176.549 45.3757L180.838 46.2367V76.9465V107.656H185.681H190.523V76.6595V45.9497H196.75C202.699 45.9497 202.976 45.6627 202.976 37.3395C202.976 29.0163 202.699 28.7293 196.75 28.7293C191.492 28.7293 190.523 27.8682 190.523 22.9891C190.523 18.11 191.492 17.249 196.75 17.249C202.699 17.249 202.976 16.962 202.976 8.63874C202.976 0.0285229 202.838 0.0285229 195.366 0.0285229C189.001 0.0285229 187.064 1.17655 184.297 7.2037Z" fill="white"/>
<path d="M364.582 18.6837C365.274 37.9132 364.582 39.9222 360.154 33.0341C355.173 25.2849 347.425 27.5809 341.752 38.4872C337.186 47.0974 336.633 49.6805 336.079 64.8919C335.664 79.2422 336.079 83.5474 338.847 91.8706C344.243 108.517 355.588 113.396 361.261 101.916C363.752 96.4627 364.859 96.4627 364.859 101.629C364.859 103.925 366.657 106.221 369.009 106.795L373.16 108.23V53.9856V0.0282388H368.456H363.752L364.582 18.6837ZM358.494 46.2364C368.041 55.4206 365.135 91.8706 354.897 91.8706C345.765 91.8706 341.891 64.6049 348.947 50.2545C352.683 42.2183 353.651 41.6443 358.494 46.2364Z" fill="white"/>
<path d="M5.81117 67.7623L11.7607 107.082H17.5719H23.5214L26.7037 81.5386C28.5024 67.4753 30.0244 54.847 30.0244 53.4119C30.0244 46.2367 31.8231 56.282 34.7287 80.3906L37.7726 107.082H43.7221H49.6717L55.6212 67.7623L61.4324 28.4423L55.8979 29.3033L50.2251 30.1643L47.5963 54.56C46.2127 68.0493 44.6907 80.9646 44.2756 83.2607C43.8605 85.5567 41.9235 74.3634 39.9864 58.004L36.389 28.7293H30.7162H25.0434L21.446 58.004C19.5089 74.3634 17.7102 85.5567 17.2952 83.2607C16.8801 80.9646 15.3581 68.0493 13.9745 54.56L11.3456 30.1643L5.67281 29.3033L0 28.4423L5.81117 67.7623Z" fill="white"/>
<path d="M74.1616 33.0342C63.2311 45.3755 61.8475 81.5384 71.5328 98.4718C79.5577 112.822 91.8719 110.813 98.5132 94.4537C103.079 82.9734 102.941 80.3904 97.4063 80.3904C94.5007 80.3904 92.4253 82.3994 91.18 86.1305C88.6895 94.4537 79.4193 94.1667 76.5138 85.5565C72.0862 72.6412 73.1931 71.2061 88.1361 72.3542L101.972 73.2152V63.7439C101.972 51.6896 98.6516 39.6353 93.6705 33.3212C88.9663 27.581 79.0043 27.581 74.1616 33.0342ZM89.7964 47.9585C94.6391 57.1428 92.9787 60.2999 83.1551 60.2999C73.7465 60.2999 73.4698 59.4388 78.1741 47.9585C80.803 41.6444 86.4758 41.6444 89.7964 47.9585Z" fill="white"/>
<path d="M214.46 34.4695C201.869 50.2549 203.114 91.5839 216.397 103.925C234.799 120.859 250.157 83.8347 240.887 45.6627C237.013 29.8773 222.762 23.8502 214.46 34.4695ZM228.434 46.2368C237.981 55.421 235.076 91.8709 224.837 91.8709C215.705 91.8709 211.831 64.6052 218.887 50.2549C222.623 42.2187 223.592 41.6446 228.434 46.2368Z" fill="white"/>
<path d="M250.019 55.1338C250.019 84.9825 252.371 99.0459 258.32 105.647C262.61 110.239 270.22 108.23 273.679 101.629C276.169 97.0368 276.307 97.0368 276.307 101.342C276.307 104.499 277.414 106.221 279.766 106.221C281.704 106.221 283.502 106.221 283.917 106.221C284.332 106.221 284.886 88.7136 285.024 67.4751L285.301 28.7291H280.32H275.477L276.031 45.9495C277.138 76.6593 274.232 91.8707 267.314 91.8707C261.641 91.8707 259.704 82.1125 259.704 53.9857V28.7291H254.861H250.019V55.1338Z" fill="white"/>
<path d="M294.294 68.0492V107.656H299.137H303.98V82.6866C303.98 69.1973 304.395 55.7079 304.81 53.1249C306.332 45.3757 312.143 42.2186 315.879 47.3847C318.784 51.4028 319.199 53.9859 319.476 79.5295L319.891 107.082L324.457 107.369L328.885 107.656V79.5295C328.885 40.4965 325.702 28.7293 314.772 28.7293C312.143 28.7293 308.822 30.7383 307.3 33.0344C303.841 38.4875 302.458 38.4875 303.426 33.0344C304.118 29.5903 303.15 28.7293 299.275 28.7293H294.294V68.0492Z" fill="white"/>
<path d="M384.506 32.173C380.632 40.2092 383.538 54.5596 389.072 54.5596C392.808 54.5596 395.298 49.3934 395.298 41.6442C395.298 33.895 392.808 28.7289 389.072 28.7289C387.412 28.7289 385.475 30.164 384.506 32.173Z" fill="white"/>
<path d="M384.229 87.5656C381.877 93.3057 383.537 105.36 386.996 107.656C393.084 111.674 398.065 95.8888 393.638 86.7045C391.286 81.8254 386.305 82.3994 384.229 87.5656Z" fill="white"/>
</svg>
